<?xml version="1.0" encoding="utf-8" standalone="no"?>
<!DOCTYPE svg PUBLIC "-//W3C//DTD SVG 1.1//EN"
  "http://www.w3.org/Graphics/SVG/1.1/DTD/svg11.dtd">
<svg xmlns:xlink="http://www.w3.org/1999/xlink" width="720pt" height="432pt" viewBox="0 0 720 432" xmlns="http://www.w3.org/2000/svg" version="1.1">
 <metadata>
  <rdf:RDF xmlns:dc="http://purl.org/dc/elements/1.1/" xmlns:cc="http://creativecommons.org/ns#" xmlns:rdf="http://www.w3.org/1999/02/22-rdf-syntax-ns#">
   <cc:Work>
    <dc:type rdf:resource="http://purl.org/dc/dcmitype/StillImage"/>
    <dc:date>2025-07-04T23:19:18.330177</dc:date>
    <dc:format>image/svg+xml</dc:format>
    <dc:creator>
     <cc:Agent>
      <dc:title>Matplotlib v3.7.5, https://matplotlib.org/</dc:title>
     </cc:Agent>
    </dc:creator>
   </cc:Work>
  </rdf:RDF>
 </metadata>
 <defs>
  <style type="text/css">*{stroke-linejoin: round; stroke-linecap: butt}</style>
 </defs>
 <g id="figure_1">
  <g id="patch_1">
   <path d="M 0 432 
L 720 432 
L 720 0 
L 0 0 
z
" style="fill: #ffffff"/>
  </g>
  <g id="axes_1">
   <g id="patch_2">
    <path d="M 102.991484 359.4885 
L 709.2 359.4885 
L 709.2 10.8 
L 102.991484 10.8 
z
" style="fill: #ffffff"/>
   </g>
   <g id="matplotlib.axis_1">
    <g id="xtick_1">
     <g id="line2d_1">
      <defs>
       <path id="mf78fd56a72" d="M 0 0 
L 0 -6 
" style="stroke: #000000"/>
      </defs>
      <g>
       <use xlink:href="#mf78fd56a72" x="129.933062" y="359.4885" style="stroke: #000000"/>
      </g>
     </g>
     <g id="line2d_2">
      <defs>
       <path id="medc2cc0382" d="M 0 0 
L 0 6 
" style="stroke: #000000"/>
      </defs>
      <g>
       <use xlink:href="#medc2cc0382" x="129.933062" y="10.8" style="stroke: #000000"/>
      </g>
     </g>
     <g id="text_1">
      <!-- 0 -->
      <g transform="translate(121.661812 382.744438) scale(0.26 -0.26)">
       <defs>
        <path id="DejaVuSerif-30" d="M 2034 219 
Q 2513 219 2750 744 
Q 2988 1269 2988 2328 
Q 2988 3391 2750 3916 
Q 2513 4441 2034 4441 
Q 1556 4441 1318 3916 
Q 1081 3391 1081 2328 
Q 1081 1269 1318 744 
Q 1556 219 2034 219 
z
M 2034 -91 
Q 1275 -91 848 546 
Q 422 1184 422 2328 
Q 422 3475 848 4112 
Q 1275 4750 2034 4750 
Q 2797 4750 3222 4112 
Q 3647 3475 3647 2328 
Q 3647 1184 3222 546 
Q 2797 -91 2034 -91 
z
" transform="scale(0.015625)"/>
       </defs>
       <use xlink:href="#DejaVuSerif-30"/>
      </g>
     </g>
    </g>
    <g id="xtick_2">
     <g id="line2d_3">
      <g>
       <use xlink:href="#mf78fd56a72" x="217.555075" y="359.4885" style="stroke: #000000"/>
      </g>
     </g>
     <g id="line2d_4">
      <g>
       <use xlink:href="#medc2cc0382" x="217.555075" y="10.8" style="stroke: #000000"/>
      </g>
     </g>
     <g id="text_2">
      <!-- 60 -->
      <g transform="translate(201.012575 382.744438) scale(0.26 -0.26)">
       <defs>
        <path id="DejaVuSerif-36" d="M 2094 219 
Q 2534 219 2771 542 
Q 3009 866 3009 1472 
Q 3009 2078 2771 2401 
Q 2534 2725 2094 2725 
Q 1647 2725 1412 2412 
Q 1178 2100 1178 1509 
Q 1178 888 1415 553 
Q 1653 219 2094 219 
z
M 1075 2569 
Q 1288 2803 1556 2918 
Q 1825 3034 2163 3034 
Q 2859 3034 3264 2615 
Q 3669 2197 3669 1472 
Q 3669 763 3233 336 
Q 2797 -91 2069 -91 
Q 1278 -91 853 498 
Q 428 1088 428 2181 
Q 428 3406 931 4078 
Q 1434 4750 2350 4750 
Q 2597 4750 2869 4703 
Q 3141 4656 3425 4563 
L 3425 3794 
L 3072 3794 
Q 3034 4109 2831 4275 
Q 2628 4441 2284 4441 
Q 1678 4441 1381 3981 
Q 1084 3522 1075 2569 
z
" transform="scale(0.015625)"/>
       </defs>
       <use xlink:href="#DejaVuSerif-36"/>
       <use xlink:href="#DejaVuSerif-30" x="63.623047"/>
      </g>
     </g>
    </g>
    <g id="xtick_3">
     <g id="line2d_5">
      <g>
       <use xlink:href="#mf78fd56a72" x="305.177088" y="359.4885" style="stroke: #000000"/>
      </g>
     </g>
     <g id="line2d_6">
      <g>
       <use xlink:href="#medc2cc0382" x="305.177088" y="10.8" style="stroke: #000000"/>
      </g>
     </g>
     <g id="text_3">
      <!-- 120 -->
      <g transform="translate(280.363338 382.744438) scale(0.26 -0.26)">
       <defs>
        <path id="DejaVuSerif-31" d="M 909 0 
L 909 331 
L 1722 331 
L 1722 4213 
L 781 3603 
L 781 4013 
L 1919 4750 
L 2350 4750 
L 2350 331 
L 3163 331 
L 3163 0 
L 909 0 
z
" transform="scale(0.015625)"/>
        <path id="DejaVuSerif-32" d="M 819 3553 
L 469 3553 
L 469 4384 
Q 803 4563 1142 4656 
Q 1481 4750 1806 4750 
Q 2534 4750 2956 4397 
Q 3378 4044 3378 3438 
Q 3378 2753 2422 1800 
Q 2347 1728 2309 1691 
L 1131 513 
L 3078 513 
L 3078 1088 
L 3444 1088 
L 3444 0 
L 434 0 
L 434 341 
L 1850 1753 
Q 2319 2222 2519 2614 
Q 2719 3006 2719 3438 
Q 2719 3909 2473 4175 
Q 2228 4441 1797 4441 
Q 1350 4441 1106 4219 
Q 863 3997 819 3553 
z
" transform="scale(0.015625)"/>
       </defs>
       <use xlink:href="#DejaVuSerif-31"/>
       <use xlink:href="#DejaVuSerif-32" x="63.623047"/>
       <use xlink:href="#DejaVuSerif-30" x="127.246094"/>
      </g>
     </g>
    </g>
    <g id="xtick_4">
     <g id="line2d_7">
      <g>
       <use xlink:href="#mf78fd56a72" x="392.799101" y="359.4885" style="stroke: #000000"/>
      </g>
     </g>
     <g id="line2d_8">
      <g>
       <use xlink:href="#medc2cc0382" x="392.799101" y="10.8" style="stroke: #000000"/>
      </g>
     </g>
     <g id="text_4">
      <!-- 180 -->
      <g transform="translate(367.985351 382.744438) scale(0.26 -0.26)">
       <defs>
        <path id="DejaVuSerif-38" d="M 2981 1275 
Q 2981 1775 2732 2051 
Q 2484 2328 2034 2328 
Q 1584 2328 1336 2051 
Q 1088 1775 1088 1275 
Q 1088 772 1336 495 
Q 1584 219 2034 219 
Q 2484 219 2732 495 
Q 2981 772 2981 1275 
z
M 2853 3541 
Q 2853 3966 2637 4203 
Q 2422 4441 2034 4441 
Q 1650 4441 1433 4203 
Q 1216 3966 1216 3541 
Q 1216 3113 1433 2875 
Q 1650 2638 2034 2638 
Q 2422 2638 2637 2875 
Q 2853 3113 2853 3541 
z
M 2516 2484 
Q 3047 2413 3344 2092 
Q 3641 1772 3641 1275 
Q 3641 619 3225 264 
Q 2809 -91 2034 -91 
Q 1263 -91 845 264 
Q 428 619 428 1275 
Q 428 1772 725 2092 
Q 1022 2413 1556 2484 
Q 1084 2569 832 2842 
Q 581 3116 581 3541 
Q 581 4103 968 4426 
Q 1356 4750 2034 4750 
Q 2713 4750 3100 4426 
Q 3488 4103 3488 3541 
Q 3488 3116 3236 2842 
Q 2984 2569 2516 2484 
z
" transform="scale(0.015625)"/>
       </defs>
       <use xlink:href="#DejaVuSerif-31"/>
       <use xlink:href="#DejaVuSerif-38" x="63.623047"/>
       <use xlink:href="#DejaVuSerif-30" x="127.246094"/>
      </g>
     </g>
    </g>
    <g id="xtick_5">
     <g id="line2d_9">
      <g>
       <use xlink:href="#mf78fd56a72" x="480.421114" y="359.4885" style="stroke: #000000"/>
      </g>
     </g>
     <g id="line2d_10">
      <g>
       <use xlink:href="#medc2cc0382" x="480.421114" y="10.8" style="stroke: #000000"/>
      </g>
     </g>
     <g id="text_5">
      <!-- 240 -->
      <g transform="translate(455.607364 382.744438) scale(0.26 -0.26)">
       <defs>
        <path id="DejaVuSerif-34" d="M 2234 1581 
L 2234 4063 
L 641 1581 
L 2234 1581 
z
M 3609 0 
L 1484 0 
L 1484 331 
L 2234 331 
L 2234 1247 
L 197 1247 
L 197 1588 
L 2241 4750 
L 2859 4750 
L 2859 1581 
L 3750 1581 
L 3750 1247 
L 2859 1247 
L 2859 331 
L 3609 331 
L 3609 0 
z
" transform="scale(0.015625)"/>
       </defs>
       <use xlink:href="#DejaVuSerif-32"/>
       <use xlink:href="#DejaVuSerif-34" x="63.623047"/>
       <use xlink:href="#DejaVuSerif-30" x="127.246094"/>
      </g>
     </g>
    </g>
    <g id="xtick_6">
     <g id="line2d_11">
      <g>
       <use xlink:href="#mf78fd56a72" x="568.043127" y="359.4885" style="stroke: #000000"/>
      </g>
     </g>
     <g id="line2d_12">
      <g>
       <use xlink:href="#medc2cc0382" x="568.043127" y="10.8" style="stroke: #000000"/>
      </g>
     </g>
     <g id="text_6">
      <!-- 300 -->
      <g transform="translate(543.229377 382.744438) scale(0.26 -0.26)">
       <defs>
        <path id="DejaVuSerif-33" d="M 622 4469 
Q 988 4606 1323 4678 
Q 1659 4750 1953 4750 
Q 2638 4750 3022 4454 
Q 3406 4159 3406 3634 
Q 3406 3213 3140 2930 
Q 2875 2647 2388 2547 
Q 2963 2466 3280 2130 
Q 3597 1794 3597 1259 
Q 3597 606 3158 257 
Q 2719 -91 1894 -91 
Q 1528 -91 1179 -12 
Q 831 66 488 225 
L 488 1131 
L 838 1131 
Q 869 681 1141 450 
Q 1413 219 1906 219 
Q 2384 219 2661 495 
Q 2938 772 2938 1253 
Q 2938 1803 2653 2086 
Q 2369 2369 1819 2369 
L 1522 2369 
L 1522 2688 
L 1678 2688 
Q 2225 2688 2498 2914 
Q 2772 3141 2772 3597 
Q 2772 4006 2547 4223 
Q 2322 4441 1900 4441 
Q 1478 4441 1245 4241 
Q 1013 4041 972 3647 
L 622 3647 
L 622 4469 
z
" transform="scale(0.015625)"/>
       </defs>
       <use xlink:href="#DejaVuSerif-33"/>
       <use xlink:href="#DejaVuSerif-30" x="63.623047"/>
       <use xlink:href="#DejaVuSerif-30" x="127.246094"/>
      </g>
     </g>
    </g>
    <g id="xtick_7">
     <g id="line2d_13">
      <g>
       <use xlink:href="#mf78fd56a72" x="655.665141" y="359.4885" style="stroke: #000000"/>
      </g>
     </g>
     <g id="line2d_14">
      <g>
       <use xlink:href="#medc2cc0382" x="655.665141" y="10.8" style="stroke: #000000"/>
      </g>
     </g>
     <g id="text_7">
      <!-- 360 -->
      <g transform="translate(630.851391 382.744438) scale(0.26 -0.26)">
       <use xlink:href="#DejaVuSerif-33"/>
       <use xlink:href="#DejaVuSerif-36" x="63.623047"/>
       <use xlink:href="#DejaVuSerif-30" x="127.246094"/>
      </g>
     </g>
    </g>
    <g id="text_8">
     <!-- Iteration ($\times 10^3$) -->
     <g transform="translate(300.405742 414.564437) scale(0.26 -0.26)">
      <defs>
       <path id="DejaVuSerif-49" d="M 1581 331 
L 2175 331 
L 2175 0 
L 353 0 
L 353 331 
L 947 331 
L 947 4331 
L 353 4331 
L 353 4666 
L 2175 4666 
L 2175 4331 
L 1581 4331 
L 1581 331 
z
" transform="scale(0.015625)"/>
       <path id="DejaVuSerif-74" d="M 691 2988 
L 184 2988 
L 184 3322 
L 691 3322 
L 691 4353 
L 1269 4353 
L 1269 3322 
L 2350 3322 
L 2350 2988 
L 1269 2988 
L 1269 878 
Q 1269 456 1350 337 
Q 1431 219 1650 219 
Q 1875 219 1978 351 
Q 2081 484 2088 781 
L 2522 781 
Q 2497 328 2275 118 
Q 2053 -91 1600 -91 
Q 1103 -91 897 129 
Q 691 350 691 878 
L 691 2988 
z
" transform="scale(0.015625)"/>
       <path id="DejaVuSerif-65" d="M 3469 1600 
L 991 1600 
L 991 1575 
Q 991 903 1244 561 
Q 1497 219 1991 219 
Q 2369 219 2611 417 
Q 2853 616 2950 1006 
L 3413 1006 
Q 3275 459 2904 184 
Q 2534 -91 1931 -91 
Q 1203 -91 761 389 
Q 319 869 319 1663 
Q 319 2450 753 2931 
Q 1188 3413 1894 3413 
Q 2647 3413 3050 2948 
Q 3453 2484 3469 1600 
z
M 2791 1931 
Q 2772 2513 2545 2808 
Q 2319 3103 1894 3103 
Q 1497 3103 1269 2806 
Q 1041 2509 991 1931 
L 2791 1931 
z
" transform="scale(0.015625)"/>
       <path id="DejaVuSerif-72" d="M 3059 3328 
L 3059 2497 
L 2728 2497 
Q 2713 2744 2591 2866 
Q 2469 2988 2234 2988 
Q 1809 2988 1582 2694 
Q 1356 2400 1356 1850 
L 1356 331 
L 2022 331 
L 2022 0 
L 263 0 
L 263 331 
L 781 331 
L 781 2994 
L 231 2994 
L 231 3322 
L 1356 3322 
L 1356 2731 
Q 1525 3078 1790 3245 
Q 2056 3413 2438 3413 
Q 2578 3413 2733 3391 
Q 2888 3369 3059 3328 
z
" transform="scale(0.015625)"/>
       <path id="DejaVuSerif-61" d="M 2547 1044 
L 2547 1747 
L 1806 1747 
Q 1378 1747 1168 1562 
Q 959 1378 959 997 
Q 959 650 1171 447 
Q 1384 244 1747 244 
Q 2106 244 2326 466 
Q 2547 688 2547 1044 
z
M 3122 2075 
L 3122 331 
L 3634 331 
L 3634 0 
L 2547 0 
L 2547 359 
Q 2356 128 2106 18 
Q 1856 -91 1522 -91 
Q 969 -91 644 203 
Q 319 497 319 997 
Q 319 1513 691 1797 
Q 1063 2081 1741 2081 
L 2547 2081 
L 2547 2309 
Q 2547 2688 2317 2895 
Q 2088 3103 1672 3103 
Q 1328 3103 1125 2947 
Q 922 2791 872 2484 
L 575 2484 
L 575 3156 
Q 875 3284 1158 3348 
Q 1441 3413 1709 3413 
Q 2400 3413 2761 3070 
Q 3122 2728 3122 2075 
z
" transform="scale(0.015625)"/>
       <path id="DejaVuSerif-69" d="M 622 4353 
Q 622 4497 726 4603 
Q 831 4709 978 4709 
Q 1122 4709 1226 4603 
Q 1331 4497 1331 4353 
Q 1331 4206 1228 4103 
Q 1125 4000 978 4000 
Q 831 4000 726 4103 
Q 622 4206 622 4353 
z
M 1356 331 
L 1900 331 
L 1900 0 
L 231 0 
L 231 331 
L 781 331 
L 781 2988 
L 231 2988 
L 231 3322 
L 1356 3322 
L 1356 331 
z
" transform="scale(0.015625)"/>
       <path id="DejaVuSerif-6f" d="M 1925 219 
Q 2388 219 2623 584 
Q 2859 950 2859 1663 
Q 2859 2375 2623 2739 
Q 2388 3103 1925 3103 
Q 1463 3103 1227 2739 
Q 991 2375 991 1663 
Q 991 950 1228 584 
Q 1466 219 1925 219 
z
M 1925 -91 
Q 1200 -91 759 389 
Q 319 869 319 1663 
Q 319 2456 758 2934 
Q 1197 3413 1925 3413 
Q 2653 3413 3092 2934 
Q 3531 2456 3531 1663 
Q 3531 869 3092 389 
Q 2653 -91 1925 -91 
z
" transform="scale(0.015625)"/>
       <path id="DejaVuSerif-6e" d="M 263 0 
L 263 331 
L 781 331 
L 781 2988 
L 231 2988 
L 231 3322 
L 1356 3322 
L 1356 2731 
Q 1516 3069 1770 3241 
Q 2025 3413 2363 3413 
Q 2913 3413 3172 3097 
Q 3431 2781 3431 2113 
L 3431 331 
L 3944 331 
L 3944 0 
L 2356 0 
L 2356 331 
L 2853 331 
L 2853 1931 
Q 2853 2541 2703 2767 
Q 2553 2994 2175 2994 
Q 1775 2994 1565 2701 
Q 1356 2409 1356 1850 
L 1356 331 
L 1856 331 
L 1856 0 
L 263 0 
z
" transform="scale(0.015625)"/>
       <path id="DejaVuSerif-20" transform="scale(0.015625)"/>
       <path id="DejaVuSerif-28" d="M 2041 -997 
Q 1281 -656 893 83 
Q 506 822 506 1931 
Q 506 3044 893 3783 
Q 1281 4522 2041 4863 
L 2041 4556 
Q 1559 4225 1350 3623 
Q 1141 3022 1141 1931 
Q 1141 844 1350 242 
Q 1559 -359 2041 -691 
L 2041 -997 
z
" transform="scale(0.015625)"/>
       <path id="DejaVuSans-d7" d="M 4488 3438 
L 3059 2003 
L 4488 575 
L 4116 197 
L 2681 1631 
L 1247 197 
L 878 575 
L 2303 2003 
L 878 3438 
L 1247 3816 
L 2681 2381 
L 4116 3816 
L 4488 3438 
z
" transform="scale(0.015625)"/>
       <path id="DejaVuSans-31" d="M 794 531 
L 1825 531 
L 1825 4091 
L 703 3866 
L 703 4441 
L 1819 4666 
L 2450 4666 
L 2450 531 
L 3481 531 
L 3481 0 
L 794 0 
L 794 531 
z
" transform="scale(0.015625)"/>
       <path id="DejaVuSans-30" d="M 2034 4250 
Q 1547 4250 1301 3770 
Q 1056 3291 1056 2328 
Q 1056 1369 1301 889 
Q 1547 409 2034 409 
Q 2525 409 2770 889 
Q 3016 1369 3016 2328 
Q 3016 3291 2770 3770 
Q 2525 4250 2034 4250 
z
M 2034 4750 
Q 2819 4750 3233 4129 
Q 3647 3509 3647 2328 
Q 3647 1150 3233 529 
Q 2819 -91 2034 -91 
Q 1250 -91 836 529 
Q 422 1150 422 2328 
Q 422 3509 836 4129 
Q 1250 4750 2034 4750 
z
" transform="scale(0.015625)"/>
       <path id="DejaVuSans-33" d="M 2597 2516 
Q 3050 2419 3304 2112 
Q 3559 1806 3559 1356 
Q 3559 666 3084 287 
Q 2609 -91 1734 -91 
Q 1441 -91 1130 -33 
Q 819 25 488 141 
L 488 750 
Q 750 597 1062 519 
Q 1375 441 1716 441 
Q 2309 441 2620 675 
Q 2931 909 2931 1356 
Q 2931 1769 2642 2001 
Q 2353 2234 1838 2234 
L 1294 2234 
L 1294 2753 
L 1863 2753 
Q 2328 2753 2575 2939 
Q 2822 3125 2822 3475 
Q 2822 3834 2567 4026 
Q 2313 4219 1838 4219 
Q 1578 4219 1281 4162 
Q 984 4106 628 3988 
L 628 4550 
Q 988 4650 1302 4700 
Q 1616 4750 1894 4750 
Q 2613 4750 3031 4423 
Q 3450 4097 3450 3541 
Q 3450 3153 3228 2886 
Q 3006 2619 2597 2516 
z
" transform="scale(0.015625)"/>
       <path id="DejaVuSerif-29" d="M 453 -997 
L 453 -691 
Q 934 -359 1145 242 
Q 1356 844 1356 1931 
Q 1356 3022 1145 3623 
Q 934 4225 453 4556 
L 453 4863 
Q 1216 4522 1603 3783 
Q 1991 3044 1991 1931 
Q 1991 822 1603 83 
Q 1216 -656 453 -997 
z
" transform="scale(0.015625)"/>
      </defs>
      <use xlink:href="#DejaVuSerif-49" transform="translate(0 0.765625)"/>
      <use xlink:href="#DejaVuSerif-74" transform="translate(39.501953 0.765625)"/>
      <use xlink:href="#DejaVuSerif-65" transform="translate(79.6875 0.765625)"/>
      <use xlink:href="#DejaVuSerif-72" transform="translate(138.867188 0.765625)"/>
      <use xlink:href="#DejaVuSerif-61" transform="translate(186.669922 0.765625)"/>
      <use xlink:href="#DejaVuSerif-74" transform="translate(246.289062 0.765625)"/>
      <use xlink:href="#DejaVuSerif-69" transform="translate(286.474609 0.765625)"/>
      <use xlink:href="#DejaVuSerif-6f" transform="translate(318.457031 0.765625)"/>
      <use xlink:href="#DejaVuSerif-6e" transform="translate(378.662109 0.765625)"/>
      <use xlink:href="#DejaVuSerif-20" transform="translate(443.066406 0.765625)"/>
      <use xlink:href="#DejaVuSerif-28" transform="translate(474.853516 0.765625)"/>
      <use xlink:href="#DejaVuSans-d7" transform="translate(513.867188 0.765625)"/>
      <use xlink:href="#DejaVuSans-31" transform="translate(597.65625 0.765625)"/>
      <use xlink:href="#DejaVuSans-30" transform="translate(661.279297 0.765625)"/>
      <use xlink:href="#DejaVuSans-33" transform="translate(725.859375 39.046875) scale(0.7)"/>
      <use xlink:href="#DejaVuSerif-29" transform="translate(773.129883 0.765625)"/>
     </g>
    </g>
   </g>
   <g id="matplotlib.axis_2">
    <g id="ytick_1">
     <g id="line2d_15">
      <defs>
       <path id="md1beb68d55" d="M 0 0 
L 6 0 
" style="stroke: #000000"/>
      </defs>
      <g>
       <use xlink:href="#md1beb68d55" x="102.991484" y="283.422147" style="stroke: #000000"/>
      </g>
     </g>
     <g id="line2d_16">
      <defs>
       <path id="m69c82178ef" d="M 0 0 
L -6 0 
" style="stroke: #000000"/>
      </defs>
      <g>
       <use xlink:href="#m69c82178ef" x="709.2" y="283.422147" style="stroke: #000000"/>
      </g>
     </g>
     <g id="text_9">
      <!-- $\mathdefault{10^{-3}}$ -->
      <g transform="translate(38.651484 293.300115) scale(0.26 -0.26)">
       <defs>
        <path id="DejaVuSerif-2212" d="M 678 2259 
L 4684 2259 
L 4684 1753 
L 678 1753 
L 678 2259 
z
" transform="scale(0.015625)"/>
       </defs>
       <use xlink:href="#DejaVuSerif-31" transform="translate(0 0.7125)"/>
       <use xlink:href="#DejaVuSerif-30" transform="translate(63.623047 0.7125)"/>
       <use xlink:href="#DejaVuSerif-2212" transform="translate(128.154453 37.046875) scale(0.7)"/>
       <use xlink:href="#DejaVuSerif-33" transform="translate(186.806797 37.046875) scale(0.7)"/>
      </g>
     </g>
    </g>
    <g id="ytick_2">
     <g id="line2d_17">
      <g>
       <use xlink:href="#md1beb68d55" x="102.991484" y="198.827476" style="stroke: #000000"/>
      </g>
     </g>
     <g id="line2d_18">
      <g>
       <use xlink:href="#m69c82178ef" x="709.2" y="198.827476" style="stroke: #000000"/>
      </g>
     </g>
     <g id="text_10">
      <!-- $\mathdefault{10^{-2}}$ -->
      <g transform="translate(38.651484 208.705445) scale(0.26 -0.26)">
       <use xlink:href="#DejaVuSerif-31" transform="translate(0 0.7125)"/>
       <use xlink:href="#DejaVuSerif-30" transform="translate(63.623047 0.7125)"/>
       <use xlink:href="#DejaVuSerif-2212" transform="translate(128.154453 37.046875) scale(0.7)"/>
       <use xlink:href="#DejaVuSerif-32" transform="translate(186.806797 37.046875) scale(0.7)"/>
      </g>
     </g>
    </g>
    <g id="ytick_3">
     <g id="line2d_19">
      <g>
       <use xlink:href="#md1beb68d55" x="102.991484" y="114.232805" style="stroke: #000000"/>
      </g>
     </g>
     <g id="line2d_20">
      <g>
       <use xlink:href="#m69c82178ef" x="709.2" y="114.232805" style="stroke: #000000"/>
      </g>
     </g>
     <g id="text_11">
      <!-- $\mathdefault{10^{-1}}$ -->
      <g transform="translate(38.651484 124.110774) scale(0.26 -0.26)">
       <use xlink:href="#DejaVuSerif-31" transform="translate(0 0.7125)"/>
       <use xlink:href="#DejaVuSerif-30" transform="translate(63.623047 0.7125)"/>
       <use xlink:href="#DejaVuSerif-2212" transform="translate(128.154453 37.046875) scale(0.7)"/>
       <use xlink:href="#DejaVuSerif-31" transform="translate(186.806797 37.046875) scale(0.7)"/>
      </g>
     </g>
    </g>
    <g id="ytick_4">
     <g id="line2d_21">
      <g>
       <use xlink:href="#md1beb68d55" x="102.991484" y="29.638135" style="stroke: #000000"/>
      </g>
     </g>
     <g id="line2d_22">
      <g>
       <use xlink:href="#m69c82178ef" x="709.2" y="29.638135" style="stroke: #000000"/>
      </g>
     </g>
     <g id="text_12">
      <!-- $\mathdefault{10^{0}}$ -->
      <g transform="translate(53.731484 39.516103) scale(0.26 -0.26)">
       <use xlink:href="#DejaVuSerif-31" transform="translate(0 0.7125)"/>
       <use xlink:href="#DejaVuSerif-30" transform="translate(63.623047 0.7125)"/>
       <use xlink:href="#DejaVuSerif-30" transform="translate(128.154453 37.046875) scale(0.7)"/>
      </g>
     </g>
    </g>
    <g id="ytick_5">
     <g id="line2d_23">
      <g>
       <use xlink:href="#md1beb68d55" x="102.991484" y="342.551284" style="stroke: #000000"/>
      </g>
     </g>
     <g id="line2d_24">
      <g>
       <use xlink:href="#m69c82178ef" x="709.2" y="342.551284" style="stroke: #000000"/>
      </g>
     </g>
    </g>
    <g id="ytick_6">
     <g id="line2d_25">
      <g>
       <use xlink:href="#md1beb68d55" x="102.991484" y="327.654902" style="stroke: #000000"/>
      </g>
     </g>
     <g id="line2d_26">
      <g>
       <use xlink:href="#m69c82178ef" x="709.2" y="327.654902" style="stroke: #000000"/>
      </g>
     </g>
    </g>
    <g id="ytick_7">
     <g id="line2d_27">
      <g>
       <use xlink:href="#md1beb68d55" x="102.991484" y="317.085751" style="stroke: #000000"/>
      </g>
     </g>
     <g id="line2d_28">
      <g>
       <use xlink:href="#m69c82178ef" x="709.2" y="317.085751" style="stroke: #000000"/>
      </g>
     </g>
    </g>
    <g id="ytick_8">
     <g id="line2d_29">
      <g>
       <use xlink:href="#md1beb68d55" x="102.991484" y="308.88768" style="stroke: #000000"/>
      </g>
     </g>
     <g id="line2d_30">
      <g>
       <use xlink:href="#m69c82178ef" x="709.2" y="308.88768" style="stroke: #000000"/>
      </g>
     </g>
    </g>
    <g id="ytick_9">
     <g id="line2d_31">
      <g>
       <use xlink:href="#md1beb68d55" x="102.991484" y="302.189369" style="stroke: #000000"/>
      </g>
     </g>
     <g id="line2d_32">
      <g>
       <use xlink:href="#m69c82178ef" x="709.2" y="302.189369" style="stroke: #000000"/>
      </g>
     </g>
    </g>
    <g id="ytick_10">
     <g id="line2d_33">
      <g>
       <use xlink:href="#md1beb68d55" x="102.991484" y="296.526027" style="stroke: #000000"/>
      </g>
     </g>
     <g id="line2d_34">
      <g>
       <use xlink:href="#m69c82178ef" x="709.2" y="296.526027" style="stroke: #000000"/>
      </g>
     </g>
    </g>
    <g id="ytick_11">
     <g id="line2d_35">
      <g>
       <use xlink:href="#md1beb68d55" x="102.991484" y="291.620217" style="stroke: #000000"/>
      </g>
     </g>
     <g id="line2d_36">
      <g>
       <use xlink:href="#m69c82178ef" x="709.2" y="291.620217" style="stroke: #000000"/>
      </g>
     </g>
    </g>
    <g id="ytick_12">
     <g id="line2d_37">
      <g>
       <use xlink:href="#md1beb68d55" x="102.991484" y="287.292987" style="stroke: #000000"/>
      </g>
     </g>
     <g id="line2d_38">
      <g>
       <use xlink:href="#m69c82178ef" x="709.2" y="287.292987" style="stroke: #000000"/>
      </g>
     </g>
    </g>
    <g id="ytick_13">
     <g id="line2d_39">
      <g>
       <use xlink:href="#md1beb68d55" x="102.991484" y="257.956613" style="stroke: #000000"/>
      </g>
     </g>
     <g id="line2d_40">
      <g>
       <use xlink:href="#m69c82178ef" x="709.2" y="257.956613" style="stroke: #000000"/>
      </g>
     </g>
    </g>
    <g id="ytick_14">
     <g id="line2d_41">
      <g>
       <use xlink:href="#md1beb68d55" x="102.991484" y="243.060231" style="stroke: #000000"/>
      </g>
     </g>
     <g id="line2d_42">
      <g>
       <use xlink:href="#m69c82178ef" x="709.2" y="243.060231" style="stroke: #000000"/>
      </g>
     </g>
    </g>
    <g id="ytick_15">
     <g id="line2d_43">
      <g>
       <use xlink:href="#md1beb68d55" x="102.991484" y="232.49108" style="stroke: #000000"/>
      </g>
     </g>
     <g id="line2d_44">
      <g>
       <use xlink:href="#m69c82178ef" x="709.2" y="232.49108" style="stroke: #000000"/>
      </g>
     </g>
    </g>
    <g id="ytick_16">
     <g id="line2d_45">
      <g>
       <use xlink:href="#md1beb68d55" x="102.991484" y="224.293009" style="stroke: #000000"/>
      </g>
     </g>
     <g id="line2d_46">
      <g>
       <use xlink:href="#m69c82178ef" x="709.2" y="224.293009" style="stroke: #000000"/>
      </g>
     </g>
    </g>
    <g id="ytick_17">
     <g id="line2d_47">
      <g>
       <use xlink:href="#md1beb68d55" x="102.991484" y="217.594698" style="stroke: #000000"/>
      </g>
     </g>
     <g id="line2d_48">
      <g>
       <use xlink:href="#m69c82178ef" x="709.2" y="217.594698" style="stroke: #000000"/>
      </g>
     </g>
    </g>
    <g id="ytick_18">
     <g id="line2d_49">
      <g>
       <use xlink:href="#md1beb68d55" x="102.991484" y="211.931356" style="stroke: #000000"/>
      </g>
     </g>
     <g id="line2d_50">
      <g>
       <use xlink:href="#m69c82178ef" x="709.2" y="211.931356" style="stroke: #000000"/>
      </g>
     </g>
    </g>
    <g id="ytick_19">
     <g id="line2d_51">
      <g>
       <use xlink:href="#md1beb68d55" x="102.991484" y="207.025547" style="stroke: #000000"/>
      </g>
     </g>
     <g id="line2d_52">
      <g>
       <use xlink:href="#m69c82178ef" x="709.2" y="207.025547" style="stroke: #000000"/>
      </g>
     </g>
    </g>
    <g id="ytick_20">
     <g id="line2d_53">
      <g>
       <use xlink:href="#md1beb68d55" x="102.991484" y="202.698316" style="stroke: #000000"/>
      </g>
     </g>
     <g id="line2d_54">
      <g>
       <use xlink:href="#m69c82178ef" x="709.2" y="202.698316" style="stroke: #000000"/>
      </g>
     </g>
    </g>
    <g id="ytick_21">
     <g id="line2d_55">
      <g>
       <use xlink:href="#md1beb68d55" x="102.991484" y="173.361943" style="stroke: #000000"/>
      </g>
     </g>
     <g id="line2d_56">
      <g>
       <use xlink:href="#m69c82178ef" x="709.2" y="173.361943" style="stroke: #000000"/>
      </g>
     </g>
    </g>
    <g id="ytick_22">
     <g id="line2d_57">
      <g>
       <use xlink:href="#md1beb68d55" x="102.991484" y="158.465561" style="stroke: #000000"/>
      </g>
     </g>
     <g id="line2d_58">
      <g>
       <use xlink:href="#m69c82178ef" x="709.2" y="158.465561" style="stroke: #000000"/>
      </g>
     </g>
    </g>
    <g id="ytick_23">
     <g id="line2d_59">
      <g>
       <use xlink:href="#md1beb68d55" x="102.991484" y="147.896409" style="stroke: #000000"/>
      </g>
     </g>
     <g id="line2d_60">
      <g>
       <use xlink:href="#m69c82178ef" x="709.2" y="147.896409" style="stroke: #000000"/>
      </g>
     </g>
    </g>
    <g id="ytick_24">
     <g id="line2d_61">
      <g>
       <use xlink:href="#md1beb68d55" x="102.991484" y="139.698339" style="stroke: #000000"/>
      </g>
     </g>
     <g id="line2d_62">
      <g>
       <use xlink:href="#m69c82178ef" x="709.2" y="139.698339" style="stroke: #000000"/>
      </g>
     </g>
    </g>
    <g id="ytick_25">
     <g id="line2d_63">
      <g>
       <use xlink:href="#md1beb68d55" x="102.991484" y="133.000027" style="stroke: #000000"/>
      </g>
     </g>
     <g id="line2d_64">
      <g>
       <use xlink:href="#m69c82178ef" x="709.2" y="133.000027" style="stroke: #000000"/>
      </g>
     </g>
    </g>
    <g id="ytick_26">
     <g id="line2d_65">
      <g>
       <use xlink:href="#md1beb68d55" x="102.991484" y="127.336686" style="stroke: #000000"/>
      </g>
     </g>
     <g id="line2d_66">
      <g>
       <use xlink:href="#m69c82178ef" x="709.2" y="127.336686" style="stroke: #000000"/>
      </g>
     </g>
    </g>
    <g id="ytick_27">
     <g id="line2d_67">
      <g>
       <use xlink:href="#md1beb68d55" x="102.991484" y="122.430876" style="stroke: #000000"/>
      </g>
     </g>
     <g id="line2d_68">
      <g>
       <use xlink:href="#m69c82178ef" x="709.2" y="122.430876" style="stroke: #000000"/>
      </g>
     </g>
    </g>
    <g id="ytick_28">
     <g id="line2d_69">
      <g>
       <use xlink:href="#md1beb68d55" x="102.991484" y="118.103645" style="stroke: #000000"/>
      </g>
     </g>
     <g id="line2d_70">
      <g>
       <use xlink:href="#m69c82178ef" x="709.2" y="118.103645" style="stroke: #000000"/>
      </g>
     </g>
    </g>
    <g id="ytick_29">
     <g id="line2d_71">
      <g>
       <use xlink:href="#md1beb68d55" x="102.991484" y="88.767272" style="stroke: #000000"/>
      </g>
     </g>
     <g id="line2d_72">
      <g>
       <use xlink:href="#m69c82178ef" x="709.2" y="88.767272" style="stroke: #000000"/>
      </g>
     </g>
    </g>
    <g id="ytick_30">
     <g id="line2d_73">
      <g>
       <use xlink:href="#md1beb68d55" x="102.991484" y="73.87089" style="stroke: #000000"/>
      </g>
     </g>
     <g id="line2d_74">
      <g>
       <use xlink:href="#m69c82178ef" x="709.2" y="73.87089" style="stroke: #000000"/>
      </g>
     </g>
    </g>
    <g id="ytick_31">
     <g id="line2d_75">
      <g>
       <use xlink:href="#md1beb68d55" x="102.991484" y="63.301739" style="stroke: #000000"/>
      </g>
     </g>
     <g id="line2d_76">
      <g>
       <use xlink:href="#m69c82178ef" x="709.2" y="63.301739" style="stroke: #000000"/>
      </g>
     </g>
    </g>
    <g id="ytick_32">
     <g id="line2d_77">
      <g>
       <use xlink:href="#md1beb68d55" x="102.991484" y="55.103668" style="stroke: #000000"/>
      </g>
     </g>
     <g id="line2d_78">
      <g>
       <use xlink:href="#m69c82178ef" x="709.2" y="55.103668" style="stroke: #000000"/>
      </g>
     </g>
    </g>
    <g id="ytick_33">
     <g id="line2d_79">
      <g>
       <use xlink:href="#md1beb68d55" x="102.991484" y="48.405357" style="stroke: #000000"/>
      </g>
     </g>
     <g id="line2d_80">
      <g>
       <use xlink:href="#m69c82178ef" x="709.2" y="48.405357" style="stroke: #000000"/>
      </g>
     </g>
    </g>
    <g id="ytick_34">
     <g id="line2d_81">
      <g>
       <use xlink:href="#md1beb68d55" x="102.991484" y="42.742015" style="stroke: #000000"/>
      </g>
     </g>
     <g id="line2d_82">
      <g>
       <use xlink:href="#m69c82178ef" x="709.2" y="42.742015" style="stroke: #000000"/>
      </g>
     </g>
    </g>
    <g id="ytick_35">
     <g id="line2d_83">
      <g>
       <use xlink:href="#md1beb68d55" x="102.991484" y="37.836205" style="stroke: #000000"/>
      </g>
     </g>
     <g id="line2d_84">
      <g>
       <use xlink:href="#m69c82178ef" x="709.2" y="37.836205" style="stroke: #000000"/>
      </g>
     </g>
    </g>
    <g id="ytick_36">
     <g id="line2d_85">
      <g>
       <use xlink:href="#md1beb68d55" x="102.991484" y="33.508974" style="stroke: #000000"/>
      </g>
     </g>
     <g id="line2d_86">
      <g>
       <use xlink:href="#m69c82178ef" x="709.2" y="33.508974" style="stroke: #000000"/>
      </g>
     </g>
    </g>
    <g id="text_13">
     <!-- Loss -->
     <g transform="translate(29.244296 214.944719) rotate(-90) scale(0.26 -0.26)">
      <defs>
       <path id="DejaVuSerif-4c" d="M 353 0 
L 353 331 
L 947 331 
L 947 4331 
L 353 4331 
L 353 4666 
L 2175 4666 
L 2175 4331 
L 1581 4331 
L 1581 384 
L 3713 384 
L 3713 1166 
L 4097 1166 
L 4097 0 
L 353 0 
z
" transform="scale(0.015625)"/>
       <path id="DejaVuSerif-73" d="M 359 184 
L 359 959 
L 691 959 
Q 703 588 923 403 
Q 1144 219 1575 219 
Q 1963 219 2166 364 
Q 2369 509 2369 788 
Q 2369 1006 2220 1140 
Q 2072 1275 1594 1428 
L 1178 1569 
Q 750 1706 558 1912 
Q 366 2119 366 2438 
Q 366 2894 700 3153 
Q 1034 3413 1625 3413 
Q 1888 3413 2178 3344 
Q 2469 3275 2778 3144 
L 2778 2419 
L 2447 2419 
Q 2434 2741 2221 2922 
Q 2009 3103 1644 3103 
Q 1281 3103 1095 2975 
Q 909 2847 909 2591 
Q 909 2381 1050 2254 
Q 1191 2128 1613 1997 
L 2069 1856 
Q 2541 1709 2748 1489 
Q 2956 1269 2956 922 
Q 2956 450 2595 179 
Q 2234 -91 1600 -91 
Q 1278 -91 972 -22 
Q 666 47 359 184 
z
" transform="scale(0.015625)"/>
      </defs>
      <use xlink:href="#DejaVuSerif-4c"/>
      <use xlink:href="#DejaVuSerif-6f" x="66.40625"/>
      <use xlink:href="#DejaVuSerif-73" x="126.611328"/>
      <use xlink:href="#DejaVuSerif-73" x="177.929688"/>
     </g>
    </g>
   </g>
   <g id="line2d_87">
    <path d="M 130.546416 26.649477 
L 130.969923 37.72202 
L 131.305807 41.360563 
L 132.240442 58.395186 
L 132.371875 58.524956 
L 133.277302 67.253022 
L 133.350321 71.05418 
L 133.656998 77.368056 
L 133.919864 77.996434 
L 134.430992 85.514296 
L 134.460199 83.858974 
L 134.577029 91.732477 
L 136.855201 124.51453 
L 137.760629 131.088159 
L 138.388586 139.472737 
L 138.490812 138.736304 
L 139.191788 154.704822 
L 139.381636 152.056678 
L 139.732124 153.024605 
L 140.360082 160.402904 
L 140.476911 160.054742 
L 141.192491 152.574281 
L 141.396942 165.925724 
L 141.645204 166.303192 
L 141.732826 161.741277 
L 142.141729 164.441905 
L 143.733529 173.954444 
L 144.113225 174.405694 
L 144.741182 165.313843 
L 145.500573 164.589547 
L 146.055512 179.674033 
L 147.165391 173.394677 
L 148.348288 182.799317 
L 149.15149 182.806617 
L 149.195301 181.821775 
L 149.399753 189.484543 
L 149.458167 174.095377 
L 150.159143 176.292636 
L 150.261369 180.425454 
L 150.903931 184.001084 
L 151.342041 185.369359 
L 152.17445 175.395279 
L 152.597956 179.232971 
L 152.831615 185.3439 
L 153.065274 176.170138 
L 153.883079 177.135123 
L 154.627866 189.385344 
L 155.022165 181.268445 
L 155.299635 199.42953 
L 155.942196 178.097869 
L 156.862227 183.926019 
L 157.344148 204.576004 
L 157.928295 193.098816 
L 158.176558 191.265553 
L 158.366405 181.806947 
L 159.666132 200.589032 
L 160.542352 166.424173 
L 161.871286 176.710425 
L 162.04653 195.708689 
L 162.513847 203.189632 
L 162.601469 190.753135 
L 162.966561 201.154656 
L 163.623726 214.923383 
L 163.79897 208.282448 
L 164.310099 202.413503 
L 164.821227 191.897059 
L 164.835831 199.611285 
L 165.507599 190.453208 
L 165.755862 198.015748 
L 165.785069 208.116086 
L 165.858087 208.06718 
L 166.223179 201.557188 
L 166.237783 187.450544 
L 166.413027 186.768087 
L 166.486045 217.784094 
L 166.909552 202.692428 
L 167.128607 212.24455 
L 167.216229 190.40611 
L 169.143913 199.420918 
L 169.947115 206.705059 
L 170.662694 205.09214 
L 172.225287 206.863972 
L 173.262148 215.238508 
L 174.299008 208.713167 
L 174.342819 218.63837 
L 176.095259 196.946714 
L 177.102912 229.883762 
L 177.307364 181.871866 
L 177.351175 195.88911 
L 178.198188 212.816166 
L 180.75383 225.644843 
L 182.50627 209.075204 
L 182.769136 226.596503 
L 182.798343 219.379816 
L 183.528527 216.814939 
L 184.565387 237.385448 
L 185.324778 217.187922 
L 185.631455 199.445095 
L 185.733681 213.2285 
L 187.296273 194.394442 
L 187.705176 227.670883 
L 188.114079 217.24093 
L 188.87347 192.481809 
L 189.778897 228.233188 
L 191.210057 222.96428 
L 191.66277 240.406745 
L 191.735789 227.67529 
L 192.787253 214.809682 
L 192.9771 223.051621 
L 193.006308 205.48223 
L 195.532743 252.618948 
L 195.781005 228.276879 
L 196.087682 231.869933 
L 197.518841 233.417984 
L 198.044574 228.096681 
L 198.102988 240.445 
L 198.219818 226.540739 
L 199.855429 236.346168 
L 200.05988 234.578992 
L 200.614819 235.726262 
L 200.790063 229.515734 
L 201.403417 232.141456 
L 202.396467 226.849697 
L 202.5279 230.803994 
L 202.571711 221.275766 
L 203.68159 233.013303 
L 203.710797 229.180956 
L 204.499395 244.462469 
L 204.908298 244.93113 
L 206.441683 237.275932 
L 207.756013 211.972246 
L 207.989672 200.714449 
L 208.194123 219.436573 
L 209.084947 214.575225 
L 210.501503 228.00042 
L 210.96882 218.194277 
L 212.867297 244.008992 
L 214.751171 217.031478 
L 214.999433 240.719116 
L 215.043244 215.001332 
L 215.568976 230.424936 
L 215.671202 241.316367 
L 216.196934 239.570846 
L 216.503611 251.705471 
L 217.409038 214.5011 
L 217.701112 238.71203 
L 219.322119 254.478756 
L 219.468156 236.522833 
L 220.475809 250.552559 
L 220.665657 250.000628 
L 220.753279 258.517324 
L 220.943126 247.755574 
L 221.775535 248.594945 
L 222.184438 213.325102 
L 223.046055 238.399942 
L 225.148983 235.225928 
L 225.937581 206.48448 
L 226.361087 244.070269 
L 227.76304 222.557043 
L 227.938284 213.781067 
L 228.390997 252.250101 
L 229.909779 259.730804 
L 230.026608 216.236142 
L 230.245663 257.44734 
L 231.662219 253.143231 
L 232.041915 234.048079 
L 232.363195 265.695895 
L 233.823562 246.009884 
L 234.422313 217.434004 
L 235.76585 253.036334 
L 236.700485 247.230085 
L 237.109388 246.39155 
L 237.123991 263.601981 
L 237.401461 228.893208 
L 237.737345 231.512303 
L 238.014815 184.345053 
L 238.730395 268.058477 
L 238.876432 251.124242 
L 238.920243 260.829922 
L 239.139298 246.455528 
L 239.621219 263.374168 
L 242.191464 242.573011 
L 242.279087 257.461948 
L 243.257532 264.862699 
L 243.666435 251.43943 
L 243.812472 236.277321 
L 244.3236 277.295739 
L 245.302046 257.065529 
L 245.769363 249.843236 
L 246.63098 262.379583 
L 247.142108 277.129966 
L 247.726255 243.489319 
L 249.391073 255.61678 
L 249.902202 268.971907 
L 249.989824 263.904417 
L 250.997477 255.106891 
L 251.640038 270.572909 
L 252.063545 252.562804 
L 252.136563 260.149885 
L 252.267996 249.607872 
L 253.582326 217.611251 
L 253.626137 234.042942 
L 254.03504 260.283436 
L 254.181077 261.812569 
L 255.028089 234.405414 
L 255.539218 258.634323 
L 256.035743 267.205682 
L 256.911963 269.670099 
L 258.722818 251.97641 
L 258.766629 259.348786 
L 259.584434 253.756275 
L 260.00794 262.596943 
L 260.416843 257.21316 
L 261.263856 261.702547 
L 261.351478 239.757665 
L 262.169283 260.715281 
L 264.666511 270.119648 
L 264.768737 248.402695 
L 265.163036 273.952961 
L 265.980841 274.511245 
L 266.448158 245.744777 
L 267.382793 218.65565 
L 267.426604 222.643024 
L 267.718678 234.529463 
L 268.200599 265.550219 
L 269.354289 267.558223 
L 269.646362 247.010879 
L 270.522582 246.818809 
L 270.960692 249.007311 
L 271.296577 272.572279 
L 271.559443 264.765132 
L 272.581699 251.226759 
L 275.560848 285.537591 
L 277.196459 253.335519 
L 278.423167 273.755886 
L 280.000363 229.722563 
L 280.102589 248.890978 
L 281.752803 268.947213 
L 281.796614 278.877631 
L 282.103291 273.544985 
L 282.964908 275.827621 
L 283.110945 264.775365 
L 283.592866 251.674523 
L 284.834178 263.053016 
L 285.08244 203.59097 
L 285.286891 243.273985 
L 285.768812 264.007089 
L 286.352959 262.731774 
L 287.024728 261.90187 
L 287.039332 256.248117 
L 287.360612 267.377385 
L 287.871741 267.32947 
L 288.251436 262.928012 
L 288.382869 265.060749 
L 289.14226 264.718316 
L 289.186071 256.533522 
L 289.682596 204.148227 
L 290.193724 287.826049 
L 290.777871 265.524609 
L 290.865493 283.915366 
L 291.05534 255.52978 
L 291.128359 266.756471 
L 292.062994 274.786849 
L 292.471896 268.518545 
L 293.464946 259.845815 
L 293.508757 280.759023 
L 294.370373 241.662467 
L 296.692357 273.340964 
L 297.466351 257.364204 
L 297.758424 290.10582 
L 298.211138 259.181848 
L 298.342571 272.160331 
L 298.590834 263.193278 
L 299.29181 264.930161 
L 300.036597 265.593784 
L 300.372481 263.737439 
L 300.576933 270.683066 
L 301.657604 263.598422 
L 303.322422 262.091732 
L 304.724374 246.134982 
L 304.797393 265.616165 
L 305.323125 263.618159 
L 305.775839 283.81071 
L 307.192395 283.681017 
L 307.57209 252.722362 
L 307.630505 266.284566 
L 307.864163 291.859549 
L 308.477517 275.531002 
L 309.412152 270.596188 
L 309.455963 278.59663 
L 309.689622 260.542693 
L 311.091574 274.530134 
L 311.865569 280.99487 
L 313.252917 259.272064 
L 314.97615 283.727801 
L 315.385053 273.008054 
L 316.246669 264.613904 
L 316.933042 284.703925 
L 317.984506 249.037109 
L 318.261976 279.057595 
L 318.889933 238.646749 
L 320.029019 301.346595 
L 320.277282 263.021049 
L 320.671581 290.00267 
L 320.978258 283.231336 
L 321.153502 276.797616 
L 321.372557 283.326821 
L 321.430972 290.720498 
L 321.679234 296.835634 
L 322.204966 264.654829 
L 322.789113 272.746216 
L 323.271034 281.788531 
L 324.877438 278.133303 
L 325.651432 281.391371 
L 325.709847 273.281574 
L 326.00192 264.667097 
L 326.7175 285.445 
L 327.141006 280.425704 
L 327.75436 283.953341 
L 328.499147 268.501056 
L 328.835032 195.200592 
L 329.696648 266.2938 
L 329.740459 264.654358 
L 330.689698 305.302284 
L 331.113204 273.238435 
L 331.609729 270.513135 
L 332.120857 275.268398 
L 332.456742 290.738888 
L 332.6904 264.839814 
L 333.756468 277.140947 
L 334.033938 294.623515 
L 334.355219 224.189146 
L 335.552719 268.124253 
L 337.611837 291.038452 
L 338.575679 261.639987 
L 338.677905 272.472846 
L 338.809338 253.166394 
L 339.0576 247.149045 
L 339.232844 278.334557 
L 339.320466 233.788154 
L 340.912266 296.256686 
L 341.598638 278.797969 
L 342.12437 287.51143 
L 342.518669 277.945699 
L 343.613945 274.277489 
L 343.701567 284.47107 
L 344.139677 273.160857 
L 344.27111 252.304855 
L 344.329524 295.842307 
L 344.417146 284.102002 
L 345.775288 268.965829 
L 345.950532 281.339727 
L 347.133429 259.610098 
L 347.410899 294.813245 
L 347.907423 277.518434 
L 349.382394 250.642407 
L 350.302425 298.381692 
L 350.974194 245.639665 
L 351.616755 295.057106 
L 351.894225 285.949468 
L 352.872671 289.436546 
L 353.719683 280.732536 
L 354.055568 268.52103 
L 355.89563 258.89639 
L 355.924837 297.419305 
L 356.392155 290.469889 
L 356.844869 278.242643 
L 357.706485 267.338334 
L 359.79481 268.27775 
L 360.276731 284.008116 
L 361.036122 289.35958 
L 361.079933 249.574738 
L 363.285087 261.250549 
L 363.489538 268.556423 
L 364.979112 302.402641 
L 365.285789 280.139049 
L 367.228077 244.42593 
L 368.279541 280.394124 
L 369.520853 260.945322 
L 370.017378 294.288315 
L 370.966616 239.042707 
L 371.755215 288.019496 
L 372.13491 290.020954 
L 372.207928 305.33786 
L 373.244789 291.647003 
L 373.770521 270.714685 
L 374.486101 283.519635 
L 375.391528 245.045775 
L 375.406132 254.48253 
L 376.107108 284.474842 
L 376.720462 263.086824 
L 379.159275 279.841242 
L 379.611988 291.706788 
L 380.108513 274.175535 
L 381.145374 279.127789 
L 381.685709 296.775107 
L 382.430496 275.529407 
L 382.459704 299.752849 
L 382.795588 265.647678 
L 382.868606 295.547341 
L 383.146076 269.047264 
L 383.657205 289.284119 
L 384.109918 286.568523 
L 384.679461 272.635645 
L 384.825498 293.536309 
L 386.125225 267.776639 
L 386.329676 280.818682 
L 386.753182 267.604863 
L 386.855408 302.015511 
L 386.870012 268.344517 
L 387.293518 278.101074 
L 387.731628 273.788619 
L 389.454861 297.813973 
L 389.936782 255.169294 
L 390.491722 284.560136 
L 392.112729 287.558997 
L 392.477821 261.90054 
L 392.653065 278.753484 
L 393.061967 285.290922 
L 393.573096 297.577788 
L 393.74834 313.203467 
L 394.682975 274.821385 
L 394.931237 298.808266 
L 395.924286 266.924515 
L 396.245567 292.499287 
L 397.443068 259.364413 
L 399.385356 293.253979 
L 399.39996 256.40314 
L 400.787308 292.42529 
L 401.444473 144.074951 
L 403.211517 288.539291 
L 403.313743 261.635518 
L 405.139201 284.020052 
L 405.840178 271.499148 
L 406.789416 288.612163 
L 407.066886 316.765524 
L 407.139904 295.993098 
L 407.475789 269.454694 
L 407.797069 293.551246 
L 408.103746 287.511555 
L 409.096796 284.93381 
L 409.87079 281.737019 
L 410.717803 257.074807 
L 411.360364 274.098316 
L 411.783871 272.440366 
L 414.48555 286.76967 
L 414.704605 280.58386 
L 414.748416 282.597104 
L 415.069696 303.404949 
L 415.157318 279.718692 
L 415.858294 273.70516 
L 416.077349 288.205166 
L 416.749118 204.424594 
L 417.11421 278.78035 
L 417.917412 304.773525 
L 418.078052 289.275274 
L 418.165674 301.15792 
L 419.027291 294.741445 
L 419.42159 293.030974 
L 419.757474 290.42786 
L 420.779731 277.056401 
L 421.101012 286.499447 
L 421.582933 255.359928 
L 421.933421 292.190025 
L 422.517567 282.242325 
L 422.780433 294.311024 
L 422.911866 276.802311 
L 424.021745 199.219485 
L 424.036349 175.227801 
L 424.065556 182.209543 
L 424.722721 280.124136 
L 425.175435 285.840723 
L 425.569734 304.122298 
L 425.686564 294.559243 
L 426.504369 312.185332 
L 426.723424 293.578303 
L 426.854857 302.469893 
L 426.884064 288.163999 
L 427.599644 289.730854 
L 428.432053 272.280862 
L 429.089218 283.233185 
L 429.687969 269.68662 
L 429.877817 255.607411 
L 429.89242 255.918459 
L 430.213701 291.326484 
L 404.949354 300.339992 
L 405.109994 316.084623 
L 406.731001 285.574842 
L 407.037678 274.20968 
L 408.045332 279.603921 
L 408.089143 302.947645 
L 408.103746 264.925154 
L 408.804722 295.41533 
L 409.15521 286.410587 
L 410.002223 269.20234 
L 411.082895 294.269036 
L 411.667041 273.383358 
L 411.783871 281.243227 
L 412.251188 279.245113 
L 412.441036 289.97153 
L 413.375671 291.377822 
L 414.324909 297.692257 
L 414.660794 282.010699 
L 415.887502 303.934459 
L 416.004331 271.360333 
L 416.982777 272.510243 
L 417.245643 303.121241 
L 418.340918 267.887521 
L 418.910461 276.552968 
L 418.925065 302.667027 
L 421.217841 289.717467 
L 421.845799 269.121541 
L 422.795037 280.03217 
L 422.882659 296.627441 
L 423.174733 311.113769 
L 423.262355 276.685983 
L 423.569032 278.127542 
L 423.656654 303.033243 
L 424.532874 294.036802 
L 425.39449 264.792689 
L 425.964033 295.662344 
L 429.089218 278.379246 
L 429.45431 293.682454 
L 429.644158 278.360917 
L 430.038457 310.698999 
L 430.140683 289.099883 
L 430.374341 290.845446 
L 430.491171 297.887215 
L 430.695622 281.252437 
L 431.104525 267.929892 
L 432.112178 274.566954 
L 432.155989 277.70344 
L 432.769343 297.772289 
L 433.280471 278.765044 
L 433.820807 278.284446 
L 435.149741 272.074717 
L 435.3834 308.118574 
L 436.945992 276.180471 
L 437.048218 310.915408 
L 437.223462 286.293074 
L 437.968249 304.079 
L 438.143493 288.075597 
L 439.457823 303.208371 
L 439.501634 308.773162 
L 441.648374 287.799276 
L 441.706788 291.116683 
L 441.721392 280.359631 
L 441.969654 300.771004 
L 442.334746 294.912153 
L 442.495386 299.348733 
L 442.568405 286.490827 
L 442.641423 302.99176 
L 443.137948 280.235513 
L 443.283985 299.249968 
L 443.66368 294.544531 
L 444.320845 299.045948 
L 444.656729 296.900604 
L 445.401516 274.877717 
L 445.752005 299.988902 
L 446.029474 310.521286 
L 446.233926 286.244571 
L 446.715847 275.194472 
L 448.366061 294.895627 
L 449.081641 289.353359 
L 450.264538 295.046176 
L 450.425179 195.227768 
L 450.717252 275.634399 
L 451.593472 303.318105 
L 451.78332 321.593335 
L 452.323656 309.001256 
L 452.615729 285.324817 
L 452.776369 293.169159 
L 454.178321 294.600404 
L 456.237439 318.44603 
L 456.806982 309.956155 
L 457.230488 291.290074 
L 457.800031 282.782145 
L 458.501007 296.08091 
L 459.201984 293.173216 
L 459.34802 278.990318 
L 459.78613 278.489755 
L 460.122015 283.641466 
L 460.326466 291.91317 
L 461.158875 298.013912 
L 462.560827 299.565728 
L 463.217992 285.201664 
L 463.276407 293.406394 
L 464.152627 281.342436 
L 464.824396 287.188885 
L 465.583787 297.479559 
L 465.700616 277.019778 
L 467.482264 292.607767 
L 467.920374 258.11698 
L 468.241655 291.010789 
L 468.723576 258.362291 
L 469.804247 303.139195 
L 470.37379 274.45003 
L 471.629706 288.678118 
L 472.695774 280.731699 
L 473.060865 283.851807 
L 473.250713 259.955701 
L 473.382146 307.812984 
L 474.535836 306.572646 
L 475.397452 255.926966 
L 477.062271 293.152467 
L 477.281326 282.658761 
L 478.435015 286.100932 
L 479.340443 305.084 
L 479.705535 285.06915 
L 481.005261 239.416303 
L 482.056725 305.659046 
L 482.538646 293.82125 
L 483.137397 289.269334 
L 484.714593 290.288593 
L 484.948252 288.963219 
L 485.254929 276.730234 
L 485.620021 239.49152 
L 486.540052 288.538233 
L 486.554655 254.232906 
L 486.759107 293.822514 
L 488.36551 294.388963 
L 488.555358 282.273809 
L 488.715998 300.736692 
L 491.154811 272.968771 
L 491.768165 302.54334 
L 494.075545 267.090301 
L 495.302253 286.261326 
L 495.33146 319.550652 
L 495.930211 302.911369 
L 495.944814 318.477425 
L 496.178473 283.749009 
L 496.397528 306.957644 
L 497.843291 283.552645 
L 500.033842 276.736002 
L 500.968476 295.08695 
L 501.056098 307.560805 
L 501.14372 307.4074 
L 501.216739 276.234462 
L 502.312014 290.649392 
L 502.896161 285.971461 
L 503.699363 292.967144 
L 505.291162 293.476854 
L 505.568632 276.960184 
L 506.269608 258.023742 
L 507.204243 310.119307 
L 507.248054 292.441609 
L 507.700768 320.950839 
L 507.94903 271.294677 
L 508.211896 289.801856 
L 509.044305 240.690636 
L 509.336379 286.705044 
L 509.38019 317.790472 
L 509.686867 283.689554 
L 510.942782 283.245756 
L 512.271716 258.732113 
L 512.300923 251.548649 
L 512.768241 273.75723 
L 513.031107 300.013201 
L 517.163945 301.29838 
L 517.543641 285.536484 
L 518.186202 298.671376 
L 518.989404 288.175717 
L 519.894831 296.7267 
L 520.084679 268.381594 
L 521.428217 299.371139 
L 521.851723 276.100492 
L 522.421266 274.479808 
L 523.370504 290.39646 
L 526.510293 303.156284 
L 527.663983 292.539284 
L 528.043679 293.765332 
L 528.364959 280.573939 
L 528.642429 308.613604 
L 528.934502 294.168718 
L 529.007521 283.992641 
L 529.416423 318.733099 
L 529.650082 287.269822 
L 530.044381 296.740825 
L 531.037431 293.515722 
L 531.75301 280.522059 
L 532.059687 304.869112 
L 533.447036 291.995937 
L 534.4985 294.634453 
L 534.980421 303.808371 
L 535.21408 291.520364 
L 535.944263 310.144956 
L 535.988074 296.924373 
L 536.294751 303.32228 
L 536.469995 303.329281 
L 536.747465 297.524494 
L 537.024935 308.046335 
L 539.011034 306.206825 
L 540.193931 302.906781 
L 540.208535 276.727264 
L 540.705059 280.94635 
L 541.654298 296.205148 
L 542.705762 307.920559 
L 542.77878 291.262589 
L 543.158476 307.151585 
L 543.830245 288.295026 
L 544.0493 299.515087 
L 545.2468 295.411048 
L 545.874758 281.46778 
L 546.166832 305.393292 
L 546.444301 294.476707 
L 546.853204 307.491481 
L 547.481162 295.71201 
L 549.043754 285.695364 
L 549.408846 281.896276 
L 549.569486 313.378469 
L 551.01525 295.099641 
L 551.059061 282.583425 
L 551.643207 325.484442 
L 553.015952 294.577841 
L 553.220404 267.336394 
L 553.468666 273.531091 
L 553.48327 296.937535 
L 554.096624 316.873348 
L 555.542387 288.803191 
L 558.068822 305.435584 
L 558.842816 289.568236 
L 560.420012 307.384414 
L 560.580653 292.262818 
L 562.376904 281.598284 
L 563.23852 311.370947 
L 563.778856 267.723893 
L 564.085533 305.557277 
L 564.625869 298.694151 
L 565.151601 301.102788 
L 565.166205 288.778223 
L 565.531296 278.808499 
L 566.436724 322.010648 
L 567.473584 286.066052 
L 567.85328 286.16078 
L 568.437427 292.299069 
L 569.109195 290.58415 
L 570.058434 287.706115 
L 570.160659 264.016062 
L 570.277489 306.56574 
L 570.978465 295.006214 
L 571.109898 285.025267 
L 571.971514 286.118714 
L 572.161362 294.096145 
L 574.278894 307.390115 
L 574.454138 299.018888 
L 574.936059 316.154939 
L 575.549413 323.591105 
L 577.579323 254.55781 
L 578.265696 302.790229 
L 578.791428 313.869219 
L 579.214934 298.872702 
L 579.872099 307.956495 
L 580.835941 285.685003 
L 580.879752 297.354284 
L 581.50771 279.861892 
L 582.077253 296.103154 
L 582.22329 304.956496 
L 583.041095 297.069056 
L 584.96878 286.02721 
L 585.085609 298.079423 
L 585.187835 283.992935 
L 586.137073 279.964595 
L 586.545976 284.766969 
L 586.72122 255.823655 
L 587.013293 282.906605 
L 588.678112 294.616284 
L 588.736526 319.389542 
L 589.130825 302.57922 
L 589.160033 291.02808 
L 590.474363 313.097904 
L 591.49662 296.788452 
L 591.642656 301.185753 
L 591.890919 233.41167 
L 592.036955 308.050793 
L 592.241407 278.991062 
L 592.402047 307.163605 
L 594.388146 285.005183 
L 594.928482 296.256232 
L 595.731684 276.413808 
L 595.833909 279.996361 
L 596.783148 302.01833 
L 597.148239 296.377171 
L 597.279673 303.677187 
L 597.454917 302.516435 
L 597.732386 252.818583 
L 597.980649 304.867119 
L 598.199704 297.914158 
L 598.769247 306.564773 
L 598.944491 335.440771 
L 599.309582 321.613668 
L 599.747693 293.122794 
L 599.849918 295.732894 
L 600.696931 296.437379 
L 601.3687 301.262247 
L 601.646169 291.946004 
L 601.748395 255.749336 
L 602.420164 303.562786 
L 603.179555 227.848436 
L 603.223366 296.495095 
L 603.734494 314.891639 
L 605.092635 298.163684 
L 605.58916 303.901383 
L 605.632971 291.736534 
L 606.392362 273.53906 
L 606.406966 301.8766 
L 606.713643 303.43247 
L 607.516844 293.275714 
L 607.911143 265.400009 
L 608.787364 302.664293 
L 608.801967 300.561273 
L 609.181663 291.282317 
L 609.356907 310.603279 
L 609.575962 306.301171 
L 609.999468 214.92677 
L 610.130901 250.45351 
L 610.569011 310.50152 
L 611.284591 312.433815 
L 612.087793 319.44211 
L 612.55511 310.197843 
L 612.876391 288.572798 
L 613.942459 317.701911 
L 616.162216 295.194136 
L 616.877796 325.645463 
L 617.403528 284.571498 
L 618.308956 302.509594 
L 619.433438 317.606653 
L 619.477249 309.663728 
L 620.587128 313.788043 
L 620.893805 288.410236 
L 621.010634 295.505063 
L 621.317311 283.613256 
L 622.251946 295.454096 
L 622.748471 287.336 
L 622.777678 305.544565 
L 622.792282 302.729538 
L 624.048198 306.707734 
L 624.092009 329.966357 
L 624.486308 304.831146 
L 626.983535 310.283091 
L 627.085761 305.68427 
L 628.049603 319.73451 
L 628.122621 292.185464 
L 628.735975 313.729697 
L 629.641403 320.85621 
L 629.904269 277.741324 
L 630.868111 296.453311 
L 631.160184 296.633135 
L 631.715124 308.756289 
L 631.758935 302.705353 
L 632.722777 310.762596 
L 633.482168 315.396247 
L 633.920278 290.723485 
L 634.153936 298.443521 
L 634.343784 284.27004 
L 634.854912 291.311347 
L 635.132382 287.168467 
L 635.234608 299.63268 
L 638.637263 309.83688 
L 639.513483 298.396481 
L 639.951593 300.617892 
L 640.229063 300.772727 
L 641.528789 292.933762 
L 642.156747 316.393477 
L 642.28818 306.997401 
L 642.375802 279.204004 
L 642.740894 300.405913 
L 643.573303 286.422698 
L 644.201261 304.688104 
L 645.705438 286.807833 
L 646.596262 307.766731 
L 647.399464 299.969052 
L 647.881385 327.687347 
L 648.421721 265.927573 
L 649.473185 294.213718 
L 649.560807 310.949365 
L 649.69224 313.089694 
L 650.480838 304.20264 
L 651.576113 295.105289 
L 651.72215 306.305307 
L 652.072638 295.46664 
L 653.124102 313.539167 
L 654.409225 293.034561 
L 654.920353 315.399862 
L 655.811177 260.324845 
L 656.088647 315.098832 
L 656.716605 324.791571 
L 657.724258 313.692317 
L 658.673496 331.961248 
L 658.994777 314.163908 
L 660.864047 290.403205 
L 662.339017 290.512965 
L 663.142219 311.408992 
L 663.361274 287.276716 
L 664.368927 294.54654 
L 664.865452 294.408416 
L 665.946123 312.434294 
L 666.179782 288.037726 
L 666.836947 343.639023 
L 668.005241 318.436834 
L 668.896065 305.925911 
L 668.910668 299.915208 
L 669.129723 318.314227 
L 669.757681 297.985062 
L 670.049754 198.796449 
L 670.75073 318.772839 
L 671.802195 302.642643 
L 673.861312 278.23884 
L 673.905123 291.64709 
L 674.197196 299.729687 
L 674.2118 308.869279 
L 674.255611 305.533545 
L 676.197899 277.265312 
L 677.599851 298.977135 
L 677.891925 310.744136 
L 678.461468 305.248768 
L 678.622108 301.847111 
L 681.645067 317.469072 
L 681.645067 317.469072 
" clip-path="url(#pb2c847e920)" style="fill: none; stroke: #0000ff; stroke-width: 2; stroke-linecap: square"/>
   </g>
   <g id="line2d_88">
    <path d="M 130.546416 27.038882 
L 130.590227 29.533055 
L 131.305807 43.382596 
L 132.240442 55.434323 
L 132.371875 51.743885 
L 133.277302 64.010618 
L 133.350321 42.789306 
L 133.656998 64.635348 
L 134.460199 86.372499 
L 134.577029 79.252461 
L 136.65075 123.913757 
L 136.855201 122.749125 
L 137.760629 135.039847 
L 138.490812 142.038562 
L 139.191788 144.851514 
L 139.381636 146.229174 
L 139.732124 153.408475 
L 140.360082 154.958796 
L 140.476911 164.001279 
L 141.192491 161.015215 
L 141.396942 156.191988 
L 141.645204 160.725708 
L 141.732826 164.513864 
L 142.141729 155.621627 
L 144.113225 172.821923 
L 144.741182 169.183166 
L 145.500573 165.541531 
L 147.165391 183.393249 
L 148.348288 178.490717 
L 149.15149 183.096807 
L 149.195301 174.952741 
L 149.399753 192.202346 
L 149.458167 188.81335 
L 150.159143 176.262718 
L 150.261369 181.968797 
L 150.903931 189.681416 
L 151.342041 181.485367 
L 152.17445 176.343749 
L 152.597956 185.417191 
L 152.831615 195.055502 
L 153.065274 164.772572 
L 153.883079 171.295849 
L 154.627866 186.787889 
L 154.890732 185.836623 
L 155.022165 184.095976 
L 155.299635 196.857709 
L 155.942196 197.795479 
L 156.862227 184.367142 
L 157.183508 198.729557 
L 157.344148 189.705609 
L 157.928295 192.858563 
L 158.176558 194.953913 
L 158.366405 179.164647 
L 159.666132 192.029139 
L 160.542352 169.533227 
L 161.871286 187.261585 
L 162.04653 191.950324 
L 162.601469 198.63402 
L 162.893543 194.30151 
L 162.966561 196.868114 
L 163.623726 205.920793 
L 163.79897 206.166755 
L 164.310099 192.245941 
L 164.821227 185.620322 
L 164.835831 203.461116 
L 165.507599 194.604059 
L 165.755862 198.219747 
L 165.858087 214.095074 
L 166.223179 191.334357 
L 166.237783 183.291153 
L 166.413027 208.674492 
L 166.486045 203.266576 
L 166.909552 190.924969 
L 167.128607 198.92846 
L 167.216229 193.065764 
L 169.143913 200.30665 
L 169.947115 207.038121 
L 170.662694 216.341306 
L 172.225287 208.962456 
L 173.262148 197.539401 
L 174.299008 209.026995 
L 174.342819 212.395726 
L 175.189832 214.022274 
L 176.095259 215.010785 
L 177.102912 215.481691 
L 177.307364 192.903871 
L 177.336571 208.373993 
L 177.351175 200.168718 
L 178.198188 207.533573 
L 180.75383 232.699364 
L 182.50627 205.337667 
L 182.769136 214.356777 
L 182.798343 223.593298 
L 183.528527 208.462988 
L 184.565387 231.314162 
L 185.324778 210.610887 
L 185.631455 223.461406 
L 185.733681 203.049338 
L 187.296273 206.872678 
L 187.705176 218.182486 
L 188.114079 233.175717 
L 188.87347 206.942449 
L 189.778897 226.841134 
L 191.210057 226.824567 
L 191.66277 230.427187 
L 191.735789 242.347164 
L 192.787253 198.001522 
L 192.9771 200.089496 
L 193.006308 221.199901 
L 194.189205 234.839472 
L 195.532743 240.494055 
L 195.781005 236.016174 
L 196.087682 234.611818 
L 197.518841 223.500776 
L 198.102988 234.557573 
L 198.219818 224.060313 
L 199.855429 231.255124 
L 200.05988 245.596478 
L 200.614819 244.584933 
L 200.790063 210.882275 
L 201.403417 231.71167 
L 202.396467 231.420068 
L 202.5279 210.809807 
L 202.571711 225.815227 
L 203.68159 238.351917 
L 203.710797 244.90398 
L 204.499395 234.134284 
L 204.908298 233.77603 
L 206.441683 235.23442 
L 207.756013 207.980433 
L 207.989672 211.074885 
L 208.194123 222.103911 
L 209.084947 230.18863 
L 210.501503 236.87311 
L 210.96882 250.318395 
L 212.648242 224.64166 
L 212.867297 251.921522 
L 213.509859 240.299675 
L 214.751171 226.839308 
L 214.999433 201.1246 
L 215.043244 230.642552 
L 215.568976 236.243436 
L 215.671202 227.08469 
L 216.196934 244.956063 
L 216.503611 242.713054 
L 217.409038 217.780408 
L 217.701112 243.04254 
L 219.322119 232.184644 
L 220.475809 248.715113 
L 220.665657 237.806813 
L 220.753279 248.756957 
L 220.943126 251.153016 
L 221.775535 241.366692 
L 222.11142 208.819094 
L 222.184438 224.577595 
L 223.046055 258.413761 
L 225.148983 255.309521 
L 225.937581 221.670659 
L 226.361087 227.229477 
L 227.149686 250.974633 
L 227.719229 227.302756 
L 227.76304 229.197754 
L 227.938284 225.797483 
L 228.390997 232.302071 
L 229.909779 246.3461 
L 230.026608 215.34842 
L 230.245663 241.545025 
L 231.662219 243.848767 
L 232.041915 223.100434 
L 232.363195 244.196246 
L 233.706733 251.234948 
L 233.823562 271.753951 
L 234.422313 227.105964 
L 235.76585 243.686685 
L 236.700485 251.998133 
L 237.109388 267.356972 
L 237.123991 246.703386 
L 237.401461 214.114612 
L 237.737345 258.188358 
L 238.014815 223.41733 
L 238.730395 251.545215 
L 238.876432 250.180905 
L 238.920243 233.968759 
L 239.139298 238.565496 
L 239.621219 255.064768 
L 242.191464 250.739496 
L 242.279087 253.815556 
L 243.257532 258.064463 
L 243.666435 253.721677 
L 243.812472 245.092525 
L 244.3236 251.141452 
L 245.302046 253.24198 
L 245.769363 245.491254 
L 246.63098 258.266031 
L 247.142108 254.600509 
L 247.726255 267.947655 
L 249.391073 256.550802 
L 249.902202 258.831811 
L 249.989824 253.93727 
L 250.997477 242.515942 
L 251.640038 246.805585 
L 252.063545 264.545741 
L 252.136563 247.712024 
L 252.267996 249.063462 
L 253.582326 222.222198 
L 253.626137 188.251847 
L 254.181077 252.097883 
L 255.028089 257.34801 
L 255.539218 258.366032 
L 256.035743 249.546848 
L 256.911963 245.137131 
L 258.722818 265.481072 
L 258.766629 276.886403 
L 259.584434 252.949003 
L 259.964129 269.388948 
L 260.00794 262.464543 
L 260.416843 250.910012 
L 261.263856 276.474364 
L 261.351478 259.545826 
L 262.169283 254.281985 
L 264.666511 259.924674 
L 264.768737 266.000033 
L 265.163036 243.268988 
L 265.980841 256.826361 
L 266.448158 246.520317 
L 267.382793 239.270654 
L 267.426604 241.371969 
L 267.718678 248.232093 
L 268.200599 248.182906 
L 269.354289 254.993396 
L 269.456514 239.034743 
L 269.646362 257.785926 
L 270.522582 235.878777 
L 270.960692 252.734603 
L 271.296577 272.206771 
L 271.559443 253.683062 
L 272.581699 256.929291 
L 273.676975 263.242335 
L 274.611609 256.289029 
L 275.560848 268.809739 
L 277.196459 269.581308 
L 278.423167 274.3504 
L 280.000363 230.505543 
L 280.102589 243.529136 
L 281.752803 237.283158 
L 281.796614 260.768751 
L 282.103291 262.751487 
L 282.964908 265.238652 
L 283.110945 244.430999 
L 283.592866 273.309429 
L 284.834178 269.418706 
L 285.08244 198.669917 
L 285.286891 248.642728 
L 285.52055 248.073823 
L 285.768812 264.167926 
L 286.352959 280.69347 
L 287.024728 257.714399 
L 287.039332 266.708436 
L 287.360612 249.180654 
L 287.871741 249.585077 
L 288.251436 264.776316 
L 288.382869 211.869882 
L 289.14226 259.805458 
L 289.186071 253.847482 
L 289.682596 216.485573 
L 289.74101 220.203464 
L 290.076895 267.135822 
L 290.164517 259.194766 
L 290.193724 268.438916 
L 290.777871 248.529515 
L 290.865493 263.624236 
L 291.05534 252.099327 
L 291.128359 277.881802 
L 292.062994 278.767614 
L 292.340463 283.207132 
L 292.471896 274.539853 
L 293.464946 266.366938 
L 293.508757 263.245017 
L 294.370373 226.690395 
L 296.692357 275.694352 
L 297.466351 281.034297 
L 297.758424 254.040058 
L 298.211138 269.894642 
L 298.342571 251.567351 
L 298.590834 286.719398 
L 298.839096 255.76816 
L 299.29181 261.695514 
L 300.036597 286.791045 
L 300.372481 267.725053 
L 300.576933 269.945611 
L 301.657604 257.427957 
L 303.322422 272.260709 
L 304.724374 261.569966 
L 304.797393 267.181394 
L 305.323125 272.041586 
L 305.775839 239.228397 
L 307.192395 280.149103 
L 307.57209 271.781878 
L 307.630505 274.176836 
L 307.864163 264.276815 
L 308.477517 260.150629 
L 309.412152 261.396555 
L 309.455963 262.814627 
L 309.689622 256.639244 
L 311.091574 281.157407 
L 311.865569 262.169416 
L 313.252917 268.079316 
L 314.97615 276.803106 
L 315.385053 264.957069 
L 316.246669 268.524133 
L 316.933042 292.569362 
L 318.889933 223.331423 
L 320.029019 262.616728 
L 320.277282 254.674529 
L 320.671581 291.263564 
L 320.978258 276.63743 
L 321.153502 274.450864 
L 321.372557 259.262428 
L 321.430972 282.503048 
L 321.679234 266.315789 
L 322.204966 261.292408 
L 322.789113 266.971776 
L 324.877438 261.772464 
L 325.651432 264.742391 
L 325.709847 299.907894 
L 326.00192 264.697364 
L 326.7175 261.109354 
L 327.141006 283.846443 
L 327.75436 276.068605 
L 328.499147 283.879239 
L 328.835032 209.308775 
L 329.696648 260.802667 
L 329.740459 257.872767 
L 330.689698 203.135649 
L 331.113204 259.499522 
L 331.609729 238.906603 
L 332.456742 298.681162 
L 332.6904 279.251393 
L 333.756468 276.262732 
L 334.033938 269.080057 
L 334.355219 236.971479 
L 335.552719 288.869991 
L 337.611837 280.067114 
L 338.575679 250.435889 
L 338.677905 273.434192 
L 338.809338 274.561044 
L 339.0576 274.596904 
L 339.232844 282.548136 
L 339.320466 210.936841 
L 340.182082 255.414902 
L 340.912266 275.754435 
L 341.598638 257.028077 
L 342.12437 257.411056 
L 342.474858 277.427613 
L 342.518669 287.4147 
L 343.613945 271.728172 
L 343.701567 263.922096 
L 344.139677 266.95839 
L 344.27111 259.461005 
L 344.329524 275.299007 
L 344.417146 262.171057 
L 345.760684 276.897142 
L 345.775288 263.666153 
L 345.950532 274.451903 
L 346.198794 273.290702 
L 347.133429 284.307278 
L 347.410899 285.152563 
L 347.907423 283.707673 
L 349.382394 252.20807 
L 350.302425 293.375455 
L 350.974194 258.170945 
L 351.616755 269.414084 
L 351.894225 268.517238 
L 352.872671 273.474364 
L 353.719683 263.716396 
L 354.055568 243.349715 
L 355.89563 282.525177 
L 355.924837 253.99664 
L 356.392155 269.788805 
L 356.844869 265.333749 
L 357.706485 268.107384 
L 359.79481 286.234272 
L 360.145298 250.673524 
L 360.276731 291.075679 
L 361.079933 283.394215 
L 363.285087 255.78718 
L 363.489538 256.720951 
L 364.979112 278.221477 
L 365.285789 289.566147 
L 367.228077 272.738878 
L 368.279541 269.659991 
L 368.600822 265.577082 
L 368.849084 284.071745 
L 369.520853 268.586274 
L 370.017378 277.433341 
L 370.966616 251.222539 
L 371.755215 261.923843 
L 372.13491 260.386744 
L 372.207928 281.023371 
L 373.244789 292.937937 
L 373.770521 272.021082 
L 374.486101 269.885202 
L 375.391528 259.871017 
L 375.406132 260.84947 
L 375.902656 257.2503 
L 376.107108 274.213135 
L 376.720462 267.201577 
L 379.159275 289.28871 
L 379.611988 280.691452 
L 380.108513 291.65996 
L 381.145374 269.770569 
L 381.685709 271.324974 
L 382.16763 287.220271 
L 382.430496 300.31287 
L 382.459704 287.832131 
L 382.795588 267.172978 
L 382.810192 276.483321 
L 382.868606 275.246267 
L 383.146076 290.740324 
L 383.657205 271.323135 
L 384.109918 295.30284 
L 384.679461 264.01199 
L 384.825498 262.918436 
L 386.125225 274.375656 
L 386.329676 287.152052 
L 386.753182 253.420119 
L 386.855408 284.493306 
L 386.870012 282.181122 
L 387.731628 261.518772 
L 388.739281 261.257552 
L 389.454861 307.151618 
L 389.936782 279.86028 
L 390.491722 285.135082 
L 392.112729 274.903647 
L 392.477821 266.764366 
L 392.653065 278.385804 
L 393.061967 293.625586 
L 393.573096 268.212577 
L 393.74834 295.531474 
L 394.682975 264.511258 
L 394.931237 287.268199 
L 395.924286 289.775538 
L 396.245567 287.874847 
L 396.65447 287.285095 
L 397.443068 248.888265 
L 399.385356 281.237208 
L 399.39996 265.425308 
L 400.787308 282.54591 
L 401.444473 251.329046 
L 403.211517 278.73527 
L 403.313743 265.894201 
L 405.139201 276.438454 
L 405.840178 272.177448 
L 406.789416 272.512132 
L 407.066886 286.706084 
L 407.139904 246.872737 
L 407.475789 277.840189 
L 407.797069 279.713155 
L 408.103746 260.414824 
L 409.096796 278.839778 
L 409.87079 275.720412 
L 410.717803 265.891476 
L 411.360364 293.28638 
L 411.783871 285.459098 
L 414.48555 282.478118 
L 414.704605 292.796074 
L 414.748416 272.620995 
L 415.069696 274.247388 
L 415.157318 291.097165 
L 415.858294 265.962859 
L 416.077349 287.305185 
L 416.749118 186.779673 
L 417.11421 296.381065 
L 417.917412 298.134954 
L 418.078052 275.942712 
L 418.165674 282.269419 
L 419.027291 294.549173 
L 419.42159 273.707619 
L 419.757474 306.723709 
L 420.779731 284.532564 
L 421.101012 265.771832 
L 421.582933 261.112431 
L 421.831195 296.192042 
L 421.933421 291.096943 
L 422.517567 292.974151 
L 422.780433 275.934197 
L 422.868055 259.679393 
L 422.911866 261.463564 
L 424.021745 268.574574 
L 424.036349 227.872719 
L 424.065556 244.527258 
L 424.722721 269.775377 
L 425.175435 293.40439 
L 425.569734 300.056646 
L 425.613545 290.439436 
L 425.686564 293.210336 
L 426.504369 292.111497 
L 426.723424 297.137589 
L 426.854857 261.889732 
L 426.884064 307.406574 
L 427.599644 301.810506 
L 428.432053 274.337648 
L 429.089218 274.72684 
L 429.877817 245.495747 
L 429.89242 276.764916 
L 430.213701 287.121061 
L 404.949354 263.799669 
L 405.109994 281.856786 
L 406.731001 280.98349 
L 407.037678 270.343451 
L 408.045332 287.883352 
L 408.103746 266.625536 
L 408.804722 306.32075 
L 409.15521 304.717288 
L 410.002223 278.87273 
L 411.082895 273.934879 
L 411.667041 269.894402 
L 411.783871 292.1771 
L 412.251188 289.476258 
L 412.441036 292.311218 
L 413.375671 301.896034 
L 414.324909 291.297246 
L 414.660794 281.397916 
L 415.887502 293.089283 
L 415.931313 258.254565 
L 416.004331 290.887868 
L 416.982777 280.288804 
L 417.245643 282.267939 
L 418.340918 292.809806 
L 418.910461 277.736082 
L 418.925065 271.192134 
L 421.217841 281.262539 
L 421.831195 266.942005 
L 421.845799 297.582903 
L 422.795037 279.889261 
L 422.882659 292.485527 
L 423.174733 287.193135 
L 423.262355 271.83969 
L 423.569032 275.64645 
L 423.656654 284.887934 
L 424.532874 301.904025 
L 425.39449 263.347176 
L 425.964033 289.17107 
L 429.089218 275.737246 
L 429.45431 279.016262 
L 429.644158 252.8963 
L 430.038457 274.064889 
L 430.140683 295.478332 
L 430.374341 279.677689 
L 430.491171 203.003897 
L 430.695622 279.038458 
L 431.104525 274.901394 
L 432.112178 255.18005 
L 432.155989 267.991082 
L 432.769343 287.192186 
L 433.280471 263.047792 
L 433.820807 304.490044 
L 435.149741 277.156635 
L 435.3834 282.859098 
L 436.945992 288.825233 
L 437.048218 278.059634 
L 437.223462 286.958493 
L 437.968249 289.833918 
L 438.143493 278.757934 
L 439.457823 276.673025 
L 439.501634 277.854281 
L 441.648374 272.482767 
L 441.706788 283.032658 
L 441.721392 264.538404 
L 441.969654 288.173163 
L 442.334746 285.008301 
L 442.495386 288.333128 
L 442.641423 274.344355 
L 443.137948 275.918402 
L 443.283985 256.04051 
L 443.66368 292.366319 
L 444.320845 280.314268 
L 445.401516 289.485954 
L 445.752005 297.566067 
L 446.029474 295.084073 
L 446.233926 291.287549 
L 446.715847 277.15412 
L 448.366061 289.066066 
L 449.081641 280.012522 
L 450.264538 286.191678 
L 450.425179 224.108262 
L 450.717252 270.446626 
L 451.593472 299.273551 
L 451.78332 282.935622 
L 452.615729 270.765944 
L 452.776369 210.508689 
L 454.178321 307.862587 
L 456.237439 275.099186 
L 456.806982 280.483204 
L 457.230488 276.62241 
L 457.800031 291.359648 
L 458.501007 287.657413 
L 459.231191 273.981496 
L 459.34802 244.18667 
L 459.78613 291.929011 
L 460.122015 304.556946 
L 460.326466 262.271837 
L 461.158875 290.320852 
L 462.560827 303.671658 
L 463.276407 275.577994 
L 464.152627 254.752279 
L 464.824396 276.946899 
L 465.262506 284.686713 
L 465.583787 297.141868 
L 465.700616 261.264699 
L 467.482264 290.67138 
L 467.920374 288.348528 
L 468.241655 280.552193 
L 468.723576 288.320866 
L 469.804247 286.433887 
L 470.37379 275.936726 
L 471.629706 273.96191 
L 472.695774 313.709411 
L 473.060865 270.835234 
L 473.250713 264.789696 
L 473.382146 290.607395 
L 474.535836 265.245248 
L 475.397452 274.752137 
L 477.062271 297.746578 
L 477.281326 302.681816 
L 478.435015 290.435681 
L 479.340443 283.529302 
L 479.705535 294.826168 
L 481.005261 281.380466 
L 481.545597 278.371957 
L 482.056725 264.587604 
L 482.538646 298.184572 
L 483.137397 292.11317 
L 484.714593 288.700633 
L 484.948252 227.423492 
L 485.386362 270.508896 
L 485.620021 233.857848 
L 486.540052 292.920886 
L 486.554655 301.713947 
L 486.759107 260.422603 
L 488.36551 276.682372 
L 488.555358 271.748964 
L 488.715998 292.127117 
L 490.176365 283.925993 
L 491.154811 266.710637 
L 491.768165 239.52204 
L 494.075545 244.15198 
L 495.302253 273.10817 
L 495.33146 298.383178 
L 495.930211 300.000947 
L 495.944814 298.172651 
L 496.178473 297.109467 
L 496.368321 281.193947 
L 496.397528 307.428411 
L 497.843291 292.516389 
L 500.033842 280.370525 
L 500.968476 284.658282 
L 501.056098 283.996821 
L 501.14372 277.297947 
L 501.202135 298.982688 
L 501.216739 296.019419 
L 502.312014 278.794649 
L 502.896161 273.316722 
L 503.699363 280.289635 
L 505.291162 302.337825 
L 505.451803 275.989678 
L 505.568632 298.243441 
L 506.269608 270.618879 
L 507.204243 306.61866 
L 507.248054 302.51839 
L 507.700768 290.331836 
L 507.846804 275.293993 
L 507.94903 296.24025 
L 508.211896 287.530202 
L 509.044305 200.152026 
L 509.38019 285.929175 
L 509.686867 287.080324 
L 510.942782 271.662625 
L 512.271716 244.278602 
L 512.300923 272.17465 
L 512.768241 300.818527 
L 513.031107 295.872509 
L 517.163945 302.647074 
L 517.543641 293.839931 
L 518.186202 295.966901 
L 518.989404 278.07186 
L 519.894831 283.952913 
L 520.084679 259.31769 
L 521.428217 306.377332 
L 521.851723 297.976202 
L 522.421266 279.885286 
L 523.370504 305.838268 
L 526.510293 295.180864 
L 527.663983 278.098192 
L 528.364959 298.007986 
L 528.642429 292.8602 
L 528.934502 295.596537 
L 529.007521 260.517239 
L 529.241179 309.332385 
L 529.416423 287.596577 
L 529.650082 292.400711 
L 530.044381 278.315669 
L 531.037431 294.394916 
L 531.75301 260.257432 
L 531.942858 295.763447 
L 532.059687 290.877344 
L 533.447036 312.674897 
L 534.4985 316.521311 
L 534.980421 279.494247 
L 535.21408 324.393018 
L 535.944263 301.478736 
L 535.988074 281.580035 
L 536.294751 300.710584 
L 536.469995 268.963896 
L 536.747465 309.22621 
L 537.024935 299.29721 
L 539.011034 302.469969 
L 540.193931 308.109 
L 540.208535 294.7987 
L 540.705059 306.977852 
L 540.982529 286.619505 
L 541.654298 282.94033 
L 542.705762 276.223499 
L 542.77878 228.308026 
L 543.158476 293.781422 
L 543.830245 281.052991 
L 544.0493 330.186033 
L 545.2468 275.657369 
L 545.874758 298.807674 
L 546.166832 289.897702 
L 546.444301 299.717486 
L 546.853204 305.847164 
L 547.481162 297.747474 
L 549.043754 297.180728 
L 549.408846 308.67509 
L 549.511072 307.212049 
L 549.569486 272.990079 
L 551.01525 294.887998 
L 551.059061 298.022776 
L 551.643207 297.853821 
L 553.015952 300.472519 
L 553.220404 306.751456 
L 553.48327 283.889519 
L 554.096624 286.021413 
L 555.542387 301.277759 
L 558.068822 314.734276 
L 558.842816 304.121227 
L 560.420012 292.79067 
L 560.580653 280.923024 
L 562.376904 252.899468 
L 563.778856 289.800582 
L 564.085533 312.013007 
L 564.625869 303.038937 
L 565.151601 286.603012 
L 565.166205 276.247051 
L 565.531296 302.56273 
L 566.436724 278.459976 
L 567.473584 304.321423 
L 567.85328 278.716942 
L 568.437427 258.868393 
L 569.109195 306.84632 
L 570.058434 299.052708 
L 570.160659 310.835131 
L 570.978465 282.041845 
L 571.109898 316.785112 
L 571.971514 301.764472 
L 572.161362 278.176779 
L 574.278894 293.709934 
L 574.454138 292.5104 
L 574.936059 299.788704 
L 575.549413 299.987874 
L 576.498652 281.535299 
L 577.579323 257.981807 
L 578.265696 267.338772 
L 578.791428 297.458963 
L 579.214934 276.500914 
L 579.638441 305.685427 
L 579.828288 304.340132 
L 579.872099 285.520068 
L 580.835941 301.462105 
L 580.879752 290.206384 
L 581.50771 312.161842 
L 582.077253 292.847386 
L 582.22329 302.263125 
L 583.041095 260.929313 
L 584.96878 280.906759 
L 585.071005 283.809661 
L 585.085609 272.08131 
L 585.187835 276.764372 
L 586.137073 303.421498 
L 586.545976 286.93902 
L 586.72122 256.963549 
L 587.013293 310.702794 
L 588.678112 264.8949 
L 588.736526 291.24665 
L 589.130825 304.664192 
L 589.160033 304.640436 
L 590.138478 285.543271 
L 590.474363 297.410817 
L 591.49662 325.464355 
L 591.642656 290.396457 
L 591.890919 260.012442 
L 591.993144 261.295221 
L 592.036955 267.983899 
L 592.241407 279.332569 
L 592.402047 295.739831 
L 594.388146 291.248085 
L 594.928482 306.877905 
L 595.731684 261.183934 
L 595.833909 290.94128 
L 596.783148 267.922816 
L 597.148239 276.356887 
L 597.279673 289.123438 
L 597.454917 275.314431 
L 597.732386 272.770789 
L 597.980649 280.363297 
L 598.199704 314.263502 
L 598.769247 270.981256 
L 598.944491 311.854532 
L 599.309582 300.843837 
L 599.747693 297.069275 
L 599.849918 287.019133 
L 600.696931 299.87112 
L 601.3687 305.34411 
L 601.646169 309.73983 
L 601.748395 285.079393 
L 602.420164 303.926556 
L 603.179555 287.128384 
L 603.223366 300.135029 
L 603.734494 308.535452 
L 605.092635 306.674494 
L 605.58916 285.437356 
L 605.632971 288.602077 
L 606.392362 275.881547 
L 606.406966 286.030363 
L 606.713643 275.296587 
L 607.516844 304.333449 
L 607.911143 296.880171 
L 608.787364 286.218646 
L 608.801967 276.834624 
L 609.181663 283.501911 
L 609.356907 319.962552 
L 609.575962 305.625275 
L 609.868035 266.385957 
L 609.999468 177.991112 
L 610.130901 223.924026 
L 610.569011 306.217567 
L 611.284591 283.15479 
L 612.087793 276.750674 
L 612.55511 310.790804 
L 612.876391 298.59858 
L 613.942459 253.423847 
L 616.162216 317.157342 
L 616.877796 295.78982 
L 617.403528 309.155018 
L 618.308956 301.003644 
L 619.433438 329.066992 
L 619.477249 288.566258 
L 620.587128 307.62506 
L 620.893805 294.778002 
L 621.010634 255.022907 
L 621.229689 314.836738 
L 621.317311 287.163902 
L 622.251946 286.05382 
L 622.777678 296.155184 
L 622.792282 283.285097 
L 624.048198 323.046354 
L 624.092009 278.468943 
L 624.486308 320.009148 
L 626.983535 322.205658 
L 627.085761 293.594051 
L 628.049603 286.427603 
L 628.122621 287.348585 
L 628.735975 307.055158 
L 629.641403 311.805025 
L 629.889665 319.871621 
L 629.904269 282.370353 
L 630.868111 293.111541 
L 631.160184 290.45363 
L 631.70052 300.979097 
L 631.715124 306.159588 
L 631.758935 284.889916 
L 632.722777 308.969746 
L 633.482168 280.242509 
L 633.701223 290.503304 
L 633.920278 279.236159 
L 634.153936 295.969145 
L 634.343784 279.352626 
L 635.132382 299.14957 
L 635.234608 310.845897 
L 638.637263 318.291461 
L 639.513483 305.706926 
L 639.951593 313.111359 
L 640.229063 303.459752 
L 641.528789 290.645488 
L 642.098332 305.143717 
L 642.156747 319.454954 
L 642.28818 284.245071 
L 642.375802 306.262647 
L 642.740894 291.774241 
L 643.573303 298.733479 
L 644.201261 289.986199 
L 645.705438 287.76168 
L 646.596262 291.794598 
L 647.399464 306.349841 
L 647.881385 283.239467 
L 648.421721 277.01526 
L 649.473185 311.133534 
L 649.69224 289.932248 
L 650.480838 304.712531 
L 651.576113 309.099053 
L 651.72215 310.246502 
L 652.072638 303.512675 
L 653.124102 292.641742 
L 654.409225 291.265919 
L 654.920353 308.956989 
L 655.811177 274.375782 
L 656.088647 241.204139 
L 656.716605 292.571227 
L 657.724258 301.335312 
L 658.673496 300.18228 
L 658.994777 322.2917 
L 660.864047 328.462523 
L 662.339017 274.022881 
L 663.142219 310.725233 
L 663.361274 296.754128 
L 664.368927 315.264103 
L 664.865452 276.02537 
L 665.946123 307.763129 
L 666.179782 282.326481 
L 666.836947 295.366705 
L 668.005241 285.02026 
L 668.896065 301.425996 
L 668.910668 304.261066 
L 669.129723 311.236574 
L 669.757681 321.045109 
L 670.049754 256.16221 
L 670.75073 299.105466 
L 671.802195 293.000957 
L 673.861312 312.311528 
L 673.905123 292.090064 
L 674.197196 303.872063 
L 674.255611 287.692729 
L 676.197899 293.274483 
L 677.599851 303.010666 
L 677.891925 330.061339 
L 678.461468 312.070818 
L 678.622108 303.093369 
L 681.645067 309.805298 
L 681.645067 309.805298 
" clip-path="url(#pb2c847e920)" style="fill: none; stroke: #ff0000; stroke-width: 2; stroke-linecap: square"/>
   </g>
   <g id="patch_3">
    <path d="M 102.991484 359.4885 
L 102.991484 10.8 
" style="fill: none; stroke: #000000; stroke-width: 0.8; stroke-linejoin: miter; stroke-linecap: square"/>
   </g>
   <g id="patch_4">
    <path d="M 709.2 359.4885 
L 709.2 10.8 
" style="fill: none; stroke: #000000; stroke-width: 0.8; stroke-linejoin: miter; stroke-linecap: square"/>
   </g>
   <g id="patch_5">
    <path d="M 102.991484 359.4885 
L 709.2 359.4885 
" style="fill: none; stroke: #000000; stroke-width: 0.8; stroke-linejoin: miter; stroke-linecap: square"/>
   </g>
   <g id="patch_6">
    <path d="M 102.991484 10.8 
L 709.2 10.8 
" style="fill: none; stroke: #000000; stroke-width: 0.8; stroke-linejoin: miter; stroke-linecap: square"/>
   </g>
   <g id="legend_1">
    <g id="line2d_89">
     <path d="M 465.551562 49.02 
L 498.051562 49.02 
L 530.551562 49.02 
" style="fill: none; stroke: #0000ff; stroke-width: 2; stroke-linecap: square"/>
    </g>
    <g id="text_14">
     <!-- Training -->
     <g transform="translate(551.351562 61.24) scale(0.26 -0.26)">
      <defs>
       <path id="DejaVuSerif-54" d="M 1222 0 
L 1222 331 
L 1819 331 
L 1819 4294 
L 447 4294 
L 447 3566 
L 63 3566 
L 63 4666 
L 4206 4666 
L 4206 3566 
L 3822 3566 
L 3822 4294 
L 2450 4294 
L 2450 331 
L 3047 331 
L 3047 0 
L 1222 0 
z
" transform="scale(0.015625)"/>
       <path id="DejaVuSerif-67" d="M 3359 2988 
L 3359 72 
Q 3359 -644 2965 -1033 
Q 2572 -1422 1844 -1422 
Q 1516 -1422 1216 -1362 
Q 916 -1303 641 -1184 
L 641 -488 
L 941 -488 
Q 997 -813 1206 -963 
Q 1416 -1113 1806 -1113 
Q 2313 -1113 2548 -827 
Q 2784 -541 2784 72 
L 2784 519 
Q 2616 206 2355 57 
Q 2094 -91 1709 -91 
Q 1097 -91 708 395 
Q 319 881 319 1663 
Q 319 2444 706 2928 
Q 1094 3413 1709 3413 
Q 2094 3413 2355 3264 
Q 2616 3116 2784 2803 
L 2784 3322 
L 3909 3322 
L 3909 2988 
L 3359 2988 
z
M 2784 1825 
Q 2784 2422 2554 2737 
Q 2325 3053 1888 3053 
Q 1444 3053 1217 2703 
Q 991 2353 991 1663 
Q 991 975 1217 622 
Q 1444 269 1888 269 
Q 2325 269 2554 583 
Q 2784 897 2784 1497 
L 2784 1825 
z
" transform="scale(0.015625)"/>
      </defs>
      <use xlink:href="#DejaVuSerif-54"/>
      <use xlink:href="#DejaVuSerif-72" x="66.699219"/>
      <use xlink:href="#DejaVuSerif-61" x="114.501953"/>
      <use xlink:href="#DejaVuSerif-69" x="174.121094"/>
      <use xlink:href="#DejaVuSerif-6e" x="206.103516"/>
      <use xlink:href="#DejaVuSerif-69" x="270.507812"/>
      <use xlink:href="#DejaVuSerif-6e" x="302.490234"/>
      <use xlink:href="#DejaVuSerif-67" x="366.894531"/>
     </g>
    </g>
    <g id="line2d_90">
     <path d="M 465.551562 93.74 
L 498.051562 93.74 
L 530.551562 93.74 
" style="fill: none; stroke: #ff0000; stroke-width: 2; stroke-linecap: square"/>
    </g>
    <g id="text_15">
     <!-- Validation -->
     <g transform="translate(551.351562 105.96) scale(0.26 -0.26)">
      <defs>
       <path id="DejaVuSerif-56" d="M 1119 4331 
L 2497 750 
L 3872 4331 
L 3347 4331 
L 3347 4666 
L 4716 4666 
L 4716 4331 
L 4263 4331 
L 2597 0 
L 2059 0 
L 403 4331 
L -63 4331 
L -63 4666 
L 1638 4666 
L 1638 4331 
L 1119 4331 
z
" transform="scale(0.015625)"/>
       <path id="DejaVuSerif-6c" d="M 1313 331 
L 1856 331 
L 1856 0 
L 184 0 
L 184 331 
L 738 331 
L 738 4531 
L 184 4531 
L 184 4863 
L 1313 4863 
L 1313 331 
z
" transform="scale(0.015625)"/>
       <path id="DejaVuSerif-64" d="M 3359 331 
L 3909 331 
L 3909 0 
L 2784 0 
L 2784 519 
Q 2616 206 2355 57 
Q 2094 -91 1709 -91 
Q 1097 -91 708 395 
Q 319 881 319 1663 
Q 319 2444 706 2928 
Q 1094 3413 1709 3413 
Q 2094 3413 2355 3264 
Q 2616 3116 2784 2803 
L 2784 4531 
L 2241 4531 
L 2241 4863 
L 3359 4863 
L 3359 331 
z
M 2784 1497 
L 2784 1825 
Q 2784 2422 2554 2737 
Q 2325 3053 1888 3053 
Q 1444 3053 1217 2703 
Q 991 2353 991 1663 
Q 991 975 1217 622 
Q 1444 269 1888 269 
Q 2325 269 2554 583 
Q 2784 897 2784 1497 
z
" transform="scale(0.015625)"/>
      </defs>
      <use xlink:href="#DejaVuSerif-56"/>
      <use xlink:href="#DejaVuSerif-61" x="63.091797"/>
      <use xlink:href="#DejaVuSerif-6c" x="122.710938"/>
      <use xlink:href="#DejaVuSerif-69" x="154.693359"/>
      <use xlink:href="#DejaVuSerif-64" x="186.675781"/>
      <use xlink:href="#DejaVuSerif-61" x="250.689453"/>
      <use xlink:href="#DejaVuSerif-74" x="310.308594"/>
      <use xlink:href="#DejaVuSerif-69" x="350.494141"/>
      <use xlink:href="#DejaVuSerif-6f" x="382.476562"/>
      <use xlink:href="#DejaVuSerif-6e" x="442.681641"/>
     </g>
    </g>
   </g>
  </g>
 </g>
 <defs>
  <clipPath id="pb2c847e920">
   <rect x="102.991484" y="10.8" width="606.208516" height="348.6885"/>
  </clipPath>
 </defs>
</svg>
