<?xml version="1.0" encoding="utf-8" standalone="no"?>
<!DOCTYPE svg PUBLIC "-//W3C//DTD SVG 1.1//EN"
  "http://www.w3.org/Graphics/SVG/1.1/DTD/svg11.dtd">
<svg xmlns:xlink="http://www.w3.org/1999/xlink" width="720pt" height="432pt" viewBox="0 0 720 432" xmlns="http://www.w3.org/2000/svg" version="1.1">
 <metadata>
  <rdf:RDF xmlns:dc="http://purl.org/dc/elements/1.1/" xmlns:cc="http://creativecommons.org/ns#" xmlns:rdf="http://www.w3.org/1999/02/22-rdf-syntax-ns#">
   <cc:Work>
    <dc:type rdf:resource="http://purl.org/dc/dcmitype/StillImage"/>
    <dc:date>2025-07-04T23:19:35.307539</dc:date>
    <dc:format>image/svg+xml</dc:format>
    <dc:creator>
     <cc:Agent>
      <dc:title>Matplotlib v3.7.5, https://matplotlib.org/</dc:title>
     </cc:Agent>
    </dc:creator>
   </cc:Work>
  </rdf:RDF>
 </metadata>
 <defs>
  <style type="text/css">*{stroke-linejoin: round; stroke-linecap: butt}</style>
 </defs>
 <g id="figure_1">
  <g id="patch_1">
   <path d="M 0 432 
L 720 432 
L 720 0 
L 0 0 
z
" style="fill: #ffffff"/>
  </g>
  <g id="axes_1">
   <g id="patch_2">
    <path d="M 101.798984 359.4885 
L 709.2 359.4885 
L 709.2 10.8 
L 101.798984 10.8 
z
" style="fill: #ffffff"/>
   </g>
   <g id="matplotlib.axis_1">
    <g id="xtick_1">
     <g id="line2d_1">
      <defs>
       <path id="mc5dadd30d8" d="M 0 0 
L 0 -6 
" style="stroke: #000000"/>
      </defs>
      <g>
       <use xlink:href="#mc5dadd30d8" x="128.689801" y="359.4885" style="stroke: #000000"/>
      </g>
     </g>
     <g id="line2d_2">
      <defs>
       <path id="m6b312eaf53" d="M 0 0 
L 0 6 
" style="stroke: #000000"/>
      </defs>
      <g>
       <use xlink:href="#m6b312eaf53" x="128.689801" y="10.8" style="stroke: #000000"/>
      </g>
     </g>
     <g id="text_1">
      <!-- 0 -->
      <g transform="translate(120.418551 382.744438) scale(0.26 -0.26)">
       <defs>
        <path id="DejaVuSerif-30" d="M 2034 219 
Q 2513 219 2750 744 
Q 2988 1269 2988 2328 
Q 2988 3391 2750 3916 
Q 2513 4441 2034 4441 
Q 1556 4441 1318 3916 
Q 1081 3391 1081 2328 
Q 1081 1269 1318 744 
Q 1556 219 2034 219 
z
M 2034 -91 
Q 1275 -91 848 546 
Q 422 1184 422 2328 
Q 422 3475 848 4112 
Q 1275 4750 2034 4750 
Q 2797 4750 3222 4112 
Q 3647 3475 3647 2328 
Q 3647 1184 3222 546 
Q 2797 -91 2034 -91 
z
" transform="scale(0.015625)"/>
       </defs>
       <use xlink:href="#DejaVuSerif-30"/>
      </g>
     </g>
    </g>
    <g id="xtick_2">
     <g id="line2d_3">
      <g>
       <use xlink:href="#mc5dadd30d8" x="231.306924" y="359.4885" style="stroke: #000000"/>
      </g>
     </g>
     <g id="line2d_4">
      <g>
       <use xlink:href="#m6b312eaf53" x="231.306924" y="10.8" style="stroke: #000000"/>
      </g>
     </g>
     <g id="text_2">
      <!-- 60 -->
      <g transform="translate(214.764424 382.744438) scale(0.26 -0.26)">
       <defs>
        <path id="DejaVuSerif-36" d="M 2094 219 
Q 2534 219 2771 542 
Q 3009 866 3009 1472 
Q 3009 2078 2771 2401 
Q 2534 2725 2094 2725 
Q 1647 2725 1412 2412 
Q 1178 2100 1178 1509 
Q 1178 888 1415 553 
Q 1653 219 2094 219 
z
M 1075 2569 
Q 1288 2803 1556 2918 
Q 1825 3034 2163 3034 
Q 2859 3034 3264 2615 
Q 3669 2197 3669 1472 
Q 3669 763 3233 336 
Q 2797 -91 2069 -91 
Q 1278 -91 853 498 
Q 428 1088 428 2181 
Q 428 3406 931 4078 
Q 1434 4750 2350 4750 
Q 2597 4750 2869 4703 
Q 3141 4656 3425 4563 
L 3425 3794 
L 3072 3794 
Q 3034 4109 2831 4275 
Q 2628 4441 2284 4441 
Q 1678 4441 1381 3981 
Q 1084 3522 1075 2569 
z
" transform="scale(0.015625)"/>
       </defs>
       <use xlink:href="#DejaVuSerif-36"/>
       <use xlink:href="#DejaVuSerif-30" x="63.623047"/>
      </g>
     </g>
    </g>
    <g id="xtick_3">
     <g id="line2d_5">
      <g>
       <use xlink:href="#mc5dadd30d8" x="333.924048" y="359.4885" style="stroke: #000000"/>
      </g>
     </g>
     <g id="line2d_6">
      <g>
       <use xlink:href="#m6b312eaf53" x="333.924048" y="10.8" style="stroke: #000000"/>
      </g>
     </g>
     <g id="text_3">
      <!-- 120 -->
      <g transform="translate(309.110298 382.744438) scale(0.26 -0.26)">
       <defs>
        <path id="DejaVuSerif-31" d="M 909 0 
L 909 331 
L 1722 331 
L 1722 4213 
L 781 3603 
L 781 4013 
L 1919 4750 
L 2350 4750 
L 2350 331 
L 3163 331 
L 3163 0 
L 909 0 
z
" transform="scale(0.015625)"/>
        <path id="DejaVuSerif-32" d="M 819 3553 
L 469 3553 
L 469 4384 
Q 803 4563 1142 4656 
Q 1481 4750 1806 4750 
Q 2534 4750 2956 4397 
Q 3378 4044 3378 3438 
Q 3378 2753 2422 1800 
Q 2347 1728 2309 1691 
L 1131 513 
L 3078 513 
L 3078 1088 
L 3444 1088 
L 3444 0 
L 434 0 
L 434 341 
L 1850 1753 
Q 2319 2222 2519 2614 
Q 2719 3006 2719 3438 
Q 2719 3909 2473 4175 
Q 2228 4441 1797 4441 
Q 1350 4441 1106 4219 
Q 863 3997 819 3553 
z
" transform="scale(0.015625)"/>
       </defs>
       <use xlink:href="#DejaVuSerif-31"/>
       <use xlink:href="#DejaVuSerif-32" x="63.623047"/>
       <use xlink:href="#DejaVuSerif-30" x="127.246094"/>
      </g>
     </g>
    </g>
    <g id="xtick_4">
     <g id="line2d_7">
      <g>
       <use xlink:href="#mc5dadd30d8" x="436.541172" y="359.4885" style="stroke: #000000"/>
      </g>
     </g>
     <g id="line2d_8">
      <g>
       <use xlink:href="#m6b312eaf53" x="436.541172" y="10.8" style="stroke: #000000"/>
      </g>
     </g>
     <g id="text_4">
      <!-- 180 -->
      <g transform="translate(411.727422 382.744438) scale(0.26 -0.26)">
       <defs>
        <path id="DejaVuSerif-38" d="M 2981 1275 
Q 2981 1775 2732 2051 
Q 2484 2328 2034 2328 
Q 1584 2328 1336 2051 
Q 1088 1775 1088 1275 
Q 1088 772 1336 495 
Q 1584 219 2034 219 
Q 2484 219 2732 495 
Q 2981 772 2981 1275 
z
M 2853 3541 
Q 2853 3966 2637 4203 
Q 2422 4441 2034 4441 
Q 1650 4441 1433 4203 
Q 1216 3966 1216 3541 
Q 1216 3113 1433 2875 
Q 1650 2638 2034 2638 
Q 2422 2638 2637 2875 
Q 2853 3113 2853 3541 
z
M 2516 2484 
Q 3047 2413 3344 2092 
Q 3641 1772 3641 1275 
Q 3641 619 3225 264 
Q 2809 -91 2034 -91 
Q 1263 -91 845 264 
Q 428 619 428 1275 
Q 428 1772 725 2092 
Q 1022 2413 1556 2484 
Q 1084 2569 832 2842 
Q 581 3116 581 3541 
Q 581 4103 968 4426 
Q 1356 4750 2034 4750 
Q 2713 4750 3100 4426 
Q 3488 4103 3488 3541 
Q 3488 3116 3236 2842 
Q 2984 2569 2516 2484 
z
" transform="scale(0.015625)"/>
       </defs>
       <use xlink:href="#DejaVuSerif-31"/>
       <use xlink:href="#DejaVuSerif-38" x="63.623047"/>
       <use xlink:href="#DejaVuSerif-30" x="127.246094"/>
      </g>
     </g>
    </g>
    <g id="xtick_5">
     <g id="line2d_9">
      <g>
       <use xlink:href="#mc5dadd30d8" x="539.158295" y="359.4885" style="stroke: #000000"/>
      </g>
     </g>
     <g id="line2d_10">
      <g>
       <use xlink:href="#m6b312eaf53" x="539.158295" y="10.8" style="stroke: #000000"/>
      </g>
     </g>
     <g id="text_5">
      <!-- 240 -->
      <g transform="translate(514.344545 382.744438) scale(0.26 -0.26)">
       <defs>
        <path id="DejaVuSerif-34" d="M 2234 1581 
L 2234 4063 
L 641 1581 
L 2234 1581 
z
M 3609 0 
L 1484 0 
L 1484 331 
L 2234 331 
L 2234 1247 
L 197 1247 
L 197 1588 
L 2241 4750 
L 2859 4750 
L 2859 1581 
L 3750 1581 
L 3750 1247 
L 2859 1247 
L 2859 331 
L 3609 331 
L 3609 0 
z
" transform="scale(0.015625)"/>
       </defs>
       <use xlink:href="#DejaVuSerif-32"/>
       <use xlink:href="#DejaVuSerif-34" x="63.623047"/>
       <use xlink:href="#DejaVuSerif-30" x="127.246094"/>
      </g>
     </g>
    </g>
    <g id="xtick_6">
     <g id="line2d_11">
      <g>
       <use xlink:href="#mc5dadd30d8" x="641.775419" y="359.4885" style="stroke: #000000"/>
      </g>
     </g>
     <g id="line2d_12">
      <g>
       <use xlink:href="#m6b312eaf53" x="641.775419" y="10.8" style="stroke: #000000"/>
      </g>
     </g>
     <g id="text_6">
      <!-- 300 -->
      <g transform="translate(616.961669 382.744438) scale(0.26 -0.26)">
       <defs>
        <path id="DejaVuSerif-33" d="M 622 4469 
Q 988 4606 1323 4678 
Q 1659 4750 1953 4750 
Q 2638 4750 3022 4454 
Q 3406 4159 3406 3634 
Q 3406 3213 3140 2930 
Q 2875 2647 2388 2547 
Q 2963 2466 3280 2130 
Q 3597 1794 3597 1259 
Q 3597 606 3158 257 
Q 2719 -91 1894 -91 
Q 1528 -91 1179 -12 
Q 831 66 488 225 
L 488 1131 
L 838 1131 
Q 869 681 1141 450 
Q 1413 219 1906 219 
Q 2384 219 2661 495 
Q 2938 772 2938 1253 
Q 2938 1803 2653 2086 
Q 2369 2369 1819 2369 
L 1522 2369 
L 1522 2688 
L 1678 2688 
Q 2225 2688 2498 2914 
Q 2772 3141 2772 3597 
Q 2772 4006 2547 4223 
Q 2322 4441 1900 4441 
Q 1478 4441 1245 4241 
Q 1013 4041 972 3647 
L 622 3647 
L 622 4469 
z
" transform="scale(0.015625)"/>
       </defs>
       <use xlink:href="#DejaVuSerif-33"/>
       <use xlink:href="#DejaVuSerif-30" x="63.623047"/>
       <use xlink:href="#DejaVuSerif-30" x="127.246094"/>
      </g>
     </g>
    </g>
    <g id="text_7">
     <!-- Iteration ($\times 10^3$) -->
     <g transform="translate(299.809492 414.564437) scale(0.26 -0.26)">
      <defs>
       <path id="DejaVuSerif-49" d="M 1581 331 
L 2175 331 
L 2175 0 
L 353 0 
L 353 331 
L 947 331 
L 947 4331 
L 353 4331 
L 353 4666 
L 2175 4666 
L 2175 4331 
L 1581 4331 
L 1581 331 
z
" transform="scale(0.015625)"/>
       <path id="DejaVuSerif-74" d="M 691 2988 
L 184 2988 
L 184 3322 
L 691 3322 
L 691 4353 
L 1269 4353 
L 1269 3322 
L 2350 3322 
L 2350 2988 
L 1269 2988 
L 1269 878 
Q 1269 456 1350 337 
Q 1431 219 1650 219 
Q 1875 219 1978 351 
Q 2081 484 2088 781 
L 2522 781 
Q 2497 328 2275 118 
Q 2053 -91 1600 -91 
Q 1103 -91 897 129 
Q 691 350 691 878 
L 691 2988 
z
" transform="scale(0.015625)"/>
       <path id="DejaVuSerif-65" d="M 3469 1600 
L 991 1600 
L 991 1575 
Q 991 903 1244 561 
Q 1497 219 1991 219 
Q 2369 219 2611 417 
Q 2853 616 2950 1006 
L 3413 1006 
Q 3275 459 2904 184 
Q 2534 -91 1931 -91 
Q 1203 -91 761 389 
Q 319 869 319 1663 
Q 319 2450 753 2931 
Q 1188 3413 1894 3413 
Q 2647 3413 3050 2948 
Q 3453 2484 3469 1600 
z
M 2791 1931 
Q 2772 2513 2545 2808 
Q 2319 3103 1894 3103 
Q 1497 3103 1269 2806 
Q 1041 2509 991 1931 
L 2791 1931 
z
" transform="scale(0.015625)"/>
       <path id="DejaVuSerif-72" d="M 3059 3328 
L 3059 2497 
L 2728 2497 
Q 2713 2744 2591 2866 
Q 2469 2988 2234 2988 
Q 1809 2988 1582 2694 
Q 1356 2400 1356 1850 
L 1356 331 
L 2022 331 
L 2022 0 
L 263 0 
L 263 331 
L 781 331 
L 781 2994 
L 231 2994 
L 231 3322 
L 1356 3322 
L 1356 2731 
Q 1525 3078 1790 3245 
Q 2056 3413 2438 3413 
Q 2578 3413 2733 3391 
Q 2888 3369 3059 3328 
z
" transform="scale(0.015625)"/>
       <path id="DejaVuSerif-61" d="M 2547 1044 
L 2547 1747 
L 1806 1747 
Q 1378 1747 1168 1562 
Q 959 1378 959 997 
Q 959 650 1171 447 
Q 1384 244 1747 244 
Q 2106 244 2326 466 
Q 2547 688 2547 1044 
z
M 3122 2075 
L 3122 331 
L 3634 331 
L 3634 0 
L 2547 0 
L 2547 359 
Q 2356 128 2106 18 
Q 1856 -91 1522 -91 
Q 969 -91 644 203 
Q 319 497 319 997 
Q 319 1513 691 1797 
Q 1063 2081 1741 2081 
L 2547 2081 
L 2547 2309 
Q 2547 2688 2317 2895 
Q 2088 3103 1672 3103 
Q 1328 3103 1125 2947 
Q 922 2791 872 2484 
L 575 2484 
L 575 3156 
Q 875 3284 1158 3348 
Q 1441 3413 1709 3413 
Q 2400 3413 2761 3070 
Q 3122 2728 3122 2075 
z
" transform="scale(0.015625)"/>
       <path id="DejaVuSerif-69" d="M 622 4353 
Q 622 4497 726 4603 
Q 831 4709 978 4709 
Q 1122 4709 1226 4603 
Q 1331 4497 1331 4353 
Q 1331 4206 1228 4103 
Q 1125 4000 978 4000 
Q 831 4000 726 4103 
Q 622 4206 622 4353 
z
M 1356 331 
L 1900 331 
L 1900 0 
L 231 0 
L 231 331 
L 781 331 
L 781 2988 
L 231 2988 
L 231 3322 
L 1356 3322 
L 1356 331 
z
" transform="scale(0.015625)"/>
       <path id="DejaVuSerif-6f" d="M 1925 219 
Q 2388 219 2623 584 
Q 2859 950 2859 1663 
Q 2859 2375 2623 2739 
Q 2388 3103 1925 3103 
Q 1463 3103 1227 2739 
Q 991 2375 991 1663 
Q 991 950 1228 584 
Q 1466 219 1925 219 
z
M 1925 -91 
Q 1200 -91 759 389 
Q 319 869 319 1663 
Q 319 2456 758 2934 
Q 1197 3413 1925 3413 
Q 2653 3413 3092 2934 
Q 3531 2456 3531 1663 
Q 3531 869 3092 389 
Q 2653 -91 1925 -91 
z
" transform="scale(0.015625)"/>
       <path id="DejaVuSerif-6e" d="M 263 0 
L 263 331 
L 781 331 
L 781 2988 
L 231 2988 
L 231 3322 
L 1356 3322 
L 1356 2731 
Q 1516 3069 1770 3241 
Q 2025 3413 2363 3413 
Q 2913 3413 3172 3097 
Q 3431 2781 3431 2113 
L 3431 331 
L 3944 331 
L 3944 0 
L 2356 0 
L 2356 331 
L 2853 331 
L 2853 1931 
Q 2853 2541 2703 2767 
Q 2553 2994 2175 2994 
Q 1775 2994 1565 2701 
Q 1356 2409 1356 1850 
L 1356 331 
L 1856 331 
L 1856 0 
L 263 0 
z
" transform="scale(0.015625)"/>
       <path id="DejaVuSerif-20" transform="scale(0.015625)"/>
       <path id="DejaVuSerif-28" d="M 2041 -997 
Q 1281 -656 893 83 
Q 506 822 506 1931 
Q 506 3044 893 3783 
Q 1281 4522 2041 4863 
L 2041 4556 
Q 1559 4225 1350 3623 
Q 1141 3022 1141 1931 
Q 1141 844 1350 242 
Q 1559 -359 2041 -691 
L 2041 -997 
z
" transform="scale(0.015625)"/>
       <path id="DejaVuSans-d7" d="M 4488 3438 
L 3059 2003 
L 4488 575 
L 4116 197 
L 2681 1631 
L 1247 197 
L 878 575 
L 2303 2003 
L 878 3438 
L 1247 3816 
L 2681 2381 
L 4116 3816 
L 4488 3438 
z
" transform="scale(0.015625)"/>
       <path id="DejaVuSans-31" d="M 794 531 
L 1825 531 
L 1825 4091 
L 703 3866 
L 703 4441 
L 1819 4666 
L 2450 4666 
L 2450 531 
L 3481 531 
L 3481 0 
L 794 0 
L 794 531 
z
" transform="scale(0.015625)"/>
       <path id="DejaVuSans-30" d="M 2034 4250 
Q 1547 4250 1301 3770 
Q 1056 3291 1056 2328 
Q 1056 1369 1301 889 
Q 1547 409 2034 409 
Q 2525 409 2770 889 
Q 3016 1369 3016 2328 
Q 3016 3291 2770 3770 
Q 2525 4250 2034 4250 
z
M 2034 4750 
Q 2819 4750 3233 4129 
Q 3647 3509 3647 2328 
Q 3647 1150 3233 529 
Q 2819 -91 2034 -91 
Q 1250 -91 836 529 
Q 422 1150 422 2328 
Q 422 3509 836 4129 
Q 1250 4750 2034 4750 
z
" transform="scale(0.015625)"/>
       <path id="DejaVuSans-33" d="M 2597 2516 
Q 3050 2419 3304 2112 
Q 3559 1806 3559 1356 
Q 3559 666 3084 287 
Q 2609 -91 1734 -91 
Q 1441 -91 1130 -33 
Q 819 25 488 141 
L 488 750 
Q 750 597 1062 519 
Q 1375 441 1716 441 
Q 2309 441 2620 675 
Q 2931 909 2931 1356 
Q 2931 1769 2642 2001 
Q 2353 2234 1838 2234 
L 1294 2234 
L 1294 2753 
L 1863 2753 
Q 2328 2753 2575 2939 
Q 2822 3125 2822 3475 
Q 2822 3834 2567 4026 
Q 2313 4219 1838 4219 
Q 1578 4219 1281 4162 
Q 984 4106 628 3988 
L 628 4550 
Q 988 4650 1302 4700 
Q 1616 4750 1894 4750 
Q 2613 4750 3031 4423 
Q 3450 4097 3450 3541 
Q 3450 3153 3228 2886 
Q 3006 2619 2597 2516 
z
" transform="scale(0.015625)"/>
       <path id="DejaVuSerif-29" d="M 453 -997 
L 453 -691 
Q 934 -359 1145 242 
Q 1356 844 1356 1931 
Q 1356 3022 1145 3623 
Q 934 4225 453 4556 
L 453 4863 
Q 1216 4522 1603 3783 
Q 1991 3044 1991 1931 
Q 1991 822 1603 83 
Q 1216 -656 453 -997 
z
" transform="scale(0.015625)"/>
      </defs>
      <use xlink:href="#DejaVuSerif-49" transform="translate(0 0.765625)"/>
      <use xlink:href="#DejaVuSerif-74" transform="translate(39.501953 0.765625)"/>
      <use xlink:href="#DejaVuSerif-65" transform="translate(79.6875 0.765625)"/>
      <use xlink:href="#DejaVuSerif-72" transform="translate(138.867188 0.765625)"/>
      <use xlink:href="#DejaVuSerif-61" transform="translate(186.669922 0.765625)"/>
      <use xlink:href="#DejaVuSerif-74" transform="translate(246.289062 0.765625)"/>
      <use xlink:href="#DejaVuSerif-69" transform="translate(286.474609 0.765625)"/>
      <use xlink:href="#DejaVuSerif-6f" transform="translate(318.457031 0.765625)"/>
      <use xlink:href="#DejaVuSerif-6e" transform="translate(378.662109 0.765625)"/>
      <use xlink:href="#DejaVuSerif-20" transform="translate(443.066406 0.765625)"/>
      <use xlink:href="#DejaVuSerif-28" transform="translate(474.853516 0.765625)"/>
      <use xlink:href="#DejaVuSans-d7" transform="translate(513.867188 0.765625)"/>
      <use xlink:href="#DejaVuSans-31" transform="translate(597.65625 0.765625)"/>
      <use xlink:href="#DejaVuSans-30" transform="translate(661.279297 0.765625)"/>
      <use xlink:href="#DejaVuSans-33" transform="translate(725.859375 39.046875) scale(0.7)"/>
      <use xlink:href="#DejaVuSerif-29" transform="translate(773.129883 0.765625)"/>
     </g>
    </g>
   </g>
   <g id="matplotlib.axis_2">
    <g id="ytick_1">
     <g id="line2d_13">
      <defs>
       <path id="m22b1df6750" d="M 0 0 
L 6 0 
" style="stroke: #000000"/>
      </defs>
      <g>
       <use xlink:href="#m22b1df6750" x="101.798984" y="253.9281" style="stroke: #000000"/>
      </g>
     </g>
     <g id="line2d_14">
      <defs>
       <path id="mf2fa6267a2" d="M 0 0 
L -6 0 
" style="stroke: #000000"/>
      </defs>
      <g>
       <use xlink:href="#mf2fa6267a2" x="709.2" y="253.9281" style="stroke: #000000"/>
      </g>
     </g>
     <g id="text_8">
      <!-- $\mathdefault{10^{-1}}$ -->
      <g transform="translate(37.458984 263.806069) scale(0.26 -0.26)">
       <defs>
        <path id="DejaVuSerif-2212" d="M 678 2259 
L 4684 2259 
L 4684 1753 
L 678 1753 
L 678 2259 
z
" transform="scale(0.015625)"/>
       </defs>
       <use xlink:href="#DejaVuSerif-31" transform="translate(0 0.7125)"/>
       <use xlink:href="#DejaVuSerif-30" transform="translate(63.623047 0.7125)"/>
       <use xlink:href="#DejaVuSerif-2212" transform="translate(128.154453 37.046875) scale(0.7)"/>
       <use xlink:href="#DejaVuSerif-31" transform="translate(186.806797 37.046875) scale(0.7)"/>
      </g>
     </g>
    </g>
    <g id="ytick_2">
     <g id="line2d_15">
      <g>
       <use xlink:href="#m22b1df6750" x="101.798984" y="71.056543" style="stroke: #000000"/>
      </g>
     </g>
     <g id="line2d_16">
      <g>
       <use xlink:href="#mf2fa6267a2" x="709.2" y="71.056543" style="stroke: #000000"/>
      </g>
     </g>
     <g id="text_9">
      <!-- $\mathdefault{10^{0}}$ -->
      <g transform="translate(52.538984 80.934511) scale(0.26 -0.26)">
       <use xlink:href="#DejaVuSerif-31" transform="translate(0 0.7125)"/>
       <use xlink:href="#DejaVuSerif-30" transform="translate(63.623047 0.7125)"/>
       <use xlink:href="#DejaVuSerif-30" transform="translate(128.154453 37.046875) scale(0.7)"/>
      </g>
     </g>
    </g>
    <g id="ytick_3">
     <g id="line2d_17">
      <g>
       <use xlink:href="#m22b1df6750" x="101.798984" y="349.547751" style="stroke: #000000"/>
      </g>
     </g>
     <g id="line2d_18">
      <g>
       <use xlink:href="#mf2fa6267a2" x="709.2" y="349.547751" style="stroke: #000000"/>
      </g>
     </g>
    </g>
    <g id="ytick_4">
     <g id="line2d_19">
      <g>
       <use xlink:href="#m22b1df6750" x="101.798984" y="326.700009" style="stroke: #000000"/>
      </g>
     </g>
     <g id="line2d_20">
      <g>
       <use xlink:href="#mf2fa6267a2" x="709.2" y="326.700009" style="stroke: #000000"/>
      </g>
     </g>
    </g>
    <g id="ytick_5">
     <g id="line2d_21">
      <g>
       <use xlink:href="#m22b1df6750" x="101.798984" y="308.977924" style="stroke: #000000"/>
      </g>
     </g>
     <g id="line2d_22">
      <g>
       <use xlink:href="#mf2fa6267a2" x="709.2" y="308.977924" style="stroke: #000000"/>
      </g>
     </g>
    </g>
    <g id="ytick_6">
     <g id="line2d_23">
      <g>
       <use xlink:href="#m22b1df6750" x="101.798984" y="294.497927" style="stroke: #000000"/>
      </g>
     </g>
     <g id="line2d_24">
      <g>
       <use xlink:href="#mf2fa6267a2" x="709.2" y="294.497927" style="stroke: #000000"/>
      </g>
     </g>
    </g>
    <g id="ytick_7">
     <g id="line2d_25">
      <g>
       <use xlink:href="#m22b1df6750" x="101.798984" y="282.255263" style="stroke: #000000"/>
      </g>
     </g>
     <g id="line2d_26">
      <g>
       <use xlink:href="#mf2fa6267a2" x="709.2" y="282.255263" style="stroke: #000000"/>
      </g>
     </g>
    </g>
    <g id="ytick_8">
     <g id="line2d_27">
      <g>
       <use xlink:href="#m22b1df6750" x="101.798984" y="271.650185" style="stroke: #000000"/>
      </g>
     </g>
     <g id="line2d_28">
      <g>
       <use xlink:href="#mf2fa6267a2" x="709.2" y="271.650185" style="stroke: #000000"/>
      </g>
     </g>
    </g>
    <g id="ytick_9">
     <g id="line2d_29">
      <g>
       <use xlink:href="#m22b1df6750" x="101.798984" y="262.295844" style="stroke: #000000"/>
      </g>
     </g>
     <g id="line2d_30">
      <g>
       <use xlink:href="#mf2fa6267a2" x="709.2" y="262.295844" style="stroke: #000000"/>
      </g>
     </g>
    </g>
    <g id="ytick_10">
     <g id="line2d_31">
      <g>
       <use xlink:href="#m22b1df6750" x="101.798984" y="198.878276" style="stroke: #000000"/>
      </g>
     </g>
     <g id="line2d_32">
      <g>
       <use xlink:href="#mf2fa6267a2" x="709.2" y="198.878276" style="stroke: #000000"/>
      </g>
     </g>
    </g>
    <g id="ytick_11">
     <g id="line2d_33">
      <g>
       <use xlink:href="#m22b1df6750" x="101.798984" y="166.676193" style="stroke: #000000"/>
      </g>
     </g>
     <g id="line2d_34">
      <g>
       <use xlink:href="#mf2fa6267a2" x="709.2" y="166.676193" style="stroke: #000000"/>
      </g>
     </g>
    </g>
    <g id="ytick_12">
     <g id="line2d_35">
      <g>
       <use xlink:href="#m22b1df6750" x="101.798984" y="143.828452" style="stroke: #000000"/>
      </g>
     </g>
     <g id="line2d_36">
      <g>
       <use xlink:href="#mf2fa6267a2" x="709.2" y="143.828452" style="stroke: #000000"/>
      </g>
     </g>
    </g>
    <g id="ytick_13">
     <g id="line2d_37">
      <g>
       <use xlink:href="#m22b1df6750" x="101.798984" y="126.106367" style="stroke: #000000"/>
      </g>
     </g>
     <g id="line2d_38">
      <g>
       <use xlink:href="#mf2fa6267a2" x="709.2" y="126.106367" style="stroke: #000000"/>
      </g>
     </g>
    </g>
    <g id="ytick_14">
     <g id="line2d_39">
      <g>
       <use xlink:href="#m22b1df6750" x="101.798984" y="111.626369" style="stroke: #000000"/>
      </g>
     </g>
     <g id="line2d_40">
      <g>
       <use xlink:href="#mf2fa6267a2" x="709.2" y="111.626369" style="stroke: #000000"/>
      </g>
     </g>
    </g>
    <g id="ytick_15">
     <g id="line2d_41">
      <g>
       <use xlink:href="#m22b1df6750" x="101.798984" y="99.383705" style="stroke: #000000"/>
      </g>
     </g>
     <g id="line2d_42">
      <g>
       <use xlink:href="#mf2fa6267a2" x="709.2" y="99.383705" style="stroke: #000000"/>
      </g>
     </g>
    </g>
    <g id="ytick_16">
     <g id="line2d_43">
      <g>
       <use xlink:href="#m22b1df6750" x="101.798984" y="88.778628" style="stroke: #000000"/>
      </g>
     </g>
     <g id="line2d_44">
      <g>
       <use xlink:href="#mf2fa6267a2" x="709.2" y="88.778628" style="stroke: #000000"/>
      </g>
     </g>
    </g>
    <g id="ytick_17">
     <g id="line2d_45">
      <g>
       <use xlink:href="#m22b1df6750" x="101.798984" y="79.424286" style="stroke: #000000"/>
      </g>
     </g>
     <g id="line2d_46">
      <g>
       <use xlink:href="#mf2fa6267a2" x="709.2" y="79.424286" style="stroke: #000000"/>
      </g>
     </g>
    </g>
    <g id="ytick_18">
     <g id="line2d_47">
      <g>
       <use xlink:href="#m22b1df6750" x="101.798984" y="16.006718" style="stroke: #000000"/>
      </g>
     </g>
     <g id="line2d_48">
      <g>
       <use xlink:href="#mf2fa6267a2" x="709.2" y="16.006718" style="stroke: #000000"/>
      </g>
     </g>
    </g>
    <g id="text_10">
     <!-- Loss -->
     <g transform="translate(28.051796 214.944719) rotate(-90) scale(0.26 -0.26)">
      <defs>
       <path id="DejaVuSerif-4c" d="M 353 0 
L 353 331 
L 947 331 
L 947 4331 
L 353 4331 
L 353 4666 
L 2175 4666 
L 2175 4331 
L 1581 4331 
L 1581 384 
L 3713 384 
L 3713 1166 
L 4097 1166 
L 4097 0 
L 353 0 
z
" transform="scale(0.015625)"/>
       <path id="DejaVuSerif-73" d="M 359 184 
L 359 959 
L 691 959 
Q 703 588 923 403 
Q 1144 219 1575 219 
Q 1963 219 2166 364 
Q 2369 509 2369 788 
Q 2369 1006 2220 1140 
Q 2072 1275 1594 1428 
L 1178 1569 
Q 750 1706 558 1912 
Q 366 2119 366 2438 
Q 366 2894 700 3153 
Q 1034 3413 1625 3413 
Q 1888 3413 2178 3344 
Q 2469 3275 2778 3144 
L 2778 2419 
L 2447 2419 
Q 2434 2741 2221 2922 
Q 2009 3103 1644 3103 
Q 1281 3103 1095 2975 
Q 909 2847 909 2591 
Q 909 2381 1050 2254 
Q 1191 2128 1613 1997 
L 2069 1856 
Q 2541 1709 2748 1489 
Q 2956 1269 2956 922 
Q 2956 450 2595 179 
Q 2234 -91 1600 -91 
Q 1278 -91 972 -22 
Q 666 47 359 184 
z
" transform="scale(0.015625)"/>
      </defs>
      <use xlink:href="#DejaVuSerif-4c"/>
      <use xlink:href="#DejaVuSerif-6f" x="66.40625"/>
      <use xlink:href="#DejaVuSerif-73" x="126.611328"/>
      <use xlink:href="#DejaVuSerif-73" x="177.929688"/>
     </g>
    </g>
   </g>
   <g id="line2d_49">
    <path d="M 129.408121 26.649477 
L 129.459429 29.677044 
L 130.297469 57.710462 
L 131.392052 77.792402 
L 131.545977 75.483945 
L 132.606354 84.770734 
L 132.691869 91.832709 
L 133.051029 98.171972 
L 133.35888 96.176295 
L 133.95748 108.270792 
L 133.991686 106.085629 
L 134.128508 108.749579 
L 135.890102 138.184201 
L 136.557114 153.4675 
L 136.796554 147.538529 
L 138.592353 184.369905 
L 138.712073 166.712894 
L 139.755347 194.583931 
L 139.994787 192.886809 
L 140.165816 189.937497 
L 140.901239 201.182085 
L 141.038061 199.902399 
L 142.149747 209.671995 
L 142.508907 215.807398 
L 142.987787 216.937723 
L 144.851998 214.411398 
L 145.296672 220.094475 
L 145.878169 215.202445 
L 146.032095 222.904518 
L 146.870135 237.256066 
L 147.571352 198.42056 
L 148.871168 235.558136 
L 150.2565 230.761338 
L 151.197157 208.122124 
L 151.248465 195.49025 
L 151.556317 237.095182 
L 152.377254 246.722983 
L 152.496974 246.702336 
L 153.078471 240.278399 
L 153.249499 244.246156 
L 153.762585 244.739058 
L 154.190156 252.772641 
L 154.737447 248.956155 
L 155.23343 251.174347 
L 155.507076 172.363289 
L 155.780721 244.331429 
L 156.738481 259.413629 
L 157.610727 220.622684 
L 157.918578 246.155107 
L 158.072504 232.404516 
L 158.397458 256.755971 
L 159.149984 264.634252 
L 160.227463 263.450182 
L 160.381389 259.359338 
L 160.655035 236.145382 
L 160.791858 257.373963 
L 161.475972 265.87002 
L 161.989057 269.549116 
L 162.912612 257.357958 
L 163.511211 258.108171 
L 164.537383 270.63879 
L 166.093742 269.4664 
L 166.298977 269.061125 
L 166.504211 264.375493 
L 166.846268 263.342128 
L 166.931782 271.57041 
L 166.948885 268.610809 
L 167.290942 253.995445 
L 167.376456 228.602123 
L 168.146085 273.006067 
L 168.351319 269.583217 
L 168.949919 270.003561 
L 169.548519 272.563236 
L 169.565622 273.968389 
L 170.352353 268.951991 
L 170.643102 277.230411 
L 170.677307 270.39512 
L 170.762822 279.352054 
L 171.190393 276.293214 
L 171.207496 276.590666 
L 171.378524 277.004241 
L 171.41273 275.459448 
L 171.498244 280.417693 
L 171.994227 276.448714 
L 172.25077 261.40852 
L 172.353387 205.980203 
L 174.610964 278.328428 
L 175.791061 277.601915 
L 176.38966 280.089908 
L 178.219666 280.851919 
L 179.433968 272.510817 
L 180.186494 272.603709 
L 180.648271 278.257152 
L 180.69958 283.196368 
L 181.691545 283.832393 
L 183.350522 281.051764 
L 183.932019 277.470466 
L 184.205665 285.710501 
L 184.222768 284.328413 
L 185.214733 278.79364 
L 186.976327 287.671612 
L 187.677544 286.324499 
L 188.207733 289.331402 
L 190.260075 280.134019 
L 190.602132 287.617997 
L 191.457275 285.560413 
L 192.415035 284.522592 
L 192.671577 281.050212 
L 193.560926 292.578348 
L 193.920086 266.300185 
L 194.039806 282.022871 
L 194.775228 286.884752 
L 195.869811 287.728721 
L 196.348691 258.519711 
L 196.827571 285.631777 
L 197.716919 282.049063 
L 198.777296 285.72476 
L 198.965428 289.843632 
L 200.213936 291.546743 
L 200.453376 269.285615 
L 200.555993 273.855983 
L 200.983564 286.413136 
L 201.069079 274.484878 
L 202.300484 284.518215 
L 202.522821 283.233773 
L 202.557027 289.362489 
L 203.942358 289.119695 
L 205.515821 290.249807 
L 205.806569 290.036737 
L 206.165729 292.978252 
L 207.841809 290.160186 
L 208.457512 289.98763 
L 208.525923 292.45194 
L 208.662746 283.367767 
L 209.928357 277.190391 
L 210.817705 294.95247 
L 211.467614 293.770591 
L 211.672848 293.110399 
L 212.391168 285.624892 
L 213.554162 286.181313 
L 213.708088 278.325441 
L 213.759396 267.40613 
L 215.093419 298.454076 
L 216.016973 295.73138 
L 218.291653 300.05455 
L 219.830909 297.86727 
L 220.104555 285.701745 
L 220.343995 291.207099 
L 221.387269 294.666223 
L 221.763532 295.035776 
L 223.01204 293.961844 
L 223.046246 294.826998 
L 223.593537 297.802338 
L 224.243446 292.549691 
L 225.816908 298.920706 
L 226.569434 293.905927 
L 228.023176 301.725132 
L 228.313925 255.70981 
L 228.365234 276.103684 
L 228.946731 300.206974 
L 228.980936 297.099143 
L 229.100656 299.582498 
L 229.716359 286.683773 
L 230.075519 285.84449 
L 231.135896 304.513815 
L 231.477953 301.305128 
L 233.37637 303.293831 
L 233.547398 305.674627 
L 234.402541 294.29779 
L 234.727495 301.577141 
L 234.949832 296.921239 
L 235.052449 299.906939 
L 235.274787 291.104369 
L 236.249649 298.684007 
L 236.728529 304.212132 
L 237.138998 304.730267 
L 237.51526 304.9506 
L 237.737598 299.207218 
L 238.148066 299.855087 
L 239.78994 298.853976 
L 240.200409 302.083847 
L 241.123963 295.058934 
L 241.294991 281.915034 
L 241.619945 294.290849 
L 242.543499 303.950626 
L 243.210511 305.590788 
L 243.261819 306.07008 
L 243.467054 303.44678 
L 243.997242 291.277506 
L 245.775939 300.600973 
L 245.912762 292.928929 
L 246.169305 291.428014 
L 248.272956 303.336316 
L 248.649218 296.486658 
L 250.222681 304.594084 
L 250.359504 294.098982 
L 251.060721 307.097995 
L 252.103995 305.258499 
L 252.634183 305.334899 
L 253.728766 305.111818 
L 254.036617 301.823645 
L 254.207646 307.280871 
L 254.224749 305.382312 
L 254.549703 305.749539 
L 254.943069 292.829186 
L 255.268023 301.459897 
L 256.106063 298.279422 
L 256.277091 306.17462 
L 256.3284 300.010985 
L 256.584943 299.96034 
L 257.149337 305.92541 
L 258.825416 309.289474 
L 259.424016 306.009389 
L 260.159439 305.336607 
L 260.262056 298.024029 
L 261.407947 296.688104 
L 262.057856 308.360846 
L 262.656456 298.443965 
L 263.802347 296.898064 
L 264.349638 303.824401 
L 265.358707 307.533576 
L 265.957307 300.5691 
L 266.145438 301.806297 
L 266.350672 307.701133 
L 266.641421 305.905131 
L 268.591146 308.414041 
L 269.189746 301.821101 
L 269.292363 307.64571 
L 271.224986 305.671367 
L 271.720968 309.297556 
L 271.806483 306.519118 
L 271.960408 311.12286 
L 273.550974 309.187548 
L 274.029854 308.811304 
L 274.200882 309.217416 
L 275.192848 314.318968 
L 275.791448 296.845881 
L 276.372945 309.14049 
L 277.399116 315.175441 
L 279.51987 304.846988 
L 279.571178 308.254407 
L 280.528938 304.640989 
L 280.648658 305.515802 
L 280.973612 306.286619 
L 281.024921 307.009974 
L 281.503801 310.164083 
L 281.897166 308.799587 
L 282.187915 312.21965 
L 282.495766 301.60865 
L 282.598383 309.352521 
L 283.556143 300.693876 
L 283.692966 304.634647 
L 286.480731 303.677352 
L 286.600451 309.158695 
L 287.062228 305.604718 
L 288.019988 310.201631 
L 288.926439 313.31946 
L 289.661862 308.285935 
L 289.713171 310.364096 
L 290.055228 308.782987 
L 290.174948 311.965508 
L 290.619622 312.953929 
L 291.816822 302.011743 
L 292.090467 310.19161 
L 292.312804 303.796304 
L 292.689067 307.461233 
L 293.338976 303.494505 
L 293.852061 311.553488 
L 294.553278 300.763079 
L 295.750478 308.061598 
L 296.981884 311.178058 
L 297.033192 312.16911 
L 297.717306 309.712164 
L 298.127775 312.240402 
L 299.23946 307.802346 
L 300.573483 308.893508 
L 300.658997 306.605857 
L 300.710306 311.029512 
L 301.15498 312.811765 
L 301.907506 316.50702 
L 302.59162 302.424264 
L 302.882368 311.554809 
L 304.096671 319.993523 
L 304.438728 312.75207 
L 304.558448 315.73874 
L 306.49107 318.733991 
L 306.542379 314.015827 
L 306.901539 319.401784 
L 307.910607 320.296506 
L 308.081636 322.221179 
L 308.150047 320.488382 
L 308.64603 318.838627 
L 309.210424 319.105278 
L 310.099773 321.611173 
L 310.390521 320.452207 
L 310.903607 322.773296 
L 311.194355 319.107986 
L 311.878469 319.854166 
L 312.665201 320.263726 
L 312.682303 320.225066 
L 313.058566 319.580526 
L 313.178286 320.183916 
L 313.657166 320.667144 
L 313.828195 321.576206 
L 313.913709 320.791679 
L 314.10184 322.41421 
L 314.255766 320.660005 
L 314.495206 322.123049 
L 315.145114 323.111823 
L 315.196423 322.200024 
L 315.77792 322.963113 
L 315.846331 323.331368 
L 316.239697 322.720319 
L 316.342314 318.500959 
L 316.37652 322.879931 
L 317.060634 322.543032 
L 317.163251 323.819283 
L 317.385588 321.432148 
L 317.471103 322.210933 
L 318.565685 322.723312 
L 318.890639 323.014069 
L 319.044565 321.117078 
L 319.814194 320.635089 
L 320.207559 320.85531 
L 320.258868 322.92394 
L 321.267936 323.761115 
L 321.47317 324.211973 
L 323.98729 321.475883 
L 324.893741 322.130783 
L 325.235798 323.387255 
L 325.765987 323.817917 
L 325.919912 322.7177 
L 326.210661 322.986075 
L 326.501409 324.826855 
L 327.031598 322.719028 
L 327.903843 323.479679 
L 328.297209 321.716499 
L 328.536649 322.441002 
L 329.80226 323.847142 
L 331.751986 322.717639 
L 333.0347 322.492381 
L 333.479374 324.39022 
L 333.975357 322.908557 
L 334.095077 324.806306 
L 334.625265 322.502872 
L 336.284242 323.843287 
L 336.728916 323.860351 
L 336.797328 324.950489 
L 337.070973 322.797973 
L 337.789293 325.329629 
L 338.883876 323.881103 
L 338.935184 323.924963 
L 339.20883 324.888226 
L 340.850704 324.964192 
L 341.380892 323.367689 
L 341.757155 325.341078 
L 343.381926 326.390487 
L 344.613332 323.10779 
L 345.400063 323.587422 
L 345.878943 323.087762 
L 346.888011 326.053776 
L 347.161657 323.956055 
L 347.691845 326.196062 
L 348.700914 324.579233 
L 348.923251 323.524914 
L 349.983628 326.177073 
L 350.325685 324.498749 
L 351.317651 321.988765 
L 351.608399 322.273381 
L 352.070176 326.049651 
L 352.429336 325.224178 
L 352.63457 324.318242 
L 352.959525 324.180986 
L 353.250273 325.714737 
L 353.865976 324.277315 
L 354.55009 326.392701 
L 355.114484 323.550628 
L 356.380095 326.723035 
L 356.995798 326.270095 
L 357.902249 325.396764 
L 357.970661 325.788691 
L 358.312718 326.107646 
L 359.150758 324.99465 
L 359.64674 326.538769 
L 360.36506 327.02745 
L 361.237306 325.557589 
L 361.493849 325.730037 
L 361.630671 323.752233 
L 361.733289 325.45874 
L 362.63974 323.957631 
L 362.691048 324.406793 
L 363.375163 324.866208 
L 364.298717 323.891924 
L 364.880214 327.01184 
L 365.478814 326.288463 
L 365.872179 326.886364 
L 366.145825 325.108663 
L 367.052276 326.151814 
L 367.394333 323.60833 
L 367.445642 323.739605 
L 367.719287 327.342659 
L 368.09555 324.784276 
L 369.497984 324.123465 
L 371.909487 327.44863 
L 373.055378 327.358014 
L 373.157995 326.591574 
L 373.311921 327.595467 
L 373.807903 324.672651 
L 373.910521 324.983938 
L 374.919589 327.431465 
L 375.774732 324.609468 
L 376.578566 323.314221 
L 377.194269 327.091453 
L 377.604737 326.421015 
L 377.656046 325.106116 
L 378.93876 326.935171 
L 379.041377 325.408444 
L 379.554462 326.845339 
L 379.708388 326.102199 
L 379.776799 324.844185 
L 379.879417 327.682647 
L 380.888485 325.592871 
L 381.452879 326.298922 
L 381.469982 328.016295 
L 381.606805 325.810549 
L 381.675216 328.0738 
L 381.965965 325.928036 
L 383.060547 328.49338 
L 383.385502 325.503489 
L 383.949896 327.845566 
L 383.966999 323.631395 
L 384.377467 326.120058 
L 385.694387 324.326117 
L 386.771867 326.457324 
L 387.490187 328.599476 
L 387.558598 327.235767 
L 388.311124 323.770774 
L 388.636078 326.672197 
L 389.781969 325.623975 
L 390.773935 326.992407 
L 391.1673 325.92987 
L 392.552631 324.956785 
L 393.031511 325.360489 
L 393.32226 327.2804 
L 393.356466 326.903352 
L 393.903757 325.444853 
L 395.443014 328.225473 
L 397.888722 326.321957 
L 398.29919 327.533048 
L 398.453116 327.229892 
L 398.555733 328.338566 
L 399.342464 326.582615 
L 399.393773 327.640544 
L 399.718727 329.776124 
L 400.043681 326.811029 
L 401.976304 326.593102 
L 402.215744 325.809533 
L 403.293224 327.196632 
L 403.960235 326.775738 
L 405.5508 329.636219 
L 405.721829 328.284085 
L 405.79024 324.599869 
L 406.594074 327.038906 
L 407.82548 326.688557 
L 408.201743 329.673106 
L 408.492491 326.603737 
L 409.279223 325.808485 
L 410.972405 327.831227 
L 411.895959 327.710646 
L 412.340633 325.058595 
L 412.426148 329.627029 
L 413.64045 328.243605 
L 414.256153 329.438752 
L 415.094193 327.270995 
L 416.15457 326.954755 
L 416.171673 329.526011 
L 416.599244 326.943648 
L 416.75317 327.14231 
L 416.99261 325.886226 
L 417.71093 326.126195 
L 420.567106 328.963499 
L 421.097295 328.538781 
L 421.678792 328.23142 
L 422.072157 331.348803 
L 422.722066 327.60332 
L 422.893094 329.216477 
L 423.5259 326.342401 
L 423.662723 328.680964 
L 424.090294 328.940998 
L 424.398145 329.743781 
L 424.432351 327.806611 
L 424.825717 327.737799 
L 424.859922 326.351993 
L 424.911231 327.462797 
L 425.236185 325.696915 
L 425.834785 325.279163 
L 426.125534 329.651115 
L 426.364974 326.786833 
L 427.031985 327.540713 
L 427.203013 326.603941 
L 428.725167 327.425217 
L 429.067225 330.091011 
L 429.306664 328.558872 
L 429.58031 329.552464 
L 430.093396 325.328891 
L 430.264424 329.69844 
L 430.606481 329.675414 
L 430.845921 329.875147 
L 431.786578 329.065444 
L 432.624618 328.852628 
L 432.641721 328.515698 
L 433.189012 327.669924 
L 433.838921 327.689697 
L 435.737338 328.678916 
L 435.891263 329.258908 
L 436.216217 326.094207 
L 436.370143 327.574479 
L 436.849023 328.7466 
L 437.447623 328.573082 
L 437.652857 329.463726 
L 438.319869 327.259377 
L 438.74744 330.664338 
L 439.038188 328.010686 
L 440.201182 326.991733 
L 440.577445 327.934759 
L 441.056325 325.659737 
L 441.979879 328.548746 
L 442.732405 326.637906 
L 444.254559 327.36284 
L 444.271662 329.675926 
L 445.75961 327.7753 
L 445.896433 329.925755 
L 446.666061 327.78873 
L 447.692232 328.092142 
L 448.735507 330.744839 
L 448.855227 327.344381 
L 449.351209 328.701706 
L 449.984015 328.457188 
L 450.993083 327.65789 
L 451.81402 329.071591 
L 452.498134 329.624796 
L 452.925706 329.789077 
L 453.25066 329.518591 
L 453.336174 326.383026 
L 453.72954 329.492839 
L 454.105803 329.405003 
L 454.464963 328.924041 
L 455.627957 326.133775 
L 456.534408 329.172982 
L 457.526373 328.138421 
L 458.278899 329.253775 
L 458.34731 326.675661 
L 458.774882 329.519349 
L 461.93891 328.358739 
L 462.195453 330.347484 
L 462.246761 329.186983 
L 462.623024 330.013242 
L 462.725641 327.632481 
L 463.546578 328.249023 
L 463.803121 329.707677 
L 464.487235 330.102888 
L 464.589852 327.768809 
L 464.829292 329.100609 
L 465.017423 324.960489 
L 465.171349 328.268071 
L 465.95808 327.923339 
L 466.0778 328.638421 
L 466.248829 326.798385 
L 467.257897 329.254282 
L 467.719674 328.608093 
L 468.11304 329.935691 
L 469.31024 328.214704 
L 469.686503 326.080402 
L 470.250897 326.92509 
L 470.661365 329.375879 
L 471.345479 329.341908 
L 471.567817 328.896291 
L 471.653331 328.203901 
L 471.755948 328.596742 
L 471.807257 330.847175 
L 473.107073 329.38542 
L 473.124176 328.818365 
L 473.158382 329.817397 
L 473.876702 326.116709 
L 473.92801 330.955345 
L 474.458199 329.549185 
L 474.919976 328.766249 
L 474.971284 327.032896 
L 475.056799 330.741136 
L 476.014559 328.921481 
L 476.271101 329.063017 
L 476.425027 329.677099 
L 476.459233 331.377295 
L 477.126244 330.717135 
L 477.297273 330.128571 
L 477.536713 330.527188 
L 478.272135 330.259551 
L 479.041764 329.736544 
L 479.742981 328.344013 
L 479.965318 328.670697 
L 479.982421 327.5959 
L 480.444198 329.988298 
L 480.632329 328.853089 
L 482.513643 327.087237 
L 482.530746 326.040046 
L 482.889906 329.155006 
L 484.0529 329.137895 
L 484.121311 330.268358 
L 484.138414 330.096544 
L 484.805425 329.537247 
L 484.959351 327.626872 
L 485.36982 330.808571 
L 485.934214 328.672972 
L 486.361785 329.522405 
L 487.627396 328.980467 
L 488.311511 325.635771 
L 488.448333 329.572744 
L 488.995625 329.707266 
L 489.14955 326.00619 
L 489.217962 329.492554 
L 490.312544 331.162152 
L 491.42423 332.153813 
L 491.817596 326.370093 
L 493.254235 330.072195 
L 493.391058 329.13007 
L 494.536949 328.203107 
L 494.844801 329.765994 
L 496.127515 329.584441 
L 496.794526 331.058257 
L 496.811629 327.773075 
L 498.299577 327.597654 
L 499.496777 331.689639 
L 499.719114 328.45953 
L 500.215097 329.767412 
L 500.2322 328.817345 
L 500.933417 329.492831 
L 501.343885 328.788495 
L 501.446502 330.049466 
L 501.788559 328.641234 
L 501.891177 330.712098 
L 502.250337 330.702869 
L 502.352954 329.481763 
L 503.379125 330.558581 
L 504.388193 330.684055 
L 504.935485 329.023885 
L 505.055205 330.430977 
L 506.491844 326.489107 
L 508.715215 331.578795 
L 509.365124 329.750648 
L 509.826901 326.675411 
L 509.946621 329.397024 
L 510.134752 327.550031 
L 510.357089 332.617913 
L 510.596529 330.363364 
L 511.075409 333.184754 
L 512.255506 332.594338 
L 512.306815 328.225228 
L 513.025134 330.766958 
L 513.623734 330.171647 
L 514.25654 329.141867 
L 515.8129 330.395141 
L 516.086545 333.24504 
L 518.036271 329.308841 
L 518.241505 330.302748 
L 519.11375 331.571529 
L 519.404499 330.139622 
L 520.858242 332.036306 
L 520.90955 329.871879 
L 523.42367 331.708638 
L 523.492081 332.34275 
L 523.509184 328.964969 
L 524.056475 330.86019 
L 524.227504 329.714135 
L 524.415635 329.454188 
L 524.501149 330.189661 
L 524.586664 333.476466 
L 524.655075 327.943035 
L 524.757692 331.125003 
L 525.168161 329.871397 
L 525.339189 330.797278 
L 525.783864 328.813277 
L 525.818069 326.794033 
L 526.553492 330.313283 
L 526.946858 328.255193 
L 527.819103 329.787135 
L 528.229572 331.309945 
L 528.554526 331.697244 
L 529.35836 329.171111 
L 531.290982 329.96677 
L 532.129022 331.621911 
L 533.172296 328.125442 
L 533.514354 331.601036 
L 533.702485 328.773105 
L 534.044542 329.062645 
L 535.070713 328.120119 
L 535.29305 329.484102 
L 535.925856 330.82493 
L 536.267913 328.467239 
L 536.456044 329.974337 
L 537.92689 330.913863 
L 538.097918 328.433142 
L 540.509421 331.244095 
L 541.142226 329.991917 
L 541.176432 335.031859 
L 541.672415 331.437454 
L 542.339426 330.252934 
L 543.160363 332.310482 
L 543.9813 331.507448 
L 544.015506 330.822323 
L 544.152329 332.788033 
L 545.05878 327.348883 
L 545.29822 329.865982 
L 546.273083 331.673471 
L 547.914957 331.558619 
L 548.684585 331.138252 
L 548.752996 327.977593 
L 549.779168 331.913848 
L 550.565899 328.939986 
L 551.078985 331.865382 
L 551.455247 333.138895 
L 551.59207 332.691773 
L 552.66955 329.742144 
L 553.678618 331.793377 
L 554.191704 330.785943 
L 554.46535 330.942649 
L 554.567967 330.660556 
L 555.132361 332.548596 
L 555.867784 330.945039 
L 556.397972 328.565167 
L 557.064983 330.934459 
L 558.535829 332.551125 
L 559.784337 331.569714 
L 560.211909 331.936837 
L 560.434246 331.587187 
L 560.553966 332.797921 
L 560.588171 330.580639 
L 561.939297 330.625841 
L 562.948365 333.329071 
L 564.89809 332.455148 
L 565.154633 331.786804 
L 566.043982 330.460008 
L 566.505759 330.005846 
L 567.566136 332.570721 
L 567.993707 332.192592 
L 569.515861 329.616989 
L 570.747267 330.263055 
L 571.311661 332.382757 
L 572.012878 328.019079 
L 573.620546 332.071539 
L 573.859986 333.718733 
L 574.133632 329.086292 
L 574.492792 310.269118 
L 574.646717 329.491769 
L 574.920363 330.731808 
L 576.014946 330.68473 
L 576.254385 328.796813 
L 578.135699 332.28124 
L 578.358037 333.057388 
L 578.546168 331.456057 
L 580.085425 333.56175 
L 580.256453 334.458509 
L 580.35907 330.04299 
L 581.402345 334.087211 
L 582.120664 332.032528 
L 584.822915 329.71124 
L 585.472824 333.67523 
L 586.259555 331.475506 
L 586.293761 331.879658 
L 586.977875 332.887349 
L 586.994978 329.653191 
L 587.012081 332.765897 
L 587.508063 332.525224 
L 587.542269 331.153941 
L 589.235452 329.515965 
L 591.612748 330.790593 
L 591.80088 332.628845 
L 592.99808 329.994684 
L 593.186211 332.87289 
L 594.468925 333.610764 
L 595.153039 329.77239 
L 596.093696 333.212338 
L 597.957907 331.409324 
L 598.146039 330.202759 
L 598.282861 331.158819 
L 599.103798 333.782996 
L 599.514267 331.346809 
L 600.198381 330.554562 
L 600.24969 332.706073 
L 600.779878 332.225938 
L 600.950907 332.689917 
L 601.070627 330.620041 
L 601.378478 332.728738 
L 602.353341 329.887361 
L 602.695398 332.632956 
L 602.746706 330.722898 
L 603.105866 330.64301 
L 604.576712 331.183838 
L 606.133071 332.855331 
L 606.167277 329.194105 
L 606.714568 333.476492 
L 607.415785 333.891397 
L 609.365511 332.17199 
L 611.862527 331.63747 
L 612.307202 331.087502 
L 612.444024 330.740622 
L 613.059727 332.466868 
L 614.000384 332.941507 
L 615.060761 332.0888 
L 615.283098 332.873959 
L 616.856561 331.465759 
L 617.352544 332.288286 
L 618.019555 332.170011 
L 619.13124 330.498821 
L 622.808354 331.335848 
L 624.159479 331.411264 
L 624.604154 332.572358 
L 624.980416 331.703009 
L 625.305371 334.08482 
L 625.647428 329.123335 
L 625.732942 332.752562 
L 626.006588 330.508708 
L 626.211822 334.196364 
L 626.485468 332.913479 
L 626.947245 332.526095 
L 628.110239 332.116269 
L 628.691736 332.34192 
L 628.948278 334.936755 
L 629.170616 331.574525 
L 629.307438 332.072169 
L 629.392953 333.711428 
L 629.957347 331.737404 
L 630.93221 332.542213 
L 632.163615 332.201455 
L 632.728009 333.016333 
L 632.847729 334.200282 
L 633.001655 332.780577 
L 633.856798 331.459255 
L 633.908106 330.798031 
L 634.4725 333.77758 
L 634.797455 331.961528 
L 635.122409 333.427374 
L 637.448397 333.070636 
L 638.833728 334.217173 
L 638.919242 331.334854 
L 639.432328 332.786785 
L 639.757282 331.105086 
L 640.544013 333.256043 
L 641.775419 331.006434 
L 641.860933 334.418319 
L 642.305607 335.748626 
L 643.092339 330.842277 
L 643.348881 331.994402 
L 644.11851 329.651429 
L 644.751316 332.83898 
L 645.486738 333.087702 
L 645.828795 331.799086 
L 645.931412 334.130075 
L 646.15375 332.657467 
L 646.632629 331.966785 
L 647.316744 332.757571 
L 647.368052 334.449303 
L 648.052166 333.520913 
L 648.97572 332.573263 
L 649.198058 332.98187 
L 649.745349 329.223969 
L 649.81376 333.585807 
L 651.506943 330.673402 
L 651.558251 331.986195 
L 651.934514 333.402317 
L 652.242366 332.280829 
L 652.789657 331.532041 
L 653.850034 331.566469 
L 654.089474 331.751941 
L 654.380222 332.80473 
L 654.397325 332.358008 
L 655.115645 330.659056 
L 656.808828 335.024984 
L 657.270605 332.64438 
L 657.766587 333.50832 
L 658.826964 332.895695 
L 659.767621 333.549299 
L 660.588558 334.612529 
L 660.674073 332.925346 
L 662.521181 328.705226 
L 662.709312 332.611481 
L 664.812963 332.134142 
L 665.822032 334.133604 
L 666.454837 334.852529 
L 666.813997 331.490636 
L 667.446803 329.609496 
L 668.062505 334.644767 
L 668.079608 332.556727 
L 668.50718 332.79026 
L 669.567557 333.05937 
L 669.670174 333.244717 
L 669.926717 332.423571 
L 670.781859 331.078801 
L 671.055505 333.479852 
L 671.226533 331.566666 
L 671.517282 334.712397 
L 671.910648 332.0292 
L 672.697379 332.92202 
L 673.809064 333.892712 
L 674.065607 332.544821 
L 674.886544 333.53673 
L 675.04047 336.11863 
L 675.707481 332.040058 
L 676.049538 334.618475 
L 676.271875 334.349652 
L 677.691412 333.798121 
L 678.751789 334.532313 
L 678.957023 331.514337 
L 679.521418 332.08559 
L 679.555623 331.788983 
L 680.239737 333.770071 
L 681.351423 333.42414 
L 681.590863 334.56845 
L 681.590863 334.56845 
" clip-path="url(#p57c521d866)" style="fill: none; stroke: #0000ff; stroke-width: 2; stroke-linecap: square"/>
   </g>
   <g id="line2d_50">
    <path d="M 129.408121 29.315925 
L 130.297469 57.198534 
L 131.392052 77.621489 
L 131.545977 77.835503 
L 132.606354 84.547793 
L 132.691869 91.911438 
L 133.051029 99.129633 
L 133.35888 92.428492 
L 133.95748 109.76625 
L 133.991686 108.976663 
L 134.128508 107.767316 
L 135.890102 140.407138 
L 136.557114 156.83407 
L 136.796554 148.623654 
L 137.856931 173.401541 
L 138.318708 186.963904 
L 138.592353 184.971932 
L 138.712073 170.314979 
L 139.755347 199.873364 
L 139.994787 195.083018 
L 140.165816 198.165912 
L 140.901239 204.671249 
L 141.038061 207.601652 
L 141.876101 213.352415 
L 142.115541 218.48744 
L 142.149747 212.564173 
L 142.508907 221.545803 
L 142.987787 223.197813 
L 144.851998 222.95273 
L 145.296672 224.929284 
L 145.878169 219.323705 
L 146.032095 235.950593 
L 146.870135 238.640398 
L 146.921443 239.624844 
L 147.571352 192.086021 
L 148.871168 242.926591 
L 150.2565 236.580732 
L 151.197157 193.593342 
L 151.248465 207.840201 
L 151.556317 243.568082 
L 152.496974 255.364613 
L 153.078471 247.110627 
L 153.249499 255.840253 
L 153.762585 251.725025 
L 154.190156 257.918457 
L 154.737447 258.949054 
L 155.23343 264.084868 
L 155.507076 184.29718 
L 155.780721 248.525231 
L 156.738481 268.313501 
L 157.610727 245.076843 
L 157.918578 256.05333 
L 158.072504 243.905098 
L 158.397458 266.018684 
L 159.149984 272.774797 
L 160.227463 271.339535 
L 160.381389 268.510235 
L 160.655035 238.005633 
L 160.791858 264.672486 
L 161.475972 274.397401 
L 161.76672 275.806812 
L 161.989057 274.810604 
L 162.912612 253.290068 
L 163.511211 268.27827 
L 164.212428 276.950424 
L 164.537383 277.040011 
L 166.093742 274.369658 
L 166.298977 277.387141 
L 166.504211 271.42984 
L 166.846268 274.080545 
L 166.948885 279.434176 
L 167.290942 258.966696 
L 167.376456 238.973934 
L 168.146085 277.550676 
L 168.351319 278.353998 
L 168.949919 276.421736 
L 169.548519 280.344981 
L 169.565622 281.553662 
L 170.352353 279.358733 
L 170.643102 285.824579 
L 170.677307 281.307692 
L 170.762822 282.923385 
L 171.190393 284.781296 
L 171.207496 283.664982 
L 171.378524 285.865232 
L 171.41273 280.718361 
L 171.498244 283.435212 
L 171.994227 284.396344 
L 172.25077 264.978074 
L 172.353387 202.60084 
L 174.610964 288.189293 
L 175.551621 288.47946 
L 175.791061 283.729642 
L 176.38966 290.674962 
L 178.219666 287.132439 
L 180.186494 280.351947 
L 180.648271 289.971937 
L 180.69958 288.263345 
L 181.691545 290.578701 
L 182.751922 290.989925 
L 183.350522 286.567419 
L 183.932019 285.460124 
L 184.205665 292.722133 
L 184.222768 291.618642 
L 185.214733 287.272018 
L 186.976327 290.90142 
L 187.677544 293.957372 
L 188.207733 298.205326 
L 190.260075 288.398004 
L 190.602132 293.399664 
L 191.457275 295.881081 
L 192.415035 283.568002 
L 192.671577 287.179978 
L 193.560926 294.558965 
L 193.920086 269.009545 
L 194.039806 288.796615 
L 195.869811 296.88679 
L 196.348691 263.541567 
L 196.827571 297.171422 
L 197.716919 293.863599 
L 198.777296 293.81227 
L 198.965428 298.977912 
L 200.213936 298.110893 
L 200.453376 266.785293 
L 200.555993 284.419246 
L 200.983564 292.168557 
L 201.069079 288.77328 
L 201.599267 287.061164 
L 202.300484 296.258041 
L 202.522821 292.217187 
L 202.557027 293.041452 
L 205.515821 301.028889 
L 205.806569 296.748277 
L 206.165729 303.521431 
L 207.841809 298.127605 
L 208.525923 301.069588 
L 208.662746 292.555984 
L 209.928357 288.124528 
L 210.578265 296.089727 
L 210.817705 303.068504 
L 211.467614 302.484047 
L 211.672848 300.5354 
L 212.391168 290.396937 
L 213.554162 295.124153 
L 213.708088 290.508153 
L 213.759396 272.888159 
L 215.059213 307.810304 
L 215.093419 305.555102 
L 216.016973 298.443138 
L 216.495853 304.260703 
L 218.291653 307.226707 
L 219.830909 306.519571 
L 220.104555 293.669618 
L 220.343995 302.145371 
L 221.387269 302.804932 
L 221.763532 304.861065 
L 223.01204 298.23474 
L 223.046246 304.049971 
L 223.593537 307.023534 
L 224.243446 302.593225 
L 225.560366 307.546203 
L 225.816908 305.376746 
L 226.569434 308.179736 
L 228.023176 310.924226 
L 228.313925 261.881977 
L 228.365234 284.51002 
L 228.946731 306.788943 
L 228.980936 304.161021 
L 229.100656 306.575559 
L 229.716359 294.099816 
L 230.075519 296.731645 
L 230.485987 301.337802 
L 230.674119 307.189876 
L 231.135896 312.152131 
L 231.477953 313.102339 
L 233.37637 307.069701 
L 233.547398 310.758113 
L 234.402541 306.21722 
L 234.727495 307.40499 
L 234.949832 304.251565 
L 235.052449 305.754765 
L 235.274787 296.220764 
L 236.249649 310.58018 
L 236.643015 311.819547 
L 236.728529 310.708454 
L 237.138998 309.191806 
L 237.51526 310.609072 
L 237.737598 300.962854 
L 238.148066 307.204392 
L 239.78994 313.747859 
L 240.200409 310.121877 
L 241.123963 307.963053 
L 241.294991 295.377582 
L 241.619945 296.488156 
L 242.543499 314.431566 
L 243.210511 311.446723 
L 243.261819 310.591986 
L 243.467054 311.144196 
L 243.997242 301.749486 
L 245.775939 310.88278 
L 245.912762 297.157657 
L 246.169305 303.788415 
L 247.828281 308.991277 
L 248.272956 312.75885 
L 248.649218 305.488467 
L 250.222681 311.461644 
L 250.359504 300.95866 
L 251.060721 313.654371 
L 252.103995 311.925661 
L 252.634183 312.155889 
L 253.728766 314.454107 
L 254.036617 308.162643 
L 254.224749 313.283746 
L 254.549703 311.216852 
L 254.943069 299.978106 
L 255.268023 306.6301 
L 256.106063 306.494572 
L 256.277091 313.185687 
L 256.3284 308.267631 
L 256.584943 304.074573 
L 257.149337 315.52463 
L 258.825416 312.340525 
L 259.424016 310.326147 
L 260.159439 312.173473 
L 260.262056 304.916565 
L 261.407947 300.163916 
L 261.886827 315.270466 
L 262.057856 317.141245 
L 262.656456 306.382463 
L 263.802347 308.206683 
L 264.349638 310.09825 
L 265.358707 314.135669 
L 265.957307 304.291152 
L 266.145438 307.932799 
L 266.350672 316.387296 
L 266.641421 316.455689 
L 268.591146 315.917337 
L 269.189746 311.807059 
L 269.292363 316.003915 
L 270.47246 312.198487 
L 271.224986 312.353736 
L 271.806483 315.539612 
L 271.960408 314.550626 
L 273.499665 319.334083 
L 273.550974 317.541138 
L 274.029854 314.920425 
L 274.200882 318.05691 
L 275.192848 318.358636 
L 275.791448 306.399352 
L 276.355842 314.104608 
L 276.372945 315.972663 
L 277.399116 317.099248 
L 279.51987 307.174438 
L 279.571178 311.009046 
L 280.528938 313.167029 
L 280.648658 315.209553 
L 280.973612 317.235166 
L 281.024921 312.846949 
L 281.384081 313.880197 
L 281.503801 316.135512 
L 282.187915 317.794317 
L 282.495766 310.585219 
L 282.598383 315.609831 
L 283.556143 306.457462 
L 283.692966 313.834179 
L 286.480731 310.212718 
L 286.600451 318.652099 
L 287.062228 312.48698 
L 288.019988 319.183096 
L 288.567279 318.074768 
L 288.926439 318.775478 
L 289.661862 319.502904 
L 290.174948 316.909705 
L 290.619622 319.824625 
L 291.816822 311.14322 
L 292.090467 314.393834 
L 292.312804 310.644096 
L 292.689067 316.162857 
L 293.338976 310.758459 
L 293.852061 311.812176 
L 294.245427 314.785222 
L 294.553278 312.231328 
L 295.750478 312.035604 
L 296.981884 318.461825 
L 297.033192 320.74566 
L 297.717306 317.941318 
L 298.127775 318.440128 
L 299.23946 318.43698 
L 300.573483 317.802154 
L 300.658997 314.661389 
L 300.710306 317.391003 
L 301.15498 317.804831 
L 301.907506 323.343214 
L 302.59162 315.25159 
L 302.882368 314.650049 
L 304.096671 329.818926 
L 304.438728 324.843929 
L 304.558448 326.417931 
L 306.49107 325.836051 
L 306.542379 327.074997 
L 306.901539 326.478347 
L 307.910607 327.861294 
L 308.081636 329.67728 
L 308.150047 332.510331 
L 308.64603 328.43233 
L 309.210424 325.225429 
L 310.099773 325.082689 
L 310.390521 324.824808 
L 310.629961 327.487901 
L 310.903607 329.214908 
L 311.194355 327.779501 
L 311.878469 330.179356 
L 312.682303 326.643656 
L 313.058566 331.060933 
L 313.178286 327.172465 
L 313.657166 326.194362 
L 313.828195 328.433905 
L 313.913709 326.275836 
L 314.10184 327.921925 
L 314.255766 327.757914 
L 314.495206 326.904303 
L 315.145114 330.039655 
L 315.196423 331.100978 
L 315.77792 327.537292 
L 315.846331 328.395251 
L 316.239697 326.779191 
L 316.37652 329.569027 
L 317.060634 328.388545 
L 317.163251 329.457992 
L 317.385588 328.785918 
L 317.471103 325.762675 
L 318.565685 329.268731 
L 318.890639 329.483921 
L 319.044565 330.374678 
L 319.814194 326.712357 
L 320.207559 331.654675 
L 320.258868 328.589305 
L 321.267936 326.931629 
L 321.47317 329.49847 
L 323.98729 332.441499 
L 324.893741 327.41735 
L 325.765987 331.067071 
L 325.919912 331.209686 
L 326.210661 332.328787 
L 326.501409 327.805638 
L 327.031598 331.764766 
L 327.903843 330.679969 
L 328.297209 330.936906 
L 328.536649 329.493349 
L 329.80226 331.89757 
L 331.751986 331.363304 
L 333.0347 331.186621 
L 333.39386 330.520809 
L 333.479374 331.012938 
L 333.718814 331.147489 
L 333.975357 329.376443 
L 334.095077 330.539237 
L 334.625265 329.751372 
L 336.284242 331.600444 
L 336.728916 333.882851 
L 336.797328 331.791573 
L 337.070973 328.696358 
L 337.789293 331.415639 
L 338.883876 328.879454 
L 338.935184 331.269484 
L 339.20883 330.526161 
L 340.850704 328.308353 
L 341.380892 331.348282 
L 341.757155 331.970375 
L 343.381926 331.578516 
L 344.613332 331.837416 
L 345.400063 331.392142 
L 345.878943 334.758209 
L 346.888011 329.939531 
L 347.161657 332.178711 
L 347.691845 334.807787 
L 348.923251 329.558119 
L 349.248205 330.710196 
L 349.983628 328.513158 
L 350.325685 330.906219 
L 351.317651 334.921497 
L 351.608399 332.114437 
L 352.070176 331.019829 
L 352.429336 330.65886 
L 352.63457 332.524888 
L 352.891113 331.041851 
L 352.959525 332.571162 
L 353.250273 328.316654 
L 353.865976 327.993496 
L 354.55009 332.142829 
L 355.114484 330.303799 
L 356.380095 330.945581 
L 356.995798 333.187184 
L 357.902249 330.883465 
L 357.970661 332.265872 
L 358.312718 330.980166 
L 359.150758 331.428807 
L 359.64674 330.982225 
L 360.36506 332.869175 
L 361.237306 330.868358 
L 361.493849 330.967325 
L 361.630671 330.001994 
L 361.733289 332.897049 
L 362.63974 333.66985 
L 362.691048 330.371074 
L 363.375163 329.572952 
L 363.802734 330.583973 
L 364.298717 332.725951 
L 364.880214 334.247397 
L 365.478814 329.820075 
L 365.872179 332.058819 
L 367.052276 330.271418 
L 367.394333 331.320065 
L 367.445642 334.429841 
L 367.61667 333.192146 
L 367.719287 333.238721 
L 368.09555 332.546482 
L 369.497984 332.175816 
L 371.909487 328.469474 
L 373.038275 329.412292 
L 373.157995 333.472913 
L 373.311921 333.844123 
L 373.602669 332.783046 
L 373.807903 328.900705 
L 373.910521 333.541224 
L 374.919589 331.98603 
L 375.774732 330.323178 
L 376.578566 332.404528 
L 377.194269 330.308618 
L 377.604737 332.583871 
L 377.656046 335.358958 
L 378.93876 332.717134 
L 379.041377 333.124154 
L 379.554462 332.743364 
L 379.708388 331.435532 
L 379.879417 333.165605 
L 380.888485 330.821475 
L 381.452879 332.91526 
L 381.469982 331.89741 
L 381.606805 333.750797 
L 381.675216 333.47507 
L 381.965965 333.8349 
L 383.060547 333.923955 
L 383.385502 330.951158 
L 383.949896 336.343009 
L 383.966999 333.014018 
L 384.377467 332.891901 
L 385.694387 331.335802 
L 386.771867 332.340118 
L 387.490187 335.910488 
L 387.558598 333.941923 
L 388.311124 329.33628 
L 388.636078 331.888521 
L 389.781969 334.80372 
L 390.773935 333.272722 
L 391.1673 329.999387 
L 392.552631 333.867577 
L 393.031511 333.435935 
L 393.32226 333.477877 
L 393.356466 338.272077 
L 393.903757 331.114001 
L 394.433945 333.758279 
L 395.443014 333.550182 
L 397.888722 331.146659 
L 398.29919 332.791445 
L 398.453116 336.639459 
L 398.555733 333.789364 
L 399.342464 331.208152 
L 399.393773 333.653252 
L 399.718727 332.830214 
L 400.043681 334.624779 
L 401.976304 331.827555 
L 402.215744 335.450848 
L 403.293224 333.871196 
L 403.960235 333.814104 
L 404.319395 333.46381 
L 405.5508 334.222773 
L 405.721829 333.6532 
L 405.79024 334.689162 
L 406.594074 331.480089 
L 408.201743 334.76103 
L 409.279223 332.817658 
L 409.86072 334.202175 
L 410.972405 334.572609 
L 411.895959 333.391796 
L 412.340633 332.463065 
L 412.426148 334.648043 
L 413.64045 334.801919 
L 414.256153 332.180558 
L 415.094193 333.209663 
L 416.15457 334.191351 
L 416.171673 331.566623 
L 416.599244 334.040926 
L 416.99261 331.388398 
L 417.71093 334.455694 
L 420.567106 334.993618 
L 421.097295 331.724013 
L 421.678792 331.566988 
L 422.072157 334.150557 
L 422.722066 334.334963 
L 422.893094 336.212758 
L 423.5259 333.344733 
L 423.662723 335.138125 
L 424.090294 332.046652 
L 424.398145 332.224622 
L 424.432351 333.085466 
L 424.825717 332.034839 
L 424.84282 333.020227 
L 424.911231 332.953064 
L 425.236185 331.874982 
L 425.834785 333.287825 
L 426.125534 331.151801 
L 426.364974 333.339737 
L 426.724134 333.214913 
L 427.031985 334.40251 
L 427.203013 333.392897 
L 428.725167 334.124248 
L 428.964607 333.440498 
L 429.067225 332.696156 
L 429.306664 333.609236 
L 429.46059 333.149226 
L 429.58031 334.548959 
L 429.597413 333.565189 
L 430.093396 333.672882 
L 430.264424 332.327876 
L 430.606481 334.490668 
L 430.845921 333.58644 
L 431.786578 334.489443 
L 432.624618 333.871648 
L 432.641721 333.568569 
L 433.189012 335.047329 
L 435.737338 333.241833 
L 435.891263 331.989931 
L 436.164909 334.951307 
L 436.216217 333.601994 
L 436.370143 335.09481 
L 436.849023 333.783266 
L 437.447623 335.410645 
L 437.652857 335.032436 
L 438.319869 335.267375 
L 438.74744 331.772956 
L 439.038188 334.697109 
L 440.201182 334.684821 
L 440.577445 334.503907 
L 441.979879 334.64869 
L 442.732405 332.038317 
L 444.254559 331.621952 
L 444.271662 333.006547 
L 445.75961 333.34784 
L 445.896433 334.931244 
L 447.692232 331.900316 
L 449.351209 336.874392 
L 449.984015 332.487939 
L 450.993083 331.565889 
L 451.81402 334.230888 
L 452.498134 332.387552 
L 452.925706 335.718513 
L 453.25066 332.318918 
L 453.336174 333.063276 
L 453.72954 332.627853 
L 454.464963 337.220121 
L 455.627957 335.455987 
L 456.534408 335.197814 
L 457.526373 334.164494 
L 458.278899 338.578189 
L 458.34731 335.410227 
L 458.774882 333.262048 
L 461.93891 334.389347 
L 462.195453 335.530077 
L 462.246761 340.257356 
L 462.623024 334.241507 
L 462.725641 334.402917 
L 463.546578 336.080014 
L 463.803121 336.062368 
L 464.487235 332.330403 
L 464.589852 337.271105 
L 464.829292 334.197786 
L 465.017423 333.603394 
L 465.171349 335.596775 
L 465.95808 334.950386 
L 466.0778 335.863154 
L 466.248829 334.267578 
L 467.257897 338.394267 
L 467.719674 336.157344 
L 468.11304 332.992935 
L 469.31024 335.630951 
L 469.686503 335.715579 
L 470.250897 336.950956 
L 470.661365 334.407266 
L 471.345479 336.356276 
L 471.567817 332.127374 
L 471.653331 335.97992 
L 471.755948 333.919099 
L 471.807257 336.299953 
L 473.107073 334.604293 
L 473.124176 340.509928 
L 473.158382 336.32001 
L 473.876702 337.121899 
L 473.92801 334.565226 
L 474.458199 337.741263 
L 474.919976 334.728358 
L 474.971284 336.386257 
L 475.056799 335.747083 
L 476.014559 335.670101 
L 476.271101 337.938705 
L 476.459233 335.476804 
L 477.126244 334.417891 
L 477.297273 333.163986 
L 477.536713 335.970555 
L 479.041764 334.743656 
L 479.742981 337.425067 
L 479.965318 334.034434 
L 479.982421 334.606182 
L 480.324478 336.101336 
L 480.444198 332.95521 
L 480.632329 333.679605 
L 482.513643 333.101615 
L 482.530746 336.212116 
L 482.889906 335.534029 
L 484.0529 337.419295 
L 484.138414 332.516872 
L 484.805425 334.667297 
L 484.959351 334.003199 
L 485.36982 333.950004 
L 485.934214 336.006318 
L 486.361785 333.361076 
L 486.977488 334.826065 
L 487.627396 340.838515 
L 488.311511 334.439449 
L 488.448333 336.368021 
L 488.995625 334.240553 
L 489.14955 335.791175 
L 489.217962 332.502517 
L 490.312544 335.692651 
L 491.42423 335.902375 
L 491.817596 335.637198 
L 493.254235 336.308437 
L 493.391058 333.39197 
L 494.536949 339.269836 
L 494.844801 336.198112 
L 496.794526 337.557464 
L 496.811629 336.237162 
L 498.299577 337.979211 
L 499.496777 335.933046 
L 499.719114 333.875834 
L 500.215097 337.585776 
L 500.2322 333.924051 
L 500.933417 338.653499 
L 501.343885 336.395715 
L 501.446502 333.392532 
L 501.788559 339.654439 
L 501.891177 336.443393 
L 502.250337 336.47529 
L 502.352954 334.104217 
L 503.379125 337.372385 
L 504.388193 335.270385 
L 504.935485 335.937426 
L 505.055205 336.470967 
L 506.491844 334.905379 
L 508.715215 335.638403 
L 509.142787 336.412734 
L 509.365124 335.390329 
L 509.826901 335.107558 
L 510.134752 337.796376 
L 510.220266 333.48621 
L 510.357089 337.148203 
L 510.596529 335.305168 
L 511.075409 337.144453 
L 512.255506 333.949175 
L 512.306815 336.529933 
L 513.025134 337.035357 
L 513.623734 338.799335 
L 514.25654 337.563995 
L 515.8129 336.133503 
L 516.086545 334.634998 
L 517.916551 338.476631 
L 518.036271 334.733869 
L 518.241505 338.311977 
L 519.079545 336.694346 
L 519.11375 335.623782 
L 519.301882 334.914808 
L 519.318985 336.469456 
L 519.404499 334.822631 
L 520.858242 336.453005 
L 520.90955 334.124631 
L 523.42367 336.090822 
L 523.492081 335.130119 
L 523.509184 333.313631 
L 523.799932 334.14696 
L 524.501149 338.954583 
L 524.655075 335.432864 
L 524.757692 336.629626 
L 525.168161 338.705786 
L 525.339189 337.452732 
L 525.783864 336.352349 
L 525.818069 336.786809 
L 526.553492 335.23227 
L 526.946858 337.900608 
L 527.819103 332.382323 
L 528.229572 335.512153 
L 528.554526 336.83696 
L 528.793966 338.846917 
L 529.35836 337.485759 
L 531.290982 334.711014 
L 532.129022 336.49875 
L 533.172296 334.847712 
L 533.514354 336.543072 
L 533.702485 338.272901 
L 534.044542 335.743113 
L 535.070713 332.454641 
L 535.29305 338.666268 
L 535.925856 335.612608 
L 536.267913 335.822487 
L 536.456044 337.75143 
L 537.92689 336.366988 
L 538.097918 336.723976 
L 540.509421 332.7782 
L 541.176432 337.718118 
L 541.672415 340.331014 
L 542.339426 334.337084 
L 543.160363 336.318741 
L 543.9813 334.788802 
L 544.015506 337.269593 
L 544.152329 334.32939 
L 544.665414 334.289304 
L 545.05878 336.120813 
L 545.29822 340.38227 
L 546.273083 337.296248 
L 547.914957 336.917472 
L 548.684585 335.983465 
L 548.752996 337.816407 
L 549.779168 336.021201 
L 550.565899 337.909499 
L 551.078985 342.019926 
L 551.455247 335.953682 
L 551.59207 336.071691 
L 552.66955 333.717524 
L 553.678618 337.566686 
L 554.191704 337.913197 
L 554.46535 337.511757 
L 554.567967 336.659709 
L 555.132361 334.523655 
L 555.628344 337.021253 
L 555.867784 335.989765 
L 556.397972 338.007046 
L 557.064983 334.84878 
L 558.535829 337.49415 
L 559.784337 338.130749 
L 560.211909 335.204055 
L 560.434246 334.679337 
L 560.553966 336.611565 
L 560.588171 336.352896 
L 561.939297 336.34214 
L 562.948365 337.027325 
L 564.89809 334.549582 
L 565.154633 339.545652 
L 566.043982 337.173319 
L 566.505759 337.283321 
L 567.566136 336.635789 
L 567.993707 336.689179 
L 569.515861 333.382226 
L 570.148667 338.117756 
L 570.747267 336.974944 
L 571.020912 342.346833 
L 571.311661 335.39344 
L 572.012878 337.26277 
L 573.620546 337.860043 
L 573.859986 337.676482 
L 574.492792 335.568783 
L 574.646717 342.504654 
L 574.920363 337.528565 
L 575.997843 336.955578 
L 576.014946 334.884316 
L 576.254385 339.284136 
L 578.135699 337.203671 
L 578.546168 337.271596 
L 580.085425 342.758943 
L 580.256453 336.835442 
L 580.35907 337.530171 
L 581.402345 338.136874 
L 582.120664 335.60761 
L 584.822915 337.686868 
L 585.472824 337.930682 
L 586.259555 336.357 
L 586.293761 336.422897 
L 586.977875 338.423334 
L 586.994978 340.933263 
L 587.012081 337.708471 
L 587.285726 338.138697 
L 587.508063 337.486085 
L 587.542269 337.983313 
L 589.235452 337.410301 
L 591.612748 334.104834 
L 591.80088 334.996955 
L 592.895462 337.813744 
L 593.169108 333.781847 
L 593.186211 336.017211 
L 594.468925 338.683697 
L 595.153039 337.334523 
L 596.093696 336.91324 
L 597.957907 338.576939 
L 598.146039 339.751501 
L 598.282861 335.857222 
L 599.103798 335.747642 
L 599.514267 338.004141 
L 600.198381 337.650978 
L 600.24969 335.789877 
L 600.779878 339.354247 
L 600.950907 336.951543 
L 601.070627 337.912608 
L 601.378478 337.353254 
L 602.353341 337.004463 
L 602.695398 336.385223 
L 602.746706 335.648167 
L 603.105866 335.982574 
L 604.576712 336.884457 
L 606.133071 336.990024 
L 606.167277 337.745186 
L 606.714568 339.095967 
L 607.02242 338.533825 
L 607.415785 334.736487 
L 609.365511 337.47157 
L 611.862527 336.098384 
L 612.307202 336.012808 
L 612.444024 338.062503 
L 614.000384 340.293487 
L 615.060761 338.977157 
L 615.283098 339.437842 
L 616.856561 337.097672 
L 617.352544 338.65783 
L 618.019555 337.683274 
L 619.13124 337.677434 
L 622.808354 338.377994 
L 624.159479 337.84887 
L 624.604154 338.803656 
L 624.980416 340.580259 
L 625.305371 339.666303 
L 625.647428 337.504171 
L 625.732942 335.483925 
L 626.006588 338.158874 
L 626.211822 337.207656 
L 626.485468 338.413454 
L 626.947245 338.336399 
L 628.110239 336.139036 
L 628.691736 341.616976 
L 628.948278 335.905605 
L 629.170616 335.050425 
L 629.307438 338.351726 
L 629.392953 338.179948 
L 629.957347 337.500992 
L 630.93221 337.723033 
L 632.163615 338.985283 
L 632.728009 336.246039 
L 632.847729 338.90422 
L 633.001655 339.326636 
L 633.856798 337.806014 
L 633.908106 339.621523 
L 634.267266 339.695535 
L 634.4725 343.589364 
L 634.797455 335.729551 
L 637.448397 337.208272 
L 638.833728 337.139636 
L 638.850831 339.83621 
L 638.919242 338.783504 
L 639.432328 340.693279 
L 639.757282 336.979396 
L 640.544013 337.837137 
L 641.775419 340.068379 
L 641.860933 335.225441 
L 642.305607 339.283583 
L 643.092339 336.761847 
L 643.348881 338.863354 
L 644.11851 339.443305 
L 645.486738 335.247644 
L 645.828795 335.865214 
L 645.931412 338.85777 
L 646.15375 337.518172 
L 646.632629 340.160636 
L 647.316744 336.209625 
L 647.368052 338.936187 
L 648.052166 336.343905 
L 648.97572 343.639023 
L 649.198058 336.587705 
L 649.625629 335.903324 
L 649.745349 337.223872 
L 649.81376 335.854236 
L 651.558251 337.361576 
L 651.934514 336.225989 
L 652.242366 339.515413 
L 652.789657 339.092351 
L 654.089474 338.523186 
L 654.380222 338.65404 
L 654.397325 337.592102 
L 655.115645 338.355227 
L 656.808828 339.627203 
L 657.270605 338.912644 
L 657.766587 338.791766 
L 658.826964 339.151484 
L 659.767621 336.369866 
L 660.588558 337.486133 
L 660.674073 339.171793 
L 662.521181 337.289493 
L 662.709312 338.784426 
L 664.812963 340.942567 
L 665.822032 340.747785 
L 666.454837 337.815416 
L 666.813997 338.692405 
L 667.446803 339.807458 
L 668.062505 337.042578 
L 668.079608 339.534014 
L 668.50718 337.022746 
L 669.567557 335.981122 
L 669.670174 340.371912 
L 669.926717 339.573925 
L 670.781859 340.579102 
L 671.055505 336.15842 
L 671.226533 339.774386 
L 671.517282 339.269408 
L 671.910648 340.675951 
L 672.697379 335.051291 
L 673.809064 337.156107 
L 673.928784 341.741228 
L 674.065607 338.992185 
L 674.886544 340.886941 
L 675.04047 337.622156 
L 675.707481 338.500797 
L 676.271875 340.458576 
L 678.751789 337.628227 
L 678.957023 339.75406 
L 679.521418 339.181747 
L 679.555623 339.473753 
L 680.239737 338.193008 
L 681.351423 339.740788 
L 681.590863 337.575693 
L 681.590863 337.575693 
" clip-path="url(#p57c521d866)" style="fill: none; stroke: #ff0000; stroke-width: 2; stroke-linecap: square"/>
   </g>
   <g id="patch_3">
    <path d="M 101.798984 359.4885 
L 101.798984 10.8 
" style="fill: none; stroke: #000000; stroke-width: 0.8; stroke-linejoin: miter; stroke-linecap: square"/>
   </g>
   <g id="patch_4">
    <path d="M 709.2 359.4885 
L 709.2 10.8 
" style="fill: none; stroke: #000000; stroke-width: 0.8; stroke-linejoin: miter; stroke-linecap: square"/>
   </g>
   <g id="patch_5">
    <path d="M 101.798984 359.4885 
L 709.2 359.4885 
" style="fill: none; stroke: #000000; stroke-width: 0.8; stroke-linejoin: miter; stroke-linecap: square"/>
   </g>
   <g id="patch_6">
    <path d="M 101.798984 10.8 
L 709.2 10.8 
" style="fill: none; stroke: #000000; stroke-width: 0.8; stroke-linejoin: miter; stroke-linecap: square"/>
   </g>
   <g id="legend_1">
    <g id="line2d_51">
     <path d="M 465.551562 49.02 
L 498.051562 49.02 
L 530.551562 49.02 
" style="fill: none; stroke: #0000ff; stroke-width: 2; stroke-linecap: square"/>
    </g>
    <g id="text_11">
     <!-- Training -->
     <g transform="translate(551.351562 61.24) scale(0.26 -0.26)">
      <defs>
       <path id="DejaVuSerif-54" d="M 1222 0 
L 1222 331 
L 1819 331 
L 1819 4294 
L 447 4294 
L 447 3566 
L 63 3566 
L 63 4666 
L 4206 4666 
L 4206 3566 
L 3822 3566 
L 3822 4294 
L 2450 4294 
L 2450 331 
L 3047 331 
L 3047 0 
L 1222 0 
z
" transform="scale(0.015625)"/>
       <path id="DejaVuSerif-67" d="M 3359 2988 
L 3359 72 
Q 3359 -644 2965 -1033 
Q 2572 -1422 1844 -1422 
Q 1516 -1422 1216 -1362 
Q 916 -1303 641 -1184 
L 641 -488 
L 941 -488 
Q 997 -813 1206 -963 
Q 1416 -1113 1806 -1113 
Q 2313 -1113 2548 -827 
Q 2784 -541 2784 72 
L 2784 519 
Q 2616 206 2355 57 
Q 2094 -91 1709 -91 
Q 1097 -91 708 395 
Q 319 881 319 1663 
Q 319 2444 706 2928 
Q 1094 3413 1709 3413 
Q 2094 3413 2355 3264 
Q 2616 3116 2784 2803 
L 2784 3322 
L 3909 3322 
L 3909 2988 
L 3359 2988 
z
M 2784 1825 
Q 2784 2422 2554 2737 
Q 2325 3053 1888 3053 
Q 1444 3053 1217 2703 
Q 991 2353 991 1663 
Q 991 975 1217 622 
Q 1444 269 1888 269 
Q 2325 269 2554 583 
Q 2784 897 2784 1497 
L 2784 1825 
z
" transform="scale(0.015625)"/>
      </defs>
      <use xlink:href="#DejaVuSerif-54"/>
      <use xlink:href="#DejaVuSerif-72" x="66.699219"/>
      <use xlink:href="#DejaVuSerif-61" x="114.501953"/>
      <use xlink:href="#DejaVuSerif-69" x="174.121094"/>
      <use xlink:href="#DejaVuSerif-6e" x="206.103516"/>
      <use xlink:href="#DejaVuSerif-69" x="270.507812"/>
      <use xlink:href="#DejaVuSerif-6e" x="302.490234"/>
      <use xlink:href="#DejaVuSerif-67" x="366.894531"/>
     </g>
    </g>
    <g id="line2d_52">
     <path d="M 465.551562 93.74 
L 498.051562 93.74 
L 530.551562 93.74 
" style="fill: none; stroke: #ff0000; stroke-width: 2; stroke-linecap: square"/>
    </g>
    <g id="text_12">
     <!-- Validation -->
     <g transform="translate(551.351562 105.96) scale(0.26 -0.26)">
      <defs>
       <path id="DejaVuSerif-56" d="M 1119 4331 
L 2497 750 
L 3872 4331 
L 3347 4331 
L 3347 4666 
L 4716 4666 
L 4716 4331 
L 4263 4331 
L 2597 0 
L 2059 0 
L 403 4331 
L -63 4331 
L -63 4666 
L 1638 4666 
L 1638 4331 
L 1119 4331 
z
" transform="scale(0.015625)"/>
       <path id="DejaVuSerif-6c" d="M 1313 331 
L 1856 331 
L 1856 0 
L 184 0 
L 184 331 
L 738 331 
L 738 4531 
L 184 4531 
L 184 4863 
L 1313 4863 
L 1313 331 
z
" transform="scale(0.015625)"/>
       <path id="DejaVuSerif-64" d="M 3359 331 
L 3909 331 
L 3909 0 
L 2784 0 
L 2784 519 
Q 2616 206 2355 57 
Q 2094 -91 1709 -91 
Q 1097 -91 708 395 
Q 319 881 319 1663 
Q 319 2444 706 2928 
Q 1094 3413 1709 3413 
Q 2094 3413 2355 3264 
Q 2616 3116 2784 2803 
L 2784 4531 
L 2241 4531 
L 2241 4863 
L 3359 4863 
L 3359 331 
z
M 2784 1497 
L 2784 1825 
Q 2784 2422 2554 2737 
Q 2325 3053 1888 3053 
Q 1444 3053 1217 2703 
Q 991 2353 991 1663 
Q 991 975 1217 622 
Q 1444 269 1888 269 
Q 2325 269 2554 583 
Q 2784 897 2784 1497 
z
" transform="scale(0.015625)"/>
      </defs>
      <use xlink:href="#DejaVuSerif-56"/>
      <use xlink:href="#DejaVuSerif-61" x="63.091797"/>
      <use xlink:href="#DejaVuSerif-6c" x="122.710938"/>
      <use xlink:href="#DejaVuSerif-69" x="154.693359"/>
      <use xlink:href="#DejaVuSerif-64" x="186.675781"/>
      <use xlink:href="#DejaVuSerif-61" x="250.689453"/>
      <use xlink:href="#DejaVuSerif-74" x="310.308594"/>
      <use xlink:href="#DejaVuSerif-69" x="350.494141"/>
      <use xlink:href="#DejaVuSerif-6f" x="382.476562"/>
      <use xlink:href="#DejaVuSerif-6e" x="442.681641"/>
     </g>
    </g>
   </g>
  </g>
 </g>
 <defs>
  <clipPath id="p57c521d866">
   <rect x="101.798984" y="10.8" width="607.401016" height="348.6885"/>
  </clipPath>
 </defs>
</svg>
