<?xml version="1.0" encoding="utf-8" standalone="no"?>
<!DOCTYPE svg PUBLIC "-//W3C//DTD SVG 1.1//EN"
  "http://www.w3.org/Graphics/SVG/1.1/DTD/svg11.dtd">
<svg xmlns:xlink="http://www.w3.org/1999/xlink" width="720pt" height="432pt" viewBox="0 0 720 432" xmlns="http://www.w3.org/2000/svg" version="1.1">
 <metadata>
  <rdf:RDF xmlns:dc="http://purl.org/dc/elements/1.1/" xmlns:cc="http://creativecommons.org/ns#" xmlns:rdf="http://www.w3.org/1999/02/22-rdf-syntax-ns#">
   <cc:Work>
    <dc:type rdf:resource="http://purl.org/dc/dcmitype/StillImage"/>
    <dc:date>2025-07-04T23:18:55.833348</dc:date>
    <dc:format>image/svg+xml</dc:format>
    <dc:creator>
     <cc:Agent>
      <dc:title>Matplotlib v3.7.5, https://matplotlib.org/</dc:title>
     </cc:Agent>
    </dc:creator>
   </cc:Work>
  </rdf:RDF>
 </metadata>
 <defs>
  <style type="text/css">*{stroke-linejoin: round; stroke-linecap: butt}</style>
 </defs>
 <g id="figure_1">
  <g id="patch_1">
   <path d="M 0 432 
L 720 432 
L 720 0 
L 0 0 
z
" style="fill: #ffffff"/>
  </g>
  <g id="axes_1">
   <g id="patch_2">
    <path d="M 102.991484 359.4885 
L 709.2 359.4885 
L 709.2 10.8 
L 102.991484 10.8 
z
" style="fill: #ffffff"/>
   </g>
   <g id="matplotlib.axis_1">
    <g id="xtick_1">
     <g id="line2d_1">
      <defs>
       <path id="m10a4dca064" d="M 0 0 
L 0 -6 
" style="stroke: #000000"/>
      </defs>
      <g>
       <use xlink:href="#m10a4dca064" x="130.092443" y="359.4885" style="stroke: #000000"/>
      </g>
     </g>
     <g id="line2d_2">
      <defs>
       <path id="mf6aa4e57ba" d="M 0 0 
L 0 6 
" style="stroke: #000000"/>
      </defs>
      <g>
       <use xlink:href="#mf6aa4e57ba" x="130.092443" y="10.8" style="stroke: #000000"/>
      </g>
     </g>
     <g id="text_1">
      <!-- 0 -->
      <g transform="translate(121.821193 382.744438) scale(0.26 -0.26)">
       <defs>
        <path id="DejaVuSerif-30" d="M 2034 219 
Q 2513 219 2750 744 
Q 2988 1269 2988 2328 
Q 2988 3391 2750 3916 
Q 2513 4441 2034 4441 
Q 1556 4441 1318 3916 
Q 1081 3391 1081 2328 
Q 1081 1269 1318 744 
Q 1556 219 2034 219 
z
M 2034 -91 
Q 1275 -91 848 546 
Q 422 1184 422 2328 
Q 422 3475 848 4112 
Q 1275 4750 2034 4750 
Q 2797 4750 3222 4112 
Q 3647 3475 3647 2328 
Q 3647 1184 3222 546 
Q 2797 -91 2034 -91 
z
" transform="scale(0.015625)"/>
       </defs>
       <use xlink:href="#DejaVuSerif-30"/>
      </g>
     </g>
    </g>
    <g id="xtick_2">
     <g id="line2d_3">
      <g>
       <use xlink:href="#m10a4dca064" x="205.754699" y="359.4885" style="stroke: #000000"/>
      </g>
     </g>
     <g id="line2d_4">
      <g>
       <use xlink:href="#mf6aa4e57ba" x="205.754699" y="10.8" style="stroke: #000000"/>
      </g>
     </g>
     <g id="text_2">
      <!-- 30 -->
      <g transform="translate(189.212199 382.744438) scale(0.26 -0.26)">
       <defs>
        <path id="DejaVuSerif-33" d="M 622 4469 
Q 988 4606 1323 4678 
Q 1659 4750 1953 4750 
Q 2638 4750 3022 4454 
Q 3406 4159 3406 3634 
Q 3406 3213 3140 2930 
Q 2875 2647 2388 2547 
Q 2963 2466 3280 2130 
Q 3597 1794 3597 1259 
Q 3597 606 3158 257 
Q 2719 -91 1894 -91 
Q 1528 -91 1179 -12 
Q 831 66 488 225 
L 488 1131 
L 838 1131 
Q 869 681 1141 450 
Q 1413 219 1906 219 
Q 2384 219 2661 495 
Q 2938 772 2938 1253 
Q 2938 1803 2653 2086 
Q 2369 2369 1819 2369 
L 1522 2369 
L 1522 2688 
L 1678 2688 
Q 2225 2688 2498 2914 
Q 2772 3141 2772 3597 
Q 2772 4006 2547 4223 
Q 2322 4441 1900 4441 
Q 1478 4441 1245 4241 
Q 1013 4041 972 3647 
L 622 3647 
L 622 4469 
z
" transform="scale(0.015625)"/>
       </defs>
       <use xlink:href="#DejaVuSerif-33"/>
       <use xlink:href="#DejaVuSerif-30" x="63.623047"/>
      </g>
     </g>
    </g>
    <g id="xtick_3">
     <g id="line2d_5">
      <g>
       <use xlink:href="#m10a4dca064" x="281.416954" y="359.4885" style="stroke: #000000"/>
      </g>
     </g>
     <g id="line2d_6">
      <g>
       <use xlink:href="#mf6aa4e57ba" x="281.416954" y="10.8" style="stroke: #000000"/>
      </g>
     </g>
     <g id="text_3">
      <!-- 60 -->
      <g transform="translate(264.874454 382.744438) scale(0.26 -0.26)">
       <defs>
        <path id="DejaVuSerif-36" d="M 2094 219 
Q 2534 219 2771 542 
Q 3009 866 3009 1472 
Q 3009 2078 2771 2401 
Q 2534 2725 2094 2725 
Q 1647 2725 1412 2412 
Q 1178 2100 1178 1509 
Q 1178 888 1415 553 
Q 1653 219 2094 219 
z
M 1075 2569 
Q 1288 2803 1556 2918 
Q 1825 3034 2163 3034 
Q 2859 3034 3264 2615 
Q 3669 2197 3669 1472 
Q 3669 763 3233 336 
Q 2797 -91 2069 -91 
Q 1278 -91 853 498 
Q 428 1088 428 2181 
Q 428 3406 931 4078 
Q 1434 4750 2350 4750 
Q 2597 4750 2869 4703 
Q 3141 4656 3425 4563 
L 3425 3794 
L 3072 3794 
Q 3034 4109 2831 4275 
Q 2628 4441 2284 4441 
Q 1678 4441 1381 3981 
Q 1084 3522 1075 2569 
z
" transform="scale(0.015625)"/>
       </defs>
       <use xlink:href="#DejaVuSerif-36"/>
       <use xlink:href="#DejaVuSerif-30" x="63.623047"/>
      </g>
     </g>
    </g>
    <g id="xtick_4">
     <g id="line2d_7">
      <g>
       <use xlink:href="#m10a4dca064" x="357.07921" y="359.4885" style="stroke: #000000"/>
      </g>
     </g>
     <g id="line2d_8">
      <g>
       <use xlink:href="#mf6aa4e57ba" x="357.07921" y="10.8" style="stroke: #000000"/>
      </g>
     </g>
     <g id="text_4">
      <!-- 90 -->
      <g transform="translate(340.53671 382.744438) scale(0.26 -0.26)">
       <defs>
        <path id="DejaVuSerif-39" d="M 2994 2091 
Q 2784 1856 2512 1740 
Q 2241 1625 1900 1625 
Q 1206 1625 804 2044 
Q 403 2463 403 3188 
Q 403 3897 839 4323 
Q 1275 4750 2003 4750 
Q 2794 4750 3217 4161 
Q 3641 3572 3641 2478 
Q 3641 1253 3137 581 
Q 2634 -91 1722 -91 
Q 1475 -91 1203 -44 
Q 931 3 647 97 
L 647 872 
L 997 872 
Q 1038 556 1241 387 
Q 1444 219 1784 219 
Q 2391 219 2687 676 
Q 2984 1134 2994 2091 
z
M 1978 4441 
Q 1534 4441 1298 4117 
Q 1063 3794 1063 3188 
Q 1063 2581 1298 2256 
Q 1534 1931 1978 1931 
Q 2422 1931 2658 2245 
Q 2894 2559 2894 3150 
Q 2894 3772 2656 4106 
Q 2419 4441 1978 4441 
z
" transform="scale(0.015625)"/>
       </defs>
       <use xlink:href="#DejaVuSerif-39"/>
       <use xlink:href="#DejaVuSerif-30" x="63.623047"/>
      </g>
     </g>
    </g>
    <g id="xtick_5">
     <g id="line2d_9">
      <g>
       <use xlink:href="#m10a4dca064" x="432.741466" y="359.4885" style="stroke: #000000"/>
      </g>
     </g>
     <g id="line2d_10">
      <g>
       <use xlink:href="#mf6aa4e57ba" x="432.741466" y="10.8" style="stroke: #000000"/>
      </g>
     </g>
     <g id="text_5">
      <!-- 120 -->
      <g transform="translate(407.927716 382.744438) scale(0.26 -0.26)">
       <defs>
        <path id="DejaVuSerif-31" d="M 909 0 
L 909 331 
L 1722 331 
L 1722 4213 
L 781 3603 
L 781 4013 
L 1919 4750 
L 2350 4750 
L 2350 331 
L 3163 331 
L 3163 0 
L 909 0 
z
" transform="scale(0.015625)"/>
        <path id="DejaVuSerif-32" d="M 819 3553 
L 469 3553 
L 469 4384 
Q 803 4563 1142 4656 
Q 1481 4750 1806 4750 
Q 2534 4750 2956 4397 
Q 3378 4044 3378 3438 
Q 3378 2753 2422 1800 
Q 2347 1728 2309 1691 
L 1131 513 
L 3078 513 
L 3078 1088 
L 3444 1088 
L 3444 0 
L 434 0 
L 434 341 
L 1850 1753 
Q 2319 2222 2519 2614 
Q 2719 3006 2719 3438 
Q 2719 3909 2473 4175 
Q 2228 4441 1797 4441 
Q 1350 4441 1106 4219 
Q 863 3997 819 3553 
z
" transform="scale(0.015625)"/>
       </defs>
       <use xlink:href="#DejaVuSerif-31"/>
       <use xlink:href="#DejaVuSerif-32" x="63.623047"/>
       <use xlink:href="#DejaVuSerif-30" x="127.246094"/>
      </g>
     </g>
    </g>
    <g id="xtick_6">
     <g id="line2d_11">
      <g>
       <use xlink:href="#m10a4dca064" x="508.403722" y="359.4885" style="stroke: #000000"/>
      </g>
     </g>
     <g id="line2d_12">
      <g>
       <use xlink:href="#mf6aa4e57ba" x="508.403722" y="10.8" style="stroke: #000000"/>
      </g>
     </g>
     <g id="text_6">
      <!-- 150 -->
      <g transform="translate(483.589972 382.744438) scale(0.26 -0.26)">
       <defs>
        <path id="DejaVuSerif-35" d="M 3219 4666 
L 3219 4153 
L 1081 4153 
L 1081 2816 
Q 1244 2928 1461 2984 
Q 1678 3041 1947 3041 
Q 2703 3041 3140 2622 
Q 3578 2203 3578 1478 
Q 3578 738 3136 323 
Q 2694 -91 1894 -91 
Q 1572 -91 1234 -12 
Q 897 66 544 225 
L 544 1131 
L 897 1131 
Q 925 688 1179 453 
Q 1434 219 1894 219 
Q 2388 219 2653 544 
Q 2919 869 2919 1478 
Q 2919 2084 2655 2407 
Q 2391 2731 1894 2731 
Q 1613 2731 1398 2631 
Q 1184 2531 1019 2322 
L 750 2322 
L 750 4666 
L 3219 4666 
z
" transform="scale(0.015625)"/>
       </defs>
       <use xlink:href="#DejaVuSerif-31"/>
       <use xlink:href="#DejaVuSerif-35" x="63.623047"/>
       <use xlink:href="#DejaVuSerif-30" x="127.246094"/>
      </g>
     </g>
    </g>
    <g id="xtick_7">
     <g id="line2d_13">
      <g>
       <use xlink:href="#m10a4dca064" x="584.065978" y="359.4885" style="stroke: #000000"/>
      </g>
     </g>
     <g id="line2d_14">
      <g>
       <use xlink:href="#mf6aa4e57ba" x="584.065978" y="10.8" style="stroke: #000000"/>
      </g>
     </g>
     <g id="text_7">
      <!-- 180 -->
      <g transform="translate(559.252228 382.744438) scale(0.26 -0.26)">
       <defs>
        <path id="DejaVuSerif-38" d="M 2981 1275 
Q 2981 1775 2732 2051 
Q 2484 2328 2034 2328 
Q 1584 2328 1336 2051 
Q 1088 1775 1088 1275 
Q 1088 772 1336 495 
Q 1584 219 2034 219 
Q 2484 219 2732 495 
Q 2981 772 2981 1275 
z
M 2853 3541 
Q 2853 3966 2637 4203 
Q 2422 4441 2034 4441 
Q 1650 4441 1433 4203 
Q 1216 3966 1216 3541 
Q 1216 3113 1433 2875 
Q 1650 2638 2034 2638 
Q 2422 2638 2637 2875 
Q 2853 3113 2853 3541 
z
M 2516 2484 
Q 3047 2413 3344 2092 
Q 3641 1772 3641 1275 
Q 3641 619 3225 264 
Q 2809 -91 2034 -91 
Q 1263 -91 845 264 
Q 428 619 428 1275 
Q 428 1772 725 2092 
Q 1022 2413 1556 2484 
Q 1084 2569 832 2842 
Q 581 3116 581 3541 
Q 581 4103 968 4426 
Q 1356 4750 2034 4750 
Q 2713 4750 3100 4426 
Q 3488 4103 3488 3541 
Q 3488 3116 3236 2842 
Q 2984 2569 2516 2484 
z
" transform="scale(0.015625)"/>
       </defs>
       <use xlink:href="#DejaVuSerif-31"/>
       <use xlink:href="#DejaVuSerif-38" x="63.623047"/>
       <use xlink:href="#DejaVuSerif-30" x="127.246094"/>
      </g>
     </g>
    </g>
    <g id="xtick_8">
     <g id="line2d_15">
      <g>
       <use xlink:href="#m10a4dca064" x="659.728234" y="359.4885" style="stroke: #000000"/>
      </g>
     </g>
     <g id="line2d_16">
      <g>
       <use xlink:href="#mf6aa4e57ba" x="659.728234" y="10.8" style="stroke: #000000"/>
      </g>
     </g>
     <g id="text_8">
      <!-- 210 -->
      <g transform="translate(634.914484 382.744438) scale(0.26 -0.26)">
       <use xlink:href="#DejaVuSerif-32"/>
       <use xlink:href="#DejaVuSerif-31" x="63.623047"/>
       <use xlink:href="#DejaVuSerif-30" x="127.246094"/>
      </g>
     </g>
    </g>
    <g id="text_9">
     <!-- Iteration ($\times 10^3$) -->
     <g transform="translate(300.405742 414.564437) scale(0.26 -0.26)">
      <defs>
       <path id="DejaVuSerif-49" d="M 1581 331 
L 2175 331 
L 2175 0 
L 353 0 
L 353 331 
L 947 331 
L 947 4331 
L 353 4331 
L 353 4666 
L 2175 4666 
L 2175 4331 
L 1581 4331 
L 1581 331 
z
" transform="scale(0.015625)"/>
       <path id="DejaVuSerif-74" d="M 691 2988 
L 184 2988 
L 184 3322 
L 691 3322 
L 691 4353 
L 1269 4353 
L 1269 3322 
L 2350 3322 
L 2350 2988 
L 1269 2988 
L 1269 878 
Q 1269 456 1350 337 
Q 1431 219 1650 219 
Q 1875 219 1978 351 
Q 2081 484 2088 781 
L 2522 781 
Q 2497 328 2275 118 
Q 2053 -91 1600 -91 
Q 1103 -91 897 129 
Q 691 350 691 878 
L 691 2988 
z
" transform="scale(0.015625)"/>
       <path id="DejaVuSerif-65" d="M 3469 1600 
L 991 1600 
L 991 1575 
Q 991 903 1244 561 
Q 1497 219 1991 219 
Q 2369 219 2611 417 
Q 2853 616 2950 1006 
L 3413 1006 
Q 3275 459 2904 184 
Q 2534 -91 1931 -91 
Q 1203 -91 761 389 
Q 319 869 319 1663 
Q 319 2450 753 2931 
Q 1188 3413 1894 3413 
Q 2647 3413 3050 2948 
Q 3453 2484 3469 1600 
z
M 2791 1931 
Q 2772 2513 2545 2808 
Q 2319 3103 1894 3103 
Q 1497 3103 1269 2806 
Q 1041 2509 991 1931 
L 2791 1931 
z
" transform="scale(0.015625)"/>
       <path id="DejaVuSerif-72" d="M 3059 3328 
L 3059 2497 
L 2728 2497 
Q 2713 2744 2591 2866 
Q 2469 2988 2234 2988 
Q 1809 2988 1582 2694 
Q 1356 2400 1356 1850 
L 1356 331 
L 2022 331 
L 2022 0 
L 263 0 
L 263 331 
L 781 331 
L 781 2994 
L 231 2994 
L 231 3322 
L 1356 3322 
L 1356 2731 
Q 1525 3078 1790 3245 
Q 2056 3413 2438 3413 
Q 2578 3413 2733 3391 
Q 2888 3369 3059 3328 
z
" transform="scale(0.015625)"/>
       <path id="DejaVuSerif-61" d="M 2547 1044 
L 2547 1747 
L 1806 1747 
Q 1378 1747 1168 1562 
Q 959 1378 959 997 
Q 959 650 1171 447 
Q 1384 244 1747 244 
Q 2106 244 2326 466 
Q 2547 688 2547 1044 
z
M 3122 2075 
L 3122 331 
L 3634 331 
L 3634 0 
L 2547 0 
L 2547 359 
Q 2356 128 2106 18 
Q 1856 -91 1522 -91 
Q 969 -91 644 203 
Q 319 497 319 997 
Q 319 1513 691 1797 
Q 1063 2081 1741 2081 
L 2547 2081 
L 2547 2309 
Q 2547 2688 2317 2895 
Q 2088 3103 1672 3103 
Q 1328 3103 1125 2947 
Q 922 2791 872 2484 
L 575 2484 
L 575 3156 
Q 875 3284 1158 3348 
Q 1441 3413 1709 3413 
Q 2400 3413 2761 3070 
Q 3122 2728 3122 2075 
z
" transform="scale(0.015625)"/>
       <path id="DejaVuSerif-69" d="M 622 4353 
Q 622 4497 726 4603 
Q 831 4709 978 4709 
Q 1122 4709 1226 4603 
Q 1331 4497 1331 4353 
Q 1331 4206 1228 4103 
Q 1125 4000 978 4000 
Q 831 4000 726 4103 
Q 622 4206 622 4353 
z
M 1356 331 
L 1900 331 
L 1900 0 
L 231 0 
L 231 331 
L 781 331 
L 781 2988 
L 231 2988 
L 231 3322 
L 1356 3322 
L 1356 331 
z
" transform="scale(0.015625)"/>
       <path id="DejaVuSerif-6f" d="M 1925 219 
Q 2388 219 2623 584 
Q 2859 950 2859 1663 
Q 2859 2375 2623 2739 
Q 2388 3103 1925 3103 
Q 1463 3103 1227 2739 
Q 991 2375 991 1663 
Q 991 950 1228 584 
Q 1466 219 1925 219 
z
M 1925 -91 
Q 1200 -91 759 389 
Q 319 869 319 1663 
Q 319 2456 758 2934 
Q 1197 3413 1925 3413 
Q 2653 3413 3092 2934 
Q 3531 2456 3531 1663 
Q 3531 869 3092 389 
Q 2653 -91 1925 -91 
z
" transform="scale(0.015625)"/>
       <path id="DejaVuSerif-6e" d="M 263 0 
L 263 331 
L 781 331 
L 781 2988 
L 231 2988 
L 231 3322 
L 1356 3322 
L 1356 2731 
Q 1516 3069 1770 3241 
Q 2025 3413 2363 3413 
Q 2913 3413 3172 3097 
Q 3431 2781 3431 2113 
L 3431 331 
L 3944 331 
L 3944 0 
L 2356 0 
L 2356 331 
L 2853 331 
L 2853 1931 
Q 2853 2541 2703 2767 
Q 2553 2994 2175 2994 
Q 1775 2994 1565 2701 
Q 1356 2409 1356 1850 
L 1356 331 
L 1856 331 
L 1856 0 
L 263 0 
z
" transform="scale(0.015625)"/>
       <path id="DejaVuSerif-20" transform="scale(0.015625)"/>
       <path id="DejaVuSerif-28" d="M 2041 -997 
Q 1281 -656 893 83 
Q 506 822 506 1931 
Q 506 3044 893 3783 
Q 1281 4522 2041 4863 
L 2041 4556 
Q 1559 4225 1350 3623 
Q 1141 3022 1141 1931 
Q 1141 844 1350 242 
Q 1559 -359 2041 -691 
L 2041 -997 
z
" transform="scale(0.015625)"/>
       <path id="DejaVuSans-d7" d="M 4488 3438 
L 3059 2003 
L 4488 575 
L 4116 197 
L 2681 1631 
L 1247 197 
L 878 575 
L 2303 2003 
L 878 3438 
L 1247 3816 
L 2681 2381 
L 4116 3816 
L 4488 3438 
z
" transform="scale(0.015625)"/>
       <path id="DejaVuSans-31" d="M 794 531 
L 1825 531 
L 1825 4091 
L 703 3866 
L 703 4441 
L 1819 4666 
L 2450 4666 
L 2450 531 
L 3481 531 
L 3481 0 
L 794 0 
L 794 531 
z
" transform="scale(0.015625)"/>
       <path id="DejaVuSans-30" d="M 2034 4250 
Q 1547 4250 1301 3770 
Q 1056 3291 1056 2328 
Q 1056 1369 1301 889 
Q 1547 409 2034 409 
Q 2525 409 2770 889 
Q 3016 1369 3016 2328 
Q 3016 3291 2770 3770 
Q 2525 4250 2034 4250 
z
M 2034 4750 
Q 2819 4750 3233 4129 
Q 3647 3509 3647 2328 
Q 3647 1150 3233 529 
Q 2819 -91 2034 -91 
Q 1250 -91 836 529 
Q 422 1150 422 2328 
Q 422 3509 836 4129 
Q 1250 4750 2034 4750 
z
" transform="scale(0.015625)"/>
       <path id="DejaVuSans-33" d="M 2597 2516 
Q 3050 2419 3304 2112 
Q 3559 1806 3559 1356 
Q 3559 666 3084 287 
Q 2609 -91 1734 -91 
Q 1441 -91 1130 -33 
Q 819 25 488 141 
L 488 750 
Q 750 597 1062 519 
Q 1375 441 1716 441 
Q 2309 441 2620 675 
Q 2931 909 2931 1356 
Q 2931 1769 2642 2001 
Q 2353 2234 1838 2234 
L 1294 2234 
L 1294 2753 
L 1863 2753 
Q 2328 2753 2575 2939 
Q 2822 3125 2822 3475 
Q 2822 3834 2567 4026 
Q 2313 4219 1838 4219 
Q 1578 4219 1281 4162 
Q 984 4106 628 3988 
L 628 4550 
Q 988 4650 1302 4700 
Q 1616 4750 1894 4750 
Q 2613 4750 3031 4423 
Q 3450 4097 3450 3541 
Q 3450 3153 3228 2886 
Q 3006 2619 2597 2516 
z
" transform="scale(0.015625)"/>
       <path id="DejaVuSerif-29" d="M 453 -997 
L 453 -691 
Q 934 -359 1145 242 
Q 1356 844 1356 1931 
Q 1356 3022 1145 3623 
Q 934 4225 453 4556 
L 453 4863 
Q 1216 4522 1603 3783 
Q 1991 3044 1991 1931 
Q 1991 822 1603 83 
Q 1216 -656 453 -997 
z
" transform="scale(0.015625)"/>
      </defs>
      <use xlink:href="#DejaVuSerif-49" transform="translate(0 0.765625)"/>
      <use xlink:href="#DejaVuSerif-74" transform="translate(39.501953 0.765625)"/>
      <use xlink:href="#DejaVuSerif-65" transform="translate(79.6875 0.765625)"/>
      <use xlink:href="#DejaVuSerif-72" transform="translate(138.867188 0.765625)"/>
      <use xlink:href="#DejaVuSerif-61" transform="translate(186.669922 0.765625)"/>
      <use xlink:href="#DejaVuSerif-74" transform="translate(246.289062 0.765625)"/>
      <use xlink:href="#DejaVuSerif-69" transform="translate(286.474609 0.765625)"/>
      <use xlink:href="#DejaVuSerif-6f" transform="translate(318.457031 0.765625)"/>
      <use xlink:href="#DejaVuSerif-6e" transform="translate(378.662109 0.765625)"/>
      <use xlink:href="#DejaVuSerif-20" transform="translate(443.066406 0.765625)"/>
      <use xlink:href="#DejaVuSerif-28" transform="translate(474.853516 0.765625)"/>
      <use xlink:href="#DejaVuSans-d7" transform="translate(513.867188 0.765625)"/>
      <use xlink:href="#DejaVuSans-31" transform="translate(597.65625 0.765625)"/>
      <use xlink:href="#DejaVuSans-30" transform="translate(661.279297 0.765625)"/>
      <use xlink:href="#DejaVuSans-33" transform="translate(725.859375 39.046875) scale(0.7)"/>
      <use xlink:href="#DejaVuSerif-29" transform="translate(773.129883 0.765625)"/>
     </g>
    </g>
   </g>
   <g id="matplotlib.axis_2">
    <g id="ytick_1">
     <g id="line2d_17">
      <defs>
       <path id="mfc7a51b9b6" d="M 0 0 
L 6 0 
" style="stroke: #000000"/>
      </defs>
      <g>
       <use xlink:href="#mfc7a51b9b6" x="102.991484" y="349.861717" style="stroke: #000000"/>
      </g>
     </g>
     <g id="line2d_18">
      <defs>
       <path id="m15d03c6d30" d="M 0 0 
L -6 0 
" style="stroke: #000000"/>
      </defs>
      <g>
       <use xlink:href="#m15d03c6d30" x="709.2" y="349.861717" style="stroke: #000000"/>
      </g>
     </g>
     <g id="text_10">
      <!-- $\mathdefault{10^{-3}}$ -->
      <g transform="translate(38.651484 359.739685) scale(0.26 -0.26)">
       <defs>
        <path id="DejaVuSerif-2212" d="M 678 2259 
L 4684 2259 
L 4684 1753 
L 678 1753 
L 678 2259 
z
" transform="scale(0.015625)"/>
       </defs>
       <use xlink:href="#DejaVuSerif-31" transform="translate(0 0.7125)"/>
       <use xlink:href="#DejaVuSerif-30" transform="translate(63.623047 0.7125)"/>
       <use xlink:href="#DejaVuSerif-2212" transform="translate(128.154453 37.046875) scale(0.7)"/>
       <use xlink:href="#DejaVuSerif-33" transform="translate(186.806797 37.046875) scale(0.7)"/>
      </g>
     </g>
    </g>
    <g id="ytick_2">
     <g id="line2d_19">
      <g>
       <use xlink:href="#mfc7a51b9b6" x="102.991484" y="164.491341" style="stroke: #000000"/>
      </g>
     </g>
     <g id="line2d_20">
      <g>
       <use xlink:href="#m15d03c6d30" x="709.2" y="164.491341" style="stroke: #000000"/>
      </g>
     </g>
     <g id="text_11">
      <!-- $\mathdefault{10^{-2}}$ -->
      <g transform="translate(38.651484 174.36931) scale(0.26 -0.26)">
       <use xlink:href="#DejaVuSerif-31" transform="translate(0 0.7125)"/>
       <use xlink:href="#DejaVuSerif-30" transform="translate(63.623047 0.7125)"/>
       <use xlink:href="#DejaVuSerif-2212" transform="translate(128.154453 37.046875) scale(0.7)"/>
       <use xlink:href="#DejaVuSerif-32" transform="translate(186.806797 37.046875) scale(0.7)"/>
      </g>
     </g>
    </g>
    <g id="ytick_3">
     <g id="line2d_21">
      <g>
       <use xlink:href="#mfc7a51b9b6" x="102.991484" y="358.3438" style="stroke: #000000"/>
      </g>
     </g>
     <g id="line2d_22">
      <g>
       <use xlink:href="#m15d03c6d30" x="709.2" y="358.3438" style="stroke: #000000"/>
      </g>
     </g>
    </g>
    <g id="ytick_4">
     <g id="line2d_23">
      <g>
       <use xlink:href="#mfc7a51b9b6" x="102.991484" y="294.059673" style="stroke: #000000"/>
      </g>
     </g>
     <g id="line2d_24">
      <g>
       <use xlink:href="#m15d03c6d30" x="709.2" y="294.059673" style="stroke: #000000"/>
      </g>
     </g>
    </g>
    <g id="ytick_5">
     <g id="line2d_25">
      <g>
       <use xlink:href="#mfc7a51b9b6" x="102.991484" y="261.41757" style="stroke: #000000"/>
      </g>
     </g>
     <g id="line2d_26">
      <g>
       <use xlink:href="#m15d03c6d30" x="709.2" y="261.41757" style="stroke: #000000"/>
      </g>
     </g>
    </g>
    <g id="ytick_6">
     <g id="line2d_27">
      <g>
       <use xlink:href="#mfc7a51b9b6" x="102.991484" y="238.25763" style="stroke: #000000"/>
      </g>
     </g>
     <g id="line2d_28">
      <g>
       <use xlink:href="#m15d03c6d30" x="709.2" y="238.25763" style="stroke: #000000"/>
      </g>
     </g>
    </g>
    <g id="ytick_7">
     <g id="line2d_29">
      <g>
       <use xlink:href="#mfc7a51b9b6" x="102.991484" y="220.293384" style="stroke: #000000"/>
      </g>
     </g>
     <g id="line2d_30">
      <g>
       <use xlink:href="#m15d03c6d30" x="709.2" y="220.293384" style="stroke: #000000"/>
      </g>
     </g>
    </g>
    <g id="ytick_8">
     <g id="line2d_31">
      <g>
       <use xlink:href="#mfc7a51b9b6" x="102.991484" y="205.615527" style="stroke: #000000"/>
      </g>
     </g>
     <g id="line2d_32">
      <g>
       <use xlink:href="#m15d03c6d30" x="709.2" y="205.615527" style="stroke: #000000"/>
      </g>
     </g>
    </g>
    <g id="ytick_9">
     <g id="line2d_33">
      <g>
       <use xlink:href="#mfc7a51b9b6" x="102.991484" y="193.205575" style="stroke: #000000"/>
      </g>
     </g>
     <g id="line2d_34">
      <g>
       <use xlink:href="#m15d03c6d30" x="709.2" y="193.205575" style="stroke: #000000"/>
      </g>
     </g>
    </g>
    <g id="ytick_10">
     <g id="line2d_35">
      <g>
       <use xlink:href="#mfc7a51b9b6" x="102.991484" y="182.455586" style="stroke: #000000"/>
      </g>
     </g>
     <g id="line2d_36">
      <g>
       <use xlink:href="#m15d03c6d30" x="709.2" y="182.455586" style="stroke: #000000"/>
      </g>
     </g>
    </g>
    <g id="ytick_11">
     <g id="line2d_37">
      <g>
       <use xlink:href="#mfc7a51b9b6" x="102.991484" y="172.973424" style="stroke: #000000"/>
      </g>
     </g>
     <g id="line2d_38">
      <g>
       <use xlink:href="#m15d03c6d30" x="709.2" y="172.973424" style="stroke: #000000"/>
      </g>
     </g>
    </g>
    <g id="ytick_12">
     <g id="line2d_39">
      <g>
       <use xlink:href="#mfc7a51b9b6" x="102.991484" y="108.689297" style="stroke: #000000"/>
      </g>
     </g>
     <g id="line2d_40">
      <g>
       <use xlink:href="#m15d03c6d30" x="709.2" y="108.689297" style="stroke: #000000"/>
      </g>
     </g>
    </g>
    <g id="ytick_13">
     <g id="line2d_41">
      <g>
       <use xlink:href="#mfc7a51b9b6" x="102.991484" y="76.047195" style="stroke: #000000"/>
      </g>
     </g>
     <g id="line2d_42">
      <g>
       <use xlink:href="#m15d03c6d30" x="709.2" y="76.047195" style="stroke: #000000"/>
      </g>
     </g>
    </g>
    <g id="ytick_14">
     <g id="line2d_43">
      <g>
       <use xlink:href="#mfc7a51b9b6" x="102.991484" y="52.887254" style="stroke: #000000"/>
      </g>
     </g>
     <g id="line2d_44">
      <g>
       <use xlink:href="#m15d03c6d30" x="709.2" y="52.887254" style="stroke: #000000"/>
      </g>
     </g>
    </g>
    <g id="ytick_15">
     <g id="line2d_45">
      <g>
       <use xlink:href="#mfc7a51b9b6" x="102.991484" y="34.923008" style="stroke: #000000"/>
      </g>
     </g>
     <g id="line2d_46">
      <g>
       <use xlink:href="#m15d03c6d30" x="709.2" y="34.923008" style="stroke: #000000"/>
      </g>
     </g>
    </g>
    <g id="ytick_16">
     <g id="line2d_47">
      <g>
       <use xlink:href="#mfc7a51b9b6" x="102.991484" y="20.245151" style="stroke: #000000"/>
      </g>
     </g>
     <g id="line2d_48">
      <g>
       <use xlink:href="#m15d03c6d30" x="709.2" y="20.245151" style="stroke: #000000"/>
      </g>
     </g>
    </g>
    <g id="text_12">
     <!-- Loss -->
     <g transform="translate(29.244296 214.944719) rotate(-90) scale(0.26 -0.26)">
      <defs>
       <path id="DejaVuSerif-4c" d="M 353 0 
L 353 331 
L 947 331 
L 947 4331 
L 353 4331 
L 353 4666 
L 2175 4666 
L 2175 4331 
L 1581 4331 
L 1581 384 
L 3713 384 
L 3713 1166 
L 4097 1166 
L 4097 0 
L 353 0 
z
" transform="scale(0.015625)"/>
       <path id="DejaVuSerif-73" d="M 359 184 
L 359 959 
L 691 959 
Q 703 588 923 403 
Q 1144 219 1575 219 
Q 1963 219 2166 364 
Q 2369 509 2369 788 
Q 2369 1006 2220 1140 
Q 2072 1275 1594 1428 
L 1178 1569 
Q 750 1706 558 1912 
Q 366 2119 366 2438 
Q 366 2894 700 3153 
Q 1034 3413 1625 3413 
Q 1888 3413 2178 3344 
Q 2469 3275 2778 3144 
L 2778 2419 
L 2447 2419 
Q 2434 2741 2221 2922 
Q 2009 3103 1644 3103 
Q 1281 3103 1095 2975 
Q 909 2847 909 2591 
Q 909 2381 1050 2254 
Q 1191 2128 1613 1997 
L 2069 1856 
Q 2541 1709 2748 1489 
Q 2956 1269 2956 922 
Q 2956 450 2595 179 
Q 2234 -91 1600 -91 
Q 1278 -91 972 -22 
Q 666 47 359 184 
z
" transform="scale(0.015625)"/>
      </defs>
      <use xlink:href="#DejaVuSerif-4c"/>
      <use xlink:href="#DejaVuSerif-6f" x="66.40625"/>
      <use xlink:href="#DejaVuSerif-73" x="126.611328"/>
      <use xlink:href="#DejaVuSerif-73" x="177.929688"/>
     </g>
    </g>
   </g>
   <g id="line2d_49">
    <path d="M 130.546416 115.970992 
L 131.227376 137.226779 
L 132.463193 141.938284 
L 134.077321 153.624792 
L 134.304308 145.763068 
L 135.867995 165.188378 
L 135.994099 156.457358 
L 136.523734 164.19478 
L 137.860434 176.425889 
L 137.910876 175.768573 
L 138.112642 170.58317 
L 138.844044 175.450464 
L 139.348459 182.332865 
L 140.710379 187.714948 
L 141.693989 182.123504 
L 142.047079 192.385548 
L 143.610766 193.716786 
L 144.291726 196.608094 
L 144.695258 190.744531 
L 144.871803 202.192383 
L 144.897024 194.139835 
L 146.082399 200.055582 
L 146.410269 199.422275 
L 146.76336 193.377946 
L 147.015567 204.909293 
L 148.10006 202.467849 
L 148.301826 200.867638 
L 149.386318 210.413462 
L 149.537642 205.706074 
L 149.890733 210.590019 
L 149.941174 205.7218 
L 150.319486 204.779738 
L 150.47081 203.416328 
L 151.176991 211.824566 
L 153.926053 214.31935 
L 154.581793 218.193671 
L 154.607014 217.45448 
L 155.439298 222.822603 
L 155.666285 224.47073 
L 156.902102 224.752314 
L 156.977764 221.590762 
L 157.658725 213.113473 
L 157.810049 214.514785 
L 157.936153 226.739669 
L 159.247632 229.5205 
L 159.373736 221.055602 
L 159.398956 221.080727 
L 159.85293 232.010728 
L 160.1808 230.136902 
L 161.467058 231.558663 
L 161.895811 218.948206 
L 163.282952 240.624706 
L 163.358614 230.04984 
L 163.711705 237.011539 
L 163.812588 232.89287 
L 165.023184 237.555162 
L 165.199729 227.906609 
L 166.057235 235.699169 
L 166.309442 242.505083 
L 167.066065 234.707136 
L 167.343493 242.727711 
L 167.696584 236.244474 
L 168.503648 237.498156 
L 169.23505 227.262409 
L 169.638582 244.092603 
L 170.042114 248.367454 
L 170.142997 231.517693 
L 170.57175 229.271641 
L 171.454476 242.23617 
L 172.513747 249.297729 
L 172.740734 247.298809 
L 173.194708 235.839314 
L 173.421695 237.614746 
L 173.774785 238.03502 
L 173.900889 253.261234 
L 175.010602 249.358859 
L 176.145536 253.373826 
L 176.599509 253.336559 
L 176.826496 255.222739 
L 177.154366 243.398398 
L 177.230028 250.219007 
L 177.431794 240.423368 
L 178.440624 242.112637 
L 178.869377 255.554235 
L 179.121584 254.284595 
L 179.197247 244.109543 
L 180.559167 250.539318 
L 180.861816 246.98981 
L 181.441894 248.937292 
L 182.475944 247.046446 
L 182.67771 242.524815 
L 182.778593 252.207948 
L 182.955139 249.543237 
L 184.291839 258.573459 
L 184.468384 247.161142 
L 185.250227 252.582676 
L 185.35111 259.724651 
L 185.552876 243.764946 
L 185.855525 257.429886 
L 186.35994 262.954456 
L 186.511265 249.88417 
L 187.01568 255.116199 
L 187.141784 245.379959 
L 188.579366 255.849807 
L 189.235106 253.467165 
L 189.462093 259.320483 
L 190.344819 257.098065 
L 190.37004 258.75927 
L 190.420481 270.568847 
L 191.530194 258.038204 
L 191.958947 258.610281 
L 192.009389 260.076317 
L 192.135492 267.623519 
L 192.766011 265.919407 
L 192.791232 258.47703 
L 193.04344 249.305926 
L 193.219985 258.471187 
L 193.573075 270.316291 
L 193.951387 256.834097 
L 194.329698 263.838431 
L 194.481022 260.947002 
L 197.810162 248.579863 
L 198.264135 263.802176 
L 199.197303 255.165127 
L 199.550394 261.254555 
L 200.43312 258.306985 
L 203.13174 260.8774 
L 204.922414 271.66536 
L 205.12418 258.767601 
L 206.032127 268.263079 
L 206.713087 258.284975 
L 206.788749 267.306414 
L 208.251553 263.444808 
L 209.81524 260.809731 
L 210.672745 274.594615 
L 210.697966 268.109216 
L 211.555471 271.418302 
L 211.807679 250.53249 
L 211.908562 267.119344 
L 211.959004 259.89032 
L 211.984224 254.864255 
L 213.447028 252.038984 
L 214.455858 259.128261 
L 215.237701 266.692309 
L 215.918662 265.749947 
L 216.044765 271.331693 
L 216.599622 270.069395 
L 217.078816 263.081473 
L 217.457127 263.546326 
L 217.860659 262.808337 
L 220.88715 264.006169 
L 221.341123 269.594473 
L 221.391565 265.517191 
L 222.299512 272.32465 
L 222.652602 270.86312 
L 224.064964 274.097379 
L 224.165847 259.737286 
L 224.443276 270.53172 
L 225.754755 270.500855 
L 226.284391 265.161773 
L 226.410494 267.989795 
L 226.460936 253.650184 
L 226.713143 268.455379 
L 227.545428 265.105142 
L 227.848077 265.040099 
L 229.159556 272.409204 
L 229.865737 262.470262 
L 230.571918 280.481682 
L 231.530307 259.252893 
L 231.807735 272.48571 
L 231.883398 257.444366 
L 233.32098 265.739965 
L 233.447084 276.72733 
L 233.724512 270.373876 
L 235.565627 239.46602 
L 235.868276 268.929782 
L 235.918718 228.078839 
L 236.070042 277.230256 
L 236.826665 269.9401 
L 236.902327 272.132158 
L 237.608508 265.325905 
L 237.684171 269.23264 
L 238.642559 277.683631 
L 238.970429 262.725129 
L 239.02087 273.973723 
L 241.063751 281.9069 
L 241.896036 274.306857 
L 243.38406 280.152892 
L 243.812813 288.134515 
L 244.342449 261.70207 
L 245.553045 277.95315 
L 245.628707 271.628276 
L 246.814083 270.526458 
L 247.72203 267.078954 
L 247.822913 278.012842 
L 248.024679 270.697642 
L 248.957847 278.168549 
L 249.08395 264.913324 
L 249.891014 248.920503 
L 250.09278 273.475557 
L 250.849403 270.145992 
L 251.152052 265.200846 
L 251.202494 268.440208 
L 252.160882 285.639253 
L 252.463531 251.570013 
L 253.522803 275.090106 
L 255.237814 272.802818 
L 255.464801 275.904571 
L 255.540463 279.591762 
L 257.45724 278.378355 
L 257.507682 280.717612 
L 257.532902 272.808692 
L 258.869602 273.639033 
L 259.575783 266.394508 
L 261.240353 279.385795 
L 262.223962 274.098754 
L 264.49383 278.107065 
L 264.897362 263.572416 
L 265.250452 287.120901 
L 266.788918 287.590754 
L 267.343775 269.105258 
L 269.18489 276.735968 
L 269.235331 282.95615 
L 270.042395 275.277675 
L 270.647693 275.974673 
L 271.000784 274.415376 
L 272.085276 276.447199 
L 272.841899 276.486879 
L 272.942782 273.591253 
L 273.321093 283.811793 
L 274.355144 272.416216 
L 274.430806 261.981256 
L 275.767506 289.30787 
L 276.57457 279.464195 
L 277.003323 267.238152 
L 277.078985 282.353316 
L 277.936491 274.722294 
L 277.986932 287.315263 
L 278.163477 276.36734 
L 279.071425 282.43394 
L 279.60106 286.923515 
L 280.206358 250.606473 
L 280.483787 284.552901 
L 281.164747 282.724795 
L 281.669162 277.501769 
L 281.795266 266.819922 
L 282.299681 279.185925 
L 283.384173 276.981948 
L 284.468665 280.593436 
L 284.720873 274.263304 
L 285.981911 285.01916 
L 286.461105 258.792779 
L 286.788975 264.410652 
L 286.940299 275.972824 
L 287.268169 272.943113 
L 288.705752 263.75497 
L 289.285829 281.721839 
L 289.411933 264.233342 
L 290.017231 274.937545 
L 290.572087 263.774912 
L 290.899957 275.785049 
L 291.505255 261.052557 
L 293.926447 278.895639 
L 294.02733 257.598646 
L 294.531745 270.652698 
L 295.893666 282.725796 
L 296.145874 281.469132 
L 296.625068 270.589242 
L 297.986988 295.267102 
L 298.213975 276.919599 
L 298.516624 276.069702 
L 298.592287 281.587234 
L 298.970598 289.069135 
L 299.04626 276.529564 
L 299.348909 277.065212 
L 300.029869 270.970835 
L 300.130752 281.762992 
L 300.408181 278.640129 
L 302.40062 276.383938 
L 302.753711 283.544152 
L 302.955477 273.959003 
L 303.333788 280.533606 
L 304.973137 274.447052 
L 305.780201 274.980614 
L 306.43594 265.815698 
L 306.990797 273.767637 
L 309.311106 268.445478 
L 309.512872 269.554992 
L 310.092949 269.941969 
L 310.546923 288.986631 
L 312.085389 279.357503 
L 312.867232 277.225367 
L 314.203932 289.045223 
L 314.48136 281.347049 
L 314.935334 285.615967 
L 315.212762 278.001733 
L 315.691956 296.576636 
L 316.272034 279.586797 
L 316.751228 282.986454 
L 317.734837 288.244298 
L 317.8105 286.299294 
L 317.987045 291.712892 
L 318.239252 259.805487 
L 318.314915 281.084003 
L 318.693226 288.02488 
L 320.004705 271.556811 
L 321.997144 281.261054 
L 322.879871 271.563239 
L 323.686935 292.001458 
L 323.964363 283.599102 
L 324.115688 294.028204 
L 324.746206 296.459712 
L 324.998414 288.105952 
L 325.452387 292.861242 
L 326.309893 266.082622 
L 326.763866 284.543141 
L 327.646593 276.296467 
L 327.772697 280.401304 
L 329.311162 271.196441 
L 329.336383 291.258256 
L 330.143447 277.939762 
L 331.631472 297.932252 
L 332.514198 284.247794 
L 332.791626 290.075265 
L 333.094275 284.466559 
L 333.523028 281.192954 
L 336.398194 270.463207 
L 336.499077 276.095032 
L 336.852167 285.108344 
L 337.28092 286.794114 
L 337.432245 276.582228 
L 338.491516 293.077903 
L 338.895048 274.294714 
L 339.172476 289.997141 
L 340.105644 279.792204 
L 340.231748 283.037592 
L 340.28219 267.021769 
L 340.433514 285.946164 
L 341.013591 277.112289 
L 341.139695 295.21082 
L 341.366682 258.808976 
L 343.63655 285.452672 
L 343.712212 279.866326 
L 344.418393 278.593604 
L 344.544497 268.795483 
L 344.6706 280.440909 
L 346.133404 281.107307 
L 346.789144 289.239791 
L 347.01613 275.798374 
L 348.100623 285.272547 
L 349.059011 276.365783 
L 349.260777 265.84788 
L 349.386881 267.557287 
L 351.37932 276.575145 
L 352.060281 286.659142 
L 352.514254 283.20201 
L 352.589916 277.843115 
L 353.119552 285.60293 
L 353.396981 281.369829 
L 354.002279 286.919827 
L 354.178824 273.73467 
L 354.607577 276.793895 
L 354.658018 286.184803 
L 354.73368 272.239956 
L 355.263316 271.75257 
L 355.439861 274.63351 
L 356.019939 277.694062 
L 356.448692 262.746635 
L 357.05399 299.639183 
L 357.306197 276.25531 
L 357.785391 280.862661 
L 358.466352 270.670022 
L 358.668118 279.869972 
L 359.197754 288.858635 
L 360.988427 281.932716 
L 362.7791 289.019663 
L 363.636606 266.359947 
L 364.166242 288.888627 
L 364.821981 284.291388 
L 365.048968 277.087813 
L 365.856032 284.425115 
L 366.385668 285.824382 
L 367.47016 281.714176 
L 367.545822 276.887117 
L 368.050237 275.987259 
L 368.226783 269.069885 
L 368.882522 286.844191 
L 370.647975 277.936978 
L 370.874962 267.155944 
L 371.051507 285.287606 
L 371.379377 289.388679 
L 371.934233 275.534957 
L 372.211662 278.920733 
L 372.892622 291.155342 
L 373.49792 294.151765 
L 373.649244 278.75498 
L 374.229322 281.483288 
L 374.683295 279.570153 
L 376.448748 285.569491 
L 377.558461 292.407033 
L 378.264642 277.060712 
L 378.340304 299.37841 
L 379.349134 270.131551 
L 379.954432 289.261818 
L 381.593781 297.937415 
L 383.561 281.774094 
L 383.687104 289.822162 
L 383.762766 287.678151 
L 384.115856 287.336046 
L 384.418505 296.287606 
L 385.149907 289.690498 
L 385.528219 271.414807 
L 385.931751 284.745386 
L 386.537049 286.334757 
L 386.965801 283.701986 
L 388.756475 296.362008 
L 389.26089 301.880672 
L 389.437435 273.957309 
L 389.563539 297.999519 
L 392.28738 302.247841 
L 392.363042 269.299087 
L 393.018782 305.795414 
L 394.103274 293.828661 
L 394.380703 278.459509 
L 394.63291 285.398218 
L 394.733793 292.659206 
L 395.465195 285.342439 
L 395.692182 292.255257 
L 396.272259 294.808302 
L 396.29748 294.487118 
L 396.600129 298.749174 
L 397.381972 288.831527 
L 397.608959 289.462275 
L 398.037712 300.864341 
L 398.163815 287.887839 
L 398.390802 304.709848 
L 398.592568 283.212117 
L 398.794334 299.945423 
L 399.223087 288.397575 
L 399.979709 276.199474 
L 400.231917 295.425327 
L 401.165085 304.394047 
L 401.392072 297.646838 
L 401.417292 285.788778 
L 401.972149 303.661868 
L 402.148694 273.579574 
L 403.107083 287.69274 
L 403.233186 299.188459 
L 403.737601 302.120344 
L 404.090692 296.30522 
L 405.049081 288.444926 
L 405.124743 303.760848 
L 405.982248 290.463197 
L 406.083131 284.700478 
L 406.663209 302.36413 
L 406.814533 303.407474 
L 406.864975 310.218065 
L 408.025129 294.737197 
L 408.075571 304.935558 
L 408.352999 280.491904 
L 408.479103 298.385818 
L 408.832193 301.854288 
L 409.05918 295.213577 
L 409.462712 296.884347 
L 410.093231 284.554225 
L 410.572425 302.632291 
L 410.799412 290.388493 
L 411.253386 303.134389 
L 411.934346 290.875824 
L 412.514423 299.989316 
L 412.564865 284.782235 
L 412.590085 301.858449 
L 414.07811 294.206372 
L 414.153772 281.578221 
L 414.380759 299.179694 
L 415.339147 303.880424 
L 416.625406 284.994905 
L 418.996156 296.273395 
L 419.424909 267.188284 
L 419.929324 302.262316 
L 420.635505 284.903471 
L 420.711168 300.961578 
L 420.938154 301.979088 
L 421.366907 297.980556 
L 421.79566 303.421506 
L 422.577503 286.142838 
L 423.561113 290.85798 
L 423.863762 285.195579 
L 424.166411 316.329267 
L 424.443839 274.864626 
L 424.796929 291.79423 
L 424.847371 305.192601 
L 425.755318 297.257351 
L 426.663265 302.553364 
L 427.344225 285.135234 
L 427.722537 288.47688 
L 428.479159 304.533434 
L 429.084457 305.109276 
L 429.538431 289.801963 
L 430.370716 296.233923 
L 431.051676 297.067712 
L 431.379546 298.448002 
L 431.429987 297.855751 
L 431.959623 295.75976 
L 432.085727 305.027659 
L 432.438817 302.732189 
L 432.691025 303.343933 
L 432.817129 304.352815 
L 432.993674 298.71759 
L 433.472868 307.476887 
L 433.775517 279.63998 
L 436.22193 296.560929 
L 436.600241 298.238999 
L 436.87767 298.072123 
L 436.978553 289.358192 
L 437.382085 298.426088 
L 438.214369 308.624845 
L 438.441356 286.61458 
L 440.055484 305.349092 
L 440.131147 311.90403 
L 440.534679 305.67112 
L 442.728884 306.550726 
L 442.955871 304.214512 
L 443.737714 303.224147 
L 444.292571 314.079075 
L 446.486776 290.608298 
L 446.688542 311.724893 
L 447.773034 305.895768 
L 448.504436 308.276403 
L 449.664591 301.90457 
L 450.370772 286.048378 
L 451.858796 291.398378 
L 452.262328 282.409146 
L 453.044172 288.920238 
L 453.775573 268.732173 
L 454.532196 302.734078 
L 454.860066 287.44661 
L 455.33926 282.454425 
L 456.398532 308.055594 
L 456.423752 300.757306 
L 456.928167 278.274369 
L 458.390971 310.52311 
L 458.819724 297.402584 
L 459.500684 316.471783 
L 459.525905 289.090226 
L 459.727671 298.841218 
L 460.03032 298.707248 
L 460.332969 301.144726 
L 460.71128 287.838515 
L 460.812163 306.550535 
L 461.240916 296.552281 
L 462.148863 296.185284 
L 462.527174 301.02815 
L 462.779382 293.202248 
L 462.855044 307.472624 
L 463.157693 307.206703 
L 463.283797 298.360208 
L 463.989978 299.411512 
L 464.645717 299.498791 
L 465.478002 296.249421 
L 465.856314 307.399621 
L 466.764261 304.922326 
L 468.100961 298.434889 
L 468.201844 303.670812 
L 468.706259 291.59717 
L 469.942075 311.787419 
L 470.673477 299.031472 
L 471.732749 298.478021 
L 473.019007 308.209544 
L 473.397318 297.25288 
L 473.599084 287.258726 
L 473.750409 299.625458 
L 475.011447 303.32249 
L 475.087109 287.264703 
L 475.162771 303.221574 
L 475.490641 309.628886 
L 476.171601 300.781438 
L 476.80212 297.612867 
L 476.978665 290.203281 
L 477.533522 289.964926 
L 478.391027 292.57273 
L 479.273754 308.52681 
L 479.853831 296.003397 
L 479.929493 301.239643 
L 480.257363 293.206272 
L 481.594063 303.807591 
L 481.619284 312.525196 
L 482.098478 295.804148 
L 482.17414 300.671969 
L 482.401127 284.777341 
L 482.426348 290.707754 
L 482.577672 306.902579 
L 483.082087 310.43076 
L 483.132529 299.478689 
L 485.20063 298.680563 
L 485.351955 292.414921 
L 487.243511 309.791095 
L 488.756756 264.886216 
L 488.908081 309.347117 
L 489.488158 291.293999 
L 490.421326 303.918402 
L 490.446547 307.418101 
L 490.597871 294.788534 
L 490.824858 289.753398 
L 491.253611 293.877682 
L 491.55626 310.825368 
L 491.707584 296.534149 
L 492.211999 305.16258 
L 493.195609 286.823106 
L 494.456646 286.283576 
L 495.061944 297.76679 
L 495.642022 297.550986 
L 496.549969 298.793001 
L 497.155267 283.714043 
L 497.230929 298.235105 
L 499.122485 301.475572 
L 499.27381 309.160758 
L 500.030433 312.000705 
L 500.257419 298.674146 
L 500.509627 319.204356 
L 501.997651 295.898828 
L 502.829936 309.490929 
L 503.056923 281.79817 
L 503.157806 301.24844 
L 503.586559 294.374953 
L 503.737883 288.303661 
L 503.838766 292.650448 
L 504.519726 312.505424 
L 505.679881 307.039284 
L 506.486945 278.237833 
L 506.537387 302.051957 
L 507.142685 315.546397 
L 509.084682 313.679461 
L 510.67359 317.802479 
L 511.732861 300.076789 
L 511.833744 307.711123 
L 512.943458 289.501853 
L 513.422652 294.149907 
L 514.35582 311.14523 
L 515.112442 317.717556 
L 515.288987 288.609647 
L 515.541195 300.579802 
L 516.575246 303.754674 
L 517.003999 299.600691 
L 517.155323 310.822419 
L 517.331868 294.304803 
L 518.517244 290.223894 
L 518.643347 284.764523 
L 519.046879 296.007545 
L 519.198204 287.983997 
L 519.450412 305.18341 
L 519.904385 297.717702 
L 520.333138 305.066719 
L 520.383579 310.135103 
L 521.190643 312.004488 
L 521.972487 313.147586 
L 523.157862 300.902003 
L 523.460511 309.855238 
L 523.737939 299.447819 
L 525.352067 294.529575 
L 526.133911 308.910663 
L 527.067079 288.408792 
L 527.672377 295.010936 
L 527.899363 311.330629 
L 528.050688 301.914308 
L 528.428999 300.933834 
L 529.210843 306.523412 
L 529.286505 290.09125 
L 530.244893 306.873332 
L 533.094838 294.515785 
L 533.447929 314.856813 
L 534.053227 284.459363 
L 534.078448 312.229519 
L 535.036836 303.090158 
L 535.717797 298.020057 
L 536.020446 285.873664 
L 536.550081 305.33886 
L 538.038106 305.988524 
L 538.365975 311.104752 
L 538.719066 296.623523 
L 539.904441 301.46823 
L 541.720336 307.102416 
L 542.275192 291.708987 
L 542.376075 309.811768 
L 542.451737 306.641337 
L 542.703945 300.961807 
L 543.20836 310.751153 
L 543.864099 299.270227 
L 544.721605 309.488693 
L 544.948592 308.03107 
L 546.360954 302.146023 
L 547.722874 299.292602 
L 548.378614 301.003939 
L 548.504718 297.542609 
L 549.009133 273.360273 
L 550.396274 304.98163 
L 551.203338 312.351089 
L 552.439155 307.622429 
L 552.94357 303.765558 
L 553.750634 310.028927 
L 554.002842 300.148517 
L 554.028062 302.794711 
L 554.658581 290.808422 
L 554.885568 301.300883 
L 555.238659 299.345307 
L 556.29793 294.647847 
L 556.928449 313.808213 
L 558.820005 298.444464 
L 560.509796 315.466975 
L 561.291639 301.450928 
L 562.149145 288.667781 
L 562.174365 300.884608 
L 563.68761 307.223318 
L 563.813714 316.57017 
L 564.872986 290.524058 
L 565.074752 307.960933 
L 565.427842 303.958088 
L 565.705271 316.983328 
L 566.159244 307.172255 
L 566.209686 309.520314 
L 566.789763 306.86697 
L 566.814984 300.590535 
L 566.840204 312.044056 
L 566.915867 309.693212 
L 567.395061 298.449838 
L 568.277787 301.524297 
L 568.70654 293.776588 
L 569.03441 301.97717 
L 569.059631 262.018726 
L 569.589266 305.64538 
L 569.841474 299.402558 
L 570.04324 315.452432 
L 570.295447 319.062153 
L 571.531264 314.676052 
L 571.73303 313.277691 
L 571.833913 314.786863 
L 572.893185 301.079146 
L 573.044509 284.989044 
L 573.624587 297.914804 
L 573.826353 314.726471 
L 573.927236 303.834655 
L 574.557755 311.01076 
L 574.809962 320.32957 
L 574.910845 306.611467 
L 575.667468 302.974256 
L 576.575415 300.823383 
L 576.777181 282.026373 
L 577.054609 307.109619 
L 578.290426 289.524058 
L 578.315647 305.715715 
L 578.44175 311.945854 
L 579.122711 311.544372 
L 580.081099 297.624714 
L 582.880603 287.503539 
L 583.107589 302.767487 
L 583.511122 295.325718 
L 583.586784 315.67927 
L 583.813771 294.013431 
L 584.519952 314.485272 
L 585.377457 299.035604 
L 585.402678 317.104806 
L 585.629665 314.41387 
L 585.705327 304.680777 
L 586.688936 302.217996 
L 587.319455 295.645407 
L 587.697766 278.746851 
L 587.748208 306.125355 
L 587.949974 295.240658 
L 588.353506 290.431055 
L 588.857921 304.127769 
L 589.463219 314.316666 
L 590.018076 308.300409 
L 590.724257 299.241396 
L 591.026906 302.398191 
L 592.086177 266.179072 
L 592.161839 302.910286 
L 593.19589 317.643412 
L 593.397656 256.569469 
L 595.440537 303.79696 
L 595.465758 314.103823 
L 597.659963 285.588866 
L 597.861729 316.340465 
L 598.971442 284.867085 
L 598.996663 298.585189 
L 600.282922 295.359114 
L 600.509908 291.027311 
L 601.796167 308.029548 
L 602.048374 319.97811 
L 602.224919 286.003983 
L 602.956321 289.037729 
L 603.889489 319.502231 
L 604.318242 309.294554 
L 605.377513 314.410424 
L 606.58811 286.330952 
L 607.59694 301.967988 
L 608.227458 299.2067 
L 608.706653 299.208638 
L 608.832757 299.946991 
L 608.95886 309.564786 
L 609.412834 299.328165 
L 609.538938 313.495051 
L 609.665041 308.125416 
L 609.96769 309.806764 
L 610.497326 288.746072 
L 611.682701 301.566821 
L 612.212337 305.504187 
L 613.145505 307.812772 
L 613.549037 300.542834 
L 614.406543 309.487438 
L 614.683971 282.469064 
L 615.011841 298.885826 
L 616.121554 309.980503 
L 616.222437 311.945761 
L 616.852956 309.579724 
L 617.508695 295.224254 
L 619.551576 316.33575 
L 619.627238 318.366625 
L 619.753342 316.571942 
L 621.01438 300.905666 
L 621.518795 316.072457 
L 621.897106 309.461073 
L 621.972768 310.102885 
L 622.02321 302.679801 
L 622.527625 321.872378 
L 622.678949 311.577423 
L 623.259027 294.325449 
L 623.889545 304.212566 
L 624.267857 298.132458 
L 625.276687 314.195643 
L 625.428011 304.241176 
L 625.781102 309.663366 
L 626.05853 303.820175 
L 626.285517 311.518418 
L 626.3864 296.0304 
L 627.445671 291.816211 
L 627.7231 323.146501 
L 627.849203 291.004408 
L 627.874424 308.778409 
L 628.883254 308.773475 
L 629.362449 316.075598 
L 630.043409 306.930578 
L 630.623486 304.632851 
L 632.388939 300.508867 
L 632.641146 312.065022 
L 632.943795 292.016085 
L 633.372548 282.630819 
L 633.77608 301.907561 
L 633.977846 319.386795 
L 634.204833 304.681899 
L 634.381378 316.98929 
L 635.390208 302.408259 
L 635.718078 320.801247 
L 635.995506 296.541098 
L 636.071169 302.942095 
L 637.987946 300.827267 
L 638.063608 283.121907 
L 639.12288 305.973673 
L 639.198542 283.580068 
L 640.535242 305.308699 
L 640.661345 290.716888 
L 640.737008 311.342181 
L 640.863112 291.651335 
L 641.897162 313.933602 
L 642.275474 317.108868 
L 642.653785 304.970854 
L 642.880772 304.366821 
L 642.931213 303.748125 
L 643.410407 317.934825 
L 643.914822 302.753203 
L 644.16703 266.453877 
L 644.520121 300.23241 
L 644.545341 314.189668 
L 645.554171 275.573065 
L 645.604613 310.99334 
L 646.159469 306.022763 
L 646.739547 310.330863 
L 647.773598 314.645184 
L 648.101467 304.92858 
L 648.126688 297.898814 
L 648.378896 304.309969 
L 648.605882 315.173172 
L 648.681545 305.024287 
L 648.807648 298.360861 
L 649.085077 295.460862 
L 650.926192 309.048537 
L 651.859359 312.940528 
L 651.88458 306.714143 
L 652.313333 315.859161 
L 652.414216 294.015708 
L 653.347384 292.623376 
L 654.129227 296.979758 
L 654.154448 312.870529 
L 654.23011 308.342869 
L 654.255331 305.68028 
L 655.112836 298.837941 
L 655.23894 300.673526 
L 655.465927 299.923874 
L 655.592031 307.886451 
L 656.071225 288.915604 
L 656.90351 309.597688 
L 657.534029 284.319908 
L 658.441976 305.352818 
L 659.400364 308.956175 
L 660.409194 307.124912 
L 660.560519 294.498086 
L 660.636181 316.28708 
L 661.090155 287.681328 
L 661.418024 310.741975 
L 661.645011 296.015827 
L 661.745894 302.923469 
L 663.360022 306.599008 
L 664.999371 301.965957 
L 665.579448 306.618461 
L 665.98298 296.288285 
L 666.487396 312.363788 
L 667.697992 302.211265 
L 667.773654 294.160013 
L 667.899758 299.458828 
L 670.043522 311.186586 
L 671.935078 305.833915 
L 672.918687 297.55797 
L 672.943908 280.992345 
L 673.801414 301.411339 
L 674.532815 282.55012 
L 675.138113 315.339646 
L 675.667749 310.360115 
L 676.121723 301.772933 
L 676.474813 301.990692 
L 676.903566 282.289695 
L 677.231436 310.242308 
L 677.962838 310.552581 
L 677.988058 299.019336 
L 679.022109 309.975146 
L 679.627407 304.386237 
L 679.778732 298.784031 
L 680.283147 290.320451 
L 680.434471 305.629781 
L 680.964107 315.925425 
L 681.115432 302.531048 
L 681.645067 281.215499 
L 681.645067 281.215499 
" clip-path="url(#p8155e518e0)" style="fill: none; stroke: #0000ff; stroke-width: 2; stroke-linecap: square"/>
   </g>
   <g id="line2d_50">
    <path d="M 130.546416 102.284671 
L 131.151714 120.76153 
L 131.227376 139.320478 
L 131.883116 54.052132 
L 132.463193 144.717336 
L 134.077321 26.649477 
L 134.304308 44.650253 
L 137.860434 107.776771 
L 137.910876 115.822418 
L 138.112642 78.218842 
L 139.348459 132.574964 
L 140.710379 166.700963 
L 141.693989 145.87077 
L 142.047079 115.856407 
L 143.610766 167.454158 
L 144.291726 199.697268 
L 144.695258 144.471123 
L 144.897024 201.6532 
L 146.082399 187.434518 
L 146.76336 111.982555 
L 147.015567 204.853064 
L 148.10006 194.784405 
L 148.301826 162.991536 
L 149.386318 164.752466 
L 149.487201 169.776742 
L 149.537642 119.474005 
L 149.890733 197.27103 
L 149.941174 60.635667 
L 150.319486 209.224326 
L 150.47081 206.471537 
L 151.176991 219.498702 
L 153.926053 160.678262 
L 154.607014 224.793335 
L 154.758338 212.506993 
L 155.439298 229.62136 
L 155.666285 212.96758 
L 156.902102 231.757358 
L 156.977764 223.472187 
L 157.658725 231.289423 
L 157.810049 228.216534 
L 157.936153 139.644915 
L 159.247632 116.017886 
L 159.398956 227.013267 
L 159.85293 71.03909 
L 160.1808 222.137819 
L 161.467058 75.332742 
L 161.895811 233.619665 
L 163.282952 238.001502 
L 163.358614 215.270361 
L 163.711705 223.303175 
L 163.812588 229.424191 
L 165.023184 231.562914 
L 165.199729 230.188196 
L 165.754586 221.755938 
L 166.057235 252.415903 
L 166.309442 236.144465 
L 167.066065 238.64571 
L 167.343493 240.090657 
L 167.696584 231.293024 
L 168.503648 244.013697 
L 169.23505 225.971149 
L 169.638582 243.539661 
L 170.042114 249.717227 
L 170.142997 241.378081 
L 170.57175 236.08397 
L 171.454476 257.361279 
L 172.513747 208.356179 
L 172.740734 233.143662 
L 173.194708 230.698672 
L 173.421695 236.624889 
L 173.825227 256.437489 
L 173.900889 225.613845 
L 175.010602 239.451094 
L 176.145536 250.582423 
L 176.826496 248.749282 
L 177.154366 251.388523 
L 177.230028 236.995419 
L 177.431794 252.078989 
L 178.440624 230.975657 
L 178.869377 254.05011 
L 179.121584 224.495791 
L 179.197247 239.490902 
L 180.559167 256.424475 
L 180.861816 256.83408 
L 181.441894 265.111245 
L 182.475944 186.277414 
L 182.67771 251.722206 
L 182.778593 234.530568 
L 182.955139 242.188338 
L 184.291839 251.686027 
L 184.468384 180.040727 
L 185.250227 271.770601 
L 185.35111 185.480273 
L 185.552876 261.813304 
L 185.855525 200.744097 
L 186.486044 266.55365 
L 186.511265 242.391713 
L 187.01568 263.990408 
L 187.141784 256.033555 
L 188.276717 269.164012 
L 188.579366 270.185262 
L 189.235106 251.160344 
L 189.462093 280.552591 
L 190.344819 274.910855 
L 190.420481 253.396824 
L 191.530194 273.542238 
L 191.958947 266.584723 
L 192.009389 267.514061 
L 192.135492 259.252814 
L 192.766011 256.295364 
L 192.791232 231.321205 
L 193.04344 249.16953 
L 193.093881 263.611617 
L 193.219985 248.917005 
L 193.573075 260.432149 
L 193.7244 241.1161 
L 194.329698 268.532325 
L 194.481022 255.524718 
L 197.810162 159.579156 
L 198.264135 267.327941 
L 199.550394 251.579218 
L 200.43312 225.40092 
L 203.13174 267.05498 
L 204.922414 276.532632 
L 205.12418 191.483529 
L 206.032127 256.35547 
L 206.713087 258.658398 
L 206.788749 262.488635 
L 208.251553 238.784151 
L 209.81524 267.827393 
L 210.672745 269.325413 
L 210.697966 263.210179 
L 211.555471 275.714783 
L 211.807679 274.456675 
L 211.984224 260.064895 
L 213.447028 272.268056 
L 214.455858 269.045036 
L 215.237701 265.687617 
L 215.918662 271.963476 
L 216.044765 276.505378 
L 216.599622 283.29313 
L 217.860659 261.102741 
L 220.88715 280.844923 
L 221.341123 252.753874 
L 221.391565 277.924536 
L 222.299512 281.998646 
L 222.652602 264.359187 
L 224.064964 283.936616 
L 224.165847 274.768073 
L 224.443276 274.11271 
L 226.284391 290.417286 
L 226.410494 273.750864 
L 226.460936 274.983787 
L 226.713143 277.180123 
L 227.545428 279.114053 
L 227.848077 230.189137 
L 229.159556 274.309738 
L 229.865737 244.328174 
L 230.571918 276.040678 
L 231.530307 284.895525 
L 231.807735 274.556636 
L 231.883398 291.983435 
L 233.32098 274.07506 
L 233.447084 281.288816 
L 233.724512 276.866948 
L 235.565627 254.814387 
L 236.070042 284.317807 
L 236.700561 283.0763 
L 236.826665 289.362895 
L 236.902327 277.866265 
L 237.608508 281.849098 
L 237.684171 273.884469 
L 239.02087 286.270277 
L 241.063751 279.89512 
L 241.896036 284.9282 
L 243.38406 271.383779 
L 243.812813 285.773929 
L 244.342449 285.659405 
L 245.553045 286.983199 
L 245.628707 281.081203 
L 246.814083 274.038758 
L 247.72203 262.337758 
L 247.822913 282.991257 
L 248.024679 281.038237 
L 248.957847 279.805864 
L 249.08395 280.956776 
L 249.891014 291.15847 
L 250.09278 280.766399 
L 250.849403 276.088967 
L 251.152052 286.435923 
L 251.202494 283.953742 
L 252.160882 274.79133 
L 252.463531 280.594752 
L 253.522803 279.054604 
L 255.237814 278.158479 
L 255.464801 281.926912 
L 255.540463 278.212851 
L 257.45724 277.201472 
L 257.532902 292.878242 
L 258.869602 277.362638 
L 259.575783 276.224282 
L 261.240353 285.702597 
L 262.223962 285.39242 
L 264.49383 261.604127 
L 264.897362 273.469359 
L 265.250452 276.751084 
L 266.788918 249.085538 
L 267.343775 282.522464 
L 269.18489 287.285508 
L 269.235331 259.318828 
L 270.042395 284.572041 
L 270.647693 279.282311 
L 271.000784 296.34077 
L 272.841899 277.199602 
L 272.942782 287.119499 
L 273.321093 272.912139 
L 274.355144 256.420529 
L 274.430806 287.178443 
L 275.767506 279.723797 
L 276.57457 279.208919 
L 277.003323 295.355752 
L 277.078985 289.957293 
L 277.936491 269.746373 
L 277.986932 293.409408 
L 278.163477 298.8973 
L 279.071425 271.016725 
L 279.60106 289.807457 
L 280.206358 292.182974 
L 280.332462 287.161984 
L 280.483787 290.533898 
L 281.164747 298.849493 
L 281.669162 275.797806 
L 281.795266 289.052048 
L 282.173577 294.596298 
L 282.299681 212.126522 
L 283.384173 283.497023 
L 284.468665 288.192429 
L 284.720873 291.362923 
L 285.981911 296.100797 
L 286.461105 288.501035 
L 286.940299 267.035529 
L 287.268169 285.43141 
L 288.705752 284.777049 
L 289.285829 283.016125 
L 289.411933 283.034568 
L 290.017231 280.669117 
L 290.899957 298.263144 
L 291.505255 281.644053 
L 293.926447 292.755199 
L 294.02733 294.899895 
L 294.531745 277.777553 
L 295.893666 296.909224 
L 296.145874 273.794286 
L 296.625068 284.077975 
L 297.986988 280.738205 
L 298.213975 242.95256 
L 298.592287 292.385459 
L 298.970598 278.263185 
L 299.04626 284.446737 
L 299.348909 293.847279 
L 300.029869 279.857644 
L 300.130752 285.979964 
L 300.408181 292.454746 
L 302.40062 275.152832 
L 302.955477 296.008265 
L 303.333788 291.00669 
L 304.973137 290.236119 
L 305.780201 285.240437 
L 306.43594 275.516456 
L 306.990797 283.888068 
L 309.311106 289.715162 
L 309.512872 284.762686 
L 310.092949 278.174234 
L 310.546923 286.20567 
L 312.085389 288.117059 
L 312.867232 292.918796 
L 314.203932 283.684666 
L 314.48136 299.851757 
L 314.935334 299.943548 
L 315.187541 299.355441 
L 315.212762 283.888522 
L 315.691956 302.38536 
L 316.272034 281.590758 
L 316.751228 282.444892 
L 317.734837 288.051344 
L 317.8105 290.47026 
L 317.987045 303.067609 
L 318.239252 278.580736 
L 318.314915 293.169308 
L 318.693226 288.307579 
L 319.525511 287.453992 
L 320.004705 282.517332 
L 321.997144 279.420333 
L 322.879871 278.289215 
L 323.308623 306.907999 
L 323.686935 294.161251 
L 323.964363 280.010462 
L 324.115688 284.862596 
L 324.746206 288.398597 
L 324.998414 295.896095 
L 325.452387 295.427291 
L 326.309893 292.618985 
L 326.511659 289.791981 
L 326.763866 262.948247 
L 327.646593 295.971629 
L 327.772697 291.529398 
L 329.311162 304.432604 
L 329.336383 293.443497 
L 330.143447 281.666716 
L 331.631472 266.437642 
L 332.791626 289.872468 
L 333.094275 284.539643 
L 333.523028 298.181445 
L 336.398194 308.749018 
L 336.499077 298.049488 
L 336.852167 283.965085 
L 337.28092 292.020745 
L 337.432245 288.375678 
L 338.491516 298.638831 
L 338.895048 299.271551 
L 339.172476 268.205754 
L 340.105644 279.866963 
L 340.231748 292.814339 
L 340.28219 289.444326 
L 341.013591 282.185324 
L 341.139695 293.598053 
L 341.366682 297.850829 
L 343.63655 296.713389 
L 343.712212 288.936303 
L 344.418393 279.49154 
L 344.544497 280.705281 
L 344.6706 279.263179 
L 346.133404 290.863645 
L 346.789144 298.205498 
L 347.01613 297.749878 
L 347.848415 299.696543 
L 347.873636 299.431547 
L 348.100623 294.402939 
L 349.059011 292.064654 
L 349.260777 305.310315 
L 349.386881 272.348943 
L 351.37932 291.167954 
L 352.060281 283.32503 
L 352.514254 300.833211 
L 352.589916 294.456616 
L 353.119552 302.394974 
L 353.396981 297.704168 
L 354.002279 283.746588 
L 354.178824 289.81945 
L 354.607577 289.274393 
L 354.658018 295.93818 
L 354.73368 277.652223 
L 355.263316 294.526455 
L 355.439861 286.7411 
L 356.019939 286.208586 
L 356.448692 294.683154 
L 356.902665 288.072753 
L 357.05399 289.570313 
L 357.306197 301.079253 
L 357.785391 301.111569 
L 358.466352 296.157306 
L 358.668118 295.690143 
L 359.197754 291.077419 
L 360.988427 291.205168 
L 362.7791 301.54507 
L 362.955646 298.21169 
L 363.636606 293.313913 
L 364.166242 301.679936 
L 364.821981 292.45956 
L 365.048968 272.80546 
L 366.385668 297.632767 
L 367.47016 286.34558 
L 367.545822 302.526264 
L 368.050237 299.903272 
L 368.226783 287.294968 
L 368.882522 294.442216 
L 370.647975 297.407264 
L 370.874962 288.929717 
L 371.051507 288.30312 
L 371.379377 289.161591 
L 371.934233 294.223331 
L 372.211662 294.916943 
L 372.892622 292.999513 
L 373.49792 299.368559 
L 373.649244 303.535777 
L 374.229322 296.961183 
L 374.683295 295.081505 
L 376.448748 296.383638 
L 377.558461 293.245248 
L 378.264642 297.655177 
L 378.340304 295.782046 
L 379.349134 296.641473 
L 379.954432 301.568529 
L 381.593781 290.836295 
L 383.561 282.867955 
L 383.762766 299.449142 
L 384.115856 299.205411 
L 384.418505 292.605085 
L 384.998583 308.520713 
L 385.149907 292.499463 
L 385.528219 303.762243 
L 385.931751 284.616486 
L 386.537049 295.739287 
L 386.965801 288.347719 
L 389.26089 318.989891 
L 389.437435 299.9852 
L 389.563539 306.949764 
L 392.28738 319.468267 
L 392.363042 297.661043 
L 393.018782 311.446394 
L 394.103274 314.35398 
L 394.380703 307.544752 
L 394.733793 317.786414 
L 395.465195 293.7269 
L 395.692182 308.450514 
L 396.272259 304.584617 
L 396.29748 307.551944 
L 396.600129 324.843769 
L 397.381972 299.598533 
L 398.037712 317.784343 
L 398.163815 304.953443 
L 398.592568 310.644455 
L 398.794334 309.859811 
L 399.223087 299.849108 
L 399.979709 319.535115 
L 400.231917 305.730719 
L 401.165085 306.647298 
L 401.417292 299.434573 
L 401.972149 319.855527 
L 402.148694 306.53912 
L 402.854875 311.427972 
L 403.107083 309.925807 
L 403.233186 315.672699 
L 403.510615 301.646918 
L 403.737601 310.517189 
L 404.090692 308.73091 
L 405.049081 299.074226 
L 405.124743 296.148697 
L 405.982248 302.847993 
L 406.083131 308.388823 
L 406.663209 308.699519 
L 406.814533 313.008132 
L 406.864975 306.827263 
L 407.873805 297.661699 
L 408.025129 302.611068 
L 408.075571 301.56872 
L 408.352999 303.861194 
L 408.479103 303.424212 
L 408.832193 320.289368 
L 409.05918 289.574081 
L 409.462712 314.277369 
L 410.093231 317.525717 
L 410.572425 316.120751 
L 410.799412 307.696362 
L 411.253386 318.31473 
L 411.934346 314.260871 
L 412.564865 294.53838 
L 412.590085 307.395147 
L 414.07811 306.62184 
L 414.153772 310.461949 
L 414.380759 312.738309 
L 415.339147 320.486543 
L 416.625406 323.742715 
L 418.088209 300.907677 
L 418.996156 325.205253 
L 419.424909 295.720179 
L 419.929324 299.4357 
L 420.635505 310.1756 
L 420.711168 319.379831 
L 420.938154 307.682308 
L 421.366907 311.455543 
L 421.568673 317.083508 
L 421.79566 303.29369 
L 422.577503 306.293665 
L 423.561113 313.801577 
L 423.863762 305.050915 
L 424.443839 319.959717 
L 424.796929 329.712646 
L 424.847371 297.573657 
L 425.755318 306.838812 
L 426.663265 310.077398 
L 427.344225 310.849829 
L 427.722537 310.105396 
L 428.479159 304.557662 
L 429.084457 302.171783 
L 429.538431 299.898234 
L 431.051676 316.223787 
L 431.379546 307.545577 
L 431.429987 298.900445 
L 431.959623 308.207237 
L 432.085727 319.278516 
L 432.438817 310.224595 
L 432.691025 321.810818 
L 432.817129 305.292146 
L 432.993674 304.817367 
L 433.472868 304.327956 
L 433.775517 302.641121 
L 436.22193 303.651187 
L 436.600241 316.557099 
L 436.978553 302.974251 
L 437.382085 316.095152 
L 438.214369 319.751627 
L 438.441356 314.632344 
L 440.055484 317.028375 
L 440.131147 310.288958 
L 440.534679 319.40663 
L 442.728884 307.046893 
L 442.955871 302.502597 
L 443.737714 306.984921 
L 444.292571 313.201336 
L 444.847427 311.395436 
L 446.486776 302.427224 
L 446.688542 308.289051 
L 447.773034 304.497928 
L 448.504436 313.252707 
L 449.664591 306.99263 
L 450.370772 315.472929 
L 451.858796 313.980677 
L 452.262328 309.959216 
L 453.044172 322.590448 
L 453.775573 309.386936 
L 454.406092 316.814449 
L 454.532196 288.089338 
L 454.860066 319.565196 
L 455.33926 317.410454 
L 456.398532 299.557582 
L 456.423752 303.439616 
L 456.928167 303.178864 
L 458.390971 303.826327 
L 458.819724 317.113104 
L 459.500684 323.391819 
L 459.525905 304.944596 
L 460.03032 327.093261 
L 460.332969 313.091486 
L 460.71128 311.833501 
L 460.812163 308.793364 
L 461.240916 312.494594 
L 462.148863 298.904367 
L 462.527174 305.625793 
L 462.779382 319.603962 
L 462.855044 316.124381 
L 463.157693 309.342114 
L 463.283797 295.954298 
L 463.989978 312.511128 
L 464.645717 322.350352 
L 465.478002 299.712402 
L 465.856314 311.757878 
L 466.764261 311.282327 
L 468.100961 319.277991 
L 468.201844 306.92177 
L 468.706259 300.780704 
L 469.942075 305.859955 
L 470.673477 323.22528 
L 471.732749 312.095033 
L 473.019007 308.029414 
L 473.599084 318.251444 
L 473.750409 317.502389 
L 475.011447 288.954052 
L 475.162771 317.169513 
L 475.490641 312.147879 
L 476.171601 304.218084 
L 476.80212 315.219313 
L 476.978665 322.268905 
L 477.533522 307.202102 
L 478.391027 317.490822 
L 479.273754 320.54954 
L 479.853831 306.829091 
L 479.929493 300.090586 
L 480.257363 319.812367 
L 481.594063 310.06115 
L 481.619284 311.37433 
L 482.098478 319.475483 
L 482.17414 308.450138 
L 482.401127 305.659061 
L 482.426348 312.371671 
L 482.577672 318.346955 
L 483.082087 326.847938 
L 483.132529 298.49522 
L 485.20063 311.39661 
L 485.351955 319.101292 
L 487.243511 318.902137 
L 488.756756 311.021208 
L 488.908081 316.999658 
L 489.488158 322.623763 
L 490.421326 293.932853 
L 490.446547 302.51106 
L 490.597871 307.477795 
L 490.824858 308.496557 
L 491.253611 318.035838 
L 491.55626 298.716795 
L 491.707584 312.621345 
L 492.211999 305.662595 
L 493.195609 307.083552 
L 494.456646 308.312624 
L 495.061944 334.307691 
L 495.642022 308.322543 
L 496.549969 303.27452 
L 497.155267 316.074305 
L 497.230929 302.42137 
L 499.122485 310.182745 
L 499.27381 298.322866 
L 500.030433 320.279081 
L 500.257419 310.03219 
L 500.509627 321.763755 
L 501.997651 312.469522 
L 502.829936 298.003136 
L 502.855157 311.18603 
L 503.056923 299.628993 
L 503.586559 321.933681 
L 503.737883 317.157432 
L 503.838766 321.00063 
L 504.519726 331.580639 
L 505.200687 306.987083 
L 505.679881 304.91366 
L 506.512166 318.817933 
L 506.537387 316.786032 
L 507.142685 322.221414 
L 509.084682 312.77481 
L 510.67359 308.556237 
L 511.732861 307.924068 
L 511.833744 307.400047 
L 512.943458 309.837907 
L 513.422652 325.765117 
L 514.35582 326.703541 
L 515.112442 295.94431 
L 515.288987 307.553362 
L 515.541195 307.046596 
L 516.575246 311.489919 
L 517.003999 310.83627 
L 517.155323 313.35749 
L 517.331868 320.461606 
L 518.517244 313.521954 
L 518.643347 322.831723 
L 519.046879 315.53668 
L 519.198204 306.129786 
L 519.450412 317.220725 
L 519.904385 298.677432 
L 520.383579 314.58941 
L 521.190643 328.13832 
L 521.972487 308.534438 
L 523.157862 308.604071 
L 523.460511 314.411438 
L 523.737939 309.647031 
L 525.352067 297.476988 
L 526.133911 312.530395 
L 527.067079 308.27184 
L 527.672377 310.03763 
L 527.899363 309.016316 
L 528.050688 321.828673 
L 528.428999 313.913571 
L 529.210843 315.875295 
L 529.286505 315.428903 
L 529.765699 305.123011 
L 530.244893 297.480503 
L 533.094838 307.331536 
L 533.296604 319.080477 
L 533.447929 312.220106 
L 534.053227 304.566146 
L 534.078448 322.096837 
L 535.036836 298.628812 
L 536.020446 324.45507 
L 536.550081 300.807916 
L 538.038106 307.055516 
L 538.365975 307.19573 
L 538.618183 322.373829 
L 538.719066 295.627295 
L 539.904441 294.816854 
L 541.720336 301.87303 
L 542.275192 308.791434 
L 542.376075 312.191914 
L 542.451737 309.015227 
L 542.703945 315.689832 
L 543.20836 311.800467 
L 543.864099 311.103339 
L 544.721605 309.677884 
L 544.948592 307.921875 
L 546.360954 310.745249 
L 547.722874 315.697483 
L 548.378614 309.582889 
L 548.504718 310.924031 
L 549.009133 322.238741 
L 550.295391 312.859283 
L 550.396274 303.501162 
L 551.203338 312.078168 
L 552.439155 320.394199 
L 552.94357 306.570906 
L 553.750634 309.041791 
L 554.028062 318.035371 
L 554.658581 313.984116 
L 554.885568 311.462988 
L 555.238659 326.816002 
L 556.29793 303.559565 
L 556.928449 319.186581 
L 558.820005 316.734394 
L 560.509796 315.531149 
L 561.291639 305.990714 
L 562.149145 343.639023 
L 562.174365 329.254597 
L 562.729222 315.355145 
L 563.68761 323.791506 
L 563.939818 304.564363 
L 564.872986 319.336643 
L 565.074752 306.187933 
L 565.427842 297.863159 
L 565.705271 296.620292 
L 566.159244 312.846459 
L 566.209686 298.418875 
L 566.789763 322.679509 
L 566.840204 335.065456 
L 566.915867 299.584363 
L 567.395061 304.658366 
L 568.277787 324.45656 
L 568.70654 299.587656 
L 569.03441 316.766285 
L 569.059631 297.38524 
L 569.589266 312.202263 
L 569.841474 309.827948 
L 570.04324 323.852422 
L 570.295447 303.390198 
L 571.73303 312.787966 
L 571.833913 318.064713 
L 572.540094 298.069384 
L 572.893185 321.470405 
L 573.044509 301.792487 
L 573.3976 324.548204 
L 573.927236 308.783101 
L 574.557755 307.888232 
L 574.809962 313.935672 
L 574.910845 321.667288 
L 575.314377 295.834734 
L 575.667468 310.752381 
L 576.575415 312.345067 
L 576.777181 313.665626 
L 577.054609 313.606344 
L 578.290426 304.256992 
L 578.315647 306.578028 
L 578.44175 305.22155 
L 579.122711 325.151868 
L 580.081099 308.495576 
L 582.880603 309.758838 
L 583.107589 327.822755 
L 583.511122 317.011772 
L 583.586784 311.392036 
L 583.813771 309.974233 
L 584.519952 317.980869 
L 585.377457 323.9881 
L 585.402678 317.994633 
L 585.629665 314.498348 
L 585.705327 326.941874 
L 586.688936 305.329583 
L 587.319455 315.383996 
L 587.697766 319.038216 
L 587.748208 306.841712 
L 587.949974 314.64683 
L 588.353506 305.742778 
L 588.857921 304.298591 
L 589.463219 318.963325 
L 590.018076 321.790269 
L 590.724257 292.429871 
L 591.026906 316.056598 
L 592.086177 305.477025 
L 592.161839 308.5151 
L 593.19589 295.829647 
L 593.397656 315.561036 
L 595.440537 297.27892 
L 595.465758 299.387176 
L 597.659963 304.414312 
L 597.861729 308.864432 
L 598.971442 322.550897 
L 598.996663 304.051152 
L 600.282922 321.584496 
L 600.509908 310.126172 
L 601.796167 312.666697 
L 602.048374 311.873961 
L 602.224919 310.469211 
L 602.956321 311.92541 
L 603.889489 312.299226 
L 604.318242 316.140044 
L 605.377513 299.444037 
L 606.58811 299.786512 
L 607.59694 294.289124 
L 608.227458 314.582788 
L 608.706653 319.936617 
L 608.832757 303.143773 
L 608.95886 321.320839 
L 609.412834 301.272371 
L 609.665041 314.670072 
L 609.96769 316.066298 
L 610.497326 314.083329 
L 611.682701 311.585287 
L 612.212337 305.432163 
L 613.145505 303.662448 
L 613.549037 318.872036 
L 614.406543 321.296602 
L 614.683971 304.849627 
L 615.011841 311.281091 
L 615.945009 302.109344 
L 616.121554 298.565284 
L 616.222437 321.01549 
L 616.852956 296.97656 
L 617.508695 320.17884 
L 619.551576 296.854572 
L 619.753342 331.585098 
L 621.01438 300.552621 
L 621.518795 319.76638 
L 621.897106 300.87272 
L 622.02321 311.685826 
L 622.527625 314.523679 
L 622.678949 317.642866 
L 623.259027 306.627641 
L 623.889545 310.616045 
L 623.939987 295.136946 
L 624.267857 309.008749 
L 625.276687 325.880135 
L 625.428011 300.565951 
L 625.781102 324.070129 
L 626.05853 319.712879 
L 626.3864 296.161918 
L 627.445671 315.695208 
L 627.622217 303.504988 
L 627.7231 313.606296 
L 627.849203 314.169218 
L 627.874424 321.513665 
L 628.883254 308.540434 
L 629.362449 321.408953 
L 630.043409 309.530995 
L 630.623486 323.539143 
L 632.388939 299.043486 
L 632.641146 321.49049 
L 632.943795 308.904577 
L 633.372548 303.364129 
L 633.77608 301.362708 
L 633.977846 312.690519 
L 634.204833 309.109424 
L 634.381378 302.874188 
L 635.390208 291.893384 
L 635.718078 301.53314 
L 635.995506 327.832842 
L 636.071169 312.323281 
L 637.987946 326.26999 
L 638.063608 303.801345 
L 639.12288 310.246668 
L 639.198542 325.335885 
L 639.980385 305.132071 
L 640.535242 304.348757 
L 640.737008 313.923052 
L 640.863112 296.377662 
L 641.897162 312.5567 
L 642.275474 314.651182 
L 642.880772 305.08063 
L 642.931213 324.901672 
L 643.410407 299.749569 
L 643.914822 329.297641 
L 644.520121 312.041056 
L 644.545341 315.318737 
L 645.554171 317.788509 
L 645.604613 294.030809 
L 646.159469 311.75246 
L 646.739547 306.279772 
L 647.773598 305.218138 
L 648.101467 315.626364 
L 648.126688 327.246928 
L 648.378896 304.199835 
L 648.605882 305.882377 
L 648.631103 317.71892 
L 648.681545 312.023358 
L 648.807648 307.304104 
L 649.085077 324.337064 
L 650.926192 308.58503 
L 651.859359 309.087078 
L 651.88458 310.001949 
L 652.313333 314.83848 
L 652.414216 309.01227 
L 653.347384 315.123653 
L 654.129227 309.735606 
L 654.154448 322.632203 
L 654.255331 301.948315 
L 655.112836 302.657007 
L 655.23894 314.896522 
L 655.465927 304.187878 
L 655.592031 320.855869 
L 656.071225 312.375401 
L 657.508808 305.14481 
L 657.534029 303.544539 
L 658.441976 303.415711 
L 659.400364 321.51845 
L 660.409194 316.709717 
L 660.560519 307.230398 
L 660.61096 308.682597 
L 660.636181 328.23202 
L 661.090155 314.201571 
L 661.418024 313.762974 
L 661.645011 338.693441 
L 661.745894 316.418033 
L 663.360022 299.209997 
L 664.999371 310.511106 
L 665.579448 302.30057 
L 665.98298 315.873574 
L 666.487396 322.291167 
L 667.697992 324.326963 
L 667.773654 299.431728 
L 667.899758 326.575522 
L 669.589548 313.279869 
L 670.043522 329.365806 
L 671.935078 317.508358 
L 672.918687 321.988924 
L 672.943908 303.125562 
L 673.801414 301.820311 
L 674.532815 314.116832 
L 674.860685 321.513797 
L 675.138113 303.588809 
L 675.667749 321.616078 
L 676.121723 310.397258 
L 676.474813 315.247574 
L 676.903566 301.43989 
L 677.231436 314.010385 
L 677.962838 327.432079 
L 677.988058 303.523127 
L 679.022109 297.179267 
L 679.627407 306.701016 
L 679.778732 315.250616 
L 680.283147 308.809527 
L 680.434471 302.206453 
L 680.964107 302.91468 
L 681.115432 316.667057 
L 681.645067 318.361067 
L 681.645067 318.361067 
" clip-path="url(#p8155e518e0)" style="fill: none; stroke: #ff0000; stroke-width: 2; stroke-linecap: square"/>
   </g>
   <g id="patch_3">
    <path d="M 102.991484 359.4885 
L 102.991484 10.8 
" style="fill: none; stroke: #000000; stroke-width: 0.8; stroke-linejoin: miter; stroke-linecap: square"/>
   </g>
   <g id="patch_4">
    <path d="M 709.2 359.4885 
L 709.2 10.8 
" style="fill: none; stroke: #000000; stroke-width: 0.8; stroke-linejoin: miter; stroke-linecap: square"/>
   </g>
   <g id="patch_5">
    <path d="M 102.991484 359.4885 
L 709.2 359.4885 
" style="fill: none; stroke: #000000; stroke-width: 0.8; stroke-linejoin: miter; stroke-linecap: square"/>
   </g>
   <g id="patch_6">
    <path d="M 102.991484 10.8 
L 709.2 10.8 
" style="fill: none; stroke: #000000; stroke-width: 0.8; stroke-linejoin: miter; stroke-linecap: square"/>
   </g>
   <g id="legend_1">
    <g id="line2d_51">
     <path d="M 465.551562 49.02 
L 498.051562 49.02 
L 530.551562 49.02 
" style="fill: none; stroke: #0000ff; stroke-width: 2; stroke-linecap: square"/>
    </g>
    <g id="text_13">
     <!-- Training -->
     <g transform="translate(551.351562 61.24) scale(0.26 -0.26)">
      <defs>
       <path id="DejaVuSerif-54" d="M 1222 0 
L 1222 331 
L 1819 331 
L 1819 4294 
L 447 4294 
L 447 3566 
L 63 3566 
L 63 4666 
L 4206 4666 
L 4206 3566 
L 3822 3566 
L 3822 4294 
L 2450 4294 
L 2450 331 
L 3047 331 
L 3047 0 
L 1222 0 
z
" transform="scale(0.015625)"/>
       <path id="DejaVuSerif-67" d="M 3359 2988 
L 3359 72 
Q 3359 -644 2965 -1033 
Q 2572 -1422 1844 -1422 
Q 1516 -1422 1216 -1362 
Q 916 -1303 641 -1184 
L 641 -488 
L 941 -488 
Q 997 -813 1206 -963 
Q 1416 -1113 1806 -1113 
Q 2313 -1113 2548 -827 
Q 2784 -541 2784 72 
L 2784 519 
Q 2616 206 2355 57 
Q 2094 -91 1709 -91 
Q 1097 -91 708 395 
Q 319 881 319 1663 
Q 319 2444 706 2928 
Q 1094 3413 1709 3413 
Q 2094 3413 2355 3264 
Q 2616 3116 2784 2803 
L 2784 3322 
L 3909 3322 
L 3909 2988 
L 3359 2988 
z
M 2784 1825 
Q 2784 2422 2554 2737 
Q 2325 3053 1888 3053 
Q 1444 3053 1217 2703 
Q 991 2353 991 1663 
Q 991 975 1217 622 
Q 1444 269 1888 269 
Q 2325 269 2554 583 
Q 2784 897 2784 1497 
L 2784 1825 
z
" transform="scale(0.015625)"/>
      </defs>
      <use xlink:href="#DejaVuSerif-54"/>
      <use xlink:href="#DejaVuSerif-72" x="66.699219"/>
      <use xlink:href="#DejaVuSerif-61" x="114.501953"/>
      <use xlink:href="#DejaVuSerif-69" x="174.121094"/>
      <use xlink:href="#DejaVuSerif-6e" x="206.103516"/>
      <use xlink:href="#DejaVuSerif-69" x="270.507812"/>
      <use xlink:href="#DejaVuSerif-6e" x="302.490234"/>
      <use xlink:href="#DejaVuSerif-67" x="366.894531"/>
     </g>
    </g>
    <g id="line2d_52">
     <path d="M 465.551562 93.74 
L 498.051562 93.74 
L 530.551562 93.74 
" style="fill: none; stroke: #ff0000; stroke-width: 2; stroke-linecap: square"/>
    </g>
    <g id="text_14">
     <!-- Validation -->
     <g transform="translate(551.351562 105.96) scale(0.26 -0.26)">
      <defs>
       <path id="DejaVuSerif-56" d="M 1119 4331 
L 2497 750 
L 3872 4331 
L 3347 4331 
L 3347 4666 
L 4716 4666 
L 4716 4331 
L 4263 4331 
L 2597 0 
L 2059 0 
L 403 4331 
L -63 4331 
L -63 4666 
L 1638 4666 
L 1638 4331 
L 1119 4331 
z
" transform="scale(0.015625)"/>
       <path id="DejaVuSerif-6c" d="M 1313 331 
L 1856 331 
L 1856 0 
L 184 0 
L 184 331 
L 738 331 
L 738 4531 
L 184 4531 
L 184 4863 
L 1313 4863 
L 1313 331 
z
" transform="scale(0.015625)"/>
       <path id="DejaVuSerif-64" d="M 3359 331 
L 3909 331 
L 3909 0 
L 2784 0 
L 2784 519 
Q 2616 206 2355 57 
Q 2094 -91 1709 -91 
Q 1097 -91 708 395 
Q 319 881 319 1663 
Q 319 2444 706 2928 
Q 1094 3413 1709 3413 
Q 2094 3413 2355 3264 
Q 2616 3116 2784 2803 
L 2784 4531 
L 2241 4531 
L 2241 4863 
L 3359 4863 
L 3359 331 
z
M 2784 1497 
L 2784 1825 
Q 2784 2422 2554 2737 
Q 2325 3053 1888 3053 
Q 1444 3053 1217 2703 
Q 991 2353 991 1663 
Q 991 975 1217 622 
Q 1444 269 1888 269 
Q 2325 269 2554 583 
Q 2784 897 2784 1497 
z
" transform="scale(0.015625)"/>
      </defs>
      <use xlink:href="#DejaVuSerif-56"/>
      <use xlink:href="#DejaVuSerif-61" x="63.091797"/>
      <use xlink:href="#DejaVuSerif-6c" x="122.710938"/>
      <use xlink:href="#DejaVuSerif-69" x="154.693359"/>
      <use xlink:href="#DejaVuSerif-64" x="186.675781"/>
      <use xlink:href="#DejaVuSerif-61" x="250.689453"/>
      <use xlink:href="#DejaVuSerif-74" x="310.308594"/>
      <use xlink:href="#DejaVuSerif-69" x="350.494141"/>
      <use xlink:href="#DejaVuSerif-6f" x="382.476562"/>
      <use xlink:href="#DejaVuSerif-6e" x="442.681641"/>
     </g>
    </g>
   </g>
  </g>
 </g>
 <defs>
  <clipPath id="p8155e518e0">
   <rect x="102.991484" y="10.8" width="606.208516" height="348.6885"/>
  </clipPath>
 </defs>
</svg>
