<?xml version="1.0" encoding="utf-8" standalone="no"?>
<!DOCTYPE svg PUBLIC "-//W3C//DTD SVG 1.1//EN"
  "http://www.w3.org/Graphics/SVG/1.1/DTD/svg11.dtd">
<svg xmlns:xlink="http://www.w3.org/1999/xlink" width="720pt" height="432pt" viewBox="0 0 720 432" xmlns="http://www.w3.org/2000/svg" version="1.1">
 <metadata>
  <rdf:RDF xmlns:dc="http://purl.org/dc/elements/1.1/" xmlns:cc="http://creativecommons.org/ns#" xmlns:rdf="http://www.w3.org/1999/02/22-rdf-syntax-ns#">
   <cc:Work>
    <dc:type rdf:resource="http://purl.org/dc/dcmitype/StillImage"/>
    <dc:date>2025-07-04T23:18:41.044087</dc:date>
    <dc:format>image/svg+xml</dc:format>
    <dc:creator>
     <cc:Agent>
      <dc:title>Matplotlib v3.7.5, https://matplotlib.org/</dc:title>
     </cc:Agent>
    </dc:creator>
   </cc:Work>
  </rdf:RDF>
 </metadata>
 <defs>
  <style type="text/css">*{stroke-linejoin: round; stroke-linecap: butt}</style>
 </defs>
 <g id="figure_1">
  <g id="patch_1">
   <path d="M 0 432 
L 720 432 
L 720 0 
L 0 0 
z
" style="fill: #ffffff"/>
  </g>
  <g id="axes_1">
   <g id="patch_2">
    <path d="M 100.83 359.4885 
L 709.2 359.4885 
L 709.2 10.8 
L 100.83 10.8 
z
" style="fill: #ffffff"/>
   </g>
   <g id="matplotlib.axis_1">
    <g id="xtick_1">
     <g id="line2d_1">
      <defs>
       <path id="m4e04dd1865" d="M 0 0 
L 0 -6 
" style="stroke: #000000"/>
      </defs>
      <g>
       <use xlink:href="#m4e04dd1865" x="128.02759" y="359.4885" style="stroke: #000000"/>
      </g>
     </g>
     <g id="line2d_2">
      <defs>
       <path id="mac66038230" d="M 0 0 
L 0 6 
" style="stroke: #000000"/>
      </defs>
      <g>
       <use xlink:href="#mac66038230" x="128.02759" y="10.8" style="stroke: #000000"/>
      </g>
     </g>
     <g id="text_1">
      <!-- 0 -->
      <g transform="translate(119.75634 382.744438) scale(0.26 -0.26)">
       <defs>
        <path id="DejaVuSerif-30" d="M 2034 219 
Q 2513 219 2750 744 
Q 2988 1269 2988 2328 
Q 2988 3391 2750 3916 
Q 2513 4441 2034 4441 
Q 1556 4441 1318 3916 
Q 1081 3391 1081 2328 
Q 1081 1269 1318 744 
Q 1556 219 2034 219 
z
M 2034 -91 
Q 1275 -91 848 546 
Q 422 1184 422 2328 
Q 422 3475 848 4112 
Q 1275 4750 2034 4750 
Q 2797 4750 3222 4112 
Q 3647 3475 3647 2328 
Q 3647 1184 3222 546 
Q 2797 -91 2034 -91 
z
" transform="scale(0.015625)"/>
       </defs>
       <use xlink:href="#DejaVuSerif-30"/>
      </g>
     </g>
    </g>
    <g id="xtick_2">
     <g id="line2d_3">
      <g>
       <use xlink:href="#m4e04dd1865" x="203.959625" y="359.4885" style="stroke: #000000"/>
      </g>
     </g>
     <g id="line2d_4">
      <g>
       <use xlink:href="#mac66038230" x="203.959625" y="10.8" style="stroke: #000000"/>
      </g>
     </g>
     <g id="text_2">
      <!-- 30 -->
      <g transform="translate(187.417125 382.744438) scale(0.26 -0.26)">
       <defs>
        <path id="DejaVuSerif-33" d="M 622 4469 
Q 988 4606 1323 4678 
Q 1659 4750 1953 4750 
Q 2638 4750 3022 4454 
Q 3406 4159 3406 3634 
Q 3406 3213 3140 2930 
Q 2875 2647 2388 2547 
Q 2963 2466 3280 2130 
Q 3597 1794 3597 1259 
Q 3597 606 3158 257 
Q 2719 -91 1894 -91 
Q 1528 -91 1179 -12 
Q 831 66 488 225 
L 488 1131 
L 838 1131 
Q 869 681 1141 450 
Q 1413 219 1906 219 
Q 2384 219 2661 495 
Q 2938 772 2938 1253 
Q 2938 1803 2653 2086 
Q 2369 2369 1819 2369 
L 1522 2369 
L 1522 2688 
L 1678 2688 
Q 2225 2688 2498 2914 
Q 2772 3141 2772 3597 
Q 2772 4006 2547 4223 
Q 2322 4441 1900 4441 
Q 1478 4441 1245 4241 
Q 1013 4041 972 3647 
L 622 3647 
L 622 4469 
z
" transform="scale(0.015625)"/>
       </defs>
       <use xlink:href="#DejaVuSerif-33"/>
       <use xlink:href="#DejaVuSerif-30" x="63.623047"/>
      </g>
     </g>
    </g>
    <g id="xtick_3">
     <g id="line2d_5">
      <g>
       <use xlink:href="#m4e04dd1865" x="279.891661" y="359.4885" style="stroke: #000000"/>
      </g>
     </g>
     <g id="line2d_6">
      <g>
       <use xlink:href="#mac66038230" x="279.891661" y="10.8" style="stroke: #000000"/>
      </g>
     </g>
     <g id="text_3">
      <!-- 60 -->
      <g transform="translate(263.349161 382.744438) scale(0.26 -0.26)">
       <defs>
        <path id="DejaVuSerif-36" d="M 2094 219 
Q 2534 219 2771 542 
Q 3009 866 3009 1472 
Q 3009 2078 2771 2401 
Q 2534 2725 2094 2725 
Q 1647 2725 1412 2412 
Q 1178 2100 1178 1509 
Q 1178 888 1415 553 
Q 1653 219 2094 219 
z
M 1075 2569 
Q 1288 2803 1556 2918 
Q 1825 3034 2163 3034 
Q 2859 3034 3264 2615 
Q 3669 2197 3669 1472 
Q 3669 763 3233 336 
Q 2797 -91 2069 -91 
Q 1278 -91 853 498 
Q 428 1088 428 2181 
Q 428 3406 931 4078 
Q 1434 4750 2350 4750 
Q 2597 4750 2869 4703 
Q 3141 4656 3425 4563 
L 3425 3794 
L 3072 3794 
Q 3034 4109 2831 4275 
Q 2628 4441 2284 4441 
Q 1678 4441 1381 3981 
Q 1084 3522 1075 2569 
z
" transform="scale(0.015625)"/>
       </defs>
       <use xlink:href="#DejaVuSerif-36"/>
       <use xlink:href="#DejaVuSerif-30" x="63.623047"/>
      </g>
     </g>
    </g>
    <g id="xtick_4">
     <g id="line2d_7">
      <g>
       <use xlink:href="#m4e04dd1865" x="355.823696" y="359.4885" style="stroke: #000000"/>
      </g>
     </g>
     <g id="line2d_8">
      <g>
       <use xlink:href="#mac66038230" x="355.823696" y="10.8" style="stroke: #000000"/>
      </g>
     </g>
     <g id="text_4">
      <!-- 90 -->
      <g transform="translate(339.281196 382.744438) scale(0.26 -0.26)">
       <defs>
        <path id="DejaVuSerif-39" d="M 2994 2091 
Q 2784 1856 2512 1740 
Q 2241 1625 1900 1625 
Q 1206 1625 804 2044 
Q 403 2463 403 3188 
Q 403 3897 839 4323 
Q 1275 4750 2003 4750 
Q 2794 4750 3217 4161 
Q 3641 3572 3641 2478 
Q 3641 1253 3137 581 
Q 2634 -91 1722 -91 
Q 1475 -91 1203 -44 
Q 931 3 647 97 
L 647 872 
L 997 872 
Q 1038 556 1241 387 
Q 1444 219 1784 219 
Q 2391 219 2687 676 
Q 2984 1134 2994 2091 
z
M 1978 4441 
Q 1534 4441 1298 4117 
Q 1063 3794 1063 3188 
Q 1063 2581 1298 2256 
Q 1534 1931 1978 1931 
Q 2422 1931 2658 2245 
Q 2894 2559 2894 3150 
Q 2894 3772 2656 4106 
Q 2419 4441 1978 4441 
z
" transform="scale(0.015625)"/>
       </defs>
       <use xlink:href="#DejaVuSerif-39"/>
       <use xlink:href="#DejaVuSerif-30" x="63.623047"/>
      </g>
     </g>
    </g>
    <g id="xtick_5">
     <g id="line2d_9">
      <g>
       <use xlink:href="#m4e04dd1865" x="431.755732" y="359.4885" style="stroke: #000000"/>
      </g>
     </g>
     <g id="line2d_10">
      <g>
       <use xlink:href="#mac66038230" x="431.755732" y="10.8" style="stroke: #000000"/>
      </g>
     </g>
     <g id="text_5">
      <!-- 120 -->
      <g transform="translate(406.941982 382.744438) scale(0.26 -0.26)">
       <defs>
        <path id="DejaVuSerif-31" d="M 909 0 
L 909 331 
L 1722 331 
L 1722 4213 
L 781 3603 
L 781 4013 
L 1919 4750 
L 2350 4750 
L 2350 331 
L 3163 331 
L 3163 0 
L 909 0 
z
" transform="scale(0.015625)"/>
        <path id="DejaVuSerif-32" d="M 819 3553 
L 469 3553 
L 469 4384 
Q 803 4563 1142 4656 
Q 1481 4750 1806 4750 
Q 2534 4750 2956 4397 
Q 3378 4044 3378 3438 
Q 3378 2753 2422 1800 
Q 2347 1728 2309 1691 
L 1131 513 
L 3078 513 
L 3078 1088 
L 3444 1088 
L 3444 0 
L 434 0 
L 434 341 
L 1850 1753 
Q 2319 2222 2519 2614 
Q 2719 3006 2719 3438 
Q 2719 3909 2473 4175 
Q 2228 4441 1797 4441 
Q 1350 4441 1106 4219 
Q 863 3997 819 3553 
z
" transform="scale(0.015625)"/>
       </defs>
       <use xlink:href="#DejaVuSerif-31"/>
       <use xlink:href="#DejaVuSerif-32" x="63.623047"/>
       <use xlink:href="#DejaVuSerif-30" x="127.246094"/>
      </g>
     </g>
    </g>
    <g id="xtick_6">
     <g id="line2d_11">
      <g>
       <use xlink:href="#m4e04dd1865" x="507.687767" y="359.4885" style="stroke: #000000"/>
      </g>
     </g>
     <g id="line2d_12">
      <g>
       <use xlink:href="#mac66038230" x="507.687767" y="10.8" style="stroke: #000000"/>
      </g>
     </g>
     <g id="text_6">
      <!-- 150 -->
      <g transform="translate(482.874017 382.744438) scale(0.26 -0.26)">
       <defs>
        <path id="DejaVuSerif-35" d="M 3219 4666 
L 3219 4153 
L 1081 4153 
L 1081 2816 
Q 1244 2928 1461 2984 
Q 1678 3041 1947 3041 
Q 2703 3041 3140 2622 
Q 3578 2203 3578 1478 
Q 3578 738 3136 323 
Q 2694 -91 1894 -91 
Q 1572 -91 1234 -12 
Q 897 66 544 225 
L 544 1131 
L 897 1131 
Q 925 688 1179 453 
Q 1434 219 1894 219 
Q 2388 219 2653 544 
Q 2919 869 2919 1478 
Q 2919 2084 2655 2407 
Q 2391 2731 1894 2731 
Q 1613 2731 1398 2631 
Q 1184 2531 1019 2322 
L 750 2322 
L 750 4666 
L 3219 4666 
z
" transform="scale(0.015625)"/>
       </defs>
       <use xlink:href="#DejaVuSerif-31"/>
       <use xlink:href="#DejaVuSerif-35" x="63.623047"/>
       <use xlink:href="#DejaVuSerif-30" x="127.246094"/>
      </g>
     </g>
    </g>
    <g id="xtick_7">
     <g id="line2d_13">
      <g>
       <use xlink:href="#m4e04dd1865" x="583.619803" y="359.4885" style="stroke: #000000"/>
      </g>
     </g>
     <g id="line2d_14">
      <g>
       <use xlink:href="#mac66038230" x="583.619803" y="10.8" style="stroke: #000000"/>
      </g>
     </g>
     <g id="text_7">
      <!-- 180 -->
      <g transform="translate(558.806053 382.744438) scale(0.26 -0.26)">
       <defs>
        <path id="DejaVuSerif-38" d="M 2981 1275 
Q 2981 1775 2732 2051 
Q 2484 2328 2034 2328 
Q 1584 2328 1336 2051 
Q 1088 1775 1088 1275 
Q 1088 772 1336 495 
Q 1584 219 2034 219 
Q 2484 219 2732 495 
Q 2981 772 2981 1275 
z
M 2853 3541 
Q 2853 3966 2637 4203 
Q 2422 4441 2034 4441 
Q 1650 4441 1433 4203 
Q 1216 3966 1216 3541 
Q 1216 3113 1433 2875 
Q 1650 2638 2034 2638 
Q 2422 2638 2637 2875 
Q 2853 3113 2853 3541 
z
M 2516 2484 
Q 3047 2413 3344 2092 
Q 3641 1772 3641 1275 
Q 3641 619 3225 264 
Q 2809 -91 2034 -91 
Q 1263 -91 845 264 
Q 428 619 428 1275 
Q 428 1772 725 2092 
Q 1022 2413 1556 2484 
Q 1084 2569 832 2842 
Q 581 3116 581 3541 
Q 581 4103 968 4426 
Q 1356 4750 2034 4750 
Q 2713 4750 3100 4426 
Q 3488 4103 3488 3541 
Q 3488 3116 3236 2842 
Q 2984 2569 2516 2484 
z
" transform="scale(0.015625)"/>
       </defs>
       <use xlink:href="#DejaVuSerif-31"/>
       <use xlink:href="#DejaVuSerif-38" x="63.623047"/>
       <use xlink:href="#DejaVuSerif-30" x="127.246094"/>
      </g>
     </g>
    </g>
    <g id="xtick_8">
     <g id="line2d_15">
      <g>
       <use xlink:href="#m4e04dd1865" x="659.551839" y="359.4885" style="stroke: #000000"/>
      </g>
     </g>
     <g id="line2d_16">
      <g>
       <use xlink:href="#mac66038230" x="659.551839" y="10.8" style="stroke: #000000"/>
      </g>
     </g>
     <g id="text_8">
      <!-- 210 -->
      <g transform="translate(634.738089 382.744438) scale(0.26 -0.26)">
       <use xlink:href="#DejaVuSerif-32"/>
       <use xlink:href="#DejaVuSerif-31" x="63.623047"/>
       <use xlink:href="#DejaVuSerif-30" x="127.246094"/>
      </g>
     </g>
    </g>
    <g id="text_9">
     <!-- Iteration ($\times 10^3$) -->
     <g transform="translate(299.325 414.564437) scale(0.26 -0.26)">
      <defs>
       <path id="DejaVuSerif-49" d="M 1581 331 
L 2175 331 
L 2175 0 
L 353 0 
L 353 331 
L 947 331 
L 947 4331 
L 353 4331 
L 353 4666 
L 2175 4666 
L 2175 4331 
L 1581 4331 
L 1581 331 
z
" transform="scale(0.015625)"/>
       <path id="DejaVuSerif-74" d="M 691 2988 
L 184 2988 
L 184 3322 
L 691 3322 
L 691 4353 
L 1269 4353 
L 1269 3322 
L 2350 3322 
L 2350 2988 
L 1269 2988 
L 1269 878 
Q 1269 456 1350 337 
Q 1431 219 1650 219 
Q 1875 219 1978 351 
Q 2081 484 2088 781 
L 2522 781 
Q 2497 328 2275 118 
Q 2053 -91 1600 -91 
Q 1103 -91 897 129 
Q 691 350 691 878 
L 691 2988 
z
" transform="scale(0.015625)"/>
       <path id="DejaVuSerif-65" d="M 3469 1600 
L 991 1600 
L 991 1575 
Q 991 903 1244 561 
Q 1497 219 1991 219 
Q 2369 219 2611 417 
Q 2853 616 2950 1006 
L 3413 1006 
Q 3275 459 2904 184 
Q 2534 -91 1931 -91 
Q 1203 -91 761 389 
Q 319 869 319 1663 
Q 319 2450 753 2931 
Q 1188 3413 1894 3413 
Q 2647 3413 3050 2948 
Q 3453 2484 3469 1600 
z
M 2791 1931 
Q 2772 2513 2545 2808 
Q 2319 3103 1894 3103 
Q 1497 3103 1269 2806 
Q 1041 2509 991 1931 
L 2791 1931 
z
" transform="scale(0.015625)"/>
       <path id="DejaVuSerif-72" d="M 3059 3328 
L 3059 2497 
L 2728 2497 
Q 2713 2744 2591 2866 
Q 2469 2988 2234 2988 
Q 1809 2988 1582 2694 
Q 1356 2400 1356 1850 
L 1356 331 
L 2022 331 
L 2022 0 
L 263 0 
L 263 331 
L 781 331 
L 781 2994 
L 231 2994 
L 231 3322 
L 1356 3322 
L 1356 2731 
Q 1525 3078 1790 3245 
Q 2056 3413 2438 3413 
Q 2578 3413 2733 3391 
Q 2888 3369 3059 3328 
z
" transform="scale(0.015625)"/>
       <path id="DejaVuSerif-61" d="M 2547 1044 
L 2547 1747 
L 1806 1747 
Q 1378 1747 1168 1562 
Q 959 1378 959 997 
Q 959 650 1171 447 
Q 1384 244 1747 244 
Q 2106 244 2326 466 
Q 2547 688 2547 1044 
z
M 3122 2075 
L 3122 331 
L 3634 331 
L 3634 0 
L 2547 0 
L 2547 359 
Q 2356 128 2106 18 
Q 1856 -91 1522 -91 
Q 969 -91 644 203 
Q 319 497 319 997 
Q 319 1513 691 1797 
Q 1063 2081 1741 2081 
L 2547 2081 
L 2547 2309 
Q 2547 2688 2317 2895 
Q 2088 3103 1672 3103 
Q 1328 3103 1125 2947 
Q 922 2791 872 2484 
L 575 2484 
L 575 3156 
Q 875 3284 1158 3348 
Q 1441 3413 1709 3413 
Q 2400 3413 2761 3070 
Q 3122 2728 3122 2075 
z
" transform="scale(0.015625)"/>
       <path id="DejaVuSerif-69" d="M 622 4353 
Q 622 4497 726 4603 
Q 831 4709 978 4709 
Q 1122 4709 1226 4603 
Q 1331 4497 1331 4353 
Q 1331 4206 1228 4103 
Q 1125 4000 978 4000 
Q 831 4000 726 4103 
Q 622 4206 622 4353 
z
M 1356 331 
L 1900 331 
L 1900 0 
L 231 0 
L 231 331 
L 781 331 
L 781 2988 
L 231 2988 
L 231 3322 
L 1356 3322 
L 1356 331 
z
" transform="scale(0.015625)"/>
       <path id="DejaVuSerif-6f" d="M 1925 219 
Q 2388 219 2623 584 
Q 2859 950 2859 1663 
Q 2859 2375 2623 2739 
Q 2388 3103 1925 3103 
Q 1463 3103 1227 2739 
Q 991 2375 991 1663 
Q 991 950 1228 584 
Q 1466 219 1925 219 
z
M 1925 -91 
Q 1200 -91 759 389 
Q 319 869 319 1663 
Q 319 2456 758 2934 
Q 1197 3413 1925 3413 
Q 2653 3413 3092 2934 
Q 3531 2456 3531 1663 
Q 3531 869 3092 389 
Q 2653 -91 1925 -91 
z
" transform="scale(0.015625)"/>
       <path id="DejaVuSerif-6e" d="M 263 0 
L 263 331 
L 781 331 
L 781 2988 
L 231 2988 
L 231 3322 
L 1356 3322 
L 1356 2731 
Q 1516 3069 1770 3241 
Q 2025 3413 2363 3413 
Q 2913 3413 3172 3097 
Q 3431 2781 3431 2113 
L 3431 331 
L 3944 331 
L 3944 0 
L 2356 0 
L 2356 331 
L 2853 331 
L 2853 1931 
Q 2853 2541 2703 2767 
Q 2553 2994 2175 2994 
Q 1775 2994 1565 2701 
Q 1356 2409 1356 1850 
L 1356 331 
L 1856 331 
L 1856 0 
L 263 0 
z
" transform="scale(0.015625)"/>
       <path id="DejaVuSerif-20" transform="scale(0.015625)"/>
       <path id="DejaVuSerif-28" d="M 2041 -997 
Q 1281 -656 893 83 
Q 506 822 506 1931 
Q 506 3044 893 3783 
Q 1281 4522 2041 4863 
L 2041 4556 
Q 1559 4225 1350 3623 
Q 1141 3022 1141 1931 
Q 1141 844 1350 242 
Q 1559 -359 2041 -691 
L 2041 -997 
z
" transform="scale(0.015625)"/>
       <path id="DejaVuSans-d7" d="M 4488 3438 
L 3059 2003 
L 4488 575 
L 4116 197 
L 2681 1631 
L 1247 197 
L 878 575 
L 2303 2003 
L 878 3438 
L 1247 3816 
L 2681 2381 
L 4116 3816 
L 4488 3438 
z
" transform="scale(0.015625)"/>
       <path id="DejaVuSans-31" d="M 794 531 
L 1825 531 
L 1825 4091 
L 703 3866 
L 703 4441 
L 1819 4666 
L 2450 4666 
L 2450 531 
L 3481 531 
L 3481 0 
L 794 0 
L 794 531 
z
" transform="scale(0.015625)"/>
       <path id="DejaVuSans-30" d="M 2034 4250 
Q 1547 4250 1301 3770 
Q 1056 3291 1056 2328 
Q 1056 1369 1301 889 
Q 1547 409 2034 409 
Q 2525 409 2770 889 
Q 3016 1369 3016 2328 
Q 3016 3291 2770 3770 
Q 2525 4250 2034 4250 
z
M 2034 4750 
Q 2819 4750 3233 4129 
Q 3647 3509 3647 2328 
Q 3647 1150 3233 529 
Q 2819 -91 2034 -91 
Q 1250 -91 836 529 
Q 422 1150 422 2328 
Q 422 3509 836 4129 
Q 1250 4750 2034 4750 
z
" transform="scale(0.015625)"/>
       <path id="DejaVuSans-33" d="M 2597 2516 
Q 3050 2419 3304 2112 
Q 3559 1806 3559 1356 
Q 3559 666 3084 287 
Q 2609 -91 1734 -91 
Q 1441 -91 1130 -33 
Q 819 25 488 141 
L 488 750 
Q 750 597 1062 519 
Q 1375 441 1716 441 
Q 2309 441 2620 675 
Q 2931 909 2931 1356 
Q 2931 1769 2642 2001 
Q 2353 2234 1838 2234 
L 1294 2234 
L 1294 2753 
L 1863 2753 
Q 2328 2753 2575 2939 
Q 2822 3125 2822 3475 
Q 2822 3834 2567 4026 
Q 2313 4219 1838 4219 
Q 1578 4219 1281 4162 
Q 984 4106 628 3988 
L 628 4550 
Q 988 4650 1302 4700 
Q 1616 4750 1894 4750 
Q 2613 4750 3031 4423 
Q 3450 4097 3450 3541 
Q 3450 3153 3228 2886 
Q 3006 2619 2597 2516 
z
" transform="scale(0.015625)"/>
       <path id="DejaVuSerif-29" d="M 453 -997 
L 453 -691 
Q 934 -359 1145 242 
Q 1356 844 1356 1931 
Q 1356 3022 1145 3623 
Q 934 4225 453 4556 
L 453 4863 
Q 1216 4522 1603 3783 
Q 1991 3044 1991 1931 
Q 1991 822 1603 83 
Q 1216 -656 453 -997 
z
" transform="scale(0.015625)"/>
      </defs>
      <use xlink:href="#DejaVuSerif-49" transform="translate(0 0.765625)"/>
      <use xlink:href="#DejaVuSerif-74" transform="translate(39.501953 0.765625)"/>
      <use xlink:href="#DejaVuSerif-65" transform="translate(79.6875 0.765625)"/>
      <use xlink:href="#DejaVuSerif-72" transform="translate(138.867188 0.765625)"/>
      <use xlink:href="#DejaVuSerif-61" transform="translate(186.669922 0.765625)"/>
      <use xlink:href="#DejaVuSerif-74" transform="translate(246.289062 0.765625)"/>
      <use xlink:href="#DejaVuSerif-69" transform="translate(286.474609 0.765625)"/>
      <use xlink:href="#DejaVuSerif-6f" transform="translate(318.457031 0.765625)"/>
      <use xlink:href="#DejaVuSerif-6e" transform="translate(378.662109 0.765625)"/>
      <use xlink:href="#DejaVuSerif-20" transform="translate(443.066406 0.765625)"/>
      <use xlink:href="#DejaVuSerif-28" transform="translate(474.853516 0.765625)"/>
      <use xlink:href="#DejaVuSans-d7" transform="translate(513.867188 0.765625)"/>
      <use xlink:href="#DejaVuSans-31" transform="translate(597.65625 0.765625)"/>
      <use xlink:href="#DejaVuSans-30" transform="translate(661.279297 0.765625)"/>
      <use xlink:href="#DejaVuSans-33" transform="translate(725.859375 39.046875) scale(0.7)"/>
      <use xlink:href="#DejaVuSerif-29" transform="translate(773.129883 0.765625)"/>
     </g>
    </g>
   </g>
   <g id="matplotlib.axis_2">
    <g id="ytick_1">
     <g id="line2d_17">
      <defs>
       <path id="mde1ce70217" d="M 0 0 
L 6 0 
" style="stroke: #000000"/>
      </defs>
      <g>
       <use xlink:href="#mde1ce70217" x="100.83" y="349.942244" style="stroke: #000000"/>
      </g>
     </g>
     <g id="line2d_18">
      <defs>
       <path id="m69561bc6db" d="M 0 0 
L -6 0 
" style="stroke: #000000"/>
      </defs>
      <g>
       <use xlink:href="#m69561bc6db" x="709.2" y="349.942244" style="stroke: #000000"/>
      </g>
     </g>
     <g id="text_10">
      <!-- 0.00 -->
      <g transform="translate(39.439375 359.820212) scale(0.26 -0.26)">
       <defs>
        <path id="DejaVuSerif-2e" d="M 603 325 
Q 603 500 722 622 
Q 841 744 1019 744 
Q 1191 744 1312 622 
Q 1434 500 1434 325 
Q 1434 153 1312 31 
Q 1191 -91 1019 -91 
Q 841 -91 722 29 
Q 603 150 603 325 
z
" transform="scale(0.015625)"/>
       </defs>
       <use xlink:href="#DejaVuSerif-30"/>
       <use xlink:href="#DejaVuSerif-2e" x="63.623047"/>
       <use xlink:href="#DejaVuSerif-30" x="95.410156"/>
       <use xlink:href="#DejaVuSerif-30" x="159.033203"/>
      </g>
     </g>
    </g>
    <g id="ytick_2">
     <g id="line2d_19">
      <g>
       <use xlink:href="#mde1ce70217" x="100.83" y="291.5986" style="stroke: #000000"/>
      </g>
     </g>
     <g id="line2d_20">
      <g>
       <use xlink:href="#m69561bc6db" x="709.2" y="291.5986" style="stroke: #000000"/>
      </g>
     </g>
     <g id="text_11">
      <!-- 0.01 -->
      <g transform="translate(39.439375 301.476569) scale(0.26 -0.26)">
       <use xlink:href="#DejaVuSerif-30"/>
       <use xlink:href="#DejaVuSerif-2e" x="63.623047"/>
       <use xlink:href="#DejaVuSerif-30" x="95.410156"/>
       <use xlink:href="#DejaVuSerif-31" x="159.033203"/>
      </g>
     </g>
    </g>
    <g id="ytick_3">
     <g id="line2d_21">
      <g>
       <use xlink:href="#mde1ce70217" x="100.83" y="233.254956" style="stroke: #000000"/>
      </g>
     </g>
     <g id="line2d_22">
      <g>
       <use xlink:href="#m69561bc6db" x="709.2" y="233.254956" style="stroke: #000000"/>
      </g>
     </g>
     <g id="text_12">
      <!-- 0.02 -->
      <g transform="translate(39.439375 243.132925) scale(0.26 -0.26)">
       <use xlink:href="#DejaVuSerif-30"/>
       <use xlink:href="#DejaVuSerif-2e" x="63.623047"/>
       <use xlink:href="#DejaVuSerif-30" x="95.410156"/>
       <use xlink:href="#DejaVuSerif-32" x="159.033203"/>
      </g>
     </g>
    </g>
    <g id="ytick_4">
     <g id="line2d_23">
      <g>
       <use xlink:href="#mde1ce70217" x="100.83" y="174.911312" style="stroke: #000000"/>
      </g>
     </g>
     <g id="line2d_24">
      <g>
       <use xlink:href="#m69561bc6db" x="709.2" y="174.911312" style="stroke: #000000"/>
      </g>
     </g>
     <g id="text_13">
      <!-- 0.03 -->
      <g transform="translate(39.439375 184.789281) scale(0.26 -0.26)">
       <use xlink:href="#DejaVuSerif-30"/>
       <use xlink:href="#DejaVuSerif-2e" x="63.623047"/>
       <use xlink:href="#DejaVuSerif-30" x="95.410156"/>
       <use xlink:href="#DejaVuSerif-33" x="159.033203"/>
      </g>
     </g>
    </g>
    <g id="ytick_5">
     <g id="line2d_25">
      <g>
       <use xlink:href="#mde1ce70217" x="100.83" y="116.567669" style="stroke: #000000"/>
      </g>
     </g>
     <g id="line2d_26">
      <g>
       <use xlink:href="#m69561bc6db" x="709.2" y="116.567669" style="stroke: #000000"/>
      </g>
     </g>
     <g id="text_14">
      <!-- 0.04 -->
      <g transform="translate(39.439375 126.445638) scale(0.26 -0.26)">
       <defs>
        <path id="DejaVuSerif-34" d="M 2234 1581 
L 2234 4063 
L 641 1581 
L 2234 1581 
z
M 3609 0 
L 1484 0 
L 1484 331 
L 2234 331 
L 2234 1247 
L 197 1247 
L 197 1588 
L 2241 4750 
L 2859 4750 
L 2859 1581 
L 3750 1581 
L 3750 1247 
L 2859 1247 
L 2859 331 
L 3609 331 
L 3609 0 
z
" transform="scale(0.015625)"/>
       </defs>
       <use xlink:href="#DejaVuSerif-30"/>
       <use xlink:href="#DejaVuSerif-2e" x="63.623047"/>
       <use xlink:href="#DejaVuSerif-30" x="95.410156"/>
       <use xlink:href="#DejaVuSerif-34" x="159.033203"/>
      </g>
     </g>
    </g>
    <g id="ytick_6">
     <g id="line2d_27">
      <g>
       <use xlink:href="#mde1ce70217" x="100.83" y="58.224025" style="stroke: #000000"/>
      </g>
     </g>
     <g id="line2d_28">
      <g>
       <use xlink:href="#m69561bc6db" x="709.2" y="58.224025" style="stroke: #000000"/>
      </g>
     </g>
     <g id="text_15">
      <!-- 0.05 -->
      <g transform="translate(39.439375 68.101994) scale(0.26 -0.26)">
       <use xlink:href="#DejaVuSerif-30"/>
       <use xlink:href="#DejaVuSerif-2e" x="63.623047"/>
       <use xlink:href="#DejaVuSerif-30" x="95.410156"/>
       <use xlink:href="#DejaVuSerif-35" x="159.033203"/>
      </g>
     </g>
    </g>
    <g id="text_16">
     <!-- Loss -->
     <g transform="translate(30.032188 214.944719) rotate(-90) scale(0.26 -0.26)">
      <defs>
       <path id="DejaVuSerif-4c" d="M 353 0 
L 353 331 
L 947 331 
L 947 4331 
L 353 4331 
L 353 4666 
L 2175 4666 
L 2175 4331 
L 1581 4331 
L 1581 384 
L 3713 384 
L 3713 1166 
L 4097 1166 
L 4097 0 
L 353 0 
z
" transform="scale(0.015625)"/>
       <path id="DejaVuSerif-73" d="M 359 184 
L 359 959 
L 691 959 
Q 703 588 923 403 
Q 1144 219 1575 219 
Q 1963 219 2166 364 
Q 2369 509 2369 788 
Q 2369 1006 2220 1140 
Q 2072 1275 1594 1428 
L 1178 1569 
Q 750 1706 558 1912 
Q 366 2119 366 2438 
Q 366 2894 700 3153 
Q 1034 3413 1625 3413 
Q 1888 3413 2178 3344 
Q 2469 3275 2778 3144 
L 2778 2419 
L 2447 2419 
Q 2434 2741 2221 2922 
Q 2009 3103 1644 3103 
Q 1281 3103 1095 2975 
Q 909 2847 909 2591 
Q 909 2381 1050 2254 
Q 1191 2128 1613 1997 
L 2069 1856 
Q 2541 1709 2748 1489 
Q 2956 1269 2956 922 
Q 2956 450 2595 179 
Q 2234 -91 1600 -91 
Q 1278 -91 972 -22 
Q 666 47 359 184 
z
" transform="scale(0.015625)"/>
      </defs>
      <use xlink:href="#DejaVuSerif-4c"/>
      <use xlink:href="#DejaVuSerif-6f" x="66.40625"/>
      <use xlink:href="#DejaVuSerif-73" x="126.611328"/>
      <use xlink:href="#DejaVuSerif-73" x="177.929688"/>
     </g>
    </g>
   </g>
   <g id="line2d_29">
    <path d="M 128.483182 243.346054 
L 129.16657 268.081611 
L 129.824648 270.835132 
L 130.406793 272.73494 
L 132.026677 283.167184 
L 132.254473 276.317264 
L 133.823735 292.101575 
L 133.950288 285.4758 
L 134.481813 291.383281 
L 135.823279 299.637218 
L 135.8739 299.224802 
L 136.076385 295.850555 
L 136.810395 299.024001 
L 137.316609 303.196124 
L 138.683385 306.219103 
L 139.670502 303.074398 
L 140.024851 308.683565 
L 141.594113 309.36021 
L 142.277502 310.791831 
L 142.682472 307.83392 
L 142.859647 313.41547 
L 142.884958 309.572905 
L 144.07456 312.432983 
L 144.403599 312.136747 
L 144.757948 309.189044 
L 145.011055 314.627614 
L 146.099414 313.540241 
L 146.301899 312.809436 
L 147.390259 316.961394 
L 147.542123 314.975408 
L 147.896472 317.033646 
L 147.947094 314.982238 
L 148.326754 314.570737 
L 148.478618 313.966597 
L 149.187317 317.534449 
L 151.946181 318.523334 
L 152.604258 319.999563 
L 152.629569 319.723367 
L 153.464822 321.67266 
L 153.692618 322.245519 
L 154.932841 322.342224 
L 155.008773 321.23677 
L 155.692161 318.049173 
L 155.844025 318.599514 
L 155.970579 323.015218 
L 157.286734 323.929455 
L 157.413287 321.045315 
L 157.438598 321.054332 
L 157.89419 324.721777 
L 158.223229 324.127866 
L 159.514074 324.579757 
L 159.944355 320.278889 
L 161.336443 327.280981 
L 161.412375 324.099934 
L 161.766724 326.24075 
L 161.867967 324.996624 
L 163.082879 326.400259 
L 163.260054 323.402715 
L 164.120617 325.85121 
L 164.373724 327.804151 
L 165.133044 325.55251 
L 165.411462 327.865286 
L 165.765811 326.01384 
L 166.575753 326.383583 
L 167.309763 323.189495 
L 167.714734 328.236425 
L 168.119704 329.358942 
L 168.220947 324.566847 
L 168.651229 323.84892 
L 169.537102 327.730079 
L 170.600151 329.595423 
L 170.827947 329.083894 
L 171.283539 325.893112 
L 171.511335 326.417676 
L 171.865685 326.540165 
L 171.992238 330.572895 
L 173.105908 329.610867 
L 174.244889 330.599965 
L 174.700481 330.591009 
L 174.928277 331.039125 
L 175.257316 328.048445 
L 175.333248 329.826938 
L 175.535733 327.224236 
L 176.54816 327.695969 
L 176.978442 331.116802 
L 177.231549 330.817554 
L 177.307481 328.240992 
L 178.674257 329.906813 
L 178.977985 329.003681 
L 179.560131 329.504122 
L 180.597869 329.018406 
L 180.800354 327.809576 
L 180.901597 330.317812 
L 181.078772 329.657378 
L 182.420238 331.809745 
L 182.597412 329.048195 
L 183.382044 330.408946 
L 183.483286 332.067187 
L 183.685772 328.147903 
L 183.9895 331.550336 
L 184.495713 332.770124 
L 184.647577 329.743101 
L 185.153791 331.014092 
L 185.280344 328.580761 
L 186.723053 331.185792 
L 187.381131 330.622378 
L 187.608927 331.977221 
L 188.494801 331.474373 
L 188.520111 331.851547 
L 188.570733 334.319861 
L 189.684402 331.688786 
L 190.114684 331.818036 
L 190.165305 332.145099 
L 190.291859 333.737724 
L 190.924626 333.391056 
L 190.949936 331.788013 
L 191.203043 329.597494 
L 191.253665 331.293214 
L 191.380218 331.786695 
L 191.734567 334.270774 
L 192.114228 331.413719 
L 192.493888 332.957648 
L 192.645752 332.336542 
L 195.986761 329.413179 
L 196.442354 332.949997 
L 197.378849 331.025592 
L 197.733198 332.403673 
L 198.619072 331.749626 
L 201.327315 332.321314 
L 203.124373 334.531201 
L 203.326858 331.853419 
L 204.238043 333.865948 
L 204.921431 331.744652 
L 204.997363 333.67377 
L 206.465382 332.8744 
L 208.034644 332.306497 
L 208.895207 335.081866 
L 208.920518 333.835193 
L 209.781081 334.483834 
L 210.034188 329.905114 
L 210.135431 333.635923 
L 210.186052 332.103933 
L 210.211363 330.954763 
L 211.679382 330.276582 
L 212.691809 331.934275 
L 213.47644 333.549197 
L 214.159829 333.356179 
L 214.286382 334.467195 
L 214.843217 334.222639 
L 215.32412 332.797196 
L 215.70378 332.895909 
L 216.108751 332.738928 
L 219.146032 332.992999 
L 219.601624 334.129631 
L 219.652246 333.308157 
L 220.56343 334.656893 
L 220.91778 334.376861 
L 222.335178 334.989798 
L 222.43642 332.069992 
L 222.714838 334.312654 
L 224.030993 334.306661 
L 224.562517 333.234558 
L 224.689071 333.811282 
L 224.739692 330.666249 
L 224.992799 333.904303 
L 225.828051 333.2228 
L 226.13178 333.209287 
L 227.447935 334.672938 
L 228.156634 332.666532 
L 228.865333 336.12977 
L 229.827139 331.962132 
L 230.105556 334.687442 
L 230.181488 331.553643 
L 231.624197 333.354123 
L 231.75075 335.470372 
L 232.029168 334.28198 
L 233.876847 326.952467 
L 234.180575 333.998534 
L 234.231197 323.459431 
L 234.383061 335.560498 
L 235.142381 334.197372 
L 235.218313 334.620301 
L 235.927012 333.268586 
L 236.002944 334.0584 
L 236.96475 335.641263 
L 237.293789 332.721138 
L 237.34441 334.966813 
L 239.394575 336.372146 
L 240.229827 335.028654 
L 241.723158 336.073244 
L 242.153439 337.382307 
L 242.684963 332.500896 
L 243.899876 335.68906 
L 243.975808 334.5241 
L 245.16541 334.311633 
L 246.076594 333.62774 
L 246.177837 335.699624 
L 246.380322 334.344834 
L 247.316817 335.727145 
L 247.443371 333.182916 
L 248.253313 329.499859 
L 248.455798 334.873858 
L 249.215118 334.237588 
L 249.518847 333.242665 
L 249.569468 333.90128 
L 250.531274 336.986916 
L 250.835002 330.161688 
L 251.89805 335.173047 
L 253.619176 334.747412 
L 253.846973 335.321712 
L 253.922905 335.976238 
L 255.846516 335.764143 
L 255.897137 336.17019 
L 255.922448 334.748521 
L 257.263914 334.904425 
L 257.972613 333.488445 
L 259.643118 335.940461 
L 260.630234 334.990053 
L 262.908195 335.716284 
L 263.313166 332.901432 
L 263.667516 337.22317 
L 265.211467 337.297186 
L 265.768302 334.033248 
L 267.615982 335.471925 
L 267.666603 336.547862 
L 268.476545 335.207418 
L 269.084001 335.334438 
L 269.438351 335.048744 
L 270.52671 335.419927 
L 271.28603 335.427084 
L 271.387273 334.895498 
L 271.766933 336.689469 
L 272.804671 334.674268 
L 272.880603 332.561276 
L 274.222069 337.564039 
L 275.03201 335.95409 
L 275.462292 333.659969 
L 275.538224 336.447187 
L 276.398787 335.105415 
L 276.449408 337.25384 
L 276.626583 335.405515 
L 278.069292 337.191947 
L 278.676748 329.923519 
L 278.955166 336.81091 
L 279.638554 336.509314 
L 280.144768 335.60892 
L 280.271321 333.575162 
L 280.777534 335.905656 
L 281.865894 335.516071 
L 282.954253 336.148931 
L 283.20736 335.020583 
L 284.472894 336.886743 
L 284.953796 331.859076 
L 285.282835 333.077944 
L 285.434699 335.334102 
L 285.763738 334.773869 
L 287.206447 332.940031 
L 287.788592 336.340916 
L 287.915146 333.04076 
L 288.522602 335.145032 
L 289.079437 332.944242 
L 289.408476 335.29999 
L 290.015932 332.359611 
L 292.445757 335.854951 
L 292.547 331.588849 
L 293.053214 334.336124 
L 294.41999 336.509481 
L 294.673097 336.298155 
L 295.154 334.323818 
L 296.520777 338.447218 
L 296.748573 335.504894 
L 297.052301 335.351671 
L 297.128233 336.318156 
L 297.507893 337.527278 
L 297.583825 335.434778 
L 297.887553 335.530984 
L 298.570941 334.397674 
L 298.672184 336.347867 
L 298.950602 335.81017 
L 300.950145 335.408511 
L 301.304495 336.645337 
L 301.50698 334.964075 
L 301.88664 336.138676 
L 303.531834 335.054602 
L 304.341776 335.152946 
L 304.999854 333.36972 
L 305.556689 334.928428 
L 307.885271 333.90233 
L 308.087757 334.121874 
L 308.669902 334.197738 
L 309.125494 337.514548 
L 310.669446 335.93554 
L 311.454077 335.559624 
L 312.795543 337.52359 
L 313.07396 336.277448 
L 313.529552 336.983169 
L 313.80797 335.697659 
L 314.288873 338.632688 
L 314.871018 335.975377 
L 315.351921 336.552903 
L 316.339038 337.399423 
L 316.41497 337.092699 
L 316.592145 337.928358 
L 316.845251 332.085126 
L 316.921183 336.232726 
L 317.300844 337.365191 
L 318.616999 334.510408 
L 320.616542 336.262844 
L 321.502416 334.51164 
L 322.312358 337.971344 
L 322.590775 336.654409 
L 322.742639 338.268953 
L 323.375406 338.616251 
L 323.628513 337.37785 
L 324.084105 338.098511 
L 324.944668 333.424577 
L 325.400261 336.809318 
L 326.286134 335.392711 
L 326.412688 336.115973 
L 327.956639 334.441174 
L 327.98195 337.86032 
L 328.791892 335.68669 
L 330.285222 338.821534 
L 331.171095 336.761049 
L 331.449513 337.681471 
L 331.753241 336.796819 
L 332.183523 336.251267 
L 335.06894 334.299347 
L 335.170183 335.356261 
L 335.524532 336.901198 
L 335.954814 337.171436 
L 336.106678 335.444265 
L 337.169726 338.130342 
L 337.574697 335.026404 
L 337.853115 337.669567 
L 338.78961 336.010967 
L 338.916163 336.561405 
L 338.966784 333.616147 
L 339.118648 337.036212 
L 339.700794 335.539408 
L 339.827347 338.439179 
L 340.055144 331.862713 
L 342.333105 336.956856 
L 342.409037 336.023788 
L 343.117736 335.802 
L 343.244289 333.971914 
L 343.370842 336.122773 
L 344.838862 336.236694 
L 345.496939 337.553567 
L 345.724736 335.302413 
L 346.813095 336.92777 
L 347.774901 335.405233 
L 347.977386 333.376344 
L 348.103939 333.724387 
L 350.103483 335.442989 
L 350.786871 337.150007 
L 351.242463 336.588705 
L 351.318396 335.669565 
L 351.84992 336.98107 
L 352.128337 336.281314 
L 352.735794 337.191363 
L 352.912968 334.922279 
L 353.34325 335.482333 
L 353.393871 337.074412 
L 353.469803 334.640804 
L 354.001327 334.547886 
L 354.178502 335.089044 
L 354.760648 335.643116 
L 355.190929 332.725737 
L 355.798386 339.054841 
L 356.051492 335.385271 
L 356.532395 336.194981 
L 357.215784 334.339482 
L 357.418269 336.024418 
L 357.949793 337.494774 
L 359.746851 336.376497 
L 361.54391 337.519646 
L 362.404473 333.48138 
L 362.935997 337.49941 
L 363.594075 336.768185 
L 363.821871 335.535029 
L 364.631812 336.79005 
L 365.163337 337.016674 
L 366.251696 336.339622 
L 366.327628 335.499067 
L 366.833841 335.336721 
L 367.011016 334.026256 
L 367.669094 337.179377 
L 369.440841 335.686196 
L 369.668637 333.643334 
L 369.845812 336.930204 
L 370.174851 337.576458 
L 370.731686 335.254433 
L 371.010103 335.859342 
L 371.693492 337.844865 
L 372.300948 338.286855 
L 372.452812 335.830317 
L 373.034958 336.300554 
L 373.49055 335.972489 
L 375.262297 336.975685 
L 376.375967 338.0315 
L 377.084666 335.530178 
L 377.160598 339.019517 
L 378.173025 334.234771 
L 378.780482 337.556957 
L 380.425676 338.822247 
L 382.399909 336.349742 
L 382.526462 337.642863 
L 382.602394 337.310906 
L 382.956744 337.257115 
L 383.260472 338.592012 
L 383.994481 337.622731 
L 384.374142 334.483163 
L 384.779113 336.842269 
L 385.386569 337.098358 
L 385.81685 336.67138 
L 387.613909 338.602497 
L 388.120122 339.353795 
L 388.297297 334.963759 
L 388.42385 338.830822 
L 391.157404 339.401977 
L 391.233336 334.071505 
L 391.891413 339.856362 
L 392.979772 338.239983 
L 393.25819 335.778428 
L 393.511297 336.94807 
L 393.612539 338.06875 
L 394.346549 336.939063 
L 394.574345 338.009023 
L 395.156491 338.381521 
L 395.181801 338.335306 
L 395.48553 338.93381 
L 396.270161 337.490581 
L 396.497957 337.587757 
L 396.928238 339.219275 
L 397.054792 337.343764 
L 397.282588 339.719439 
L 397.485073 336.590382 
L 397.687559 339.096177 
L 398.11784 337.423281 
L 398.87716 335.375172 
L 399.130267 338.469788 
L 400.066762 339.679259 
L 400.294558 338.782038 
L 400.319869 337.010956 
L 400.876704 339.585494 
L 401.053879 334.893315 
L 401.762578 336.934996 
L 402.015685 337.313195 
L 402.142238 338.993715 
L 402.648452 339.385271 
L 403.002801 338.594495 
L 403.964607 337.430643 
L 404.040539 339.598219 
L 404.901102 337.74041 
L 405.002345 336.83496 
L 405.58449 339.417191 
L 405.736354 339.552715 
L 405.786976 340.395497 
L 406.951267 338.371306 
L 407.001888 339.74806 
L 407.280306 336.131524 
L 407.406859 338.884011 
L 407.761209 339.350324 
L 407.989005 338.439573 
L 408.393976 338.675834 
L 409.026743 336.811126 
L 409.507645 339.452191 
L 409.735442 337.729082 
L 410.191034 339.517412 
L 410.874422 337.80279 
L 411.456568 339.102089 
L 411.507189 336.848264 
L 411.5325 339.350872 
L 413.02583 338.294759 
L 413.101762 336.31663 
L 413.329558 338.992523 
L 414.291364 339.613572 
L 415.582208 336.882809 
L 417.961412 338.590008 
L 418.391694 333.64988 
L 418.897907 339.403872 
L 419.606606 336.867968 
L 419.682538 339.232218 
L 419.910334 339.366731 
L 420.340616 338.828204 
L 420.770897 339.554526 
L 421.555528 337.067703 
L 422.542645 337.800099 
L 422.846373 336.915321 
L 423.150101 341.093372 
L 423.428519 335.131623 
L 423.782868 337.94049 
L 423.833489 339.780557 
L 424.744674 338.727914 
L 425.655858 339.441902 
L 426.339247 336.905553 
L 426.718907 337.435608 
L 427.478227 339.697013 
L 428.085683 339.770034 
L 428.541276 337.639777 
L 429.376528 338.584441 
L 430.059916 338.701466 
L 430.439577 338.810961 
L 430.971101 338.517348 
L 431.097654 339.759716 
L 431.452004 339.4652 
L 431.831664 339.674001 
L 432.008839 338.92949 
L 432.489742 340.064836 
L 432.79347 335.9846 
L 435.248605 338.630482 
L 435.628266 338.863826 
L 435.906683 338.840838 
L 436.007926 337.571774 
L 436.412897 338.889542 
L 437.248149 340.204683 
L 437.475945 337.142924 
L 439.095829 339.800291 
L 439.171761 340.593349 
L 439.576732 339.840778 
L 441.778761 339.950547 
L 442.006557 339.656346 
L 442.791188 339.529029 
L 443.348023 340.84255 
L 443.904858 340.162751 
L 445.550052 337.762382 
L 445.752537 340.572523 
L 446.840896 339.868927 
L 447.574906 340.162445 
L 448.739197 339.356938 
L 449.447896 337.052588 
L 450.941226 337.881331 
L 451.346197 336.456542 
L 452.130828 337.504295 
L 452.864838 333.95935 
L 453.624158 339.465446 
L 453.953197 337.274525 
L 454.4341 336.464125 
L 455.497148 340.135585 
L 455.522459 339.205009 
L 456.028673 335.745817 
L 457.496692 340.431602 
L 457.926973 338.748126 
L 458.610362 341.109023 
L 458.635672 337.53053 
L 458.838158 338.946389 
L 459.141886 338.928075 
L 459.445614 339.256556 
L 459.825274 337.336042 
L 459.926517 339.950523 
L 460.356799 338.629267 
L 461.267983 338.577577 
L 461.647643 339.241071 
L 461.90075 338.148572 
L 461.976682 340.064313 
L 462.28041 340.031631 
L 462.406964 338.880493 
L 463.115663 339.024007 
L 463.77374 339.035838 
L 464.608993 338.586627 
L 464.988653 340.055352 
L 465.899837 339.746385 
L 467.241303 338.89075 
L 467.342546 339.586644 
L 467.848759 337.911076 
L 469.088983 340.579797 
L 469.822992 338.972344 
L 470.886041 338.896669 
L 472.176885 340.15432 
L 472.556546 338.727291 
L 472.759031 337.244926 
L 472.910895 339.052985 
L 474.176429 339.541742 
L 474.252361 337.245869 
L 474.328293 339.528696 
L 474.657332 340.325373 
L 475.34072 339.208227 
L 475.973487 338.777327 
L 476.150662 337.700952 
L 476.707497 337.664655 
L 477.56806 338.055989 
L 478.453934 340.192817 
L 479.036079 338.551871 
L 479.112011 339.269147 
L 479.44105 338.149162 
L 480.782516 339.604223 
L 480.807827 340.665206 
L 481.28873 338.523645 
L 481.364662 339.193621 
L 481.592458 336.847468 
L 481.769633 339.994121 
L 482.275846 340.420686 
L 482.326468 339.033114 
L 484.401943 338.924424 
L 484.553807 338.032667 
L 486.452108 340.34473 
L 487.970749 333.177272 
L 488.122613 340.291655 
L 488.704759 337.865683 
L 489.641254 339.618443 
L 489.666564 340.057621 
L 489.818428 338.378682 
L 490.046224 337.632353 
L 490.476506 338.247107 
L 490.780234 340.467243 
L 490.932098 338.626718 
L 491.438312 339.776767 
L 492.425428 337.176034 
L 493.690962 337.09019 
L 494.298418 338.798654 
L 494.880564 338.768742 
L 495.791749 338.939801 
L 496.399205 336.673368 
L 496.475137 338.86329 
L 498.373438 339.30038 
L 498.525302 340.269289 
L 499.284622 340.604568 
L 499.512418 338.923546 
L 499.765525 341.403816 
L 501.258855 338.537067 
L 502.094107 340.308879 
L 502.321904 336.353806 
L 502.423146 339.270313 
L 502.853428 338.319123 
L 503.005292 337.408669 
L 503.106535 338.067458 
L 503.789923 340.662927 
L 504.954214 340.010999 
L 505.764156 335.739373 
L 505.814777 339.376299 
L 506.422233 341.006902 
L 508.371156 340.797268 
L 509.965728 341.25383 
L 511.028777 339.113861 
L 511.13002 340.093533 
L 512.24369 337.593829 
L 512.724592 338.286586 
L 513.661088 340.504814 
L 514.420408 341.24466 
L 514.597583 337.456216 
L 514.850689 339.181308 
L 515.888427 339.597426 
L 516.318709 339.049634 
L 516.470573 340.466896 
L 516.647748 338.308991 
L 517.83735 337.704086 
L 517.963903 336.845383 
L 518.368874 338.552458 
L 518.520738 337.358803 
L 518.773845 339.779397 
L 519.229437 338.791857 
L 519.659718 339.764655 
L 519.71034 340.385654 
L 521.304912 340.73665 
L 522.494514 339.22429 
L 522.798242 340.352374 
L 523.07666 339.02893 
L 524.696543 338.341426 
L 525.481174 340.239193 
L 526.41767 337.425026 
L 527.025126 338.410583 
L 527.252922 340.526523 
L 527.404786 339.358218 
L 527.784446 339.228527 
L 528.569077 339.947156 
L 528.645009 337.683905 
L 529.606815 339.990506 
L 532.466922 338.339438 
L 532.821271 340.930036 
L 533.428727 336.795644 
L 533.454038 340.631071 
L 535.099232 338.833656 
L 535.40296 337.024584 
L 535.934485 339.799002 
L 537.427815 339.880526 
L 537.756854 340.500068 
L 538.111203 338.639273 
L 539.300805 339.299409 
L 541.123174 340.018784 
L 541.680009 337.927775 
L 541.781251 340.347194 
L 541.857183 339.961786 
L 542.11029 339.232249 
L 542.616504 340.458504 
L 543.274581 339.004829 
L 544.135144 340.308611 
L 544.362941 340.132597 
L 545.780339 339.388638 
L 547.147115 339.007869 
L 547.805193 339.237852 
L 547.931746 338.767579 
L 548.43796 334.852265 
L 549.830047 339.753893 
L 550.639989 340.645121 
L 551.880212 340.082677 
L 552.386426 339.598824 
L 553.196367 340.373042 
L 553.449474 339.123505 
L 553.474785 339.473334 
L 554.107552 337.792622 
L 554.335348 339.277263 
L 555.752746 338.358456 
L 556.385513 340.811882 
L 558.283814 338.892064 
L 559.979629 340.998083 
L 561.624823 337.465229 
L 561.650134 339.221974 
L 563.168775 340.033676 
L 563.295328 341.119812 
L 564.358377 337.749631 
L 564.560862 340.124047 
L 564.915212 339.623531 
L 565.193629 341.164973 
L 565.649221 340.027389 
L 565.699843 340.312394 
L 566.281988 339.98972 
L 566.307299 339.182743 
L 566.33261 340.609595 
L 566.889444 338.892802 
L 567.775318 339.306819 
L 568.2056 338.232411 
L 568.534639 339.366479 
L 568.559949 332.569364 
L 569.091474 339.837548 
L 569.34458 339.022793 
L 569.547066 340.996467 
L 569.800173 341.38872 
L 571.242881 340.751515 
L 571.344124 340.922202 
L 572.407172 339.247848 
L 572.559036 336.881858 
L 573.141182 338.819123 
L 573.343668 340.915433 
L 573.44491 339.607698 
L 574.077677 340.489038 
L 574.330784 341.522326 
L 574.432027 339.958083 
L 575.191347 339.496656 
L 576.102531 339.213818 
L 576.305017 336.39227 
L 576.583434 340.019672 
L 577.823658 337.597235 
L 577.848968 339.846372 
L 577.975522 340.598204 
L 578.65891 340.551489 
L 579.620716 338.77897 
L 582.430201 337.28348 
L 582.657997 339.469793 
L 583.062968 338.455585 
L 583.1389 341.021638 
L 583.366696 338.26681 
L 584.075395 340.888348 
L 584.935958 338.972907 
L 584.961269 341.178208 
L 585.189065 340.880314 
L 585.264997 339.715747 
L 586.252114 339.398068 
L 586.884881 338.501108 
L 587.264541 335.828892 
L 587.315162 339.897613 
L 587.517647 338.443442 
L 587.922618 337.735537 
L 588.428832 339.645257 
L 589.036288 340.869366 
L 589.593123 340.165361 
L 590.301822 339.000912 
L 590.60555 339.421643 
L 591.668599 333.444354 
L 591.744531 339.488352 
L 592.782269 341.236646 
L 592.984754 331.352714 
L 595.034919 339.602858 
L 595.06023 340.845347 
L 597.262259 336.978805 
L 597.464744 341.094603 
L 598.578414 336.862057 
L 598.603725 338.911363 
L 599.894569 338.460349 
L 600.122365 337.825611 
L 601.41321 340.132411 
L 601.666317 341.485487 
L 601.843492 337.045478 
L 602.577501 337.522434 
L 603.513996 341.43535 
L 603.944278 340.285352 
L 605.007326 340.879926 
L 606.222239 337.097751 
L 607.234666 339.365273 
L 607.867433 338.996195 
L 608.474889 339.096389 
L 608.601443 340.317713 
L 609.057035 339.012698 
L 609.183588 340.776296 
L 609.310142 340.144086 
L 609.61387 340.346598 
L 610.145394 337.477357 
L 611.334996 339.312435 
L 611.86652 339.819811 
L 612.803015 340.105961 
L 613.207986 339.176366 
L 614.068549 340.308461 
L 614.346967 336.466575 
L 614.676006 338.95248 
L 615.789675 340.367284 
L 615.890918 340.598193 
L 616.523685 340.319498 
L 617.181763 338.441098 
L 619.30786 341.314502 
L 620.699947 339.224778 
L 621.206161 341.0651 
L 621.585821 340.305305 
L 621.661753 340.381829 
L 621.712374 339.45838 
L 622.218588 341.68215 
L 622.370452 340.555343 
L 622.952597 338.311974 
L 623.585364 339.656097 
L 623.635986 339.51563 
L 623.965025 338.849155 
L 624.977452 340.855716 
L 625.129316 339.659752 
L 625.483665 340.329491 
L 625.762083 339.605839 
L 625.989879 340.548461 
L 626.091122 338.555691 
L 627.15417 337.943766 
L 627.432588 341.81185 
L 627.559141 337.822163 
L 627.584452 340.223239 
L 628.596879 340.222644 
L 629.077782 341.065446 
L 629.76117 339.99758 
L 630.343316 339.709657 
L 632.115063 339.171822 
L 632.36817 340.612025 
L 632.671898 337.973518 
L 633.102179 336.493624 
L 633.709636 341.423143 
L 633.937432 339.71589 
L 634.114607 341.165623 
L 635.127034 339.422959 
L 635.456073 341.571514 
L 635.73449 338.627695 
L 635.810422 339.492482 
L 637.734034 339.214335 
L 637.809966 336.575412 
L 638.873014 339.87867 
L 638.948946 336.651267 
L 640.290412 339.795201 
L 640.416966 337.7788 
L 640.492898 340.527874 
L 640.619451 337.919168 
L 641.657189 340.826092 
L 642.036849 341.17865 
L 642.416509 339.752529 
L 642.694927 339.596584 
L 643.17583 341.268102 
L 643.682043 339.467935 
L 643.93515 333.500574 
L 644.31481 340.855042 
L 645.327237 335.261384 
L 645.377859 340.486992 
L 645.934694 339.884805 
L 646.516839 340.408864 
L 647.554577 340.906314 
L 647.883616 339.747177 
L 647.908926 338.816914 
L 648.162033 339.668535 
L 648.389829 340.965381 
L 648.465761 339.75929 
L 648.592315 338.880583 
L 648.870732 338.474851 
L 650.718412 340.255796 
L 651.654907 340.712943 
L 651.680218 339.970808 
L 652.110499 341.041549 
L 652.211742 338.267141 
L 653.148237 338.063465 
L 653.932868 338.689178 
L 653.958179 340.704915 
L 654.034111 340.170516 
L 654.059421 339.841928 
L 654.919984 338.945941 
L 655.046538 339.193829 
L 655.274334 339.093274 
L 655.400887 340.114959 
L 655.88179 337.503579 
L 656.717043 340.321645 
L 657.34981 336.772851 
L 658.260994 339.80076 
L 659.2228 340.244676 
L 660.235227 340.021557 
L 660.387091 338.336887 
L 660.463023 341.088734 
L 660.918615 337.311405 
L 661.247654 340.457423 
L 661.47545 338.55363 
L 661.576693 339.490064 
L 663.196576 339.956537 
L 664.84177 339.365006 
L 665.423916 339.95895 
L 665.828887 338.592108 
L 666.3351 340.646587 
L 667.550013 339.397187 
L 667.625945 338.288049 
L 667.752498 339.030423 
L 669.903906 340.509661 
L 671.802207 339.861185 
L 672.789323 338.769711 
L 672.814634 336.217109 
L 673.675197 339.291886 
L 674.409207 336.480137 
L 675.016663 340.983925 
L 675.548187 340.412327 
L 676.00378 339.339615 
L 676.358129 339.368255 
L 676.788411 336.436518 
L 677.117449 340.398371 
L 677.851459 340.435083 
L 677.87677 338.97069 
L 678.914508 340.366647 
L 679.521964 339.678263 
L 679.673828 338.938575 
L 680.180042 337.718755 
L 680.331906 339.83559 
L 680.86343 341.048872 
L 681.015294 339.438991 
L 681.546818 336.255101 
L 681.546818 336.255101 
" clip-path="url(#pac6b3d3967)" style="fill: none; stroke: #0000ff; stroke-width: 2; stroke-linecap: square"/>
   </g>
   <g id="line2d_30">
    <path d="M 128.483182 223.592613 
L 129.090638 249.504115 
L 129.16657 270.183112 
L 129.824648 119.920186 
L 130.406793 275.354667 
L 132.026677 26.649477 
L 132.254473 91.425363 
L 135.823279 231.924784 
L 135.8739 243.149149 
L 136.076385 179.569693 
L 137.316609 263.212153 
L 138.683385 293.178176 
L 139.670502 276.415695 
L 140.024851 243.194227 
L 142.277502 312.265664 
L 142.682472 275.126203 
L 142.884958 313.170012 
L 144.07456 306.066533 
L 144.757948 237.932006 
L 145.011055 314.60294 
L 146.099414 309.894834 
L 146.301899 290.501477 
L 147.390259 291.787536 
L 147.491501 295.305992 
L 147.542123 247.88489 
L 147.896472 311.112899 
L 147.947094 137.982245 
L 148.326754 316.470622 
L 148.478618 315.306305 
L 149.187317 320.481036 
L 151.946181 288.768705 
L 152.629569 322.356284 
L 152.781433 317.808002 
L 153.464822 323.962025 
L 153.692618 317.991323 
L 154.932841 324.642277 
L 155.008773 321.899844 
L 155.692161 324.494794 
L 155.844025 323.504689 
L 155.970579 270.503895 
L 157.286734 243.408129 
L 157.438598 323.106574 
L 157.89419 163.677117 
L 158.223229 321.431171 
L 159.514074 173.351069 
L 159.944355 325.220817 
L 161.336443 326.53042 
L 161.412375 318.892302 
L 161.766724 321.840911 
L 161.867967 323.898318 
L 163.082879 324.581097 
L 163.260054 324.144308 
L 163.816889 321.295606 
L 164.120617 330.368439 
L 164.373724 325.984096 
L 165.411462 327.130153 
L 165.765811 324.495932 
L 166.575753 328.21514 
L 167.309763 322.756936 
L 167.714734 328.086828 
L 168.119704 329.70117 
L 168.220947 327.492058 
L 168.651229 325.966086 
L 169.537102 331.534655 
L 170.600151 316.10772 
L 170.827947 325.074214 
L 171.283539 324.307373 
L 171.511335 326.126643 
L 171.916306 331.322214 
L 171.992238 322.636012 
L 173.105908 326.948204 
L 174.244889 329.917538 
L 174.928277 329.456336 
L 175.257316 330.117045 
L 175.333248 326.236004 
L 175.535733 330.286351 
L 176.54816 324.39542 
L 176.978442 330.761769 
L 177.231549 322.254139 
L 177.307481 326.959571 
L 178.674257 331.319203 
L 178.977985 331.413715 
L 179.560131 333.224068 
L 180.597869 305.431353 
L 180.800354 330.199047 
L 180.901597 325.498959 
L 181.078772 327.716878 
L 182.420238 330.190173 
L 182.597412 301.846045 
L 183.382044 334.551334 
L 183.483286 304.988429 
L 183.685772 332.524978 
L 183.9895 312.75241 
L 184.622267 333.520938 
L 184.647577 327.772953 
L 185.153791 332.989681 
L 185.280344 331.228553 
L 186.419325 334.044854 
L 186.723053 334.245247 
L 187.381131 330.060774 
L 187.608927 336.141931 
L 188.494801 335.140126 
L 188.570733 330.60549 
L 189.684402 334.886334 
L 190.114684 333.527275 
L 190.165305 333.715677 
L 190.291859 331.962114 
L 190.924626 331.289313 
L 190.949936 324.504838 
L 191.203043 329.562996 
L 191.253665 332.909728 
L 191.380218 329.498971 
L 191.734567 332.223588 
L 191.886432 327.418881 
L 192.114228 330.678818 
L 192.493888 333.919624 
L 192.645752 331.109898 
L 195.986761 287.9278 
L 196.442354 333.678119 
L 197.378849 331.392259 
L 197.733198 330.16395 
L 198.619072 322.563696 
L 201.327315 333.622881 
L 203.124373 335.43533 
L 203.326858 308.218684 
L 204.238043 331.303234 
L 204.921431 331.828866 
L 204.997363 332.670474 
L 206.465382 326.75692 
L 208.034644 333.778709 
L 208.895207 334.076694 
L 208.920518 332.824584 
L 209.781081 335.287204 
L 210.034188 335.056382 
L 210.135431 333.241608 
L 210.186052 334.340123 
L 210.211363 332.142574 
L 211.679382 334.646143 
L 212.691809 334.021343 
L 213.47644 333.343333 
L 214.159829 334.588163 
L 214.286382 335.430418 
L 214.843217 336.603811 
L 215.70378 333.882916 
L 216.108751 332.370568 
L 219.146032 336.191952 
L 219.601624 330.45044 
L 219.652246 335.683993 
L 220.56343 336.387602 
L 220.91778 333.06716 
L 222.335178 336.710001 
L 222.43642 335.11385 
L 222.714838 334.992645 
L 224.562517 337.733449 
L 224.689071 334.9253 
L 224.739692 335.153529 
L 224.992799 335.551539 
L 225.828051 335.893119 
L 226.13178 324.14461 
L 227.447935 335.029188 
L 228.156634 328.299847 
L 228.865333 335.34641 
L 229.827139 336.866677 
L 230.105556 335.074854 
L 230.181488 337.968663 
L 231.624197 334.985652 
L 231.75075 336.26756 
L 232.029168 335.495449 
L 233.876847 330.942997 
L 234.383061 336.772508 
L 235.015828 336.567837 
L 235.142381 337.572497 
L 235.218313 335.673669 
L 235.927012 336.3624 
L 236.002944 334.950201 
L 237.34441 337.088067 
L 239.394575 336.028765 
L 240.229827 336.871983 
L 241.723158 334.477204 
L 242.153439 337.008571 
L 242.684963 336.990159 
L 243.899876 337.201396 
L 243.975808 336.23225 
L 245.16541 334.978906 
L 246.076594 332.638074 
L 246.177837 336.553702 
L 246.380322 336.22493 
L 247.316817 336.013331 
L 247.443371 336.211043 
L 248.253313 337.845335 
L 248.455798 336.178534 
L 249.215118 335.355162 
L 249.518847 337.114488 
L 249.569468 336.712816 
L 250.531274 335.118133 
L 250.835002 336.149156 
L 251.89805 335.882741 
L 253.619176 335.725366 
L 253.846973 336.375519 
L 253.922905 335.734965 
L 255.846516 335.555355 
L 255.922448 338.101011 
L 257.263914 335.584128 
L 257.972613 335.37966 
L 259.643118 336.997106 
L 260.630234 336.947134 
L 262.908195 332.479664 
L 263.313166 334.872698 
L 263.667516 335.474642 
L 265.211467 329.541723 
L 265.768302 336.475511 
L 267.615982 337.24915 
L 267.666603 331.976852 
L 268.476545 336.814032 
L 269.084001 335.922451 
L 269.438351 338.599505 
L 271.28603 335.555021 
L 271.387273 337.222949 
L 271.766933 334.768032 
L 272.804671 331.31829 
L 272.880603 337.232258 
L 274.222069 335.999125 
L 275.03201 335.909665 
L 275.462292 338.459869 
L 275.538224 337.663491 
L 276.398787 334.159438 
L 276.449408 338.178881 
L 276.626583 338.954046 
L 277.537768 334.406532 
L 278.069292 337.640616 
L 278.676748 337.998304 
L 278.803302 337.229659 
L 278.955166 337.751121 
L 279.638554 338.947519 
L 280.144768 335.30231 
L 280.271321 337.524642 
L 280.650981 338.351037 
L 280.777534 317.655775 
L 281.865894 336.63755 
L 282.954253 337.391339 
L 283.20736 337.876018 
L 284.472894 338.565644 
L 284.953796 337.43936 
L 285.282835 335.329417 
L 285.434699 333.618937 
L 285.763738 336.953426 
L 287.206447 336.84742 
L 288.522602 336.161892 
L 289.408476 338.867148 
L 290.015932 336.327768 
L 292.445757 338.0829 
L 292.547 338.394666 
L 293.053214 335.657937 
L 294.41999 338.679315 
L 294.673097 334.933397 
L 295.154 336.733215 
L 296.520777 336.173713 
L 296.748573 327.926861 
L 297.128233 338.028307 
L 297.507893 335.743845 
L 297.583825 336.793582 
L 297.887553 338.242689 
L 298.570941 336.022287 
L 298.672184 337.041629 
L 298.950602 338.038557 
L 300.950145 335.18455 
L 301.50698 338.55256 
L 301.88664 337.822507 
L 303.531834 337.705944 
L 304.341776 336.922578 
L 304.999854 335.251057 
L 305.556689 336.702019 
L 307.885271 337.626505 
L 308.087757 336.845084 
L 308.669902 335.728149 
L 309.125494 337.077747 
L 310.669446 337.379584 
L 311.454077 338.106975 
L 312.795543 336.668525 
L 313.07396 339.083551 
L 313.782659 339.0164 
L 313.80797 336.702094 
L 314.288873 339.419966 
L 314.871018 336.318752 
L 315.351921 336.462529 
L 316.339038 337.369325 
L 316.41497 337.74148 
L 316.592145 339.508761 
L 316.845251 335.79974 
L 316.921183 338.143746 
L 317.300844 337.409279 
L 318.136096 337.275686 
L 318.616999 336.474653 
L 321.502416 335.748435 
L 321.932698 339.994791 
L 322.312358 338.288229 
L 322.590775 336.048685 
L 322.742639 336.861328 
L 323.375406 337.42344 
L 323.628513 338.536679 
L 324.084105 338.470068 
L 324.944668 338.062817 
L 325.147154 337.638251 
L 325.400261 332.768799 
L 326.286134 338.547376 
L 326.412688 337.900943 
L 327.956639 339.684173 
L 327.98195 338.183861 
L 328.791892 336.3316 
L 330.285222 333.497258 
L 331.449513 337.650546 
L 331.753241 336.808748 
L 332.183523 338.855903 
L 335.06894 340.21969 
L 335.170183 338.837717 
L 335.524532 336.71468 
L 335.954814 337.974211 
L 336.106678 337.419876 
L 337.169726 338.918711 
L 337.574697 339.005009 
L 337.853115 333.854496 
L 338.78961 336.023898 
L 338.916163 338.091608 
L 338.966784 337.585002 
L 339.700794 336.418997 
L 339.827347 338.206414 
L 340.055144 338.810281 
L 342.333105 338.651884 
L 342.409037 337.506777 
L 343.117736 335.958841 
L 343.244289 336.168081 
L 343.370842 335.919119 
L 344.838862 337.800953 
L 345.496939 338.859215 
L 345.724736 338.796313 
L 346.585299 339.026724 
L 346.813095 338.323163 
L 347.774901 337.980737 
L 347.977386 339.795405 
L 348.103939 334.661504 
L 350.103483 337.84676 
L 350.786871 336.609095 
L 351.242463 339.215127 
L 351.318396 338.330907 
L 351.84992 339.421223 
L 352.128337 338.789982 
L 352.735794 336.678731 
L 352.912968 337.642449 
L 353.34325 337.558891 
L 353.393871 338.54264 
L 353.469803 335.635682 
L 354.001327 338.340976 
L 354.178502 337.163023 
L 354.760648 337.078213 
L 355.190929 338.363535 
L 355.646522 337.372668 
L 355.798386 337.604326 
L 356.051492 339.247862 
L 356.532395 339.252154 
L 357.949793 337.83315 
L 359.746851 337.85235 
L 361.54391 339.309563 
L 361.721084 338.860067 
L 362.404473 338.16492 
L 362.935997 339.32736 
L 363.594075 338.039269 
L 363.821871 334.747911 
L 365.163337 338.780087 
L 366.251696 337.100085 
L 366.327628 339.438367 
L 366.833841 339.090497 
L 367.011016 337.250641 
L 367.669094 338.32883 
L 369.440841 338.748777 
L 369.668637 337.505759 
L 369.845812 337.408585 
L 370.174851 337.541528 
L 370.731686 338.297212 
L 371.010103 338.397111 
L 371.693492 338.118835 
L 372.300948 339.01818 
L 372.452812 339.56926 
L 373.034958 338.686582 
L 373.49055 338.420687 
L 375.262297 338.605543 
L 376.375967 338.15487 
L 377.084666 338.783194 
L 377.160598 338.52051 
L 378.173025 338.641793 
L 378.780482 339.312661 
L 380.425676 337.796827 
L 382.399909 336.53318 
L 382.602394 339.02911 
L 382.956744 338.99602 
L 383.260472 338.060766 
L 383.842617 340.192079 
L 383.994481 338.045167 
L 384.374142 339.598399 
L 384.779113 336.821278 
L 385.386569 338.514442 
L 385.81685 337.415526 
L 388.120122 341.381039 
L 388.297297 339.101535 
L 388.42385 339.99995 
L 391.157404 341.431761 
L 391.233336 338.784007 
L 391.891413 340.540053 
L 392.979772 340.87357 
L 393.25819 340.073159 
L 393.612539 341.252096 
L 394.346549 338.225182 
L 394.574345 340.183573 
L 395.156491 339.703524 
L 395.181801 340.074041 
L 395.48553 341.981466 
L 396.270161 339.049342 
L 396.928238 341.251873 
L 397.054792 339.750325 
L 397.485073 340.445927 
L 397.687559 340.352919 
L 398.11784 339.083194 
L 398.87716 341.438824 
L 399.130267 339.848254 
L 400.066762 339.962525 
L 400.319869 339.027134 
L 400.876704 341.472601 
L 401.053879 339.949106 
L 401.762578 340.537901 
L 402.015685 340.360776 
L 402.142238 341.02091 
L 402.420655 339.323006 
L 402.648452 340.430903 
L 403.002801 340.217503 
L 403.964607 338.978168 
L 404.040539 338.572411 
L 404.901102 339.48026 
L 405.002345 340.176093 
L 405.58449 340.213711 
L 405.736354 340.72069 
L 405.786976 339.98481 
L 406.799403 338.784098 
L 406.951267 339.449425 
L 407.001888 339.312686 
L 407.280306 339.611104 
L 407.406859 339.554875 
L 407.761209 341.518121 
L 407.989005 337.604903 
L 408.393976 340.864936 
L 409.026743 341.22391 
L 409.507645 341.070423 
L 409.735442 340.091727 
L 410.191034 341.308938 
L 410.874422 340.863076 
L 411.507189 338.342694 
L 411.5325 340.054802 
L 413.02583 339.959369 
L 413.101762 340.424374 
L 413.329558 340.689731 
L 414.291364 341.538728 
L 415.582208 341.87184 
L 417.050228 339.225045 
L 417.961412 342.017131 
L 418.391694 338.511729 
L 418.897907 339.027287 
L 419.606606 340.39046 
L 419.682538 341.422407 
L 419.910334 340.090008 
L 420.340616 340.541121 
L 420.543101 341.175889 
L 420.770897 339.53802 
L 421.555528 339.918591 
L 422.542645 340.81113 
L 422.846373 339.762657 
L 423.782868 342.448655 
L 423.833489 338.771888 
L 424.744674 339.986238 
L 425.655858 340.378801 
L 426.339247 340.470122 
L 426.718907 340.382127 
L 427.478227 339.700096 
L 428.541276 339.089818 
L 430.059916 341.081771 
L 430.388955 340.07326 
L 430.439577 338.954475 
L 430.971101 340.154039 
L 431.097654 341.411678 
L 431.452004 340.396271 
L 431.705111 341.675831 
L 431.831664 339.793114 
L 432.79347 339.453342 
L 435.248605 339.584119 
L 435.628266 341.118379 
L 436.007926 339.496655 
L 436.412897 341.067602 
L 437.248149 341.461663 
L 437.475945 340.904873 
L 439.095829 341.169883 
L 439.171761 340.4039 
L 439.576732 341.425242 
L 441.778761 340.011938 
L 442.006557 339.435278 
L 442.791188 340.004291 
L 443.348023 340.742794 
L 443.904858 340.5341 
L 445.550052 339.425436 
L 445.752537 340.163982 
L 446.840896 339.692493 
L 447.574906 340.748663 
L 448.739197 340.005242 
L 449.447896 340.998744 
L 450.941226 340.831421 
L 451.346197 340.364752 
L 452.130828 341.755498 
L 452.864838 340.296427 
L 453.497605 341.146542 
L 453.624158 337.375257 
L 453.953197 341.442001 
L 454.4341 341.211418 
L 455.497148 339.0438 
L 455.522459 339.556862 
L 456.028673 339.52317 
L 457.496692 339.606629 
L 457.926973 341.179111 
L 458.610362 341.836587 
L 458.635672 339.749205 
L 459.141886 342.200828 
L 459.445614 340.730233 
L 459.825274 340.585155 
L 459.926517 340.225045 
L 460.356799 340.661678 
L 461.267983 338.955011 
L 461.647643 339.835089 
L 461.90075 341.446093 
L 461.976682 341.070823 
L 462.28041 340.291055 
L 462.406964 338.544922 
L 463.115663 340.663584 
L 463.77374 341.731046 
L 464.608993 339.064738 
L 464.988653 340.576361 
L 465.899837 340.520872 
L 467.241303 341.411622 
L 467.342546 339.996492 
L 467.848759 339.208129 
L 469.088983 339.864445 
L 469.822992 341.819802 
L 470.886041 340.615503 
L 472.176885 340.132395 
L 472.759031 341.302149 
L 472.910895 341.221383 
L 474.176429 337.509518 
L 474.328293 341.185249 
L 475.34072 339.656802 
L 475.973487 340.970525 
L 476.150662 341.722735 
L 476.707497 340.031064 
L 477.56806 341.22013 
L 478.453934 341.545301 
L 479.036079 339.985036 
L 479.112011 339.115717 
L 479.44105 341.468059 
L 480.782516 340.376871 
L 480.807827 340.531633 
L 481.28873 341.432523 
L 481.364662 340.183528 
L 481.592458 339.839265 
L 481.617769 340.647497 
L 481.769633 341.312394 
L 482.275846 342.177202 
L 482.326468 338.899029 
L 484.401943 340.534237 
L 484.553807 341.392878 
L 486.452108 341.371702 
L 487.970749 340.490264 
L 488.122613 341.166753 
L 488.704759 341.758886 
L 489.641254 338.255119 
L 489.666564 339.436383 
L 489.818428 340.064947 
L 490.046224 340.189153 
L 490.476506 341.278979 
L 490.780234 338.929381 
L 490.932098 340.676279 
L 491.438312 339.839709 
L 493.690962 340.166844 
L 494.298418 342.864393 
L 494.880564 340.168049 
L 495.791749 339.535542 
L 496.399205 341.065303 
L 496.475137 339.424672 
L 498.373438 340.391308 
L 498.525302 338.875361 
L 499.284622 341.517044 
L 499.512418 340.373429 
L 499.765525 341.670997 
L 501.258855 340.658788 
L 502.094107 338.831321 
L 502.119418 340.509596 
L 502.321904 339.053463 
L 502.423146 339.755954 
L 502.853428 341.688437 
L 503.005292 341.183935 
L 503.106535 341.59222 
L 503.789923 342.62053 
L 504.473311 340.004558 
L 504.954214 339.745287 
L 505.789467 341.362733 
L 505.814777 341.143436 
L 506.422233 341.717884 
L 508.371156 340.693925 
L 509.965728 340.196381 
L 511.13002 340.055404 
L 512.24369 340.350309 
L 512.724592 342.072054 
L 513.661088 342.163262 
L 514.420408 338.543508 
L 514.597583 340.074215 
L 514.850689 340.011901 
L 515.888427 340.545135 
L 516.318709 340.468526 
L 516.470573 340.760621 
L 516.647748 341.536125 
L 517.83735 340.779359 
L 517.963903 341.779997 
L 518.368874 341.005824 
L 518.520738 339.898166 
L 518.773845 341.190818 
L 519.229437 338.923995 
L 519.71034 340.900052 
L 520.520281 342.300672 
L 521.304912 340.193741 
L 522.494514 340.202169 
L 522.798242 340.88004 
L 523.07666 340.32754 
L 524.696543 338.758467 
L 525.481174 340.665805 
L 526.41767 340.161891 
L 527.025126 340.374076 
L 527.252922 340.251918 
L 527.404786 341.677664 
L 527.784446 340.823823 
L 528.645009 340.993852 
L 529.606815 338.758955 
L 532.466922 340.046986 
L 532.669407 341.390667 
L 532.821271 340.629982 
L 533.428727 339.701175 
L 533.454038 341.705148 
L 534.415844 338.917339 
L 535.40296 341.942936 
L 535.934485 339.211757 
L 537.427815 340.013002 
L 537.756854 340.03028 
L 538.00996 341.73344 
L 538.111203 338.498534 
L 539.300805 338.382749 
L 541.123174 339.35279 
L 541.680009 340.224812 
L 541.781251 340.62672 
L 541.857183 340.251787 
L 542.11029 341.022808 
L 542.616504 340.581314 
L 544.135144 340.331224 
L 544.362941 340.119282 
L 545.780339 340.457809 
L 547.147115 341.023656 
L 547.805193 340.319876 
L 547.931746 340.478848 
L 548.43796 341.719654 
L 549.728804 340.703624 
L 549.830047 339.564799 
L 550.639989 340.613549 
L 551.880212 341.529083 
L 552.386426 339.953051 
L 553.196367 340.254984 
L 553.474785 341.278928 
L 554.335348 340.541991 
L 554.689697 342.174121 
L 555.752746 339.572324 
L 556.385513 341.40193 
L 559.979629 341.00521 
L 560.76426 339.8808 
L 561.624823 343.639023 
L 561.650134 342.405898 
L 562.206969 340.98565 
L 563.168775 341.87673 
L 563.421882 339.700948 
L 564.358377 341.417835 
L 564.560862 339.905418 
L 564.915212 338.811985 
L 565.193629 338.63882 
L 565.649221 340.702153 
L 565.699843 338.888551 
L 566.281988 341.76455 
L 566.33261 342.930702 
L 566.408542 339.047425 
L 566.889444 339.7129 
L 567.775318 341.943084 
L 568.2056 339.04787 
L 568.534639 341.141278 
L 568.559949 338.745714 
L 569.091474 340.627918 
L 569.34458 340.349123 
L 569.547066 341.88283 
L 569.800173 339.550485 
L 571.242881 340.695436 
L 571.344124 341.282085 
L 572.052823 338.840461 
L 572.407172 341.640803 
L 572.559036 339.34219 
L 572.913386 341.952185 
L 573.44491 340.223806 
L 574.077677 340.115176 
L 574.330784 340.826326 
L 574.432027 341.66108 
L 574.836998 338.527983 
L 575.191347 340.458649 
L 576.583434 340.788959 
L 577.823658 339.661772 
L 577.848968 339.953935 
L 577.975522 339.78421 
L 578.65891 342.011874 
L 579.620716 340.189034 
L 582.430201 340.340884 
L 582.657997 342.27066 
L 583.062968 341.168074 
L 583.1389 340.533702 
L 583.366696 340.366538 
L 584.075395 341.273061 
L 584.935958 341.896402 
L 584.961269 341.274543 
L 585.189065 340.889818 
L 585.264997 342.186257 
L 586.252114 339.797833 
L 586.884881 340.988859 
L 587.264541 341.386177 
L 587.315162 339.986597 
L 587.517647 340.906499 
L 587.922618 339.849766 
L 588.428832 339.667083 
L 589.036288 341.378214 
L 589.593123 341.673721 
L 590.301822 338.034878 
L 590.60555 341.063351 
L 591.668599 339.816395 
L 591.744531 340.191399 
L 592.782269 338.527261 
L 592.984754 341.008527 
L 595.034919 338.730918 
L 595.06023 339.020706 
L 597.262259 339.681842 
L 597.464744 340.233619 
L 598.578414 341.751475 
L 598.603725 339.635453 
L 599.894569 341.652559 
L 600.122365 340.384594 
L 601.41321 340.681497 
L 601.843492 340.425233 
L 602.577501 340.595831 
L 603.513996 340.639129 
L 603.944278 341.072549 
L 605.007326 339.028418 
L 606.222239 339.074747 
L 607.234666 338.306725 
L 607.867433 340.899308 
L 608.348336 341.481128 
L 608.474889 339.518627 
L 608.601443 341.625366 
L 609.057035 339.273485 
L 609.310142 340.909107 
L 609.61387 341.06442 
L 610.145394 340.843031 
L 611.334996 340.55626 
L 611.86652 339.810751 
L 612.803015 339.585568 
L 613.207986 341.368497 
L 614.068549 341.622862 
L 614.346967 339.737173 
L 614.676006 340.520728 
L 615.612501 339.383828 
L 615.789675 338.908636 
L 615.890918 341.593761 
L 616.523685 338.688731 
L 617.181763 341.506547 
L 619.231928 338.671666 
L 619.434413 342.620935 
L 620.699947 339.177674 
L 621.206161 341.463217 
L 621.585821 339.220391 
L 621.712374 340.567975 
L 622.218588 340.892666 
L 622.370452 341.236587 
L 622.952597 339.960088 
L 623.585364 340.442575 
L 623.635986 338.428619 
L 623.965025 340.251007 
L 624.977452 342.08329 
L 625.129316 339.179457 
L 625.483665 341.904596 
L 625.762083 341.45758 
L 626.091122 338.574278 
L 627.15417 341.023404 
L 627.331345 339.565292 
L 627.432588 340.788953 
L 627.559141 340.852733 
L 627.584452 341.645263 
L 628.596879 340.194467 
L 629.077782 341.634464 
L 629.76117 340.313672 
L 630.343316 341.851407 
L 632.115063 338.973981 
L 632.36817 341.642874 
L 632.671898 340.238459 
L 633.102179 339.54712 
L 633.50715 339.28545 
L 633.709636 340.684237 
L 633.937432 340.263119 
L 634.114607 339.483664 
L 635.127034 337.955263 
L 635.456073 339.307987 
L 635.73449 342.271621 
L 635.810422 340.641909 
L 637.734034 342.121256 
L 637.809966 339.603421 
L 638.873014 340.398888 
L 638.948946 342.02998 
L 639.733577 339.772914 
L 640.290412 339.673484 
L 640.492898 340.824897 
L 640.619451 338.604702 
L 641.657189 340.668835 
L 642.036849 340.906987 
L 642.644305 339.766414 
L 642.694927 341.98719 
L 643.17583 339.069759 
L 643.682043 342.409926 
L 644.289499 340.609248 
L 644.31481 340.981598 
L 645.327237 341.252322 
L 645.377859 338.26933 
L 645.934694 340.575731 
L 646.516839 339.916861 
L 647.554577 339.78378 
L 647.883616 341.015773 
L 647.908926 342.215591 
L 648.162033 339.654471 
L 648.389829 339.867251 
L 648.41514 341.244808 
L 648.465761 340.607196 
L 648.592315 340.043614 
L 648.870732 341.931202 
L 650.718412 340.199866 
L 651.680218 340.369834 
L 652.110499 340.927984 
L 652.211742 340.251431 
L 653.148237 340.959858 
L 653.932868 340.338113 
L 653.958179 341.759743 
L 654.059421 339.362688 
L 654.919984 339.455411 
L 655.046538 340.93448 
L 655.274334 339.652942 
L 655.400887 341.577192 
L 655.88179 340.647928 
L 657.324499 339.774523 
L 657.34981 339.570389 
L 658.260994 339.553778 
L 659.2228 341.645756 
L 660.235227 341.135091 
L 660.387091 340.034547 
L 660.437712 340.211666 
L 660.463023 342.309561 
L 660.918615 340.856385 
L 661.247654 340.80675 
L 661.47545 343.239664 
L 661.576693 341.103124 
L 663.196576 338.996643 
L 664.84177 340.430184 
L 665.423916 339.408878 
L 665.828887 341.043142 
L 666.3351 341.725007 
L 667.550013 341.930197 
L 667.625945 339.026749 
L 667.752498 342.150882 
L 669.448314 340.751764 
L 669.903906 342.416301 
L 671.802207 341.22203 
L 672.789323 341.694099 
L 672.814634 339.516269 
L 673.675197 339.345853 
L 674.738246 341.645276 
L 675.016663 339.576091 
L 675.548187 341.655811 
L 676.00378 340.416723 
L 676.358129 340.973674 
L 676.788411 339.295662 
L 677.117449 340.834782 
L 677.851459 342.23334 
L 677.87677 339.56763 
L 678.914508 338.717031 
L 679.521964 339.969182 
L 679.673828 340.974013 
L 680.180042 340.226995 
L 680.331906 339.396556 
L 680.86343 339.488923 
L 681.015294 341.130423 
L 681.546818 341.313906 
L 681.546818 341.313906 
" clip-path="url(#pac6b3d3967)" style="fill: none; stroke: #ff0000; stroke-width: 2; stroke-linecap: square"/>
   </g>
   <g id="line2d_31">
    <path d="M 100.83 341.81185 
L 709.2 341.81185 
" clip-path="url(#pac6b3d3967)" style="fill: none; stroke-dasharray: 7.4,3.2; stroke-dashoffset: 0; stroke: #000000; stroke-width: 2"/>
   </g>
   <g id="patch_3">
    <path d="M 100.83 359.4885 
L 100.83 10.8 
" style="fill: none; stroke: #000000; stroke-width: 0.8; stroke-linejoin: miter; stroke-linecap: square"/>
   </g>
   <g id="patch_4">
    <path d="M 709.2 359.4885 
L 709.2 10.8 
" style="fill: none; stroke: #000000; stroke-width: 0.8; stroke-linejoin: miter; stroke-linecap: square"/>
   </g>
   <g id="patch_5">
    <path d="M 100.83 359.4885 
L 709.2 359.4885 
" style="fill: none; stroke: #000000; stroke-width: 0.8; stroke-linejoin: miter; stroke-linecap: square"/>
   </g>
   <g id="patch_6">
    <path d="M 100.83 10.8 
L 709.2 10.8 
" style="fill: none; stroke: #000000; stroke-width: 0.8; stroke-linejoin: miter; stroke-linecap: square"/>
   </g>
   <g id="patch_7">
    <path d="M 377.759823 227.956827 
Q 254.032479 284.468257 131.322112 340.515192 
" style="fill: none; stroke: #000000; stroke-linecap: round"/>
    <path d="M 142.942463 340.924414 
L 131.322112 340.515192 
L 138.621701 331.464445 
" style="fill: none; stroke: #000000; stroke-linecap: round"/>
   </g>
   <g id="text_17">
    <!-- 1.4e-03 -->
    <g transform="translate(362.202658 219.717375) scale(0.26 -0.26)">
     <defs>
      <path id="DejaVuSerif-2d" d="M 281 1959 
L 1881 1959 
L 1881 1472 
L 281 1472 
L 281 1959 
z
" transform="scale(0.015625)"/>
     </defs>
     <use xlink:href="#DejaVuSerif-31"/>
     <use xlink:href="#DejaVuSerif-2e" x="63.623047"/>
     <use xlink:href="#DejaVuSerif-34" x="95.410156"/>
     <use xlink:href="#DejaVuSerif-65" x="159.033203"/>
     <use xlink:href="#DejaVuSerif-2d" x="218.212891"/>
     <use xlink:href="#DejaVuSerif-30" x="252.001953"/>
     <use xlink:href="#DejaVuSerif-33" x="315.625"/>
    </g>
   </g>
   <g id="legend_1">
    <g id="line2d_32">
     <path d="M 465.551562 49.02 
L 498.051562 49.02 
L 530.551562 49.02 
" style="fill: none; stroke: #0000ff; stroke-width: 2; stroke-linecap: square"/>
    </g>
    <g id="text_18">
     <!-- Training -->
     <g transform="translate(551.351562 61.24) scale(0.26 -0.26)">
      <defs>
       <path id="DejaVuSerif-54" d="M 1222 0 
L 1222 331 
L 1819 331 
L 1819 4294 
L 447 4294 
L 447 3566 
L 63 3566 
L 63 4666 
L 4206 4666 
L 4206 3566 
L 3822 3566 
L 3822 4294 
L 2450 4294 
L 2450 331 
L 3047 331 
L 3047 0 
L 1222 0 
z
" transform="scale(0.015625)"/>
       <path id="DejaVuSerif-67" d="M 3359 2988 
L 3359 72 
Q 3359 -644 2965 -1033 
Q 2572 -1422 1844 -1422 
Q 1516 -1422 1216 -1362 
Q 916 -1303 641 -1184 
L 641 -488 
L 941 -488 
Q 997 -813 1206 -963 
Q 1416 -1113 1806 -1113 
Q 2313 -1113 2548 -827 
Q 2784 -541 2784 72 
L 2784 519 
Q 2616 206 2355 57 
Q 2094 -91 1709 -91 
Q 1097 -91 708 395 
Q 319 881 319 1663 
Q 319 2444 706 2928 
Q 1094 3413 1709 3413 
Q 2094 3413 2355 3264 
Q 2616 3116 2784 2803 
L 2784 3322 
L 3909 3322 
L 3909 2988 
L 3359 2988 
z
M 2784 1825 
Q 2784 2422 2554 2737 
Q 2325 3053 1888 3053 
Q 1444 3053 1217 2703 
Q 991 2353 991 1663 
Q 991 975 1217 622 
Q 1444 269 1888 269 
Q 2325 269 2554 583 
Q 2784 897 2784 1497 
L 2784 1825 
z
" transform="scale(0.015625)"/>
      </defs>
      <use xlink:href="#DejaVuSerif-54"/>
      <use xlink:href="#DejaVuSerif-72" x="66.699219"/>
      <use xlink:href="#DejaVuSerif-61" x="114.501953"/>
      <use xlink:href="#DejaVuSerif-69" x="174.121094"/>
      <use xlink:href="#DejaVuSerif-6e" x="206.103516"/>
      <use xlink:href="#DejaVuSerif-69" x="270.507812"/>
      <use xlink:href="#DejaVuSerif-6e" x="302.490234"/>
      <use xlink:href="#DejaVuSerif-67" x="366.894531"/>
     </g>
    </g>
    <g id="line2d_33">
     <path d="M 465.551562 93.74 
L 498.051562 93.74 
L 530.551562 93.74 
" style="fill: none; stroke: #ff0000; stroke-width: 2; stroke-linecap: square"/>
    </g>
    <g id="text_19">
     <!-- Validation -->
     <g transform="translate(551.351562 105.96) scale(0.26 -0.26)">
      <defs>
       <path id="DejaVuSerif-56" d="M 1119 4331 
L 2497 750 
L 3872 4331 
L 3347 4331 
L 3347 4666 
L 4716 4666 
L 4716 4331 
L 4263 4331 
L 2597 0 
L 2059 0 
L 403 4331 
L -63 4331 
L -63 4666 
L 1638 4666 
L 1638 4331 
L 1119 4331 
z
" transform="scale(0.015625)"/>
       <path id="DejaVuSerif-6c" d="M 1313 331 
L 1856 331 
L 1856 0 
L 184 0 
L 184 331 
L 738 331 
L 738 4531 
L 184 4531 
L 184 4863 
L 1313 4863 
L 1313 331 
z
" transform="scale(0.015625)"/>
       <path id="DejaVuSerif-64" d="M 3359 331 
L 3909 331 
L 3909 0 
L 2784 0 
L 2784 519 
Q 2616 206 2355 57 
Q 2094 -91 1709 -91 
Q 1097 -91 708 395 
Q 319 881 319 1663 
Q 319 2444 706 2928 
Q 1094 3413 1709 3413 
Q 2094 3413 2355 3264 
Q 2616 3116 2784 2803 
L 2784 4531 
L 2241 4531 
L 2241 4863 
L 3359 4863 
L 3359 331 
z
M 2784 1497 
L 2784 1825 
Q 2784 2422 2554 2737 
Q 2325 3053 1888 3053 
Q 1444 3053 1217 2703 
Q 991 2353 991 1663 
Q 991 975 1217 622 
Q 1444 269 1888 269 
Q 2325 269 2554 583 
Q 2784 897 2784 1497 
z
" transform="scale(0.015625)"/>
      </defs>
      <use xlink:href="#DejaVuSerif-56"/>
      <use xlink:href="#DejaVuSerif-61" x="63.091797"/>
      <use xlink:href="#DejaVuSerif-6c" x="122.710938"/>
      <use xlink:href="#DejaVuSerif-69" x="154.693359"/>
      <use xlink:href="#DejaVuSerif-64" x="186.675781"/>
      <use xlink:href="#DejaVuSerif-61" x="250.689453"/>
      <use xlink:href="#DejaVuSerif-74" x="310.308594"/>
      <use xlink:href="#DejaVuSerif-69" x="350.494141"/>
      <use xlink:href="#DejaVuSerif-6f" x="382.476562"/>
      <use xlink:href="#DejaVuSerif-6e" x="442.681641"/>
     </g>
    </g>
   </g>
  </g>
 </g>
 <defs>
  <clipPath id="pac6b3d3967">
   <rect x="100.83" y="10.8" width="608.37" height="348.6885"/>
  </clipPath>
 </defs>
</svg>
