<?xml version="1.0" encoding="utf-8" standalone="no"?>
<!DOCTYPE svg PUBLIC "-//W3C//DTD SVG 1.1//EN"
  "http://www.w3.org/Graphics/SVG/1.1/DTD/svg11.dtd">
<svg xmlns:xlink="http://www.w3.org/1999/xlink" width="720pt" height="432pt" viewBox="0 0 720 432" xmlns="http://www.w3.org/2000/svg" version="1.1">
 <metadata>
  <rdf:RDF xmlns:dc="http://purl.org/dc/elements/1.1/" xmlns:cc="http://creativecommons.org/ns#" xmlns:rdf="http://www.w3.org/1999/02/22-rdf-syntax-ns#">
   <cc:Work>
    <dc:type rdf:resource="http://purl.org/dc/dcmitype/StillImage"/>
    <dc:date>2025-07-04T23:17:52.959986</dc:date>
    <dc:format>image/svg+xml</dc:format>
    <dc:creator>
     <cc:Agent>
      <dc:title>Matplotlib v3.7.5, https://matplotlib.org/</dc:title>
     </cc:Agent>
    </dc:creator>
   </cc:Work>
  </rdf:RDF>
 </metadata>
 <defs>
  <style type="text/css">*{stroke-linejoin: round; stroke-linecap: butt}</style>
 </defs>
 <g id="figure_1">
  <g id="patch_1">
   <path d="M 0 432 
L 720 432 
L 720 0 
L 0 0 
z
" style="fill: #ffffff"/>
  </g>
  <g id="axes_1">
   <g id="patch_2">
    <path d="M 100.83 359.4885 
L 699.912109 359.4885 
L 699.912109 10.8 
L 100.83 10.8 
z
" style="fill: #ffffff"/>
   </g>
   <g id="matplotlib.axis_1">
    <g id="xtick_1">
     <g id="line2d_1">
      <defs>
       <path id="m3231c1b284" d="M 0 0 
L 0 -6 
" style="stroke: #000000"/>
      </defs>
      <g>
       <use xlink:href="#m3231c1b284" x="127.394078" y="359.4885" style="stroke: #000000"/>
      </g>
     </g>
     <g id="line2d_2">
      <defs>
       <path id="m85eb0abd62" d="M 0 0 
L 0 6 
" style="stroke: #000000"/>
      </defs>
      <g>
       <use xlink:href="#m85eb0abd62" x="127.394078" y="10.8" style="stroke: #000000"/>
      </g>
     </g>
     <g id="text_1">
      <!-- 0 -->
      <g transform="translate(119.122828 382.744438) scale(0.26 -0.26)">
       <defs>
        <path id="DejaVuSerif-30" d="M 2034 219 
Q 2513 219 2750 744 
Q 2988 1269 2988 2328 
Q 2988 3391 2750 3916 
Q 2513 4441 2034 4441 
Q 1556 4441 1318 3916 
Q 1081 3391 1081 2328 
Q 1081 1269 1318 744 
Q 1556 219 2034 219 
z
M 2034 -91 
Q 1275 -91 848 546 
Q 422 1184 422 2328 
Q 422 3475 848 4112 
Q 1275 4750 2034 4750 
Q 2797 4750 3222 4112 
Q 3647 3475 3647 2328 
Q 3647 1184 3222 546 
Q 2797 -91 2034 -91 
z
" transform="scale(0.015625)"/>
       </defs>
       <use xlink:href="#DejaVuSerif-30"/>
      </g>
     </g>
    </g>
    <g id="xtick_2">
     <g id="line2d_3">
      <g>
       <use xlink:href="#m3231c1b284" x="238.548598" y="359.4885" style="stroke: #000000"/>
      </g>
     </g>
     <g id="line2d_4">
      <g>
       <use xlink:href="#m85eb0abd62" x="238.548598" y="10.8" style="stroke: #000000"/>
      </g>
     </g>
     <g id="text_2">
      <!-- 30 -->
      <g transform="translate(222.006098 382.744438) scale(0.26 -0.26)">
       <defs>
        <path id="DejaVuSerif-33" d="M 622 4469 
Q 988 4606 1323 4678 
Q 1659 4750 1953 4750 
Q 2638 4750 3022 4454 
Q 3406 4159 3406 3634 
Q 3406 3213 3140 2930 
Q 2875 2647 2388 2547 
Q 2963 2466 3280 2130 
Q 3597 1794 3597 1259 
Q 3597 606 3158 257 
Q 2719 -91 1894 -91 
Q 1528 -91 1179 -12 
Q 831 66 488 225 
L 488 1131 
L 838 1131 
Q 869 681 1141 450 
Q 1413 219 1906 219 
Q 2384 219 2661 495 
Q 2938 772 2938 1253 
Q 2938 1803 2653 2086 
Q 2369 2369 1819 2369 
L 1522 2369 
L 1522 2688 
L 1678 2688 
Q 2225 2688 2498 2914 
Q 2772 3141 2772 3597 
Q 2772 4006 2547 4223 
Q 2322 4441 1900 4441 
Q 1478 4441 1245 4241 
Q 1013 4041 972 3647 
L 622 3647 
L 622 4469 
z
" transform="scale(0.015625)"/>
       </defs>
       <use xlink:href="#DejaVuSerif-33"/>
       <use xlink:href="#DejaVuSerif-30" x="63.623047"/>
      </g>
     </g>
    </g>
    <g id="xtick_3">
     <g id="line2d_5">
      <g>
       <use xlink:href="#m3231c1b284" x="349.703119" y="359.4885" style="stroke: #000000"/>
      </g>
     </g>
     <g id="line2d_6">
      <g>
       <use xlink:href="#m85eb0abd62" x="349.703119" y="10.8" style="stroke: #000000"/>
      </g>
     </g>
     <g id="text_3">
      <!-- 60 -->
      <g transform="translate(333.160619 382.744438) scale(0.26 -0.26)">
       <defs>
        <path id="DejaVuSerif-36" d="M 2094 219 
Q 2534 219 2771 542 
Q 3009 866 3009 1472 
Q 3009 2078 2771 2401 
Q 2534 2725 2094 2725 
Q 1647 2725 1412 2412 
Q 1178 2100 1178 1509 
Q 1178 888 1415 553 
Q 1653 219 2094 219 
z
M 1075 2569 
Q 1288 2803 1556 2918 
Q 1825 3034 2163 3034 
Q 2859 3034 3264 2615 
Q 3669 2197 3669 1472 
Q 3669 763 3233 336 
Q 2797 -91 2069 -91 
Q 1278 -91 853 498 
Q 428 1088 428 2181 
Q 428 3406 931 4078 
Q 1434 4750 2350 4750 
Q 2597 4750 2869 4703 
Q 3141 4656 3425 4563 
L 3425 3794 
L 3072 3794 
Q 3034 4109 2831 4275 
Q 2628 4441 2284 4441 
Q 1678 4441 1381 3981 
Q 1084 3522 1075 2569 
z
" transform="scale(0.015625)"/>
       </defs>
       <use xlink:href="#DejaVuSerif-36"/>
       <use xlink:href="#DejaVuSerif-30" x="63.623047"/>
      </g>
     </g>
    </g>
    <g id="xtick_4">
     <g id="line2d_7">
      <g>
       <use xlink:href="#m3231c1b284" x="460.85764" y="359.4885" style="stroke: #000000"/>
      </g>
     </g>
     <g id="line2d_8">
      <g>
       <use xlink:href="#m85eb0abd62" x="460.85764" y="10.8" style="stroke: #000000"/>
      </g>
     </g>
     <g id="text_4">
      <!-- 90 -->
      <g transform="translate(444.31514 382.744438) scale(0.26 -0.26)">
       <defs>
        <path id="DejaVuSerif-39" d="M 2994 2091 
Q 2784 1856 2512 1740 
Q 2241 1625 1900 1625 
Q 1206 1625 804 2044 
Q 403 2463 403 3188 
Q 403 3897 839 4323 
Q 1275 4750 2003 4750 
Q 2794 4750 3217 4161 
Q 3641 3572 3641 2478 
Q 3641 1253 3137 581 
Q 2634 -91 1722 -91 
Q 1475 -91 1203 -44 
Q 931 3 647 97 
L 647 872 
L 997 872 
Q 1038 556 1241 387 
Q 1444 219 1784 219 
Q 2391 219 2687 676 
Q 2984 1134 2994 2091 
z
M 1978 4441 
Q 1534 4441 1298 4117 
Q 1063 3794 1063 3188 
Q 1063 2581 1298 2256 
Q 1534 1931 1978 1931 
Q 2422 1931 2658 2245 
Q 2894 2559 2894 3150 
Q 2894 3772 2656 4106 
Q 2419 4441 1978 4441 
z
" transform="scale(0.015625)"/>
       </defs>
       <use xlink:href="#DejaVuSerif-39"/>
       <use xlink:href="#DejaVuSerif-30" x="63.623047"/>
      </g>
     </g>
    </g>
    <g id="xtick_5">
     <g id="line2d_9">
      <g>
       <use xlink:href="#m3231c1b284" x="572.01216" y="359.4885" style="stroke: #000000"/>
      </g>
     </g>
     <g id="line2d_10">
      <g>
       <use xlink:href="#m85eb0abd62" x="572.01216" y="10.8" style="stroke: #000000"/>
      </g>
     </g>
     <g id="text_5">
      <!-- 120 -->
      <g transform="translate(547.19841 382.744438) scale(0.26 -0.26)">
       <defs>
        <path id="DejaVuSerif-31" d="M 909 0 
L 909 331 
L 1722 331 
L 1722 4213 
L 781 3603 
L 781 4013 
L 1919 4750 
L 2350 4750 
L 2350 331 
L 3163 331 
L 3163 0 
L 909 0 
z
" transform="scale(0.015625)"/>
        <path id="DejaVuSerif-32" d="M 819 3553 
L 469 3553 
L 469 4384 
Q 803 4563 1142 4656 
Q 1481 4750 1806 4750 
Q 2534 4750 2956 4397 
Q 3378 4044 3378 3438 
Q 3378 2753 2422 1800 
Q 2347 1728 2309 1691 
L 1131 513 
L 3078 513 
L 3078 1088 
L 3444 1088 
L 3444 0 
L 434 0 
L 434 341 
L 1850 1753 
Q 2319 2222 2519 2614 
Q 2719 3006 2719 3438 
Q 2719 3909 2473 4175 
Q 2228 4441 1797 4441 
Q 1350 4441 1106 4219 
Q 863 3997 819 3553 
z
" transform="scale(0.015625)"/>
       </defs>
       <use xlink:href="#DejaVuSerif-31"/>
       <use xlink:href="#DejaVuSerif-32" x="63.623047"/>
       <use xlink:href="#DejaVuSerif-30" x="127.246094"/>
      </g>
     </g>
    </g>
    <g id="xtick_6">
     <g id="line2d_11">
      <g>
       <use xlink:href="#m3231c1b284" x="683.166681" y="359.4885" style="stroke: #000000"/>
      </g>
     </g>
     <g id="line2d_12">
      <g>
       <use xlink:href="#m85eb0abd62" x="683.166681" y="10.8" style="stroke: #000000"/>
      </g>
     </g>
     <g id="text_6">
      <!-- 150 -->
      <g transform="translate(658.352931 382.744438) scale(0.26 -0.26)">
       <defs>
        <path id="DejaVuSerif-35" d="M 3219 4666 
L 3219 4153 
L 1081 4153 
L 1081 2816 
Q 1244 2928 1461 2984 
Q 1678 3041 1947 3041 
Q 2703 3041 3140 2622 
Q 3578 2203 3578 1478 
Q 3578 738 3136 323 
Q 2694 -91 1894 -91 
Q 1572 -91 1234 -12 
Q 897 66 544 225 
L 544 1131 
L 897 1131 
Q 925 688 1179 453 
Q 1434 219 1894 219 
Q 2388 219 2653 544 
Q 2919 869 2919 1478 
Q 2919 2084 2655 2407 
Q 2391 2731 1894 2731 
Q 1613 2731 1398 2631 
Q 1184 2531 1019 2322 
L 750 2322 
L 750 4666 
L 3219 4666 
z
" transform="scale(0.015625)"/>
       </defs>
       <use xlink:href="#DejaVuSerif-31"/>
       <use xlink:href="#DejaVuSerif-35" x="63.623047"/>
       <use xlink:href="#DejaVuSerif-30" x="127.246094"/>
      </g>
     </g>
    </g>
    <g id="text_7">
     <!-- Iteration ($\times 10^3$) -->
     <g transform="translate(294.681055 414.564437) scale(0.26 -0.26)">
      <defs>
       <path id="DejaVuSerif-49" d="M 1581 331 
L 2175 331 
L 2175 0 
L 353 0 
L 353 331 
L 947 331 
L 947 4331 
L 353 4331 
L 353 4666 
L 2175 4666 
L 2175 4331 
L 1581 4331 
L 1581 331 
z
" transform="scale(0.015625)"/>
       <path id="DejaVuSerif-74" d="M 691 2988 
L 184 2988 
L 184 3322 
L 691 3322 
L 691 4353 
L 1269 4353 
L 1269 3322 
L 2350 3322 
L 2350 2988 
L 1269 2988 
L 1269 878 
Q 1269 456 1350 337 
Q 1431 219 1650 219 
Q 1875 219 1978 351 
Q 2081 484 2088 781 
L 2522 781 
Q 2497 328 2275 118 
Q 2053 -91 1600 -91 
Q 1103 -91 897 129 
Q 691 350 691 878 
L 691 2988 
z
" transform="scale(0.015625)"/>
       <path id="DejaVuSerif-65" d="M 3469 1600 
L 991 1600 
L 991 1575 
Q 991 903 1244 561 
Q 1497 219 1991 219 
Q 2369 219 2611 417 
Q 2853 616 2950 1006 
L 3413 1006 
Q 3275 459 2904 184 
Q 2534 -91 1931 -91 
Q 1203 -91 761 389 
Q 319 869 319 1663 
Q 319 2450 753 2931 
Q 1188 3413 1894 3413 
Q 2647 3413 3050 2948 
Q 3453 2484 3469 1600 
z
M 2791 1931 
Q 2772 2513 2545 2808 
Q 2319 3103 1894 3103 
Q 1497 3103 1269 2806 
Q 1041 2509 991 1931 
L 2791 1931 
z
" transform="scale(0.015625)"/>
       <path id="DejaVuSerif-72" d="M 3059 3328 
L 3059 2497 
L 2728 2497 
Q 2713 2744 2591 2866 
Q 2469 2988 2234 2988 
Q 1809 2988 1582 2694 
Q 1356 2400 1356 1850 
L 1356 331 
L 2022 331 
L 2022 0 
L 263 0 
L 263 331 
L 781 331 
L 781 2994 
L 231 2994 
L 231 3322 
L 1356 3322 
L 1356 2731 
Q 1525 3078 1790 3245 
Q 2056 3413 2438 3413 
Q 2578 3413 2733 3391 
Q 2888 3369 3059 3328 
z
" transform="scale(0.015625)"/>
       <path id="DejaVuSerif-61" d="M 2547 1044 
L 2547 1747 
L 1806 1747 
Q 1378 1747 1168 1562 
Q 959 1378 959 997 
Q 959 650 1171 447 
Q 1384 244 1747 244 
Q 2106 244 2326 466 
Q 2547 688 2547 1044 
z
M 3122 2075 
L 3122 331 
L 3634 331 
L 3634 0 
L 2547 0 
L 2547 359 
Q 2356 128 2106 18 
Q 1856 -91 1522 -91 
Q 969 -91 644 203 
Q 319 497 319 997 
Q 319 1513 691 1797 
Q 1063 2081 1741 2081 
L 2547 2081 
L 2547 2309 
Q 2547 2688 2317 2895 
Q 2088 3103 1672 3103 
Q 1328 3103 1125 2947 
Q 922 2791 872 2484 
L 575 2484 
L 575 3156 
Q 875 3284 1158 3348 
Q 1441 3413 1709 3413 
Q 2400 3413 2761 3070 
Q 3122 2728 3122 2075 
z
" transform="scale(0.015625)"/>
       <path id="DejaVuSerif-69" d="M 622 4353 
Q 622 4497 726 4603 
Q 831 4709 978 4709 
Q 1122 4709 1226 4603 
Q 1331 4497 1331 4353 
Q 1331 4206 1228 4103 
Q 1125 4000 978 4000 
Q 831 4000 726 4103 
Q 622 4206 622 4353 
z
M 1356 331 
L 1900 331 
L 1900 0 
L 231 0 
L 231 331 
L 781 331 
L 781 2988 
L 231 2988 
L 231 3322 
L 1356 3322 
L 1356 331 
z
" transform="scale(0.015625)"/>
       <path id="DejaVuSerif-6f" d="M 1925 219 
Q 2388 219 2623 584 
Q 2859 950 2859 1663 
Q 2859 2375 2623 2739 
Q 2388 3103 1925 3103 
Q 1463 3103 1227 2739 
Q 991 2375 991 1663 
Q 991 950 1228 584 
Q 1466 219 1925 219 
z
M 1925 -91 
Q 1200 -91 759 389 
Q 319 869 319 1663 
Q 319 2456 758 2934 
Q 1197 3413 1925 3413 
Q 2653 3413 3092 2934 
Q 3531 2456 3531 1663 
Q 3531 869 3092 389 
Q 2653 -91 1925 -91 
z
" transform="scale(0.015625)"/>
       <path id="DejaVuSerif-6e" d="M 263 0 
L 263 331 
L 781 331 
L 781 2988 
L 231 2988 
L 231 3322 
L 1356 3322 
L 1356 2731 
Q 1516 3069 1770 3241 
Q 2025 3413 2363 3413 
Q 2913 3413 3172 3097 
Q 3431 2781 3431 2113 
L 3431 331 
L 3944 331 
L 3944 0 
L 2356 0 
L 2356 331 
L 2853 331 
L 2853 1931 
Q 2853 2541 2703 2767 
Q 2553 2994 2175 2994 
Q 1775 2994 1565 2701 
Q 1356 2409 1356 1850 
L 1356 331 
L 1856 331 
L 1856 0 
L 263 0 
z
" transform="scale(0.015625)"/>
       <path id="DejaVuSerif-20" transform="scale(0.015625)"/>
       <path id="DejaVuSerif-28" d="M 2041 -997 
Q 1281 -656 893 83 
Q 506 822 506 1931 
Q 506 3044 893 3783 
Q 1281 4522 2041 4863 
L 2041 4556 
Q 1559 4225 1350 3623 
Q 1141 3022 1141 1931 
Q 1141 844 1350 242 
Q 1559 -359 2041 -691 
L 2041 -997 
z
" transform="scale(0.015625)"/>
       <path id="DejaVuSans-d7" d="M 4488 3438 
L 3059 2003 
L 4488 575 
L 4116 197 
L 2681 1631 
L 1247 197 
L 878 575 
L 2303 2003 
L 878 3438 
L 1247 3816 
L 2681 2381 
L 4116 3816 
L 4488 3438 
z
" transform="scale(0.015625)"/>
       <path id="DejaVuSans-31" d="M 794 531 
L 1825 531 
L 1825 4091 
L 703 3866 
L 703 4441 
L 1819 4666 
L 2450 4666 
L 2450 531 
L 3481 531 
L 3481 0 
L 794 0 
L 794 531 
z
" transform="scale(0.015625)"/>
       <path id="DejaVuSans-30" d="M 2034 4250 
Q 1547 4250 1301 3770 
Q 1056 3291 1056 2328 
Q 1056 1369 1301 889 
Q 1547 409 2034 409 
Q 2525 409 2770 889 
Q 3016 1369 3016 2328 
Q 3016 3291 2770 3770 
Q 2525 4250 2034 4250 
z
M 2034 4750 
Q 2819 4750 3233 4129 
Q 3647 3509 3647 2328 
Q 3647 1150 3233 529 
Q 2819 -91 2034 -91 
Q 1250 -91 836 529 
Q 422 1150 422 2328 
Q 422 3509 836 4129 
Q 1250 4750 2034 4750 
z
" transform="scale(0.015625)"/>
       <path id="DejaVuSans-33" d="M 2597 2516 
Q 3050 2419 3304 2112 
Q 3559 1806 3559 1356 
Q 3559 666 3084 287 
Q 2609 -91 1734 -91 
Q 1441 -91 1130 -33 
Q 819 25 488 141 
L 488 750 
Q 750 597 1062 519 
Q 1375 441 1716 441 
Q 2309 441 2620 675 
Q 2931 909 2931 1356 
Q 2931 1769 2642 2001 
Q 2353 2234 1838 2234 
L 1294 2234 
L 1294 2753 
L 1863 2753 
Q 2328 2753 2575 2939 
Q 2822 3125 2822 3475 
Q 2822 3834 2567 4026 
Q 2313 4219 1838 4219 
Q 1578 4219 1281 4162 
Q 984 4106 628 3988 
L 628 4550 
Q 988 4650 1302 4700 
Q 1616 4750 1894 4750 
Q 2613 4750 3031 4423 
Q 3450 4097 3450 3541 
Q 3450 3153 3228 2886 
Q 3006 2619 2597 2516 
z
" transform="scale(0.015625)"/>
       <path id="DejaVuSerif-29" d="M 453 -997 
L 453 -691 
Q 934 -359 1145 242 
Q 1356 844 1356 1931 
Q 1356 3022 1145 3623 
Q 934 4225 453 4556 
L 453 4863 
Q 1216 4522 1603 3783 
Q 1991 3044 1991 1931 
Q 1991 822 1603 83 
Q 1216 -656 453 -997 
z
" transform="scale(0.015625)"/>
      </defs>
      <use xlink:href="#DejaVuSerif-49" transform="translate(0 0.765625)"/>
      <use xlink:href="#DejaVuSerif-74" transform="translate(39.501953 0.765625)"/>
      <use xlink:href="#DejaVuSerif-65" transform="translate(79.6875 0.765625)"/>
      <use xlink:href="#DejaVuSerif-72" transform="translate(138.867188 0.765625)"/>
      <use xlink:href="#DejaVuSerif-61" transform="translate(186.669922 0.765625)"/>
      <use xlink:href="#DejaVuSerif-74" transform="translate(246.289062 0.765625)"/>
      <use xlink:href="#DejaVuSerif-69" transform="translate(286.474609 0.765625)"/>
      <use xlink:href="#DejaVuSerif-6f" transform="translate(318.457031 0.765625)"/>
      <use xlink:href="#DejaVuSerif-6e" transform="translate(378.662109 0.765625)"/>
      <use xlink:href="#DejaVuSerif-20" transform="translate(443.066406 0.765625)"/>
      <use xlink:href="#DejaVuSerif-28" transform="translate(474.853516 0.765625)"/>
      <use xlink:href="#DejaVuSans-d7" transform="translate(513.867188 0.765625)"/>
      <use xlink:href="#DejaVuSans-31" transform="translate(597.65625 0.765625)"/>
      <use xlink:href="#DejaVuSans-30" transform="translate(661.279297 0.765625)"/>
      <use xlink:href="#DejaVuSans-33" transform="translate(725.859375 39.046875) scale(0.7)"/>
      <use xlink:href="#DejaVuSerif-29" transform="translate(773.129883 0.765625)"/>
     </g>
    </g>
   </g>
   <g id="matplotlib.axis_2">
    <g id="ytick_1">
     <g id="line2d_13">
      <defs>
       <path id="mcb6317f9e6" d="M 0 0 
L 6 0 
" style="stroke: #000000"/>
      </defs>
      <g>
       <use xlink:href="#mcb6317f9e6" x="100.83" y="345.706739" style="stroke: #000000"/>
      </g>
     </g>
     <g id="line2d_14">
      <defs>
       <path id="m7f5755e522" d="M 0 0 
L -6 0 
" style="stroke: #000000"/>
      </defs>
      <g>
       <use xlink:href="#m7f5755e522" x="699.912109" y="345.706739" style="stroke: #000000"/>
      </g>
     </g>
     <g id="text_8">
      <!-- 0.00 -->
      <g transform="translate(39.439375 355.584707) scale(0.26 -0.26)">
       <defs>
        <path id="DejaVuSerif-2e" d="M 603 325 
Q 603 500 722 622 
Q 841 744 1019 744 
Q 1191 744 1312 622 
Q 1434 500 1434 325 
Q 1434 153 1312 31 
Q 1191 -91 1019 -91 
Q 841 -91 722 29 
Q 603 150 603 325 
z
" transform="scale(0.015625)"/>
       </defs>
       <use xlink:href="#DejaVuSerif-30"/>
       <use xlink:href="#DejaVuSerif-2e" x="63.623047"/>
       <use xlink:href="#DejaVuSerif-30" x="95.410156"/>
       <use xlink:href="#DejaVuSerif-30" x="159.033203"/>
      </g>
     </g>
    </g>
    <g id="ytick_2">
     <g id="line2d_15">
      <g>
       <use xlink:href="#mcb6317f9e6" x="100.83" y="283.360137" style="stroke: #000000"/>
      </g>
     </g>
     <g id="line2d_16">
      <g>
       <use xlink:href="#m7f5755e522" x="699.912109" y="283.360137" style="stroke: #000000"/>
      </g>
     </g>
     <g id="text_9">
      <!-- 0.01 -->
      <g transform="translate(39.439375 293.238105) scale(0.26 -0.26)">
       <use xlink:href="#DejaVuSerif-30"/>
       <use xlink:href="#DejaVuSerif-2e" x="63.623047"/>
       <use xlink:href="#DejaVuSerif-30" x="95.410156"/>
       <use xlink:href="#DejaVuSerif-31" x="159.033203"/>
      </g>
     </g>
    </g>
    <g id="ytick_3">
     <g id="line2d_17">
      <g>
       <use xlink:href="#mcb6317f9e6" x="100.83" y="221.013535" style="stroke: #000000"/>
      </g>
     </g>
     <g id="line2d_18">
      <g>
       <use xlink:href="#m7f5755e522" x="699.912109" y="221.013535" style="stroke: #000000"/>
      </g>
     </g>
     <g id="text_10">
      <!-- 0.02 -->
      <g transform="translate(39.439375 230.891504) scale(0.26 -0.26)">
       <use xlink:href="#DejaVuSerif-30"/>
       <use xlink:href="#DejaVuSerif-2e" x="63.623047"/>
       <use xlink:href="#DejaVuSerif-30" x="95.410156"/>
       <use xlink:href="#DejaVuSerif-32" x="159.033203"/>
      </g>
     </g>
    </g>
    <g id="ytick_4">
     <g id="line2d_19">
      <g>
       <use xlink:href="#mcb6317f9e6" x="100.83" y="158.666933" style="stroke: #000000"/>
      </g>
     </g>
     <g id="line2d_20">
      <g>
       <use xlink:href="#m7f5755e522" x="699.912109" y="158.666933" style="stroke: #000000"/>
      </g>
     </g>
     <g id="text_11">
      <!-- 0.03 -->
      <g transform="translate(39.439375 168.544902) scale(0.26 -0.26)">
       <use xlink:href="#DejaVuSerif-30"/>
       <use xlink:href="#DejaVuSerif-2e" x="63.623047"/>
       <use xlink:href="#DejaVuSerif-30" x="95.410156"/>
       <use xlink:href="#DejaVuSerif-33" x="159.033203"/>
      </g>
     </g>
    </g>
    <g id="ytick_5">
     <g id="line2d_21">
      <g>
       <use xlink:href="#mcb6317f9e6" x="100.83" y="96.320331" style="stroke: #000000"/>
      </g>
     </g>
     <g id="line2d_22">
      <g>
       <use xlink:href="#m7f5755e522" x="699.912109" y="96.320331" style="stroke: #000000"/>
      </g>
     </g>
     <g id="text_12">
      <!-- 0.04 -->
      <g transform="translate(39.439375 106.1983) scale(0.26 -0.26)">
       <defs>
        <path id="DejaVuSerif-34" d="M 2234 1581 
L 2234 4063 
L 641 1581 
L 2234 1581 
z
M 3609 0 
L 1484 0 
L 1484 331 
L 2234 331 
L 2234 1247 
L 197 1247 
L 197 1588 
L 2241 4750 
L 2859 4750 
L 2859 1581 
L 3750 1581 
L 3750 1247 
L 2859 1247 
L 2859 331 
L 3609 331 
L 3609 0 
z
" transform="scale(0.015625)"/>
       </defs>
       <use xlink:href="#DejaVuSerif-30"/>
       <use xlink:href="#DejaVuSerif-2e" x="63.623047"/>
       <use xlink:href="#DejaVuSerif-30" x="95.410156"/>
       <use xlink:href="#DejaVuSerif-34" x="159.033203"/>
      </g>
     </g>
    </g>
    <g id="ytick_6">
     <g id="line2d_23">
      <g>
       <use xlink:href="#mcb6317f9e6" x="100.83" y="33.973729" style="stroke: #000000"/>
      </g>
     </g>
     <g id="line2d_24">
      <g>
       <use xlink:href="#m7f5755e522" x="699.912109" y="33.973729" style="stroke: #000000"/>
      </g>
     </g>
     <g id="text_13">
      <!-- 0.05 -->
      <g transform="translate(39.439375 43.851698) scale(0.26 -0.26)">
       <use xlink:href="#DejaVuSerif-30"/>
       <use xlink:href="#DejaVuSerif-2e" x="63.623047"/>
       <use xlink:href="#DejaVuSerif-30" x="95.410156"/>
       <use xlink:href="#DejaVuSerif-35" x="159.033203"/>
      </g>
     </g>
    </g>
    <g id="text_14">
     <!-- Loss -->
     <g transform="translate(30.032188 214.944719) rotate(-90) scale(0.26 -0.26)">
      <defs>
       <path id="DejaVuSerif-4c" d="M 353 0 
L 353 331 
L 947 331 
L 947 4331 
L 353 4331 
L 353 4666 
L 2175 4666 
L 2175 4331 
L 1581 4331 
L 1581 384 
L 3713 384 
L 3713 1166 
L 4097 1166 
L 4097 0 
L 353 0 
z
" transform="scale(0.015625)"/>
       <path id="DejaVuSerif-73" d="M 359 184 
L 359 959 
L 691 959 
Q 703 588 923 403 
Q 1144 219 1575 219 
Q 1963 219 2166 364 
Q 2369 509 2369 788 
Q 2369 1006 2220 1140 
Q 2072 1275 1594 1428 
L 1178 1569 
Q 750 1706 558 1912 
Q 366 2119 366 2438 
Q 366 2894 700 3153 
Q 1034 3413 1625 3413 
Q 1888 3413 2178 3344 
Q 2469 3275 2778 3144 
L 2778 2419 
L 2447 2419 
Q 2434 2741 2221 2922 
Q 2009 3103 1644 3103 
Q 1281 3103 1095 2975 
Q 909 2847 909 2591 
Q 909 2381 1050 2254 
Q 1191 2128 1613 1997 
L 2069 1856 
Q 2541 1709 2748 1489 
Q 2956 1269 2956 922 
Q 2956 450 2595 179 
Q 2234 -91 1600 -91 
Q 1278 -91 972 -22 
Q 666 47 359 184 
z
" transform="scale(0.015625)"/>
      </defs>
      <use xlink:href="#DejaVuSerif-4c"/>
      <use xlink:href="#DejaVuSerif-6f" x="66.40625"/>
      <use xlink:href="#DejaVuSerif-73" x="126.611328"/>
      <use xlink:href="#DejaVuSerif-73" x="177.929688"/>
     </g>
    </g>
   </g>
   <g id="line2d_25">
    <path d="M 128.061005 228.447458 
L 128.950241 256.940429 
L 129.061396 252.84639 
L 129.468962 259.50396 
L 130.135889 262.997754 
L 130.876919 265.247887 
L 133.137061 281.447437 
L 133.248216 278.014844 
L 133.581679 283.668729 
L 135.878873 287.066554 
L 136.06413 285.899439 
L 136.842212 291.256788 
L 137.02747 291.297491 
L 137.509139 294.373149 
L 138.805942 294.449818 
L 138.880045 296.834022 
L 139.176457 299.529143 
L 140.250951 293.569712 
L 140.991981 294.988107 
L 142.992762 300.761014 
L 143.029814 302.675538 
L 143.770844 299.950389 
L 144.437771 302.621024 
L 144.585977 299.5426 
L 144.956492 301.741258 
L 147.253686 299.801302 
L 148.254076 306.210024 
L 149.106261 303.095887 
L 149.143312 303.271004 
L 150.366012 301.291909 
L 150.884733 306.815669 
L 151.181145 308.464517 
L 151.366403 306.17774 
L 151.440506 309.457121 
L 152.255639 305.396295 
L 153.848854 309.473181 
L 154.145266 308.520097 
L 154.441678 309.710803 
L 155.405017 309.998932 
L 155.738481 313.437155 
L 155.886687 311.994866 
L 155.96079 310.099187 
L 156.479511 309.539401 
L 156.553614 311.039709 
L 156.812974 309.587345 
L 157.109386 312.729258 
L 157.331695 312.470164 
L 157.368747 310.723029 
L 158.369138 311.564626 
L 161.073898 309.362147 
L 162.296597 313.832091 
L 162.407752 315.131575 
L 163.037627 314.503634 
L 163.408143 313.70141 
L 163.630452 313.848811 
L 163.667503 314.815758 
L 163.852761 313.355873 
L 164.519688 313.518634 
L 164.630842 315.759056 
L 164.964306 316.389738 
L 166.77983 315.755441 
L 166.890984 318.082057 
L 167.335602 316.776145 
L 167.52086 318.541564 
L 167.891375 317.430898 
L 168.113684 318.321025 
L 168.298941 317.029972 
L 170.22562 316.656618 
L 170.447929 318.615507 
L 171.114856 316.694122 
L 171.596526 318.312441 
L 172.078195 316.064056 
L 173.486152 316.350565 
L 174.116028 318.258853 
L 174.857058 321.463707 
L 175.338728 321.097728 
L 176.153861 319.186949 
L 176.265015 322.67513 
L 176.783736 317.007417 
L 176.931943 320.146516 
L 178.710415 318.893986 
L 178.969775 322.263139 
L 179.784909 321.62531 
L 180.229527 322.678678 
L 180.600042 321.018469 
L 181.711587 321.279906 
L 182.415566 321.00116 
L 182.637875 321.571336 
L 183.823523 321.470457 
L 183.971729 324.972908 
L 184.898016 324.995445 
L 185.490841 323.298851 
L 185.527892 323.868414 
L 186.083665 323.224081 
L 186.231871 321.458428 
L 186.861746 323.166823 
L 188.158549 322.564593 
L 188.454961 323.581719 
L 189.714712 321.952253 
L 190.048176 324.18566 
L 190.270485 323.044607 
L 190.455743 320.47448 
L 190.715103 324.646616 
L 191.567288 322.68256 
L 191.752545 323.890238 
L 192.086009 323.79011 
L 193.382812 325.500805 
L 194.272048 324.882806 
L 195.050129 326.232129 
L 195.717056 324.466833 
L 196.53219 324.857426 
L 196.643344 325.893186 
L 196.939756 323.950852 
L 198.421816 322.846918 
L 199.051692 325.880752 
L 199.422207 326.500081 
L 199.533362 326.05249 
L 200.274392 325.575572 
L 200.867216 326.18612 
L 201.534143 324.946251 
L 201.978761 325.689878 
L 202.830946 328.069559 
L 203.720182 327.245001 
L 204.201852 326.517357 
L 204.313006 328.686287 
L 204.350058 328.336244 
L 204.64647 329.574628 
L 204.794676 326.366873 
L 205.054036 327.477385 
L 206.86956 326.317049 
L 207.017766 326.413897 
L 207.277127 326.962624 
L 207.61059 328.30266 
L 208.573929 326.73735 
L 208.870341 325.244954 
L 209.166753 327.996749 
L 209.31496 326.189392 
L 210.05599 327.997119 
L 210.241247 326.412181 
L 210.278299 327.074243 
L 210.463556 327.267875 
L 210.908174 323.414375 
L 211.019329 326.200259 
L 211.204586 326.862283 
L 211.908565 328.255692 
L 212.501389 330.254581 
L 212.871904 330.64489 
L 213.316522 327.928691 
L 214.279861 329.546513 
L 214.613325 328.640127 
L 215.910128 329.980208 
L 215.947179 328.874991 
L 216.021282 330.198826 
L 217.651549 330.524196 
L 217.947961 329.944816 
L 218.281424 327.534556 
L 218.540785 329.499506 
L 219.467072 329.405794 
L 219.504124 329.207107 
L 219.874639 326.591375 
L 219.948742 326.683776 
L 220.134 327.613094 
L 220.652721 327.484812 
L 220.87503 329.702275 
L 221.208493 331.260728 
L 221.912472 332.384174 
L 221.986575 331.757104 
L 222.912863 330.610597 
L 223.727996 331.611489 
L 223.950305 330.990885 
L 224.58018 332.146672 
L 224.802489 330.085212 
L 225.765829 331.396931 
L 226.618013 331.025179 
L 226.877374 329.435751 
L 227.062631 329.546572 
L 227.544301 328.620408 
L 227.803661 330.467614 
L 228.915207 330.951439 
L 229.433928 330.632339 
L 230.73073 332.880521 
L 233.806006 332.366229 
L 234.472933 333.421283 
L 234.695242 330.800701 
L 235.584478 332.780731 
L 237.325899 332.863467 
L 237.622311 331.558033 
L 238.956165 330.867742 
L 239.660144 331.116679 
L 239.956556 331.485407 
L 240.06771 333.915447 
L 240.956946 333.913899 
L 241.105152 332.766859 
L 242.216698 334.094682 
L 243.624655 333.349467 
L 244.291582 333.64782 
L 244.513891 333.331753 
L 245.106715 333.801328 
L 245.773642 332.905605 
L 245.810694 333.829367 
L 247.070445 333.994485 
L 247.44096 333.077083 
L 247.552115 329.260355 
L 247.589166 333.73221 
L 247.663269 331.285005 
L 247.700321 333.391118 
L 248.626608 332.20105 
L 249.849308 335.224139 
L 250.701493 335.695195 
L 251.331368 335.574389 
L 252.479965 335.726008 
L 253.480356 335.058682 
L 253.665613 335.347728 
L 254.480746 334.152609 
L 255.184725 333.484749 
L 255.740498 333.790258 
L 256.333322 335.345764 
L 257.407815 334.191903 
L 257.51897 331.800034 
L 258.445258 334.419213 
L 259.408597 336.682076 
L 260.038472 336.379555 
L 261.44643 334.716539 
L 261.520533 335.889218 
L 261.594636 335.054595 
L 261.816945 336.86582 
L 262.854387 336.063457 
L 263.373108 334.980736 
L 265.596198 335.547804 
L 266.003765 333.705098 
L 267.152362 335.981342 
L 267.448774 336.28594 
L 267.930443 335.960244 
L 268.708525 337.239281 
L 268.893783 336.681046 
L 268.967886 336.781318 
L 269.338401 336.96619 
L 269.486607 334.99161 
L 270.5611 337.539739 
L 271.005718 337.237435 
L 272.932397 336.1904 
L 273.339963 334.924183 
L 273.969839 337.211507 
L 275.007281 336.538448 
L 275.97062 336.583666 
L 276.415238 336.260107 
L 276.822805 336.712465 
L 276.93396 334.120239 
L 279.045895 337.636008 
L 279.231153 338.184949 
L 279.268204 337.95074 
L 279.63872 337.743085 
L 282.34348 336.819968 
L 282.751046 338.286029 
L 282.862201 337.15041 
L 283.047458 337.377807 
L 283.08451 336.768526 
L 284.010797 335.986662 
L 284.196055 338.071036 
L 284.307209 335.336115 
L 284.603621 335.053875 
L 285.344652 337.736596 
L 285.455806 335.671781 
L 285.492858 337.804467 
L 286.04863 336.98082 
L 286.863763 336.541114 
L 287.345433 336.900886 
L 287.419536 338.521827 
L 287.901206 338.358519 
L 289.272111 339.042071 
L 290.161347 338.540132 
L 291.532253 336.751242 
L 291.643408 337.419424 
L 293.829447 337.970853 
L 294.496374 338.254087 
L 295.237404 337.661157 
L 295.348558 338.281662 
L 295.682022 337.478165 
L 297.015876 337.687785 
L 297.719855 339.7445 
L 297.793958 339.459158 
L 298.868452 339.270294 
L 299.905894 339.390296 
L 300.202306 339.123261 
L 300.350512 338.736529 
L 300.646924 338.594464 
L 301.05449 339.214782 
L 302.203087 338.571938 
L 302.795911 339.090883 
L 303.388735 338.475341 
L 303.685147 338.653198 
L 304.018611 338.478013 
L 304.352075 337.265961 
L 304.759641 338.999812 
L 304.796693 338.712697 
L 305.241311 338.864823 
L 305.315414 338.114646 
L 306.723371 339.544137 
L 307.167989 339.048686 
L 307.871968 339.109554 
L 308.724152 339.411057 
L 309.465183 338.246086 
L 311.243655 338.753041 
L 311.577118 338.62557 
L 311.688273 338.409174 
L 311.762376 339.165513 
L 313.652003 337.558475 
L 313.763157 339.386779 
L 314.504187 339.339977 
L 314.57829 339.148027 
L 314.615342 337.439714 
L 314.874703 337.763657 
L 315.54163 340.090787 
L 316.579072 339.300265 
L 317.320102 339.912917 
L 317.616514 338.948067 
L 319.394986 339.979096 
L 320.061914 339.251838 
L 320.358326 339.677554 
L 321.506922 339.649813 
L 322.507313 339.37012 
L 323.359498 339.791574 
L 325.434382 339.670815 
L 325.953103 339.996093 
L 326.731185 340.976292 
L 328.213245 340.066525 
L 329.028378 339.910215 
L 329.213636 340.10545 
L 330.584541 339.911869 
L 330.992108 338.382953 
L 331.214417 339.738642 
L 331.733138 339.998521 
L 331.807241 338.535688 
L 332.992889 339.208796 
L 333.882126 340.633421 
L 334.326744 340.75027 
L 334.400847 338.771758 
L 334.623156 338.884733 
L 335.067774 339.481496 
L 335.994061 339.532352 
L 337.031504 340.285154 
L 337.105607 340.041931 
L 337.253813 340.763125 
L 337.809585 340.189411 
L 339.328697 337.350941 
L 339.439852 339.275656 
L 340.773706 340.254093 
L 341.403581 340.163685 
L 341.514736 338.376749 
L 341.885251 340.021451 
L 342.552178 340.104617 
L 342.58923 339.409934 
L 343.219105 340.468062 
L 343.33026 339.367252 
L 344.590011 340.316497 
L 344.664114 339.851277 
L 344.923475 340.135122 
L 345.923865 339.900134 
L 346.257329 339.519148 
L 347.035411 340.699616 
L 348.109904 339.010872 
L 348.332213 340.185253 
L 349.332604 339.366701 
L 350.073634 340.309394 
L 350.258892 340.822524 
L 350.814664 339.112571 
L 350.999922 340.55499 
L 352.593137 339.892508 
L 352.741343 339.704173 
L 353.519424 340.846078 
L 353.593527 341.213157 
L 354.482763 340.621264 
L 354.556866 341.183317 
L 355.223794 340.24184 
L 356.075978 339.711709 
L 356.409442 340.241049 
L 357.11342 339.859509 
L 357.59509 341.204382 
L 357.817399 340.854825 
L 358.965996 341.121716 
L 360.411004 340.882256 
L 361.263189 341.682257 
L 361.411395 338.03337 
L 361.448447 340.790294 
L 361.707807 341.331269 
L 362.337683 341.774332 
L 362.745249 341.905466 
L 363.152816 339.30715 
L 363.412177 341.777381 
L 363.634486 341.80588 
L 364.523722 342.084756 
L 366.709761 342.00673 
L 368.043615 341.658162 
L 368.080666 342.202799 
L 368.228872 341.799691 
L 368.969903 341.67961 
L 369.006954 341.923604 
L 369.044006 341.621887 
L 369.340418 341.774556 
L 370.970684 341.905814 
L 371.341199 342.109193 
L 372.045178 341.052786 
L 374.045959 341.91735 
L 374.379423 342.584633 
L 374.453526 342.034649 
L 374.601732 342.127084 
L 374.824041 340.446013 
L 374.935195 342.499356 
L 375.194556 337.440391 
L 375.602122 341.889904 
L 376.04674 342.375727 
L 377.195337 341.348024 
L 377.602904 342.187428 
L 378.01047 341.5312 
L 380.529973 341.072044 
L 381.048694 342.408913 
L 381.345106 342.116661 
L 381.900878 342.370546 
L 382.864218 341.989713 
L 383.382939 342.188266 
L 385.38372 339.552867 
L 385.494875 342.016073 
L 386.458214 342.116874 
L 387.125141 341.315479 
L 387.273347 342.093986 
L 388.199635 341.708095 
L 389.162974 341.181722 
L 390.126313 342.545241 
L 390.682086 342.752666 
L 390.978498 342.592894 
L 391.015549 342.417523 
L 391.830682 341.991674 
L 391.978888 342.482336 
L 392.497609 341.9409 
L 393.97967 342.538967 
L 394.313133 342.016538 
L 394.757751 342.239564 
L 395.906348 342.606128 
L 397.277254 341.663915 
L 397.870078 342.39218 
L 398.277644 341.766419 
L 398.944572 339.881678 
L 399.315087 340.803328 
L 399.352138 340.137335 
L 400.019065 342.158601 
L 400.056117 342.944713 
L 400.908301 342.012158 
L 401.056508 342.068111 
L 401.61228 341.259318 
L 402.723825 341.215267 
L 403.057289 342.357215 
L 403.168443 341.510455 
L 403.427804 341.980843 
L 403.798319 342.085572 
L 403.909474 342.402791 
L 404.094731 342.304908 
L 404.465246 342.652117 
L 405.354482 340.604805 
L 405.687946 342.744155 
L 406.391924 342.205578 
L 407.0218 339.966135 
L 409.318994 342.524464 
L 410.615796 340.759585 
L 411.245672 341.331963 
L 411.616187 342.971739 
L 411.801444 341.661714 
L 412.690681 342.922605 
L 413.542865 342.431631 
L 413.728123 341.156469 
L 414.39505 342.391116 
L 414.802617 342.163688 
L 414.913771 342.848435 
L 415.654801 342.633102 
L 415.951213 342.111417 
L 416.321728 342.739412 
L 416.766346 342.196147 
L 417.618531 341.90046 
L 417.803789 342.255513 
L 420.063931 342.379436 
L 420.100982 342.643229 
L 421.28663 342.290874 
L 422.879845 340.174561 
L 423.176257 341.987405 
L 423.472669 342.122733 
L 423.509721 342.454818 
L 424.769472 342.371186 
L 425.177038 342.025628 
L 425.621657 342.466487 
L 426.251532 342.201405 
L 428.474623 342.9537 
L 429.363859 342.304574 
L 430.475404 342.430216 
L 430.62361 342.045078 
L 431.142331 342.397854 
L 431.772207 342.556611 
L 431.994516 342.065081 
L 433.550679 342.565773 
L 434.143503 341.567782 
L 434.55107 342.104325 
L 434.884533 342.278151 
L 435.180945 340.932194 
L 435.921975 342.956979 
L 436.107233 342.018945 
L 436.181336 342.516503 
L 436.403645 341.203986 
L 437.144675 341.706425 
L 437.25583 342.558352 
L 437.441087 342.77389 
L 437.774551 342.26246 
L 440.368156 340.133335 
L 441.109186 341.27483 
L 441.146238 342.57594 
L 441.220341 342.481435 
L 441.739062 342.381863 
L 441.887268 342.854944 
L 442.220732 342.400323 
L 442.443041 343.048619 
L 442.628298 342.118449 
L 443.184071 342.248803 
L 444.332668 342.931514 
L 445.036646 342.254134 
L 445.221904 343.007834 
L 445.740625 341.570354 
L 446.074088 341.777908 
L 447.037428 342.017332 
L 447.296788 342.609723 
L 447.33384 342.079868 
L 447.667303 340.04828 
L 449.07526 342.761645 
L 449.55693 341.934606 
L 450.742578 342.667506 
L 452.483999 342.628443 
L 452.632205 342.079909 
L 453.299132 342.561323 
L 453.48439 340.662693 
L 454.151317 341.923662 
L 454.262471 341.755717 
L 455.040553 343.017842 
L 455.44812 341.870802 
L 456.337356 342.919565 
L 456.596716 341.960101 
L 457.226592 342.396667 
L 457.300695 342.793931 
L 457.411849 341.318019 
L 458.449292 342.645927 
L 458.856858 342.200707 
L 459.301476 342.562745 
L 459.931352 341.706912 
L 460.598279 342.108155 
L 460.820588 342.597708 
L 461.191103 340.321206 
L 461.895082 342.815041 
L 463.191885 342.139935 
L 463.5624 341.679947 
L 463.969966 342.824052 
L 465.414975 342.219063 
L 466.600623 340.819389 
L 466.859984 342.746381 
L 468.786662 342.04283 
L 468.860765 342.422174 
L 469.23128 341.674524 
L 469.490641 342.612937 
L 470.491031 342.535909 
L 471.269113 342.602126 
L 471.639628 341.74044 
L 472.232452 342.130993 
L 472.306555 341.618463 
L 472.565916 342.755458 
L 473.751564 341.855488 
L 473.936822 342.517026 
L 474.344388 342.707228 
L 474.529646 342.179527 
L 476.12286 342.729464 
L 476.234015 341.858426 
L 476.975045 342.54256 
L 477.197354 342.193759 
L 477.234406 340.885675 
L 478.197745 340.485764 
L 478.457105 342.505046 
L 480.754299 342.25662 
L 480.79135 340.745303 
L 481.124814 342.490689 
L 481.384174 341.555555 
L 481.495329 342.361363 
L 481.754689 342.274992 
L 481.865844 341.477263 
L 482.680977 341.751315 
L 483.49611 342.864878 
L 483.97778 341.804551 
L 484.088934 343.075257 
L 485.20048 342.627172 
L 486.052664 341.866583 
L 486.423179 342.5043 
L 486.719591 341.50926 
L 487.164209 342.593726 
L 488.979733 342.253996 
L 489.016785 342.643754 
L 489.313197 342.545683 
L 489.64666 342.656756 
L 490.943463 342.009152 
L 491.980905 343.011064 
L 492.09206 342.71086 
L 493.57412 342.41509 
L 494.463356 342.919727 
L 494.833871 342.861418 
L 496.871704 341.870997 
L 497.353374 342.422256 
L 497.76094 342.406384 
L 498.427868 342.741379 
L 499.761722 342.743438 
L 499.946979 342.488974 
L 499.984031 342.205551 
L 500.058134 342.331971 
L 500.576855 342.400576 
L 501.021473 342.267217 
L 501.873658 342.277509 
L 502.095967 341.652694 
L 502.651739 341.598368 
L 502.874048 342.911813 
L 503.244563 340.361805 
L 504.1338 342.799828 
L 504.763675 342.691691 
L 505.578808 341.870159 
L 506.727405 342.956049 
L 506.986766 341.824609 
L 507.09792 342.371095 
L 507.394332 342.452096 
L 507.987156 342.178858 
L 508.135362 342.609827 
L 508.394723 342.940919 
L 508.57998 342.569633 
L 509.876783 342.209759 
L 510.136144 340.917187 
L 511.469998 342.107691 
L 512.50744 342.099688 
L 512.581543 342.435489 
L 512.618595 342.205936 
L 512.692698 340.695574 
L 512.915007 342.246747 
L 513.24847 342.228798 
L 513.470779 342.368098 
L 513.656037 342.234994 
L 514.730531 340.339449 
L 515.249252 342.820762 
L 515.656818 342.877098 
L 516.027333 343.056584 
L 516.175539 343.365065 
L 516.212591 341.467921 
L 517.250033 340.980167 
L 517.879909 343.138492 
L 518.472733 342.738747 
L 518.917351 342.17015 
L 520.065948 342.950269 
L 520.399411 341.984342 
L 520.881081 342.166102 
L 521.029287 338.900625 
L 521.214544 343.078707 
L 521.548008 341.102335 
L 522.10378 343.088843 
L 522.140832 342.768741 
L 522.770708 342.114353 
L 523.882253 342.499138 
L 524.252768 342.206762 
L 525.957137 342.543585 
L 526.216498 340.983404 
L 526.809322 342.580185 
L 527.068682 342.527098 
L 528.106125 340.794821 
L 528.143176 342.660178 
L 528.47664 343.363862 
L 529.069464 342.779771 
L 529.402927 343.048011 
L 529.921648 343.299883 
L 530.329215 342.374512 
L 531.329606 342.161198 
L 531.44076 342.852615 
L 531.774224 342.148977 
L 532.700511 342.010104 
L 533.182181 343.087911 
L 533.700902 342.292525 
L 533.923211 342.776015 
L 533.997314 341.352968 
L 535.257065 342.22906 
L 535.479374 341.075434 
L 535.701683 343.013476 
L 535.775786 342.917075 
L 535.812838 342.317468 
L 536.183353 342.196995 
L 536.368611 342.642429 
L 536.887332 342.352824 
L 537.220795 342.669764 
L 537.813619 342.892566 
L 538.739907 343.108699 
L 539.443886 343.04128 
L 539.777349 342.753622 
L 540.444276 341.859967 
L 541.444667 343.086349 
L 542.370955 342.478006 
L 542.408006 342.410014 
L 544.594045 342.447374 
L 544.7052 343.363655 
L 545.038663 343.058984 
L 546.44662 342.680179 
L 547.595217 342.686852 
L 548.336247 343.156218 
L 548.595608 342.358137 
L 548.854968 343.11489 
L 549.040226 343.060047 
L 550.188823 342.057252 
L 550.485235 343.331266 
L 550.559338 342.29793 
L 551.819089 342.352139 
L 551.930243 341.620161 
L 552.560119 342.493735 
L 552.967686 342.384162 
L 553.189995 341.627804 
L 554.227437 342.224262 
L 554.338591 341.456279 
L 554.375643 342.468455 
L 554.672055 343.145672 
L 555.301931 342.973578 
L 555.598343 341.148312 
L 555.931806 341.76329 
L 556.487579 341.495835 
L 557.080403 342.140087 
L 558.525412 343.099934 
L 559.044133 342.382424 
L 559.414648 342.586864 
L 559.822214 342.058686 
L 560.081575 343.055387 
L 560.340935 342.752415 
L 560.415039 343.553542 
L 561.044914 342.225001 
L 561.748893 342.336417 
L 563.082747 341.586574 
L 563.453262 342.84766 
L 564.083138 341.806184 
L 564.305447 342.561899 
L 564.63891 342.765996 
L 565.750456 342.585903 
L 566.639692 342.763868 
L 567.306619 341.258596 
L 568.529319 341.833113 
L 569.010988 342.873124 
L 569.529709 342.712971 
L 569.826121 342.05258 
L 570.011379 341.960033 
L 570.122533 342.850428 
L 570.863563 342.34523 
L 571.048821 342.936727 
L 571.567542 342.522194 
L 571.938057 343.073188 
L 573.086654 342.685834 
L 573.531272 341.610378 
L 575.161538 342.800814 
L 576.940011 342.911046 
L 577.125268 342.263919 
L 578.088607 343.105974 
L 578.236813 342.585616 
L 578.829637 342.674101 
L 579.311307 342.573331 
L 580.052337 341.481064 
L 580.385801 343.22261 
L 580.682213 342.316497 
L 581.423243 342.690825 
L 582.016067 342.746928 
L 582.757097 342.694313 
L 582.868252 343.130264 
L 583.461076 342.834549 
L 584.0539 342.407469 
L 584.461466 342.996017 
L 586.684557 342.947115 
L 587.055072 342.738862 
L 588.166617 342.80123 
L 588.870596 342.147915 
L 588.98175 342.791535 
L 589.796883 341.786206 
L 591.42715 342.973986 
L 592.205231 342.686929 
L 592.42754 342.80983 
L 592.501643 342.585409 
L 593.279725 343.079052 
L 594.094858 341.84975 
L 595.169352 341.852515 
L 597.466545 343.227402 
L 597.911163 341.731247 
L 600.097202 342.548944 
L 600.690026 342.60396 
L 601.838623 342.369615 
L 602.135035 343.311003 
L 602.913117 343.201897 
L 603.839405 342.75075 
L 604.024662 341.492355 
L 604.506332 341.933017 
L 604.988001 342.873778 
L 605.21031 341.949885 
L 606.766474 343.045339 
L 606.803525 343.288083 
L 606.988783 341.278685 
L 607.544555 341.435115 
L 609.693543 342.196595 
L 610.323418 342.93959 
L 611.323809 342.923321 
L 611.36086 342.277345 
L 611.657273 342.27878 
L 612.101891 343.292754 
L 612.213045 342.507993 
L 612.546509 342.691438 
L 613.102281 342.33723 
L 613.250487 342.508516 
L 613.32459 341.768379 
L 613.880363 342.457216 
L 614.54729 342.875514 
L 615.214217 343.015416 
L 615.76999 342.307198 
L 616.140505 342.769258 
L 616.251659 342.275278 
L 616.696277 342.605148 
L 616.733329 343.067906 
L 616.881535 343.365862 
L 617.918977 341.184723 
L 618.882316 343.12969 
L 620.105016 340.473918 
L 620.660789 343.138385 
L 621.994643 343.11153 
L 622.1799 342.599461 
L 623.958373 342.459304 
L 624.106579 343.074971 
L 624.847609 342.53871 
L 626.626081 343.131567 
L 626.663133 342.504156 
L 627.626472 341.192075 
L 627.737626 339.719342 
L 629.29379 343.252388 
L 629.886614 343.639023 
L 631.183417 342.677324 
L 631.739189 343.035217 
L 632.220859 342.551013 
L 632.25791 342.601304 
L 633.48061 338.79157 
L 634.22164 342.223493 
L 634.332795 342.560896 
L 634.814464 342.423043 
L 635.814855 343.070325 
L 636.481782 343.05461 
L 636.741143 342.735863 
L 637.000503 341.954935 
L 637.815636 343.210114 
L 639.075388 343.235658 
L 639.482954 342.968744 
L 640.37219 343.52053 
L 641.224375 339.448732 
L 641.335529 341.735854 
L 641.965405 343.248937 
L 642.187714 342.677616 
L 643.780929 342.714362 
L 643.81798 342.036444 
L 644.521959 342.933568 
L 644.633114 341.407608 
L 644.966577 342.957163 
L 645.003629 342.356311 
L 645.225938 342.04326 
L 645.966968 341.931593 
L 646.041071 342.907 
L 646.707998 342.452088 
L 647.930698 343.201586 
L 648.560573 343.022395 
L 649.079294 343.085866 
L 649.301603 342.480713 
L 650.561355 341.768493 
L 652.080466 342.557971 
L 653.117909 343.455621 
L 654.118299 340.847471 
L 654.303557 342.418767 
L 654.525866 342.34692 
L 655.378051 342.788234 
L 656.304338 340.626141 
L 656.786008 343.082536 
L 657.008317 341.603991 
L 657.34178 342.755625 
L 657.971656 342.137864 
L 658.416274 342.491682 
L 658.638583 343.277721 
L 659.379613 342.371259 
L 659.527819 343.172796 
L 660.417056 343.03526 
L 660.491159 343.136789 
L 660.824622 342.459098 
L 662.677197 342.159175 
L 663.566434 341.184792 
L 663.603485 342.589033 
L 664.418618 342.470376 
L 665.715421 342.47835 
L 665.752473 342.646052 
L 666.641709 341.822569 
L 666.715812 343.331031 
L 666.752863 343.042391 
L 668.457233 342.887201 
L 668.790696 343.33089 
L 668.901851 342.671002 
L 668.975954 340.859865 
L 669.531726 343.317852 
L 669.754035 342.220354 
L 670.495065 342.595481 
L 670.86558 342.558868 
L 670.902632 342.724423 
L 671.199044 342.974964 
L 671.34725 343.618664 
L 671.569559 342.350786 
L 672.162383 343.263353 
L 672.681104 342.812395 
L 672.681104 342.812395 
" clip-path="url(#p42d23c3586)" style="fill: none; stroke: #0000ff; stroke-width: 2; stroke-linecap: square"/>
   </g>
   <g id="line2d_26">
    <path d="M 128.061005 236.615421 
L 128.950241 161.497933 
L 129.061396 210.345641 
L 129.468962 255.79517 
L 130.024735 256.386276 
L 130.135889 259.966981 
L 130.876919 237.932807 
L 133.137061 240.1824 
L 133.248216 268.687628 
L 133.581679 222.829201 
L 135.878873 202.253452 
L 136.06413 269.477124 
L 136.842212 26.649477 
L 137.02747 279.441519 
L 137.28683 280.432273 
L 137.509139 264.818498 
L 138.805942 259.152192 
L 138.880045 269.556858 
L 139.176457 78.099742 
L 140.250951 286.535359 
L 140.991981 282.11869 
L 142.992762 287.395676 
L 143.029814 266.452825 
L 143.770844 288.235351 
L 144.437771 287.936742 
L 144.585977 300.850312 
L 144.956492 176.32313 
L 147.253686 296.633101 
L 148.254076 219.855853 
L 148.8469 261.946642 
L 149.143312 309.413888 
L 150.884733 305.507794 
L 151.181145 196.261873 
L 151.366403 301.635354 
L 151.440506 294.839903 
L 151.885124 308.338032 
L 152.255639 306.166771 
L 153.848854 310.434165 
L 154.145266 286.707864 
L 154.441678 296.4657 
L 155.405017 304.055797 
L 155.738481 309.933583 
L 155.886687 303.321559 
L 155.96079 308.951652 
L 156.479511 313.528824 
L 156.553614 305.721083 
L 156.812974 232.670255 
L 157.109386 304.009052 
L 157.368747 311.537629 
L 158.369138 309.01451 
L 161.073898 249.025895 
L 162.296597 313.131539 
L 163.037627 309.857747 
L 163.371091 316.237138 
L 163.408143 276.210016 
L 163.630452 174.696177 
L 163.667503 314.410341 
L 163.852761 315.32694 
L 164.519688 177.170214 
L 164.630842 315.78981 
L 164.964306 302.610468 
L 166.77983 316.083606 
L 166.890984 138.520206 
L 167.113293 312.061727 
L 167.335602 297.984106 
L 167.52086 319.477087 
L 168.113684 289.733859 
L 168.298941 308.448753 
L 170.22562 312.189821 
L 170.410877 281.236436 
L 170.447929 306.735081 
L 171.114856 306.417321 
L 171.596526 320.253259 
L 172.078195 300.789518 
L 173.486152 315.033243 
L 174.116028 319.699501 
L 174.857058 317.475048 
L 175.338728 319.362691 
L 176.153861 317.010756 
L 176.265015 282.032905 
L 176.931943 319.21525 
L 178.710415 317.92084 
L 178.932724 322.285044 
L 178.969775 320.751151 
L 179.784909 321.977462 
L 180.229527 317.430207 
L 180.600042 321.177918 
L 181.711587 313.707972 
L 182.119153 318.278156 
L 182.415566 316.031548 
L 182.637875 296.972495 
L 183.823523 320.907188 
L 183.971729 318.226493 
L 184.898016 317.133388 
L 185.490841 307.652516 
L 185.527892 321.188346 
L 186.083665 319.423824 
L 186.231871 312.58371 
L 186.861746 322.170694 
L 188.158549 316.11884 
L 188.454961 209.838851 
L 189.195991 320.103693 
L 189.714712 312.59642 
L 190.048176 318.840984 
L 190.270485 320.456358 
L 190.455743 320.793744 
L 190.715103 300.48147 
L 191.048567 323.49887 
L 191.567288 316.966342 
L 191.641391 296.996981 
L 191.752545 319.77392 
L 192.086009 300.139349 
L 193.382812 322.114161 
L 194.272048 322.771628 
L 195.050129 324.019987 
L 195.717056 324.2704 
L 196.05052 322.932329 
L 196.53219 313.675609 
L 196.939756 324.566594 
L 198.421816 322.462218 
L 199.422207 322.188498 
L 199.533362 324.442684 
L 200.274392 323.774956 
L 200.867216 322.922579 
L 201.534143 317.967611 
L 201.978761 324.847564 
L 202.608637 321.684621 
L 202.830946 324.975649 
L 203.720182 322.102787 
L 204.201852 322.98553 
L 204.313006 322.705057 
L 204.350058 323.332796 
L 204.64647 321.644974 
L 204.794676 322.748153 
L 205.054036 317.258588 
L 207.017766 321.829954 
L 207.277127 320.795489 
L 207.61059 321.819235 
L 208.425723 321.862432 
L 208.573929 322.231045 
L 208.870341 321.944336 
L 209.166753 322.198794 
L 209.31496 320.44181 
L 210.05599 322.125553 
L 210.241247 320.293684 
L 210.278299 321.190579 
L 210.463556 322.609967 
L 210.908174 323.013703 
L 211.019329 320.751534 
L 211.204586 288.193498 
L 211.908565 323.877985 
L 212.501389 326.192439 
L 212.871904 322.869909 
L 213.316522 322.733889 
L 214.279861 322.87188 
L 214.613325 322.784824 
L 215.910128 323.583824 
L 215.947179 316.445286 
L 216.021282 325.616905 
L 217.651549 316.245392 
L 217.947961 323.549743 
L 218.281424 323.762641 
L 218.355527 324.22849 
L 218.540785 307.3755 
L 219.467072 325.905097 
L 219.504124 323.546465 
L 219.874639 316.271779 
L 219.948742 321.579994 
L 220.134 308.588515 
L 220.652721 322.586754 
L 220.87503 323.461818 
L 221.208493 322.856497 
L 221.764266 323.210058 
L 221.912472 322.14654 
L 221.986575 323.60647 
L 222.912863 323.497232 
L 223.727996 324.909552 
L 223.950305 321.85185 
L 224.58018 323.990546 
L 224.802489 321.829411 
L 226.618013 325.106774 
L 226.877374 324.413408 
L 227.062631 326.259758 
L 227.544301 324.945717 
L 227.803661 322.516312 
L 228.915207 325.272517 
L 229.433928 322.830163 
L 230.73073 322.311308 
L 233.806006 319.544195 
L 234.139469 322.894717 
L 234.472933 318.32842 
L 234.695242 322.762286 
L 235.584478 325.221214 
L 237.325899 324.472004 
L 237.622311 320.215665 
L 238.956165 317.877849 
L 239.548989 311.079315 
L 239.660144 311.444316 
L 239.956556 325.51561 
L 240.06771 324.109858 
L 240.956946 325.459532 
L 241.105152 326.012268 
L 242.216698 324.341618 
L 243.624655 319.427967 
L 244.291582 321.596723 
L 244.513891 319.523666 
L 245.106715 323.006312 
L 245.773642 322.849251 
L 245.810694 325.389044 
L 247.070445 326.51929 
L 247.552115 323.40999 
L 247.589166 321.117856 
L 247.700321 323.909682 
L 248.626608 323.281211 
L 249.849308 325.156524 
L 250.701493 323.535935 
L 251.331368 323.332261 
L 252.479965 322.033054 
L 253.665613 324.421329 
L 254.480746 319.805786 
L 255.184725 324.545792 
L 255.740498 322.669629 
L 256.333322 324.990386 
L 257.407815 322.797997 
L 257.51897 326.414271 
L 258.445258 322.013029 
L 259.408597 325.511997 
L 260.038472 323.726958 
L 260.779503 323.321998 
L 261.44643 321.654499 
L 261.520533 323.386413 
L 261.594636 321.544731 
L 261.816945 322.461751 
L 262.854387 322.168756 
L 263.373108 324.347115 
L 265.447992 321.986978 
L 265.596198 323.314616 
L 266.003765 321.542879 
L 267.152362 311.623962 
L 267.448774 323.968234 
L 267.930443 324.528266 
L 268.115701 326.383925 
L 268.893783 322.551046 
L 268.967886 322.641112 
L 269.486607 324.965615 
L 271.005718 322.520427 
L 272.932397 320.705796 
L 273.339963 325.212056 
L 273.969839 323.17164 
L 275.007281 323.587585 
L 275.97062 325.395646 
L 276.822805 315.400822 
L 276.93396 324.727514 
L 279.045895 323.335127 
L 279.231153 323.873007 
L 279.268204 325.232949 
L 279.63872 325.063373 
L 282.751046 324.125884 
L 282.788098 325.172027 
L 282.862201 322.336462 
L 283.047458 321.27108 
L 283.08451 323.782203 
L 284.010797 324.276433 
L 284.196055 323.486061 
L 284.307209 320.619425 
L 284.603621 321.718803 
L 285.344652 322.718653 
L 285.455806 322.222196 
L 285.492858 323.055019 
L 286.04863 322.667777 
L 286.863763 321.596417 
L 287.345433 321.571754 
L 287.419536 323.216361 
L 287.901206 323.179753 
L 289.272111 323.548447 
L 290.161347 324.210687 
L 290.643017 320.885396 
L 291.532253 320.058597 
L 291.643408 324.608623 
L 293.829447 321.775451 
L 294.459322 324.941466 
L 294.496374 323.887674 
L 295.237404 323.51967 
L 295.348558 321.116305 
L 295.682022 320.323152 
L 297.015876 321.390374 
L 297.127031 322.949826 
L 297.719855 324.238021 
L 297.793958 321.317697 
L 298.868452 323.410216 
L 299.905894 323.729599 
L 300.202306 326.063846 
L 300.350512 323.691944 
L 300.646924 321.94695 
L 301.05449 322.631273 
L 302.01783 322.908429 
L 302.203087 323.944671 
L 302.795911 319.991262 
L 303.388735 324.433608 
L 304.018611 323.293613 
L 304.352075 322.915014 
L 304.759641 324.116197 
L 304.796693 322.871659 
L 305.315414 325.157431 
L 306.723371 323.973333 
L 307.167989 322.595834 
L 307.871968 324.089394 
L 308.724152 324.726612 
L 309.465183 321.447905 
L 311.243655 321.269094 
L 311.688273 324.339723 
L 311.762376 323.400791 
L 313.652003 323.808647 
L 313.763157 323.412601 
L 314.504187 325.625986 
L 314.57829 321.842033 
L 314.615342 324.324431 
L 314.874703 321.578636 
L 315.54163 322.21099 
L 316.579072 319.969325 
L 317.320102 319.028589 
L 317.394205 322.119201 
L 317.616514 322.808398 
L 318.765111 314.955715 
L 319.394986 322.090035 
L 320.358326 325.301921 
L 321.506922 324.563795 
L 322.507313 321.550964 
L 323.359498 319.827642 
L 324.433991 313.566259 
L 324.841558 320.653195 
L 325.434382 326.630528 
L 325.953103 319.581307 
L 326.731185 323.111903 
L 328.213245 325.3744 
L 329.028378 323.044193 
L 329.213636 322.027698 
L 330.584541 320.99803 
L 330.992108 321.942719 
L 331.214417 323.3345 
L 331.733138 322.339051 
L 331.807241 324.201275 
L 332.992889 319.989349 
L 333.882126 321.822969 
L 334.326744 322.427833 
L 334.400847 324.141717 
L 334.623156 325.103917 
L 335.067774 322.417738 
L 335.994061 321.652363 
L 337.031504 324.291019 
L 337.105607 324.220644 
L 337.253813 323.882257 
L 337.809585 325.000544 
L 339.328697 321.870956 
L 339.439852 323.140543 
L 340.773706 322.395527 
L 341.403581 325.146358 
L 341.514736 324.250597 
L 341.885251 325.117371 
L 342.552178 325.141844 
L 342.58923 322.317088 
L 343.219105 324.007668 
L 343.33026 323.290157 
L 344.590011 320.817077 
L 344.664114 323.673485 
L 344.923475 322.999576 
L 345.923865 322.094134 
L 346.257329 320.594837 
L 347.035411 325.325148 
L 347.924647 319.900289 
L 348.109904 322.120586 
L 348.332213 327.059614 
L 349.332604 320.647778 
L 350.073634 324.428229 
L 350.258892 323.735031 
L 350.814664 326.486746 
L 350.999922 321.416358 
L 352.593137 323.229259 
L 352.741343 324.756726 
L 353.519424 322.79691 
L 353.593527 322.019024 
L 354.260454 322.231992 
L 354.482763 321.027368 
L 354.556866 321.184703 
L 355.223794 322.170031 
L 356.075978 319.788883 
L 356.409442 326.487439 
L 357.11342 321.153487 
L 357.520987 324.866476 
L 357.59509 324.763604 
L 357.817399 324.675297 
L 358.299069 325.598937 
L 358.965996 324.947081 
L 360.411004 324.584837 
L 361.263189 327.188978 
L 361.411395 322.117195 
L 361.448447 324.135643 
L 361.707807 323.39381 
L 362.337683 322.650409 
L 362.745249 325.028969 
L 363.152816 325.32238 
L 363.412177 324.645461 
L 363.634486 323.364469 
L 364.523722 324.958145 
L 366.561555 322.373077 
L 366.709761 325.610241 
L 368.043615 325.03238 
L 368.080666 325.954804 
L 368.228872 323.609551 
L 369.006954 323.169549 
L 369.044006 325.024711 
L 369.340418 325.77036 
L 370.970684 325.526887 
L 371.230044 323.900031 
L 371.341199 322.113542 
L 372.045178 323.223342 
L 374.045959 321.262629 
L 374.453526 327.522348 
L 374.601732 323.648642 
L 374.824041 322.630168 
L 374.935195 326.127797 
L 375.194556 324.278408 
L 375.490968 323.883256 
L 375.602122 321.849417 
L 376.04674 324.246733 
L 377.047131 323.064411 
L 377.195337 325.731818 
L 377.602904 322.058537 
L 378.01047 322.613161 
L 380.529973 324.075582 
L 381.048694 321.44716 
L 381.863827 327.066667 
L 381.900878 323.204667 
L 383.382939 325.667558 
L 384.309226 324.736413 
L 385.38372 326.139857 
L 385.494875 324.078796 
L 386.458214 324.596241 
L 387.125141 323.174354 
L 387.273347 325.624218 
L 388.199635 322.767451 
L 389.162974 324.958344 
L 390.126313 327.556176 
L 390.682086 323.689657 
L 390.978498 324.305295 
L 391.015549 325.155024 
L 391.830682 322.4299 
L 391.978888 322.946176 
L 392.497609 325.589168 
L 393.97967 324.920772 
L 394.313133 323.434939 
L 394.757751 324.724873 
L 395.46173 325.759339 
L 395.906348 323.655951 
L 397.277254 324.701125 
L 397.870078 322.6122 
L 398.277644 323.562067 
L 398.944572 325.710186 
L 399.315087 324.952433 
L 399.352138 327.077197 
L 400.019065 326.433584 
L 400.056117 323.163496 
L 400.908301 322.153338 
L 401.056508 326.211374 
L 401.61228 323.68792 
L 402.723825 322.392944 
L 403.057289 327.226766 
L 403.168443 322.740497 
L 403.427804 327.655078 
L 403.798319 327.772076 
L 403.909474 323.01267 
L 404.094731 325.973768 
L 404.465246 322.396512 
L 405.354482 324.771667 
L 405.687946 327.442397 
L 406.391924 324.060092 
L 407.0218 322.713584 
L 409.318994 325.95121 
L 410.615796 321.077785 
L 411.245672 325.180818 
L 411.616187 324.033491 
L 411.801444 325.748387 
L 412.209011 323.297452 
L 412.43132 320.664733 
L 412.690681 323.271738 
L 413.357608 325.718144 
L 413.542865 322.390773 
L 413.728123 325.66299 
L 414.39505 327.375924 
L 414.802617 324.881006 
L 414.913771 322.602068 
L 415.654801 324.396978 
L 415.951213 323.059251 
L 416.321728 325.369262 
L 416.766346 324.902731 
L 417.618531 321.314675 
L 417.803789 324.476713 
L 420.063931 324.136594 
L 420.100982 324.947222 
L 421.28663 324.943933 
L 422.879845 320.714613 
L 423.472669 323.777629 
L 423.509721 326.709208 
L 424.769472 322.717675 
L 425.177038 325.521438 
L 425.621657 323.058663 
L 426.251532 324.640833 
L 428.474623 323.631018 
L 429.363859 323.964253 
L 430.475404 324.920289 
L 430.62361 325.992044 
L 431.142331 325.326546 
L 431.772207 324.332253 
L 431.994516 325.322808 
L 433.550679 324.830943 
L 434.55107 322.058982 
L 434.884533 322.735352 
L 435.180945 322.546383 
L 435.921975 326.923199 
L 436.107233 323.052414 
L 436.181336 324.783442 
L 436.403645 322.7238 
L 437.144675 327.167476 
L 437.441087 323.259817 
L 437.774551 323.450023 
L 440.368156 327.726777 
L 441.109186 324.75152 
L 441.146238 326.864385 
L 441.220341 325.816381 
L 441.739062 324.739935 
L 441.887268 325.85529 
L 442.220732 324.366442 
L 442.257783 327.441469 
L 442.443041 325.363486 
L 443.184071 323.16644 
L 444.332668 325.923696 
L 444.777286 322.732819 
L 445.036646 323.998689 
L 445.221904 327.48323 
L 445.740625 327.215083 
L 446.074088 325.505377 
L 447.037428 326.204387 
L 447.296788 322.971932 
L 447.33384 323.243808 
L 447.667303 325.215786 
L 449.07526 321.55284 
L 449.408724 324.013164 
L 449.55693 326.072476 
L 450.742578 321.975473 
L 452.483999 324.307913 
L 452.632205 324.845395 
L 453.299132 325.919746 
L 453.48439 321.759065 
L 454.151317 325.282902 
L 454.262471 324.450076 
L 455.040553 323.136111 
L 455.44812 321.986154 
L 456.337356 325.782506 
L 456.596716 324.798784 
L 457.226592 325.40588 
L 457.300695 322.575101 
L 457.411849 324.500628 
L 458.189931 323.458882 
L 458.264034 325.009373 
L 458.449292 323.182019 
L 458.856858 323.251977 
L 459.301476 323.779456 
L 459.931352 324.306658 
L 460.598279 322.013324 
L 460.820588 324.213711 
L 461.191103 321.945561 
L 461.85803 324.012421 
L 461.895082 324.727273 
L 462.895472 322.871202 
L 463.191885 325.882615 
L 463.5624 323.133443 
L 463.969966 323.032334 
L 464.748048 321.520222 
L 465.414975 322.480361 
L 466.600623 322.753698 
L 466.859984 325.635121 
L 468.786662 323.11478 
L 468.860765 322.65386 
L 469.23128 323.968004 
L 469.490641 321.875636 
L 470.491031 323.690382 
L 471.269113 324.373924 
L 471.639628 321.897026 
L 472.232452 321.040412 
L 472.306555 323.810685 
L 472.565916 325.450236 
L 473.751564 323.042406 
L 473.936822 325.024135 
L 474.344388 323.41217 
L 474.529646 323.215885 
L 476.12286 322.723086 
L 476.234015 322.378161 
L 476.975045 322.381566 
L 477.197354 323.63896 
L 477.234406 325.806057 
L 478.197745 322.496108 
L 478.457105 325.701627 
L 480.754299 323.943074 
L 480.79135 322.671179 
L 481.124814 326.935124 
L 481.495329 321.965423 
L 481.865844 323.192732 
L 482.680977 320.975228 
L 483.088544 322.796045 
L 483.49611 323.919101 
L 483.940728 322.847264 
L 484.088934 325.747719 
L 484.978171 323.229327 
L 485.20048 323.611675 
L 486.052664 324.175023 
L 486.719591 322.090183 
L 487.164209 326.917618 
L 488.979733 321.078851 
L 489.016785 322.892509 
L 489.313197 325.851451 
L 489.64666 324.697014 
L 490.943463 324.252066 
L 491.980905 322.769201 
L 492.09206 325.478978 
L 493.57412 323.07199 
L 494.463356 324.183192 
L 494.833871 325.047271 
L 496.871704 323.054889 
L 497.353374 325.506216 
L 497.76094 321.700002 
L 498.427868 324.061608 
L 499.761722 325.79635 
L 499.946979 325.378221 
L 499.984031 323.360578 
L 500.058134 325.084047 
L 501.021473 322.9568 
L 501.873658 326.654577 
L 502.095967 322.985493 
L 502.651739 322.71882 
L 503.244563 325.096377 
L 504.1338 323.486648 
L 504.763675 322.784806 
L 505.578808 324.581723 
L 506.727405 323.150764 
L 506.986766 324.303806 
L 507.09792 326.582241 
L 507.987156 323.328107 
L 508.135362 324.603764 
L 508.394723 322.650732 
L 508.57998 325.657992 
L 509.876783 321.022865 
L 510.136144 324.17702 
L 511.469998 322.959336 
L 512.50744 322.844572 
L 512.581543 322.7066 
L 512.618595 325.686944 
L 512.692698 322.48804 
L 512.915007 321.747153 
L 513.24847 322.566728 
L 513.656037 327.086792 
L 514.730531 325.108031 
L 515.249252 323.140351 
L 515.656818 323.185301 
L 516.027333 324.638557 
L 516.175539 321.758755 
L 516.212591 323.010545 
L 517.250033 325.007755 
L 517.879909 325.225714 
L 518.435681 323.360951 
L 518.472733 322.568087 
L 518.917351 325.010401 
L 520.065948 323.704692 
L 520.399411 324.203611 
L 520.881081 323.112447 
L 521.029287 323.077996 
L 521.214544 325.86438 
L 521.548008 323.142511 
L 521.84442 324.729964 
L 522.140832 320.544713 
L 522.770708 326.546505 
L 523.882253 321.706817 
L 524.252768 325.635207 
L 525.623674 324.099245 
L 525.957137 327.248278 
L 525.994189 322.818664 
L 526.216498 324.66826 
L 526.809322 324.093696 
L 527.068682 324.790004 
L 528.106125 322.115331 
L 528.143176 326.853035 
L 528.47664 322.378948 
L 528.661897 325.486169 
L 529.069464 324.124116 
L 529.402927 325.029339 
L 529.921648 324.903772 
L 530.329215 325.113663 
L 531.329606 323.194633 
L 531.44076 324.643048 
L 531.774224 323.732308 
L 532.700511 324.811517 
L 532.848717 322.971043 
L 533.182181 323.590679 
L 533.700902 322.316696 
L 533.923211 325.284908 
L 533.997314 322.848892 
L 535.257065 325.580957 
L 535.479374 323.491057 
L 535.701683 325.112181 
L 535.812838 324.170944 
L 536.183353 322.841363 
L 536.368611 322.930319 
L 536.887332 325.729037 
L 537.220795 323.080803 
L 537.813619 320.468596 
L 538.739907 325.51742 
L 539.443886 323.426483 
L 539.777349 327.158473 
L 540.444276 324.321083 
L 541.444667 324.696423 
L 542.296852 321.573885 
L 542.408006 325.433888 
L 544.297633 323.534362 
L 544.594045 322.517032 
L 544.7052 324.634065 
L 545.038663 324.857298 
L 546.44662 320.987018 
L 547.595217 323.760672 
L 548.336247 321.295528 
L 548.595608 325.187812 
L 548.854968 323.585335 
L 549.040226 326.837654 
L 550.188823 322.429151 
L 550.559338 325.194005 
L 551.819089 322.874929 
L 551.930243 323.9142 
L 552.448965 322.181541 
L 552.560119 325.731149 
L 552.967686 324.684428 
L 553.189995 324.660894 
L 554.227437 322.236794 
L 554.338591 322.871331 
L 554.375643 322.859907 
L 554.597952 322.270027 
L 554.672055 322.408102 
L 555.301931 327.460491 
L 555.598343 325.608175 
L 555.931806 324.619124 
L 556.487579 325.284513 
L 557.080403 322.726727 
L 558.525412 322.345375 
L 558.97003 322.997396 
L 559.044133 325.083785 
L 559.414648 322.029476 
L 559.822214 322.13517 
L 560.081575 324.088018 
L 560.340935 323.435001 
L 560.415039 323.969401 
L 561.044914 320.931198 
L 561.748893 324.993455 
L 563.082747 323.506003 
L 563.453262 321.874561 
L 564.083138 324.106143 
L 564.305447 323.43895 
L 564.63891 321.918373 
L 565.750456 327.254945 
L 566.60264 325.589676 
L 566.639692 325.969567 
L 567.306619 324.383365 
L 568.344061 323.535329 
L 568.529319 325.479726 
L 569.010988 323.378281 
L 569.529709 323.285072 
L 569.826121 325.001359 
L 570.011379 322.964142 
L 570.085482 325.534276 
L 570.122533 325.292699 
L 570.863563 323.908459 
L 571.048821 322.435044 
L 571.567542 323.859369 
L 571.938057 322.945216 
L 572.123315 325.122849 
L 572.382675 324.215754 
L 573.086654 325.225084 
L 573.531272 323.330167 
L 574.828075 322.395636 
L 575.161538 326.73447 
L 576.940011 324.921626 
L 577.125268 322.590494 
L 577.681041 322.717695 
L 578.088607 327.173695 
L 578.236813 322.579753 
L 578.829637 323.287309 
L 579.311307 324.515875 
L 580.052337 322.508424 
L 580.385801 326.801022 
L 580.682213 327.045203 
L 581.423243 327.389957 
L 582.016067 323.832321 
L 582.757097 323.698151 
L 582.868252 325.974276 
L 583.461076 322.80485 
L 584.461466 323.376765 
L 586.684557 322.285879 
L 587.01802 325.33264 
L 587.055072 324.678331 
L 588.166617 325.663048 
L 588.870596 324.881535 
L 588.98175 321.757744 
L 589.796883 321.388962 
L 591.42715 324.041961 
L 592.205231 322.14308 
L 592.42754 324.588406 
L 592.501643 324.554049 
L 593.279725 324.167346 
L 594.094858 324.875351 
L 595.169352 323.357656 
L 596.873721 326.672988 
L 597.466545 325.229993 
L 600.097202 321.596562 
L 600.690026 323.596675 
L 601.838623 325.100346 
L 602.135035 323.350298 
L 602.913117 323.715983 
L 603.839405 325.564684 
L 604.024662 322.571975 
L 604.506332 324.515038 
L 604.988001 321.537074 
L 605.21031 324.714339 
L 606.766474 322.549928 
L 606.803525 326.877898 
L 606.988783 323.657868 
L 607.544555 327.417869 
L 609.693543 322.967272 
L 610.323418 325.343591 
L 611.323809 323.318162 
L 611.36086 323.651756 
L 611.657273 321.823905 
L 612.101891 321.723167 
L 612.213045 323.579014 
L 612.546509 326.618349 
L 613.102281 322.089123 
L 613.250487 325.050431 
L 613.32459 324.525963 
L 613.880363 323.32298 
L 614.54729 322.693417 
L 615.214217 321.841904 
L 615.76999 321.502683 
L 616.140505 320.592883 
L 616.696277 323.825638 
L 616.733329 325.641426 
L 616.881535 321.85509 
L 617.918977 321.662537 
L 618.882316 326.006138 
L 620.105016 325.219245 
L 620.660789 321.45018 
L 621.994643 323.357663 
L 622.1799 326.59658 
L 623.958373 324.728384 
L 624.106579 326.0812 
L 624.847609 322.544241 
L 626.626081 320.224813 
L 626.663133 323.993801 
L 627.737626 322.065648 
L 629.29379 325.401946 
L 629.886614 325.930702 
L 631.183417 323.553285 
L 631.739189 323.128124 
L 632.035601 323.491614 
L 632.220859 323.280524 
L 632.25791 323.560459 
L 633.48061 323.319798 
L 634.22164 324.601858 
L 634.332795 322.058119 
L 634.814464 324.867207 
L 635.814855 322.84066 
L 636.481782 323.074272 
L 636.741143 321.534818 
L 637.000503 324.811034 
L 637.815636 322.069936 
L 638.593718 323.219768 
L 639.075388 324.575133 
L 639.482954 323.672794 
L 641.224375 321.676187 
L 641.335529 321.681842 
L 641.817199 321.870942 
L 641.965405 321.483565 
L 642.187714 323.262407 
L 643.780929 324.28631 
L 643.81798 323.190813 
L 644.521959 324.743309 
L 644.633114 320.762514 
L 645.003629 326.040949 
L 645.225938 323.114497 
L 645.966968 323.992084 
L 646.041071 325.469143 
L 646.707998 323.60101 
L 647.930698 323.567145 
L 648.560573 322.481177 
L 649.079294 322.271894 
L 649.301603 324.31281 
L 650.561355 324.997952 
L 652.080466 323.546866 
L 653.117909 323.244165 
L 654.118299 323.709514 
L 654.303557 322.28945 
L 654.525866 324.345512 
L 655.378051 324.384306 
L 656.304338 322.755759 
L 656.786008 324.736416 
L 657.008317 321.488851 
L 657.34178 325.200313 
L 657.971656 320.28478 
L 658.416274 322.194537 
L 658.638583 324.822056 
L 659.527819 321.864678 
L 660.417056 324.541342 
L 660.491159 325.597363 
L 660.824622 324.418901 
L 662.677197 324.527026 
L 663.566434 323.189091 
L 663.603485 323.540196 
L 664.418618 321.58623 
L 665.715421 325.563088 
L 665.752473 324.652646 
L 666.715812 322.582986 
L 666.752863 322.735785 
L 667.864408 323.639857 
L 668.457233 323.892323 
L 668.790696 323.283574 
L 668.901851 323.90046 
L 668.975954 325.534151 
L 669.531726 321.849818 
L 669.754035 325.19184 
L 670.495065 323.254555 
L 670.86558 324.420509 
L 670.902632 321.897695 
L 672.162383 325.177147 
L 672.681104 321.52192 
L 672.681104 321.52192 
" clip-path="url(#p42d23c3586)" style="fill: none; stroke: #ff0000; stroke-width: 2; stroke-linecap: square"/>
   </g>
   <g id="line2d_27">
    <path d="M 100.83 343.639023 
L 699.912109 343.639023 
" clip-path="url(#p42d23c3586)" style="fill: none; stroke-dasharray: 7.4,3.2; stroke-dashoffset: 0; stroke: #000000; stroke-width: 2"/>
   </g>
   <g id="line2d_28">
    <path d="M 100.83 327.772076 
L 699.912109 327.772076 
" clip-path="url(#p42d23c3586)" style="fill: none; stroke-dasharray: 7.4,3.2; stroke-dashoffset: 0; stroke: #000000; stroke-width: 2"/>
   </g>
   <g id="patch_3">
    <path d="M 100.83 359.4885 
L 100.83 10.8 
" style="fill: none; stroke: #000000; stroke-width: 0.8; stroke-linejoin: miter; stroke-linecap: square"/>
   </g>
   <g id="patch_4">
    <path d="M 699.912109 359.4885 
L 699.912109 10.8 
" style="fill: none; stroke: #000000; stroke-width: 0.8; stroke-linejoin: miter; stroke-linecap: square"/>
   </g>
   <g id="patch_5">
    <path d="M 100.83 359.4885 
L 699.912109 359.4885 
" style="fill: none; stroke: #000000; stroke-width: 0.8; stroke-linejoin: miter; stroke-linecap: square"/>
   </g>
   <g id="patch_6">
    <path d="M 100.83 10.8 
L 699.912109 10.8 
" style="fill: none; stroke: #000000; stroke-width: 0.8; stroke-linejoin: miter; stroke-linecap: square"/>
   </g>
   <g id="patch_7">
    <path d="M 372.987246 221.834368 
Q 251.419204 282.291563 130.852235 342.250912 
" style="fill: none; stroke: #000000; stroke-linecap: round"/>
    <path d="M 142.479762 342.275946 
L 130.852235 342.250912 
L 137.848779 332.963911 
" style="fill: none; stroke: #000000; stroke-linecap: round"/>
   </g>
   <g id="text_15">
    <!-- 3.3e-04 -->
    <g transform="translate(354.7902 213.538631) scale(0.26 -0.26)">
     <defs>
      <path id="DejaVuSerif-2d" d="M 281 1959 
L 1881 1959 
L 1881 1472 
L 281 1472 
L 281 1959 
z
" transform="scale(0.015625)"/>
     </defs>
     <use xlink:href="#DejaVuSerif-33"/>
     <use xlink:href="#DejaVuSerif-2e" x="63.623047"/>
     <use xlink:href="#DejaVuSerif-33" x="95.410156"/>
     <use xlink:href="#DejaVuSerif-65" x="159.033203"/>
     <use xlink:href="#DejaVuSerif-2d" x="218.212891"/>
     <use xlink:href="#DejaVuSerif-30" x="252.001953"/>
     <use xlink:href="#DejaVuSerif-34" x="315.625"/>
    </g>
   </g>
   <g id="patch_8">
    <path d="M 382.309802 143.905077 
Q 255.994285 235.253612 130.584724 325.946979 
" style="fill: none; stroke: #000000; stroke-linecap: round"/>
    <path d="M 142.059161 324.066208 
L 130.584724 325.946979 
L 135.96477 315.638967 
" style="fill: none; stroke: #000000; stroke-linecap: round"/>
   </g>
   <g id="text_16">
    <!-- 2.9e-03 -->
    <g transform="translate(354.7902 135.325083) scale(0.26 -0.26)">
     <use xlink:href="#DejaVuSerif-32"/>
     <use xlink:href="#DejaVuSerif-2e" x="63.623047"/>
     <use xlink:href="#DejaVuSerif-39" x="95.410156"/>
     <use xlink:href="#DejaVuSerif-65" x="159.033203"/>
     <use xlink:href="#DejaVuSerif-2d" x="218.212891"/>
     <use xlink:href="#DejaVuSerif-30" x="252.001953"/>
     <use xlink:href="#DejaVuSerif-33" x="315.625"/>
    </g>
   </g>
   <g id="legend_1">
    <g id="line2d_29">
     <path d="M 456.263672 49.02 
L 488.763672 49.02 
L 521.263672 49.02 
" style="fill: none; stroke: #0000ff; stroke-width: 2; stroke-linecap: square"/>
    </g>
    <g id="text_17">
     <!-- Training -->
     <g transform="translate(542.063672 61.24) scale(0.26 -0.26)">
      <defs>
       <path id="DejaVuSerif-54" d="M 1222 0 
L 1222 331 
L 1819 331 
L 1819 4294 
L 447 4294 
L 447 3566 
L 63 3566 
L 63 4666 
L 4206 4666 
L 4206 3566 
L 3822 3566 
L 3822 4294 
L 2450 4294 
L 2450 331 
L 3047 331 
L 3047 0 
L 1222 0 
z
" transform="scale(0.015625)"/>
       <path id="DejaVuSerif-67" d="M 3359 2988 
L 3359 72 
Q 3359 -644 2965 -1033 
Q 2572 -1422 1844 -1422 
Q 1516 -1422 1216 -1362 
Q 916 -1303 641 -1184 
L 641 -488 
L 941 -488 
Q 997 -813 1206 -963 
Q 1416 -1113 1806 -1113 
Q 2313 -1113 2548 -827 
Q 2784 -541 2784 72 
L 2784 519 
Q 2616 206 2355 57 
Q 2094 -91 1709 -91 
Q 1097 -91 708 395 
Q 319 881 319 1663 
Q 319 2444 706 2928 
Q 1094 3413 1709 3413 
Q 2094 3413 2355 3264 
Q 2616 3116 2784 2803 
L 2784 3322 
L 3909 3322 
L 3909 2988 
L 3359 2988 
z
M 2784 1825 
Q 2784 2422 2554 2737 
Q 2325 3053 1888 3053 
Q 1444 3053 1217 2703 
Q 991 2353 991 1663 
Q 991 975 1217 622 
Q 1444 269 1888 269 
Q 2325 269 2554 583 
Q 2784 897 2784 1497 
L 2784 1825 
z
" transform="scale(0.015625)"/>
      </defs>
      <use xlink:href="#DejaVuSerif-54"/>
      <use xlink:href="#DejaVuSerif-72" x="66.699219"/>
      <use xlink:href="#DejaVuSerif-61" x="114.501953"/>
      <use xlink:href="#DejaVuSerif-69" x="174.121094"/>
      <use xlink:href="#DejaVuSerif-6e" x="206.103516"/>
      <use xlink:href="#DejaVuSerif-69" x="270.507812"/>
      <use xlink:href="#DejaVuSerif-6e" x="302.490234"/>
      <use xlink:href="#DejaVuSerif-67" x="366.894531"/>
     </g>
    </g>
    <g id="line2d_30">
     <path d="M 456.263672 93.74 
L 488.763672 93.74 
L 521.263672 93.74 
" style="fill: none; stroke: #ff0000; stroke-width: 2; stroke-linecap: square"/>
    </g>
    <g id="text_18">
     <!-- Validation -->
     <g transform="translate(542.063672 105.96) scale(0.26 -0.26)">
      <defs>
       <path id="DejaVuSerif-56" d="M 1119 4331 
L 2497 750 
L 3872 4331 
L 3347 4331 
L 3347 4666 
L 4716 4666 
L 4716 4331 
L 4263 4331 
L 2597 0 
L 2059 0 
L 403 4331 
L -63 4331 
L -63 4666 
L 1638 4666 
L 1638 4331 
L 1119 4331 
z
" transform="scale(0.015625)"/>
       <path id="DejaVuSerif-6c" d="M 1313 331 
L 1856 331 
L 1856 0 
L 184 0 
L 184 331 
L 738 331 
L 738 4531 
L 184 4531 
L 184 4863 
L 1313 4863 
L 1313 331 
z
" transform="scale(0.015625)"/>
       <path id="DejaVuSerif-64" d="M 3359 331 
L 3909 331 
L 3909 0 
L 2784 0 
L 2784 519 
Q 2616 206 2355 57 
Q 2094 -91 1709 -91 
Q 1097 -91 708 395 
Q 319 881 319 1663 
Q 319 2444 706 2928 
Q 1094 3413 1709 3413 
Q 2094 3413 2355 3264 
Q 2616 3116 2784 2803 
L 2784 4531 
L 2241 4531 
L 2241 4863 
L 3359 4863 
L 3359 331 
z
M 2784 1497 
L 2784 1825 
Q 2784 2422 2554 2737 
Q 2325 3053 1888 3053 
Q 1444 3053 1217 2703 
Q 991 2353 991 1663 
Q 991 975 1217 622 
Q 1444 269 1888 269 
Q 2325 269 2554 583 
Q 2784 897 2784 1497 
z
" transform="scale(0.015625)"/>
      </defs>
      <use xlink:href="#DejaVuSerif-56"/>
      <use xlink:href="#DejaVuSerif-61" x="63.091797"/>
      <use xlink:href="#DejaVuSerif-6c" x="122.710938"/>
      <use xlink:href="#DejaVuSerif-69" x="154.693359"/>
      <use xlink:href="#DejaVuSerif-64" x="186.675781"/>
      <use xlink:href="#DejaVuSerif-61" x="250.689453"/>
      <use xlink:href="#DejaVuSerif-74" x="310.308594"/>
      <use xlink:href="#DejaVuSerif-69" x="350.494141"/>
      <use xlink:href="#DejaVuSerif-6f" x="382.476562"/>
      <use xlink:href="#DejaVuSerif-6e" x="442.681641"/>
     </g>
    </g>
   </g>
  </g>
 </g>
 <defs>
  <clipPath id="p42d23c3586">
   <rect x="100.83" y="10.8" width="599.082109" height="348.6885"/>
  </clipPath>
 </defs>
</svg>
